<svg id="Layer_1" data-name="Layer 1" xmlns="http://www.w3.org/2000/svg" viewBox="0 0 162 120"><defs><style>.cls-1,.cls-2,.cls-3,.cls-4{fill:none;}.cls-2,.cls-3{stroke:#515251;}.cls-2,.cls-3,.cls-4{stroke-miterlimit:10;}.cls-2{stroke-width:2px;}.cls-3{stroke-width:1.58px;}.cls-4{stroke:#a4a4a3;stroke-width:0.5px;}.cls-5{fill:#515351;}</style></defs><title>1</title><rect class="cls-1" width="162" height="120"/><line class="cls-2" x1="33.99" y1="22.77" x2="63.19" y2="22.77"/><line class="cls-3" x1="10.64" y1="7.72" x2="28.89" y2="7.72"/><line class="cls-3" x1="39.46" y1="7.72" x2="57.72" y2="7.72"/><line class="cls-3" x1="71.72" y1="7.72" x2="89.97" y2="7.72"/><line class="cls-3" x1="99.56" y1="7.72" x2="117.82" y2="7.72"/><line class="cls-3" x1="126.81" y1="7.72" x2="145.06" y2="7.72"/><line class="cls-2" x1="71.41" y1="22.77" x2="90.59" y2="22.77"/><line class="cls-2" x1="99.25" y1="22.77" x2="118.43" y2="22.77"/><line class="cls-2" x1="126.5" y1="22.77" x2="145.68" y2="22.77"/><line class="cls-4" x1="8.1" y1="30.78" x2="154.21" y2="30.78"/><line class="cls-4" x1="6.22" y1="14.76" x2="152.34" y2="14.76"/><rect class="cls-5" x="11.83" y="19.03" width="16.19" height="7.49" rx="1.01"/><line class="cls-2" x1="33.83" y1="38.79" x2="63.04" y2="38.79"/><line class="cls-2" x1="71.26" y1="38.79" x2="90.44" y2="38.79"/><line class="cls-2" x1="99.1" y1="38.79" x2="118.28" y2="38.79"/><line class="cls-2" x1="126.35" y1="38.79" x2="145.53" y2="38.79"/><line class="cls-4" x1="7.94" y1="46.8" x2="154.06" y2="46.8"/><rect class="cls-5" x="11.68" y="35.05" width="16.19" height="7.49" rx="1.01"/><line class="cls-2" x1="33.99" y1="54.81" x2="63.19" y2="54.81"/><line class="cls-2" x1="71.41" y1="54.81" x2="90.59" y2="54.81"/><line class="cls-2" x1="99.25" y1="54.81" x2="118.43" y2="54.81"/><line class="cls-2" x1="126.5" y1="54.81" x2="145.68" y2="54.81"/><line class="cls-4" x1="8.1" y1="62.82" x2="154.21" y2="62.82"/><rect class="cls-5" x="11.83" y="51.07" width="16.19" height="7.49" rx="1.01"/><line class="cls-2" x1="33.83" y1="70.83" x2="63.04" y2="70.83"/><line class="cls-2" x1="71.26" y1="70.83" x2="90.44" y2="70.83"/><line class="cls-2" x1="99.1" y1="70.83" x2="118.28" y2="70.83"/><line class="cls-2" x1="126.35" y1="70.83" x2="145.53" y2="70.83"/><line class="cls-4" x1="7.94" y1="78.84" x2="154.06" y2="78.84"/><rect class="cls-5" x="11.68" y="67.08" width="16.19" height="7.49" rx="1.01"/><line class="cls-2" x1="33.99" y1="86.85" x2="63.19" y2="86.85"/><line class="cls-2" x1="71.41" y1="86.85" x2="90.59" y2="86.85"/><line class="cls-2" x1="99.25" y1="86.85" x2="118.43" y2="86.85"/><line class="cls-2" x1="126.5" y1="86.85" x2="145.68" y2="86.85"/><line class="cls-4" x1="8.1" y1="94.85" x2="154.21" y2="94.85"/><rect class="cls-5" x="11.83" y="83.1" width="16.19" height="7.49" rx="1.01"/><line class="cls-2" x1="33.99" y1="102.86" x2="63.19" y2="102.86"/><line class="cls-2" x1="71.41" y1="102.86" x2="90.59" y2="102.86"/><line class="cls-2" x1="99.25" y1="102.86" x2="118.43" y2="102.86"/><line class="cls-2" x1="126.5" y1="102.86" x2="145.68" y2="102.86"/><line class="cls-4" x1="8.1" y1="110.87" x2="154.21" y2="110.87"/><rect class="cls-5" x="11.83" y="99.12" width="16.19" height="7.49" rx="1.01"/></svg>