<svg id="Layer_1" data-name="Layer 1" xmlns="http://www.w3.org/2000/svg" viewBox="0 0 162 120"><defs><style>.cls-1,.cls-2,.cls-3,.cls-5,.cls-6{fill:none;}.cls-2,.cls-5{stroke:#515251;}.cls-2,.cls-3,.cls-5,.cls-6{stroke-miterlimit:10;}.cls-2{stroke-width:2px;}.cls-3,.cls-6{stroke:#a4a4a3;}.cls-3{stroke-width:0.52px;}.cls-4{fill:#515351;}.cls-5{stroke-width:1.58px;}.cls-6{stroke-width:0.5px;}</style></defs><title>3</title><rect class="cls-1" width="162" height="120"/><line class="cls-2" x1="37.29" y1="25.44" x2="66.5" y2="25.44"/><line class="cls-2" x1="74.71" y1="25.44" x2="93.89" y2="25.44"/><line class="cls-2" x1="102.56" y1="25.44" x2="121.74" y2="25.44"/><line class="cls-2" x1="129.8" y1="25.44" x2="148.98" y2="25.44"/><line class="cls-3" x1="33.12" y1="7.28" x2="33.12" y2="112.49"/><line class="cls-3" x1="70.53" y1="7.28" x2="70.53" y2="112.49"/><line class="cls-3" x1="98.15" y1="7.28" x2="98.15" y2="112.49"/><line class="cls-3" x1="125.69" y1="7.28" x2="125.69" y2="112.49"/><rect class="cls-4" x="12.86" y="21.69" width="16.19" height="7.49" rx="1.01"/><line class="cls-2" x1="37.13" y1="41.45" x2="66.34" y2="41.45"/><line class="cls-2" x1="74.56" y1="41.45" x2="93.74" y2="41.45"/><line class="cls-2" x1="102.4" y1="41.45" x2="121.58" y2="41.45"/><line class="cls-2" x1="129.65" y1="41.45" x2="148.83" y2="41.45"/><rect class="cls-4" x="12.71" y="37.71" width="16.19" height="7.49" rx="1.01"/><line class="cls-2" x1="37.29" y1="57.47" x2="66.5" y2="57.47"/><line class="cls-2" x1="74.71" y1="57.47" x2="93.89" y2="57.47"/><line class="cls-2" x1="102.56" y1="57.47" x2="121.74" y2="57.47"/><line class="cls-2" x1="129.8" y1="57.47" x2="148.98" y2="57.47"/><rect class="cls-4" x="12.86" y="53.73" width="16.19" height="7.49" rx="1.01"/><line class="cls-2" x1="37.13" y1="73.49" x2="66.34" y2="73.49"/><line class="cls-2" x1="74.56" y1="73.49" x2="93.74" y2="73.49"/><line class="cls-2" x1="102.4" y1="73.49" x2="121.58" y2="73.49"/><line class="cls-2" x1="129.65" y1="73.49" x2="148.83" y2="73.49"/><rect class="cls-4" x="12.71" y="69.75" width="16.19" height="7.49" rx="1.01"/><line class="cls-2" x1="37.29" y1="89.51" x2="66.5" y2="89.51"/><line class="cls-2" x1="74.71" y1="89.51" x2="93.89" y2="89.51"/><line class="cls-2" x1="102.56" y1="89.51" x2="121.74" y2="89.51"/><line class="cls-2" x1="129.8" y1="89.51" x2="148.98" y2="89.51"/><rect class="cls-4" x="12.86" y="85.76" width="16.19" height="7.49" rx="1.01"/><line class="cls-2" x1="37.29" y1="105.53" x2="66.5" y2="105.53"/><line class="cls-2" x1="74.71" y1="105.53" x2="93.89" y2="105.53"/><line class="cls-2" x1="102.56" y1="105.53" x2="121.74" y2="105.53"/><line class="cls-2" x1="129.8" y1="105.53" x2="148.98" y2="105.53"/><rect class="cls-4" x="12.86" y="101.78" width="16.19" height="7.49" rx="1.01"/><line class="cls-5" x1="11.37" y1="11.26" x2="29.62" y2="11.26"/><line class="cls-5" x1="42.19" y1="11.26" x2="60.44" y2="11.26"/><line class="cls-5" x1="75.44" y1="11.26" x2="93.69" y2="11.26"/><line class="cls-5" x1="102.29" y1="11.26" x2="120.54" y2="11.26"/><line class="cls-5" x1="130.53" y1="11.26" x2="148.78" y2="11.26"/><line class="cls-6" x1="8.95" y1="16.3" x2="155.06" y2="16.3"/></svg>