<svg id="Layer_1" data-name="Layer 1" xmlns="http://www.w3.org/2000/svg" viewBox="0 0 162 120"><defs><style>.cls-1,.cls-4,.cls-5,.cls-7{fill:none;}.cls-2{fill:#eae8e8;}.cls-3{fill:#dcdbdb;}.cls-4,.cls-7{stroke:#515251;}.cls-4,.cls-5,.cls-7{stroke-miterlimit:10;}.cls-4{stroke-width:2px;}.cls-5{stroke:#a4a4a3;stroke-width:0.5px;}.cls-6{fill:#515351;}.cls-7{stroke-width:1.58px;}</style></defs><title>4</title><rect class="cls-1" width="162" height="120"/><rect class="cls-2" x="30.42" y="16.64" width="36.52" height="96.51"/><rect class="cls-3" x="7.59" y="3.87" width="145.96" height="12.77"/><rect class="cls-2" x="95.36" y="16.64" width="26.72" height="96.77"/><line class="cls-4" x1="33.72" y1="25.31" x2="62.92" y2="25.31"/><line class="cls-4" x1="71.14" y1="25.31" x2="90.32" y2="25.31"/><line class="cls-4" x1="98.98" y1="25.31" x2="118.16" y2="25.31"/><line class="cls-4" x1="126.23" y1="25.31" x2="145.41" y2="25.31"/><line class="cls-5" x1="7.83" y1="33.32" x2="153.94" y2="33.32"/><rect class="cls-6" x="11.56" y="21.56" width="16.19" height="7.49" rx="1.01"/><line class="cls-4" x1="33.56" y1="41.32" x2="62.77" y2="41.32"/><line class="cls-4" x1="70.99" y1="41.32" x2="90.17" y2="41.32"/><line class="cls-4" x1="98.83" y1="41.32" x2="118.01" y2="41.32"/><line class="cls-4" x1="126.08" y1="41.32" x2="145.26" y2="41.32"/><line class="cls-5" x1="7.67" y1="49.33" x2="153.79" y2="49.33"/><rect class="cls-6" x="11.41" y="37.58" width="16.19" height="7.49" rx="1.01"/><line class="cls-4" x1="33.72" y1="57.34" x2="62.92" y2="57.34"/><line class="cls-4" x1="71.14" y1="57.34" x2="90.32" y2="57.34"/><line class="cls-4" x1="98.98" y1="57.34" x2="118.16" y2="57.34"/><line class="cls-4" x1="126.23" y1="57.34" x2="145.41" y2="57.34"/><line class="cls-5" x1="7.83" y1="65.35" x2="153.94" y2="65.35"/><rect class="cls-6" x="11.56" y="53.6" width="16.19" height="7.49" rx="1.01"/><line class="cls-4" x1="33.56" y1="73.36" x2="62.77" y2="73.36"/><line class="cls-4" x1="70.99" y1="73.36" x2="90.17" y2="73.36"/><line class="cls-4" x1="98.83" y1="73.36" x2="118.01" y2="73.36"/><line class="cls-4" x1="126.08" y1="73.36" x2="145.26" y2="73.36"/><line class="cls-5" x1="7.67" y1="81.37" x2="153.79" y2="81.37"/><rect class="cls-6" x="11.41" y="69.62" width="16.19" height="7.49" rx="1.01"/><line class="cls-4" x1="33.72" y1="89.38" x2="62.92" y2="89.38"/><line class="cls-4" x1="71.14" y1="89.38" x2="90.32" y2="89.38"/><line class="cls-4" x1="98.98" y1="89.38" x2="118.16" y2="89.38"/><line class="cls-4" x1="126.23" y1="89.38" x2="145.41" y2="89.38"/><line class="cls-5" x1="7.83" y1="97.39" x2="153.94" y2="97.39"/><rect class="cls-6" x="11.56" y="85.64" width="16.19" height="7.49" rx="1.01"/><line class="cls-4" x1="33.72" y1="105.4" x2="62.92" y2="105.4"/><line class="cls-4" x1="71.14" y1="105.4" x2="90.32" y2="105.4"/><line class="cls-4" x1="98.98" y1="105.4" x2="118.16" y2="105.4"/><line class="cls-4" x1="126.23" y1="105.4" x2="145.41" y2="105.4"/><line class="cls-5" x1="7.83" y1="113.41" x2="153.94" y2="113.41"/><rect class="cls-6" x="11.56" y="101.65" width="16.19" height="7.49" rx="1.01"/><line class="cls-7" x1="12.17" y1="10.6" x2="30.42" y2="10.6"/><line class="cls-7" x1="40.99" y1="10.6" x2="59.24" y2="10.6"/><line class="cls-7" x1="73.25" y1="10.6" x2="91.5" y2="10.6"/><line class="cls-7" x1="101.09" y1="10.6" x2="119.34" y2="10.6"/><line class="cls-7" x1="128.34" y1="10.6" x2="146.59" y2="10.6"/><line class="cls-5" x1="7.75" y1="16.64" x2="153.87" y2="16.64"/></svg>