<svg id="Layer_1" data-name="Layer 1" xmlns="http://www.w3.org/2000/svg" viewBox="0 0 151.66 89.12"><defs><style>.cls-1{fill:#dfdede;}.cls-2{fill:#999;}</style></defs><title>1</title><path class="cls-1" d="M0,0H130.18a21.49,21.49,0,0,1,21.49,21.49V89.12a0,0,0,0,1,0,0H21.49A21.49,21.49,0,0,1,0,67.63V0A0,0,0,0,1,0,0Z"/><path class="cls-2" d="M6.44,9.9H50.89a11,11,0,0,1,11,11V73.25a0,0,0,0,1,0,0H17.39a11,11,0,0,1-11-11V9.9A0,0,0,0,1,6.44,9.9Z"/><rect class="cls-2" x="73.37" y="17.57" width="56.44" height="8.68"/><rect class="cls-2" x="73.37" y="32.89" width="56.44" height="8.68"/></svg>