<?xml version="1.0" encoding="UTF-8"?>
<svg id="Layer_1" data-name="Layer 1" xmlns="http://www.w3.org/2000/svg" viewBox="0 0 110 90">
  <defs>
    <style>
      .cls-1 {
        fill: #393939;
      }

      .cls-2 {
        fill: none;
      }
    </style>
  </defs>
  <rect class="cls-2" width="110" height="90"/>
  <path class="cls-1" d="m107.32,40.63c0-4.66,0-9.31-.01-13.97,0-1.34-.74-2.38-2.02-2.8-.46-.15-.99-.17-1.49-.17-4.06-.01-8.12,0-12.18,0-1.03,0-2.05,0-3.08,0-.11,0-.27-.03-.34-.11-.4-.45-.78-.94-1.18-1.39-1.4-1.58-2.8-3.16-4.22-4.72-1.56-1.71-3.43-3.01-5.48-4.06-.64-.33-1.37-.52-2.07-.71-.7-.2-1.42-.39-2.14-.47-.97-.11-1.95-.13-2.93-.13-2.55-.01-5.1,0-7.65.02-.41,0-.84.02-1.24.1-.71.14-1.43.31-2.13.51-.61.17-1.23.35-1.79.62-.71.34-1.38.77-2.06,1.18-.19.12-.31.1-.49,0-1.27-.74-2.52-1.53-3.98-1.86-.33-.07-.67-.1-.99-.2-.92-.29-1.87-.38-2.81-.36-2.76.07-5.53-.23-8.28.18-.58.09-1.15.22-1.69.41-.84.29-1.65.66-2.44,1.06-.79.39-1.63.77-2.31,1.31-1.34,1.07-2.62,2.23-3.87,3.42-1.22,1.16-2.36,2.39-3.54,3.58-.1.1-.28.2-.42.2-3.41.01-6.82.01-10.23.01-2.75,0-5.5,0-8.26,0-.73,0-1.46.06-2.06.55-.7.56-1.22,1.24-1.23,2.2,0,.62-.02,1.24-.02,1.86,0,4.46,0,8.92,0,13.39h0c0,.14,0,.27,0,.41,0,2.74-.01,5.48,0,8.22,0,2.2,0,4.39.04,6.59,0,.46.1.97.31,1.37.6,1.11,1.55,1.71,2.85,1.71,5.24,0,10.49,0,15.73,0,.16,0,.36.08.48.19.99.94,1.96,1.9,2.93,2.86,1.93,1.9,3.84,3.83,5.8,5.7,1.96,1.89,3.93,3.77,5.95,5.58,2.65,2.36,5.76,3.88,9.18,4.78.47.12.98.14,1.46.22,1.77.31,3.52.24,5.27-.21,1.14-.29,2.24-.68,3.29-1.2.22-.11.47-.22.7-.21,2.35.08,4.53-.49,6.57-1.62,1.29-.71,2.42-1.63,3.38-2.76.2-.24.43-.42.74-.53.8-.26,1.61-.51,2.36-.87,2.14-1.01,3.83-2.57,5.26-4.42.22-.29.46-.45.83-.51,1.05-.17,2.07-.48,3.04-.95,2.57-1.25,4.5-3.12,5.67-5.74.12-.27.27-.32.53-.32,2.82,0,5.64,0,8.46,0,3.53,0,7.06,0,10.58,0,.32,0,.66.03.95-.08,1.34-.48,2.29-1.41,2.28-3.15-.03-4.89,0-9.78,0-14.66ZM11.36,52.72c-1.9-.03-2.88-1.47-2.88-2.82,0-1.89,1.22-3.05,3.05-2.99,1.81.04,2.79,1.37,2.74,3.1-.05,1.55-1.13,2.74-2.91,2.71Zm68.33,1.98c-.14,1.48-.75,2.74-1.87,3.71-.72.63-1.57,1.06-2.51,1.33-1.04.3-2.08.25-3.13.17-.22-.02-.42-.17-.65-.26-.03.08-.06.15-.07.22-.07,1.08-.58,1.97-1.19,2.82-.88,1.22-1.98,2.17-3.37,2.75-.98.41-2.02.59-3.09.52-.3-.02-.45.06-.55.36-.56,1.63-1.73,2.74-3.2,3.5-.6.31-1.25.54-1.97.62-.75.08-1.47.06-2.2-.06-.04,0-.08,0-.11-.02-.58-.32-.99-.02-1.43.35-.64.54-1.39.9-2.21,1.15-1.32.4-2.66.51-4.01.34-1.25-.15-2.46-.48-3.61-1.02-2.25-1.05-4.13-2.59-5.89-4.33-4.15-4.11-8.33-8.18-12.5-12.27-.62-.61-1.27-1.14-2.08-1.5-.64-.29-1.29-.31-1.96-.34-.57-.03-1.14-.02-1.71,0-.23,0-.29-.07-.29-.3,0-7.84,0-15.68.01-23.52,0-.15,0-.31,0-.46,0-.4,0-.41.42-.41,2.05,0,4.11,0,6.16,0,.3,0,.52-.08.74-.3,2.22-2.23,4.44-4.46,6.69-6.66.57-.56,1.17-1.12,1.85-1.54.77-.47,1.62-.82,2.46-1.17,1.18-.49,2.44-.49,3.69-.5,1.54,0,3.08-.04,4.62-.03,1.13.01,2.22.28,3.28.65.02,0,.04.01.06.02q.77.27.25.87c-1.88,2.19-3.76,4.37-5.63,6.56-.89,1.05-1.8,2.1-2.62,3.21-1.02,1.36-1.64,2.89-1.85,4.6-.22,1.78-.08,3.52.52,5.2.73,2.05,1.99,3.75,3.67,5.14,1.14.95,2.38,1.74,3.82,2.15,1.82.52,3.65.81,5.56.56,3.27-.43,5.86-2.02,8-4.47,1.72-1.96,3.48-3.88,5.22-5.82.04-.05.1-.09.17-.17,1.06,1.17,2.13,2.27,3.11,3.45,1.62,1.95,3.19,3.94,4.76,5.93,1.1,1.39,2.15,2.82,3.24,4.21,1.09,1.4,1.58,2.97,1.41,4.74Zm10.22-22.05c0,5.06-.01,10.12-.02,15.18,0,1.54,0,3.08,0,4.62,0,.19-.04.28-.25.27-1.27,0-2.54,0-3.81,0-.24,0-.34-.07-.37-.31-.28-2.03-1.07-3.85-2.28-5.48-1.37-1.85-2.77-3.68-4.16-5.52-1.91-2.53-3.92-4.97-6.09-7.28-.64-.68-1.23-1.39-1.85-2.08-.17-.18-.2-.37-.15-.61.38-1.64-.88-3.09-2.18-3.33-1.19-.22-2.17.2-2.97,1.07-.82.89-1.6,1.81-2.41,2.71-1.76,1.99-3.52,3.99-5.29,5.97-.59.65-1.18,1.32-1.84,1.89-1.23,1.06-2.72,1.42-4.32,1.34-1.4-.07-2.68-.51-3.78-1.38-1.14-.91-2-2.02-2.21-3.53-.19-1.4,0-2.72.89-3.85.94-1.19,1.95-2.33,2.94-3.49,2.31-2.7,4.63-5.39,6.96-8.07,1.33-1.53,3-2.49,5.02-2.8.5-.08,1-.09,1.51-.1,2.65,0,5.29,0,7.94,0,2.32,0,4.34.8,6.15,2.24.85.68,1.52,1.51,2.23,2.32,2.02,2.3,4.03,4.6,6.05,6.9.08.09.25.15.37.15,1.16.01,2.33,0,3.49,0,.14,0,.28.02.44.03,0,1.09,0,2.11,0,3.14Zm8.76,20.07c-1.85,0-2.93-1.27-2.96-2.76-.03-1.85.99-3.01,2.9-3.05,1.83-.04,2.85,1.21,2.9,2.99-.02,1.48-1.01,2.83-2.84,2.83Z"/>
</svg>