<svg id="Layer_1" data-name="Layer 1" xmlns="http://www.w3.org/2000/svg" viewBox="0 0 110 90"><defs><style>.cls-1{fill:none;}.cls-2{fill:#393939;}</style></defs><title>regular</title><rect class="cls-1" width="110" height="90"/><path class="cls-2" d="M107.3,27.16c0-2.38-.76-3-3.2-3.05-4.33,0-8.68-.26-13,.07S84,23.13,81,20.31c-9.86-9.19-23.73-8.92-33.61.33q-5.27,4.93-10.5,9.91a11.81,11.81,0,0,0-4.07,8.65c0,4.79,2.09,8.56,6.42,10.69a11.06,11.06,0,0,0,12.56-1.31c1.89-1.53,3.67-3.21,5.43-4.9.82-.8,1.36-.85,2.2,0,3.71,3.79,7.5,7.49,11.23,11.27,1.73,1.75,1.87,3.69.53,5.45C70,62,68,62.3,65.87,61.29c-3.42-1.64-5.7-.49-6.31,3.23a5,5,0,0,1-3.49,4.06,4.47,4.47,0,0,1-4.81-1.17c-.55-.53-1.07-1.11-1.63-1.62a4,4,0,0,0-6.49,1c-1.34,2.33-2.91,2.6-4.83.75-2.25-2.19-4.49-4.39-6.66-6.66-3.72-3.91-7.48-7.73-13.25-8.4a3.45,3.45,0,0,1-.21-2q0-8.24,0-16.46c0-.67-.23-1.39.23-2a7.2,7.2,0,0,1,1.64-.23,11.4,11.4,0,0,0,9-3.56c2.73-2.69,5.6-5.26,9.47-6.29a2.11,2.11,0,0,0,.84-.6c2.13-2.11,4.24-4.23,6.36-6.35.28-.28.76-.55.62-1s-.82-.41-1.27-.42a30.56,30.56,0,0,0-8.87,1.14c-4.78,1.34-8.62,4.19-12.06,7.61a5.87,5.87,0,0,1-4.64,1.83c-4.53-.13-9.07,0-13.6-.07a3.22,3.22,0,0,0-3,1.44,2.86,2.86,0,0,0-.22,1.63q0,16.8,0,33.59a2.56,2.56,0,0,0,.24,1.61,5.39,5.39,0,0,0,4.83,3.43c1.82.07,3.64.09,5.45,0,2.67-.14,4.17-1.34,4.87-4,.31-1.21.88-1.19,1.79-.91a5.12,5.12,0,0,1,2,1.42c3.59,3.6,7.18,7.22,10.81,10.79,4.05,4,8.58,4.6,13.31,1.78a2.12,2.12,0,0,1,2.46,0A12.24,12.24,0,0,0,64.92,71,3.3,3.3,0,0,1,68,69.54a10.66,10.66,0,0,0,9.51-5.07,2.63,2.63,0,0,1,2.58-1.33c2.86.07,5.72,0,8.58,0,1.92,0,3.91-.38,5.3,1.58.3.43,1.09.56,1.69.74,2,.62,4.16.31,6.24.28,3.38,0,5.35-2,5.36-5.35Q107.37,43.79,107.3,27.16ZM10.7,60.6A2.48,2.48,0,0,1,7.88,58a2.4,2.4,0,0,1,2.61-2.61c1.71,0,2.56.85,2.73,2.59C13.08,59.41,12.47,60.53,10.7,60.6Zm81-23.09c.09,2,0,4,0,6.06,0,3.28-.1,6.56,0,9.83.08,1.72-.53,2.11-2.13,2-2.86-.12-5.72-.07-8.58,0-1.12,0-1.78-.18-2.11-1.41a10.3,10.3,0,0,0-3-4.67c-3.57-3.52-7.09-7.1-10.67-10.62-.78-.77-1.11-1.32-.43-2.45a3.45,3.45,0,0,0-1-4.81,3.62,3.62,0,0,0-5,.31c-3.76,3.43-7.43,6.95-11.18,10.39a4.3,4.3,0,0,1-6.58-.45,4,4,0,0,1,.77-5.29c3.83-3.66,7.63-7.35,11.58-10.88a16.34,16.34,0,0,1,21.92-.12c1.53,1.32,3.12,2.6,4.51,4.05A7.35,7.35,0,0,0,86,31.81c1.79-.1,4.12-.8,5.27.31S91.64,35.67,91.71,37.51ZM99.55,60.6a2.62,2.62,0,1,1,.11-5.23A2.34,2.34,0,0,1,102.19,58,2.39,2.39,0,0,1,99.55,60.6Z"/></svg>