<svg id="Layer_1" data-name="Layer 1" xmlns="http://www.w3.org/2000/svg" viewBox="0 0 110 90"><defs><style>.cls-1{fill:none;}.cls-2{fill:#393939;}</style></defs><title>light</title><rect class="cls-1" width="110" height="90"/><path class="cls-2" d="M26.22,24.6c-.58-2.22.68-3.44,2.17-4.78,4.64-4.19,9.84-7,16.19-7.36.6,0,1.4-.4,1.7.24s-.53,1-1,1.43c-2.17,2-4.22,4-7.23,5.06C34.5,20.41,32,23.55,29,25.81c-.79.59-1.48,2-2.49,1.47S26.45,25.49,26.22,24.6Zm81,37.44c-.06,4.87-3.34,7.66-8.29,7.78-3.63.1-6.86-.49-8.78-4a9.17,9.17,0,0,1-1-5.06c.08-1.16-.33-1.69-1.53-1.6a12.61,12.61,0,0,1-2.3,0c-3-.36-5,.15-6.32,3.5-1.51,3.74-5.12,5.39-9.24,5.27a2.25,2.25,0,0,0-2.47,1.29c-3.17,5.71-8.86,7.33-14.63,4.2a2,2,0,0,0-2.43.14C45,77,40,76.41,35.64,72q-4.92-4.86-9.86-9.7A14.62,14.62,0,0,0,24.22,61c-.9-.66-1.93-1.56-3-1.09-.85.38-.36,1.65-.45,2.51-.5,4.69-3.45,7.39-8.23,7.44-1.89,0-3.78.08-5.53-.82A7.65,7.65,0,0,1,2.7,61.66c-.05-5.59,0-11.18,0-16.77s0-10.89,0-16.34c0-3.76,1.9-5.63,5.68-5.64,3.49,0,7,.11,10.48-.05,1.8-.09,2,.61,2,2.15-.06,9,0,18-.05,27,0,1.53.2,2.41,2,2.7a11.18,11.18,0,0,1,5.89,3.42L39,68.31c3.5,3.46,7,3.2,9.84-.73,1.24-1.68,2.95-1.77,4.62-.16,1.17,1.13,2.32,2.21,4.07,2.33a5.21,5.21,0,0,0,5.8-4.53c.68-3.72,1.31-4.08,4.82-2.8a5.44,5.44,0,0,0,6.36-1.85,4.67,4.67,0,0,0-.41-6.49c-4.39-4.6-8.93-9.06-13.38-13.59-.78-.79-1.35-.68-2.11,0-2,1.88-4,3.71-6,5.53-6.45,5.77-16.07,3.14-18.14-5a10.44,10.44,0,0,1,3.14-10.7c4.24-4.05,8.48-8.11,12.75-12.12A21.08,21.08,0,0,1,77.94,17a20.52,20.52,0,0,0,2.59,2.12c3,1.66,3.64,4.29,3.19,7.4,0,.39.16.89-.28,1.13s-.79-.17-1.1-.42c-2.33-1.89-4.67-3.77-7-5.7a16,16,0,0,0-21.86.62q-6.07,5.76-12.14,11.55c-2.73,2.61-3,6-.61,8.55s5.57,2.64,8.36.13c4-3.54,7.82-7.17,11.72-10.77,1.1-1,2.24-1.73,3.7-.66a2.49,2.49,0,0,1,0,4.12c-1.18,1-.78,1.43,0,2.23,3.83,3.77,7.63,7.59,11.43,11.39,1,1,2.32,2,2.81,3.34.72,2,2.09,2.36,3.92,2.17,2.06-.2,4.74.88,6-.47s.32-3.87.32-5.88c0-7.62.06-15.23,0-22.85,0-1.55.24-2.2,2-2.12,3.62.16,7.26,0,10.9.05,3.22,0,5.24,1.79,5.26,5C107.33,39.26,107.38,50.65,107.24,62ZM15.7,29.74c0-.72.46-1.9-.95-1.84-2.34.1-4.71-.38-7,.28a2.37,2.37,0,0,0-.19,1.41q0,15.84,0,31.68a2.39,2.39,0,0,0,.19,1.42c1,2.69,3.28,2.14,5.31,2.09A2.54,2.54,0,0,0,15.71,62c0-1.32,0-2.65,0-4C15.72,48.57,15.73,39.16,15.7,29.74ZM100,27.85a30.62,30.62,0,0,1-4.39,0c-1.11-.05-1.46.43-1.46,1.48q0,16.24,0,32.48a2.72,2.72,0,0,0,1.45,2.59c3.34,1.84,6.67,0,6.7-3.72,0-5.09,0-10.19,0-15.29s-.09-10.2,0-15.29C102.43,28.2,101.81,27.66,100,27.85Z"/></svg>