<svg id="Layer_1" data-name="Layer 1" xmlns="http://www.w3.org/2000/svg" viewBox="0 0 110 90"><defs><style>.cls-1{fill:none;}.cls-2,.cls-3{fill:#3a3a39;}.cls-2{opacity:0.4;isolation:isolate;}</style></defs><title>dualtone</title><rect class="cls-1" width="110" height="90"/><path class="cls-2" d="M55.37,79.39a57.6,57.6,0,0,1-18.09-2.85,3.11,3.11,0,0,0-3.15.43c-6.73,4.72-14.07,7.88-22.42,8.16-.94,0-2,.27-2.58-.81s.37-1.75.95-2.49c3.54-4.49,6.73-9.19,8.51-14.72A2.43,2.43,0,0,0,18,64.36a33.38,33.38,0,0,1-8.49-16.3c-2-10.25.61-19.3,7.23-27.2C25.32,10.66,36.64,5.92,49.64,4.65A51.7,51.7,0,0,1,85,13.6c7.8,5.36,13.41,12.51,15.4,22a30,30,0,0,1-4,22.84c-7.45,11.76-18.56,17.82-32,20.15A57.7,57.7,0,0,1,55.37,79.39Z"/><path class="cls-3" d="M37.05,42.07a5.22,5.22,0,0,1-5.66,5.43,5.7,5.7,0,0,1-5.52-5.59,5.89,5.89,0,0,1,5.81-5.56A5.28,5.28,0,0,1,37.05,42.07Zm40.76-5.72A5.88,5.88,0,0,0,72.12,42a5.71,5.71,0,0,0,5.63,5.48A5.21,5.21,0,0,0,83.3,42,5.29,5.29,0,0,0,77.81,36.35Zm-28,7.95c.32.48.66.94,1,1.39a5.5,5.5,0,0,0,7.77.36h0a5.93,5.93,0,0,0,.15-8,5.16,5.16,0,0,0-7.68.1c-.49.5-.94,1-1.41,1.56-.35,1.55-1,3.11.13,4.61Z"/></svg>