<svg id="Layer_1" data-name="Layer 1" xmlns="http://www.w3.org/2000/svg" viewBox="0 0 110 90"><defs><style>.cls-1{fill:none;}.cls-2{fill:#3a3a39;}</style></defs><title>light</title><rect class="cls-1" width="110" height="90"/><path class="cls-2" d="M91.14,18.56A47.14,47.14,0,0,0,63.43,5.09C48.08,3,33.9,5.85,21.63,15.72,6.39,28,4.19,47.52,16.2,63.06a3.41,3.41,0,0,1,.68,3,33.27,33.27,0,0,1-6.16,13.15c-1.09,1.47-3.25,2.71-1.85,5s3.63,1,5.55,1.16a3.58,3.58,0,0,0,.45-.09c7.1-.83,13.4-3.71,19.24-7.67A3.77,3.77,0,0,1,37.75,77a62.2,62.2,0,0,0,17.46,2.81c.94,0,1.94-.07,2.95-.15s2.15-.24,3.23-.35c11-1.2,20.84-5.25,29-12.92C104.59,53,104.89,32.32,91.14,18.56ZM84,64.52c-6.77,5.5-14.62,8.19-23.19,9.26a50.77,50.77,0,0,1-22.66-2.43,6.43,6.43,0,0,0-5.95.87,52.72,52.72,0,0,1-12.66,6.3A1.34,1.34,0,0,1,18,78.41a35.14,35.14,0,0,0,4.44-12.73A6.76,6.76,0,0,0,21,60C9,45.46,13.2,28.49,27.7,18.15c10.54-7.51,22.48-9.2,35-7.52,9.58,1.29,18.05,5.07,24.7,12.22C99.62,35.94,98.16,53,84,64.52ZM31.58,37.92a3.94,3.94,0,0,1,4.17,4,4.19,4.19,0,0,1-4.18,4.35A4.27,4.27,0,0,1,27.35,42v0a4.06,4.06,0,0,1,4.23-4Zm46.66,0A3.94,3.94,0,0,1,82.32,42a4.17,4.17,0,0,1-4.27,4.26,4.27,4.27,0,0,1-4.12-4.22,4.07,4.07,0,0,1,4.31-4.16ZM59,42.13a4.14,4.14,0,1,1-8.28-.1A4,4,0,0,1,55,37.93,3.9,3.9,0,0,1,59,42.13Z"/></svg>