<svg id="Layer_1" data-name="Layer 1" xmlns="http://www.w3.org/2000/svg" viewBox="0 0 110 90"><defs><style>.cls-1{fill:none;}.cls-2{fill:#3a3a39;}</style></defs><title>thin</title><rect class="cls-1" width="110" height="90"/><path class="cls-2" d="M55,4.37c14,.44,26.58,4.66,36.7,15A32.07,32.07,0,0,1,92.45,64c-8.62,9.5-19.54,14-32.07,15.31a57,57,0,0,1-23.86-2.68,2.91,2.91,0,0,0-2.25.47c-6.49,4.64-13.57,7.72-21.61,8.2A19.26,19.26,0,0,1,9,84.84a15.2,15.2,0,0,1,1.44-3.14c3.28-4.34,6.25-8.85,8-14.08a2.74,2.74,0,0,0-.64-3.13A32.3,32.3,0,0,1,8.66,42.65c-.19-8.84,3.09-16.52,9.08-23C27,9.6,38.8,5.35,52.1,4.5,53,4.44,53.91,4.42,55,4.37ZM13,82.52c.85,0,1.24,0,1.61,0,7-.75,12.9-3.94,18.42-8a3.14,3.14,0,0,1,3.36-.58,50.6,50.6,0,0,0,20,3.11c12.17-.42,23.12-4,32.08-12.54,6.8-6.47,10.39-14.4,9.9-23.89-.57-10.91-6.34-18.87-14.94-25a46.64,46.64,0,0,0-24-8.39C46.74,6.22,35,8.78,24.77,16.44c-7.62,5.69-12.7,13.06-13.72,22.68S13.58,57,20.28,63.84A2.58,2.58,0,0,1,21,67.06c-1.33,3-2.53,6.07-4,9C15.93,78.19,14.47,80.16,13,82.52Zm18.31-46a5.51,5.51,0,0,0-5.6,5.42v.25a5.61,5.61,0,0,0,5.73,5.37A5.31,5.31,0,0,0,36.9,42a5.41,5.41,0,0,0-5.62-5.57Zm.06,8.64a3,3,0,0,1-3-3.1,3.2,3.2,0,0,1,3.27-2.87,3,3,0,0,1,2.73,3.14,2.9,2.9,0,0,1-3,2.83h0Zm46.4-8.64A5.51,5.51,0,0,0,72.21,42,5.62,5.62,0,0,0,78,47.51a5.31,5.31,0,0,0,5.42-5.35,5.44,5.44,0,0,0-5.7-5.69ZM78,45.11a3,3,0,0,1-3.16-2.85v-.09A3,3,0,0,1,77.77,39a2.83,2.83,0,0,1,3.13,2.9A3,3,0,0,1,78,45.12ZM54.64,36.47a5.38,5.38,0,0,0-5.3,5.69,5.51,5.51,0,0,0,5.5,5.36,5.4,5.4,0,0,0,5.41-5.39v0a5.49,5.49,0,0,0-5.62-5.62Zm.14,8.64a3,3,0,0,1-3.14-3A2.89,2.89,0,0,1,54.53,39a3.07,3.07,0,1,1,.25,6.13Z"/></svg>