<svg id="Layer_1" data-name="Layer 1" xmlns="http://www.w3.org/2000/svg" viewBox="0 0 110 90"><defs><style>.cls-1{fill:none;}.cls-2{fill:#f68620;}.cls-3{fill:#f2622a;}</style></defs><title>default</title><rect class="cls-1" width="110" height="90"/><path class="cls-2" d="M16.28,86.11A4.75,4.75,0,0,1,12.4,81c.26-14.76-1.7-29.64,1-44.23C16.25,21,26,10.26,41.24,5.27,55.42.63,68.69,2.93,80.35,12.67c2.09,3.06,2.33,6.38,1.79,10C78.27,48.77,64.37,67.87,41.67,80.88,33.78,85.4,25.16,86.41,16.28,86.11Z"/><path class="cls-3" d="M16.28,86.11c30.66-3,58.05-29.41,62.83-60.59.65-4.24.84-8.56,1.24-12.85,14.19,9.54,20,31.85,12.39,48.7C85.23,78,72,86.41,53.93,86.89,43,87.18,32,87,21,86.92,19.43,86.91,17.68,87.44,16.28,86.11Z"/></svg>