<?xml version="1.0" standalone="no"?>
<!DOCTYPE svg PUBLIC "-//W3C//DTD SVG 20010904//EN"
 "http://www.w3.org/TR/2001/REC-SVG-20010904/DTD/svg10.dtd">
<svg version="1.0" xmlns="http://www.w3.org/2000/svg"
 width="110.000000pt" height="90.000000pt" viewBox="0 0 110.000000 90.000000"
 preserveAspectRatio="xMidYMid meet">

<g transform="translate(0.000000,90.000000) scale(0.100000,-0.100000)"
fill="#000000" stroke="none">
<path d="M507 713 c-4 -3 -7 -15 -7 -25 0 -16 9 -18 64 -18 67 0 86 10 66 35
-13 15 -110 22 -123 8z"/>
<path d="M256 661 c-14 -15 -16 -38 -14 -147 l3 -129 28 -13 c20 -10 27 -20
27 -42 0 -44 16 -45 63 -7 43 35 44 35 154 39 124 3 153 17 153 70 l0 28 -109
0 c-138 0 -141 3 -141 132 l0 88 -73 0 c-59 0 -77 -4 -91 -19z"/>
<path d="M507 633 c-4 -3 -7 -15 -7 -25 0 -17 11 -18 134 -18 104 0 135 3 139
14 11 29 -17 36 -138 36 -67 0 -125 -3 -128 -7z"/>
<path d="M500 535 c0 -26 0 -26 78 -23 69 3 77 5 77 23 0 18 -8 20 -77 23 -78
3 -78 3 -78 -23z"/>
<path d="M684 545 c-9 -24 5 -35 46 -35 42 0 54 9 44 34 -8 21 -82 22 -90 1z"/>
</g>
</svg>
