<?xml version="1.0" standalone="no"?>
<!DOCTYPE svg PUBLIC "-//W3C//DTD SVG 1.1//EN" "http://www.w3.org/Graphics/SVG/1.1/DTD/svg11.dtd" >
<svg xmlns="http://www.w3.org/2000/svg">
<metadata>Generated by IcoMoon</metadata>
<defs>
<font id="icomoon" horiz-adv-x="1024">
<font-face units-per-em="1024" ascent="960" descent="-64" />
<missing-glyph horiz-adv-x="1024" />
<glyph unicode="&#x20;" horiz-adv-x="512" d="" />
<glyph unicode="&#xe800;" glyph-name="oi-view-pivot" d="M1000.594 740.571c0.171 2.487 0.269 5.389 0.269 8.315 0 71.096-57.635 128.731-128.731 128.731-2.925 0-5.828-0.098-8.705-0.29l0.39 0.021h-702.903c-0.662 0.010-1.444 0.016-2.228 0.016-17.78 0-34.872-2.951-50.811-8.39l1.107 0.328c-43.892-14.46-76.454-51.655-84.016-97.292l-0.098-0.72c-0.703-2.967-1.106-6.374-1.106-9.874s0.403-6.907 1.166-10.176l-0.059 0.301v-607.817c-0.858-3.071-1.35-6.598-1.35-10.24s0.493-7.169 1.416-10.517l-0.065 0.277c10.653-60.007 62.418-104.988 124.689-104.988 7.631 0 15.104 0.675 22.363 1.97l-0.766-0.113h696.32c2.804-0.226 6.070-0.355 9.367-0.355 68.269 0 123.611 55.343 123.611 123.611 0 4.246-0.214 8.443-0.632 12.579l0.043-0.521c0 193.829-1.463 388.389 0.731 585.143zM478.354 48.64h-332.069c-1.095-0.047-2.379-0.074-3.67-0.074-50.495 0-91.429 40.934-91.429 91.429 0 0.54 0.005 1.079 0.014 1.618l-0.001-0.081c0 55.589 0 111.177 0 166.766 0 13.897 4.389 16.823 17.554 16.823h410.331c16.091 0 19.017-4.389 19.017-19.749 0-78.994 0-158.72 0-237.714 0.731-15.36-5.12-19.017-19.749-19.017zM52.663 584.046c0 13.166 0 17.554 16.823 17.554h411.063c13.166 0 17.554 0 17.554-17.554 0-73.143 0-141.166 0-211.383 0-13.897 0-19.017-18.286-18.286h-406.674c-14.629 0-18.286 0-18.286 18.286-1.463 70.217-1.463 140.434-2.194 211.383zM512 630.126h-438.857c-18.286 0-23.406 4.389-22.674 22.674 0 32.183 0 65.097 0 97.28-0.034 0.943-0.054 2.051-0.054 3.163 0 51.303 41.589 92.891 92.891 92.891 2.335 0 4.651-0.086 6.943-0.256l-0.306 0.018h727.771c1.325 0.068 2.877 0.106 4.438 0.106 51.303 0 92.891-41.589 92.891-92.891 0-1.066-0.018-2.128-0.054-3.185l0.004 0.154c0-33.646 0-66.56 0-100.206 0-16.823-5.851-19.749-21.211-19.749zM972.8 151.771c0.24-2.524 0.377-5.457 0.377-8.422 0-52.11-42.244-94.354-94.354-94.354-2.965 0-5.898 0.137-8.794 0.404l0.371-0.028h-322.56c-17.554 0-21.943 5.12-21.211 21.943 0 78.263 0 156.526 0 234.057 0 17.554 5.851 21.211 21.943 21.211h402.286c15.36 0 19.749-4.389 19.017-19.017 1.463-52.663 2.194-103.863 2.194-155.794zM972.8 357.303c-5.851-5.12-13.166 0-19.749 0h-405.211c-17.554 0-21.943 5.12-21.211 21.943 0 73.143 0 138.24 0 207.726 0 13.166 0 18.286 16.823 18.286h417.646c1.426 0.152 3.080 0.238 4.754 0.238s3.329-0.087 4.958-0.255l-0.204 0.017c0.531-1.414 0.839-3.048 0.839-4.754s-0.307-3.34-0.87-4.85l0.031 0.096v-219.429c2.33-2.479 3.762-5.827 3.762-9.509s-1.432-7.029-3.769-9.516l0.007 0.007z" />
<glyph unicode="&#xe801;" glyph-name="oi-text-break" d="M513.229 30.912c-148.339 0-296.678 0-445.018 0-6.374 0-12.774-0.077-19.123 0.294-7.309 0.422-12.314 5.069-13.248 11.686-0.998 7.091 4.186 12.403 10.624 14.067 6.797 1.766 14.144 1.933 21.261 1.933 296.678 0.090 593.357 0.077 890.048 0.077 2.394 0 4.787-0.013 7.181 0 11.75 0.064 25.152-1.216 24.781-15.642-0.358-13.619-13.811-12.442-24.282-12.442-150.733 0.026-301.466 0.026-452.198 0.026zM73.101 865.101c-7.974 0-15.949-0.192-23.91-0.55-7.155-0.307-12.71-3.661-13.197-11.123-0.55-8.23 3.968-13.594 12.518-14.323 9.523-0.819 19.072-1.651 28.621-1.651 290.304-0.090 580.595-0.090 870.899 0 9.549 0 19.085 0.934 28.634 1.51 8.563 0.512 13.619 5.594 13.363 13.683-0.282 8.627-6.874 11.878-14.925 12.096-7.168 0.205-14.349 0.358-21.517 0.358-146.739 0.026-293.491 0.013-440.23 0.013s-293.491 0-440.23-0.026zM810.432 304.282c-0.384-58.714-37.35-94.989-96.589-95.155-134.093-0.397-268.186-0.422-402.278 0.013-58.842 0.192-95.706 36.8-96.102 95.667-0.64 96.512-0.691 193.024 0.013 289.536 0.422 56.986 36.71 91.43 94.208 91.533 67.84 0.128 135.693 0.026 203.533 0.026s135.693 0.115 203.533-0.038c57.216-0.128 93.363-35.034 93.696-92.045 0.563-96.512 0.602-193.024-0.026-289.536zM783.475 600.307c0 5.466 0.986 11.162-2.317 16.192-10.342 29.44-31.552 41.933-62.285 41.869-137.216-0.294-274.419 0-411.635-0.205-42.982-0.064-63.782-21.414-63.885-65.344-0.243-96.461-0.243-192.922 0-289.382 0.115-43.661 22.515-66.598 66.202-66.726 135.616-0.371 271.232-0.294 406.848-0.026 35.264 0.077 51.84 12.314 64.922 45.338 2.854 5.146 2.163 10.79 2.163 16.294 0.038 100.672 0.038 201.331-0.013 302.003z" />
<glyph unicode="&#xe802;" glyph-name="oi-text-inline" d="M513.229 30.912c-148.339 0-296.678 0-445.018 0-6.374 0-12.774-0.077-19.123 0.294-7.309 0.422-12.314 5.069-13.248 11.686-0.998 7.091 4.186 12.403 10.624 14.067 6.797 1.766 14.144 1.933 21.261 1.933 296.678 0.090 593.357 0.077 890.048 0.077 2.394 0 4.787-0.013 7.181 0 11.75 0.064 25.152-1.216 24.781-15.642-0.358-13.619-13.811-12.442-24.282-12.442-150.733 0.026-301.466 0.026-452.198 0.026zM73.101 865.101c-7.974 0-15.949-0.192-23.91-0.55-7.155-0.307-12.71-3.661-13.197-11.123-0.55-8.23 3.968-13.594 12.518-14.323 9.523-0.819 19.072-1.651 28.621-1.651 290.304-0.090 580.595-0.090 870.899 0 9.549 0 19.085 0.934 28.634 1.51 8.563 0.512 13.619 5.594 13.363 13.683-0.282 8.627-6.874 11.878-14.925 12.096-7.168 0.205-14.349 0.358-21.517 0.358-146.739 0.026-293.491 0.013-440.23 0.013s-293.491 0-440.23-0.026zM605.658 177.485c-3.341 0-6.682-0.192-10.022-0.55-2.995-0.307-5.325-3.661-5.53-11.123-0.23-8.23 1.664-13.594 5.248-14.323 3.994-0.819 8-1.651 11.994-1.651 121.69-0.090 243.379-0.090 365.082 0 4.006 0 8 0.934 12.006 1.51 3.597 0.512 5.709 5.594 5.594 13.683-0.115 8.627-2.88 11.878-6.259 12.096-3.008 0.205-6.016 0.358-9.024 0.358-61.517 0.026-123.034 0.013-184.538 0.013-61.517 0-123.034 0-184.538-0.026zM555.622 447.885c0 67.84 0.090 135.693-0.026 203.533-0.102 57.51-34.56 93.798-91.533 94.208-96.512 0.704-193.024 0.666-289.536 0.013-58.867-0.397-95.475-37.261-95.667-96.102-0.435-134.093-0.41-268.186-0.013-402.278 0.179-59.238 36.442-96.205 95.155-96.589 96.512-0.627 193.024-0.589 289.536-0.026 57.011 0.333 91.93 36.48 92.045 93.696 0.154 67.84 0.038 135.693 0.038 203.533zM486.221 179.955c-5.030-3.302-10.714-2.317-16.192-2.317-100.672-0.051-201.331-0.051-302.003-0.013-5.504 0-11.149-0.691-16.294 2.163-33.024 13.082-45.274 29.67-45.338 64.922-0.269 135.616-0.346 271.232 0.026 406.848 0.115 43.686 23.066 66.086 66.726 66.202 96.461 0.256 192.922 0.243 289.382 0 43.93-0.102 65.267-20.915 65.344-63.885 0.218-137.216-0.090-274.419 0.205-411.635 0.064-30.733-12.416-51.942-41.869-62.285z" />
<glyph unicode="&#xe803;" glyph-name="oi-voip" d="M963.291 731.063c-117.655 111.376-276.908 179.856-452.156 179.856-39.23 0-77.658-3.432-115.001-10.011l3.958 0.578c-135.191-22.721-252.943-85.225-343.844-174.883l0.072 0.071c-11.852-8.451-19.488-22.15-19.488-37.633 0-11.668 4.337-22.323 11.486-30.441l-0.044 0.051 68.754-111.909c7.752-15.772 23.703-26.436 42.144-26.436 7.85 0 15.249 1.932 21.747 5.347l-0.257-0.123 146.286 57.783c18.416 5.772 31.545 22.682 31.545 42.659 0 3.022-0.3 5.973-0.873 8.826l0.048-0.285c0 27.063-4.389 53.394-7.314 80.457 0 11.703 0 18.286 13.897 21.211 34.749 10.765 75.148 18.318 116.849 21.123l1.642 0.088c7.478 0.377 16.238 0.592 25.048 0.592 53.651 0 105.44-7.967 154.251-22.783l-3.756 0.98c8.046 0 16.823 0 14.629-16.091-3.657-27.794-5.851-55.589-8.777-83.383-0.785-3.132-1.235-6.726-1.235-10.427 0-21.454 15.142-39.371 35.321-43.647l0.292-0.052 139.703-55.589c6.889-4.11 15.193-6.54 24.064-6.54 19.080 0 35.535 11.24 43.105 27.459l0.123 0.292 65.829 106.057c8.738 9.061 14.121 21.409 14.121 35.014 0 17.309-8.714 32.583-21.994 41.675l-0.173 0.112zM956.709 667.429l-73.143-111.177c-11.703-18.286-18.286-20.48-39.497-12.434l-138.971 59.977c-11.065 2.678-19.155 12.496-19.155 24.203 0 2.318 0.317 4.563 0.911 6.692l-0.042-0.175c0 30.72 6.583 62.903 9.509 94.354 0 10.971 0 17.554-13.166 22.674-51.703 18.071-111.307 28.51-173.349 28.51s-121.645-10.438-177.15-29.655l3.801 1.145c-5.12 0-10.971 0-10.971-10.971s0-25.6 0-38.034c0-24.137 5.12-48.274 8.046-73.143 0.097-0.75 0.153-1.618 0.153-2.498 0-9.011-5.82-16.663-13.906-19.402l-0.144-0.042c-51.2-21.211-103.131-41.691-154.331-61.44-2.853-1.391-6.208-2.205-9.753-2.205-8.791 0-16.414 5.003-20.176 12.317l-0.059 0.127-69.486 115.566c-10.24 16.823-10.24 24.137 0 37.303 67.447 65.157 149.765 115.376 241.335 145.046l4.425 1.24c62.074 22.363 133.703 35.29 208.351 35.29 24.518 0 48.71-1.395 72.501-4.109l-2.909 0.27c142.189-18.168 266.871-82.088 361.341-176.289l-0.015 0.015c16.091-14.629 16.823-21.943 5.851-43.154zM612.937 104.229v0c0 13.897 0 28.526 0 42.423-0.586 28.755-21.32 52.499-48.63 57.723l-0.375 0.060c-14.398 2.267-31.002 3.561-47.909 3.561s-33.51-1.295-49.718-3.791l1.809 0.229c-32.169-1.212-57.788-27.583-57.788-59.937 0-0.271 0.002-0.542 0.005-0.812v0.041c-1.397-12.506-2.194-27.006-2.194-41.691s0.797-29.185 2.35-43.458l-0.156 1.766c1.113-31.759 26.168-57.322 57.61-59.237l0.172-0.008c12.81-1.048 27.73-1.645 42.789-1.645s29.979 0.597 44.736 1.769l-1.948-0.124c33.461 1.603 59.982 29.122 59.982 62.835 0 0.281-0.002 0.562-0.006 0.842v-0.043zM588.8 69.12c0.040-0.674 0.062-1.463 0.062-2.256 0-22.622-18.338-40.96-40.96-40.96-0.794 0-1.582 0.023-2.365 0.067l0.108-0.005h-73.143c-0.711-0.047-1.541-0.074-2.378-0.074-21.006 0-38.034 17.029-38.034 38.034 0 1.314 0.067 2.613 0.197 3.892l-0.013-0.161c0 12.434 0 24.869 0 37.303v34.377c-0.164 1.341-0.258 2.892-0.258 4.466 0 21.41 17.356 38.766 38.766 38.766 0.863 0 1.719-0.028 2.568-0.084l-0.115 0.006c24.137 0 49.006 0 73.143 0 0.488 0.022 1.060 0.034 1.636 0.034 21.814 0 39.497-17.683 39.497-39.497 0-1.3-0.063-2.585-0.185-3.852l0.013 0.161zM612.937 361.691c0 13.897 0 28.526 0 42.423-0.363 32.621-26.093 59.117-58.371 60.703l-0.143 0.006q-43.154 0-85.577 0c-31.074-1.782-55.933-26.135-58.499-56.825l-0.015-0.226c-1.223-13.367-1.92-28.911-1.92-44.617s0.697-31.25 2.063-46.601l-0.142 1.984c2.291-31.302 27.722-55.972 59.142-57.049l0.103-0.003h81.189c0.217-0.003 0.474-0.004 0.731-0.004 33.528 0 60.709 27.18 60.709 60.709 0 0.002 0 0.003 0 0.005v0c0.731 12.434 0.731 25.6 0.731 38.766zM588.8 330.24c0-29.257-12.434-43.886-41.691-45.349-10.931-0.685-23.706-1.075-36.571-1.075s-25.64 0.39-38.312 1.16l1.741-0.085c-27.063 0-39.497 16.091-40.229 43.886s0 46.811 0 73.143c-0.231 1.543-0.362 3.324-0.362 5.136 0 20.198 16.374 36.571 36.571 36.571 0.385 0 0.768-0.006 1.15-0.018l-0.056 0.001c11.584 0.699 25.129 1.097 38.766 1.097s27.181-0.398 40.622-1.184l-1.856 0.087c27.794 0 40.229-16.091 40.229-45.349v-65.097zM871.131 143.726c-0.112 31.814-23.824 58.055-54.536 62.137l-0.321 0.035c-12.85 1.743-27.703 2.738-42.789 2.738s-29.938-0.995-44.497-2.923l1.708 0.185c-0.436 0.011-0.948 0.017-1.463 0.017-34.74 0-62.903-28.163-62.903-62.903 0-0.006 0-0.012 0-0.018v0.001c0-25.6 0-51.931 0-78.263 0-0.046 0-0.099 0-0.153 0-33.196 25.715-60.386 58.311-62.738l0.203-0.012c13.149-1.223 28.436-1.92 43.886-1.92s30.737 0.697 45.831 2.062l-1.945-0.142c32.944 3.093 58.522 30.609 58.522 64.1 0 0.351-0.003 0.701-0.008 1.050l0.001-0.053v73.143zM846.994 70.583c0.021-0.486 0.032-1.056 0.032-1.629 0-22.622-18.338-40.96-40.96-40.96-1.299 0-2.584 0.060-3.852 0.179l0.162-0.012h-66.56c-1.32-0.148-2.85-0.233-4.4-0.233-23.026 0-41.691 18.666-41.691 41.691 0 0.339 0.004 0.677 0.012 1.014l-0.001-0.050c-0.699 10.932-1.097 23.705-1.097 36.571s0.398 25.639 1.183 38.307l-0.086-1.735c-0.024 0.511-0.037 1.11-0.037 1.712 0 21.814 17.683 39.497 39.497 39.497 1.559 0 3.098-0.090 4.61-0.266l-0.184 0.017q35.109 0 73.143 0c1.341 0.164 2.892 0.258 4.466 0.258 21.41 0 38.766-17.356 38.766-38.766 0-0.863-0.028-1.719-0.084-2.568l0.006 0.115c0.103-4.181 0.162-9.104 0.162-14.042 0-21.587-1.121-42.913-3.309-63.922l0.222 2.626zM870.4 403.383c-1.178 33.814-28.874 60.778-62.867 60.778-1.042 0-2.077-0.025-3.107-0.075l0.145 0.006h-73.143c-0.659 0.025-1.433 0.039-2.21 0.039-34.24 0-62.090-27.357-62.885-61.405l-0.001-0.074c0-27.063 0-54.126 0-80.457 0.392-34.441 28.402-62.21 62.899-62.21 0.773 0 1.543 0.014 2.309 0.042l-0.111-0.003h73.143c0.217-0.003 0.474-0.004 0.731-0.004 34.74 0 62.903 28.163 62.903 62.903 0 0.002 0 0.003 0 0.005v0c2.926 26.331 2.926 51.931 2.194 78.263zM846.994 330.24c0.017-0.438 0.027-0.953 0.027-1.47 0-21.814-17.683-39.497-39.497-39.497-0.267 0-0.533 0.003-0.799 0.008l0.040-0.001c-10.928-0.659-23.706-1.034-36.571-1.034s-25.642 0.375-38.321 1.116l1.75-0.082c-0.444-0.018-0.966-0.028-1.49-0.028-22.218 0-40.229 18.011-40.229 40.229 0 0.524 0.010 1.046 0.030 1.565l-0.002-0.075c-0.729 10.935-1.144 23.705-1.144 36.571s0.415 25.636 1.233 38.296l-0.089-1.725c2.236 20.243 18.939 35.935 39.434 36.57l0.063 0.002h34.377c5.683 0.346 12.327 0.543 19.017 0.543s13.334-0.197 19.927-0.585l-0.91 0.043c0.445 0.018 0.967 0.028 1.491 0.028 21.814 0 39.497-17.683 39.497-39.497 0-0.524-0.010-1.046-0.030-1.566l0.002 0.075c1.583-16.652 2.485-36.005 2.485-55.569 0-6.694-0.106-13.364-0.315-20.007l0.024 0.971zM354.743 404.846c-1.605 33.054-28.795 59.246-62.103 59.246-0.024 0-0.048 0-0.073 0h-73.139c-0.005 0-0.011 0-0.017 0-34.226 0-62.067-27.335-62.884-61.364l-0.001-0.076c0-27.063 0-53.394 0-80.457 0-34.336 27.835-62.171 62.171-62.171v0h73.874c0.885-0.046 1.921-0.072 2.963-0.072 32.782 0 59.496 25.984 60.668 58.48l0.003 0.107c0.322 8.655 0.505 18.821 0.505 29.030 0 20.155-0.714 40.143-2.119 59.94l0.152-2.661zM331.337 327.314c0.108-1.097 0.17-2.372 0.17-3.661 0-21.616-17.365-39.177-38.906-39.493h-0.030c-24.137 0-48.274 0-73.143 0-0.932-0.080-2.016-0.125-3.111-0.125-21.41 0-38.766 17.356-38.766 38.766 0 1.332 0.067 2.648 0.198 3.945l-0.013-0.163q0 35.109 0 73.143c-0.020 0.47-0.032 1.022-0.032 1.576 0 21.41 17.356 38.766 38.766 38.766 1.041 0 2.072-0.041 3.093-0.122l-0.135 0.009c10.933 0.713 23.705 1.12 36.571 1.12s25.637-0.407 38.301-1.208l-1.73 0.088c0.69 0.043 1.496 0.067 2.308 0.067 21.814 0 39.497-17.683 39.497-39.497 0-1.053-0.041-2.097-0.122-3.13l0.009 0.137v-73.143zM354.011 155.429c-4.599 24.457-22.845 43.682-46.377 49.644l-0.435 0.093c-15.391 2.62-33.121 4.118-51.2 4.118s-35.809-1.498-53.071-4.375l1.871 0.258c-30.212-3.386-53.484-28.788-53.484-59.625 0-1.153 0.033-2.299 0.097-3.436l-0.007 0.158c0-12.434 0-24.869 0-37.303-0.35-5.901-0.549-12.802-0.549-19.749s0.199-13.848 0.592-20.697l-0.043 0.948c-0.001-0.103-0.001-0.224-0.001-0.345 0-32.422 24.529-59.115 56.042-62.533l0.279-0.025c13.378-1.397 28.905-2.193 44.617-2.193s31.239 0.797 46.541 2.351l-1.924-0.158c30.641 1.486 55.162 25.753 57.043 56.15l0.008 0.17c1.418 14.469 2.227 31.277 2.227 48.274s-0.809 33.805-2.389 50.388l0.163-2.113zM330.606 64c-0.395-20.701-17.269-37.331-38.028-37.331-0.517 0-1.031 0.010-1.543 0.031l0.073-0.002h-73.143c-0.439-0.018-0.953-0.028-1.47-0.028-21.006 0-38.034 17.029-38.034 38.034 0 0.267 0.003 0.534 0.008 0.8l-0.001-0.040c-0.699 11.802-1.097 25.603-1.097 39.497s0.398 27.695 1.184 41.392l-0.087-1.895c-0.020 0.456-0.031 0.991-0.031 1.529 0 20.602 16.701 37.303 37.303 37.303 0.783 0 1.56-0.024 2.331-0.072l-0.106 0.005c13.166 0 25.6 0 38.034 0s24.869 0 38.034 0c0.876 0.075 1.896 0.117 2.926 0.117 20.198 0 36.571-16.374 36.571-36.571 0-0.041 0-0.082 0-0.124v0.006c0.085-4.29 0.133-9.347 0.133-14.415 0-24.281-1.111-48.302-3.285-72.016l0.226 3.048z" />
<glyph unicode="&#xe806;" glyph-name="oi-odoo" d="M513.242 920.32c-257.498-0.256-469.056-213.773-468.826-473.19 0.218-261.069 211.315-471.782 472.269-471.398 253.325-3.981 472.294 203.43 473.446 471.693 1.126 262.208-212.493 473.152-476.89 472.883zM515.482 5.875c-242.266 2.854-442.048 199.693-440.23 442.074 1.984 263.334 222.848 448.486 443.661 440.256 211.085 6.605 439.898-167.309 440.102-441.075 0.205-265.638-220.672-443.891-443.546-441.267z" />
<glyph unicode="&#xe808;" glyph-name="oi-search" d="M982.309-1.097l-5.851 5.851c-84.114 84.114-168.229 168.96-253.074 253.074-10.24 10.24-13.166 16.823 0 29.257 55.064 64.691 88.557 149.219 88.557 241.57 0 2.245-0.020 4.485-0.059 6.72l0.005-0.336c-0.238 24.216-2.89 47.675-7.726 70.324l0.412-2.301c-32.758 184.95-192.277 323.61-384.183 323.61-215.309 0-389.851-174.542-389.851-389.851s174.542-389.851 389.851-389.851c95.238 0 182.5 34.151 250.208 90.874l-0.608-0.496c12.434 10.24 19.017 10.24 29.989 0l198.949-198.949 62.171-62.903c8.046-8.046 16.823-15.36 27.794-5.12s0.731 20.48-6.583 28.526zM413.989 175.909c-197.259 0.365-357.028 160.359-357.028 357.668 0 2.829 0.033 5.651 0.098 8.465l-0.008-0.418c-0.018 1.337-0.028 2.916-0.028 4.497 0 197.131 159.806 356.937 356.937 356.937 3.096 0 6.183-0.039 9.261-0.118l-0.455 0.009c1.567 0.025 3.416 0.039 5.269 0.039 196.323 0 355.474-159.151 355.474-355.474 0-3.615-0.054-7.217-0.161-10.806l0.012 0.527c0.013-1.144 0.021-2.496 0.021-3.849 0-197.535-160.134-357.669-357.669-357.669-4.123 0-8.229 0.070-12.318 0.208l0.595-0.016z" />
<glyph unicode="&#xe80a;" glyph-name="oi-group" d="M964.023 728.137l-55.589 25.6-356.937 160.183c-11.541 5.711-25.129 9.052-39.497 9.052s-27.956-3.341-40.029-9.289l0.532 0.237-33.646-13.897-371.566-167.497c-16.504-5.132-28.317-20.176-28.525-38.010v-0.024c0.354-17.996 12.058-33.169 28.232-38.679l0.294-0.087q201.143-89.234 401.554-179.931c12.573-6.42 27.425-10.181 43.154-10.181s30.581 3.762 43.703 10.434l-0.549-0.253 183.589 83.383 219.429 98.011c15.482 5.051 26.472 19.359 26.472 36.234 0 1.149-0.051 2.285-0.151 3.408l0.010-0.145c0.063 0.735 0.098 1.59 0.098 2.454 0 13.332-8.493 24.681-20.364 28.931l-0.214 0.067zM939.154 682.057c-134.583-60.709-268.434-120.686-402.286-182.126-8.358-4.005-18.169-6.345-28.526-6.345s-20.168 2.34-28.932 6.52l0.406-0.175-302.080 139.703-96.549 43.886c-5.12 0-13.166 0-13.166 10.971s7.314 8.777 12.434 11.703l280.869 126.537 124.343 54.126c7.636 4.082 16.614 6.72 26.148 7.305l0.184 0.009c16.682-1.287 31.904-6.563 45.019-14.866l-0.402 0.237 382.537-171.886c6.583 0 16.091 0 16.091-13.166s-10.24-9.509-16.091-12.434zM512-26.697c-13.058 2.646-24.33 5.927-35.203 10.023l1.557-0.515-413.989 184.32c-14.994 5.298-25.553 19.33-25.6 35.834v0.006c-0.024 0.506-0.037 1.098-0.037 1.694 0 15.871 9.538 29.514 23.194 35.511l0.249 0.097 73.143 31.451c8.046 0 17.554 5.851 22.674-5.851s0-16.823-10.971-20.48l-65.097-29.257c-5.12 0-10.971-4.389-10.971-10.971s6.583-8.777 11.703-10.971l397.897-185.051c9.008-4.853 19.714-7.705 31.086-7.705s22.078 2.852 31.441 7.879l-0.355-0.174 393.509 177.737c7.314 0 18.286 0 18.286 13.897s-11.703 10.24-18.286 13.897l-58.514 29.257c-9.509 4.389-17.554 10.24-12.434 21.943s14.629 8.777 24.137 4.389l68.754-30.72c14.231-5.223 24.201-18.655 24.201-34.416 0-0.758-0.023-1.511-0.069-2.258l0.005 0.103c-0.248-16.466-11.128-30.326-26.067-35.037l-0.264-0.072-409.6-185.051c-9.261-3.385-20.777-6.663-32.574-9.186l-1.804-0.323zM512 220.526c-27.478 2.831-52.351 11.991-73.776 25.988l0.633-0.388c-125.074 55.589-246.491 108.251-365.714 162.377-18.643 4.424-32.594 20.109-34.364 39.322l-0.013 0.175c-0.002 0.158-0.003 0.345-0.003 0.532 0 20.298 14.765 37.148 34.141 40.395l0.24 0.033 59.246 26.331c8.777 0 19.017 8.046 24.869 0s-3.657-18.286-12.434-22.674l-59.246-27.063c-6.583 0-14.629 0-15.36-11.703s8.777-9.509 14.629-12.434l372.297-173.349c5.649-2.233 10.464-4.689 15.008-7.536l-0.379 0.222c10.597-5.713 23.192-9.070 36.571-9.070s25.974 3.357 36.989 9.275l-0.418-0.205c133.12 59.246 264.777 114.103 396.434 177.006 5.851 0 13.897 0 13.166 13.166s-8.046 8.046-13.166 10.971l-59.246 26.331c-9.509 4.389-20.48 10.24-13.897 23.406s16.823 7.314 26.331 0l60.709-27.063c16.891-4.538 29.249-19.381 29.986-37.223l0.003-0.080c-0.481-18.562-12.814-34.118-29.688-39.416l-0.301-0.081-195.291-84.114-206.263-95.086c-10.842-5.159-23.561-8.172-36.983-8.172-1.656 0-3.302 0.046-4.935 0.136l0.227-0.010z" />
<glyph unicode="&#xe80c;" glyph-name="oi-settings-adjust" d="M944.274 259.291h-585.143c-16.091 0-24.137 0-28.526 21.211-15.9 64.886-73.554 112.274-142.277 112.274-80.791 0-146.286-65.494-146.286-146.286s65.494-146.286 146.286-146.286c68.723 0 126.377 47.389 142.069 111.271l0.208 1.003c4.389 16.823 10.971 21.211 27.063 21.211h585.143c11.703 0 29.257-4.389 29.257 13.166s-16.823 12.434-27.794 12.434zM196.023 128.366c-64.275 0.744-116.427 51.621-119.214 115.312l-0.009 0.253c0 0.017 0 0.037 0 0.056 0 64.155 50.986 116.402 114.648 118.43l0.186 0.005c0.441 0.006 0.962 0.009 1.483 0.009 63.865 0 115.781-51.157 117.006-114.729l0.002-0.115c0.002-0.241 0.003-0.527 0.003-0.813 0-63.899-50.579-115.984-113.885-118.404l-0.22-0.007zM974.263 659.383c-2.041 75.162-63.458 135.314-138.923 135.314-0.017 0-0.034 0-0.051 0h0.003c-2.564 0.167-5.559 0.262-8.577 0.262-67.816 0-124.406-48.070-137.553-111.995l-0.156-0.907c0-13.166-8.777-16.823-21.943-16.823h-593.92c-8.046 2.194-21.211 2.194-21.943-13.166s13.897-13.166 23.406-13.166h590.994c12.434 0 21.943 0 24.869-18.286 13.716-65.167 70.729-113.387 139.003-113.387 12.462 0 24.549 1.606 36.064 4.624l-0.988-0.22c63.455 14.39 110.117 70.307 110.117 137.123 0 3.74-0.146 7.445-0.433 11.111l0.031-0.485zM833.097 535.040c-0.653-0.013-1.423-0.021-2.194-0.021-64.229 0-116.297 52.068-116.297 116.297 0 0.007 0 0.015 0 0.022v-0.001c0.805 64.051 52.308 115.811 116.182 117.027l0.115 0.002c0.223 0.002 0.487 0.002 0.752 0.002 65.074 0 117.972-52.136 119.201-116.916l0.002-0.115c-1.618-64.079-53.555-115.504-117.684-116.296l-0.076-0.001z" />
<glyph unicode="&#xe80d;" glyph-name="oi-apps" d="M776.486 315.507c0-26.381 0.806-52.787-0.294-79.117-0.691-16.832 4.122-23.053 22.17-22.618 51.008 1.229 102.067 0.435 153.101 0.422 6.157 0 12.378 0.333 18.458-0.358 10.010-1.139 20.762-3.84 19.891-16.307-0.845-12.006-10.931-14.016-21.594-13.978-53.683 0.192-107.392-1.011-161.011 0.602-23.846 0.717-32.23-5.658-31.296-30.643 1.933-51.802 0.678-103.731 0.512-155.61-0.038-11.059 2.765-25.818-13.581-26.688-18.726-0.998-16.013 14.848-16.051 26.752-0.192 52.749-1.114 105.536 0.397 158.246 0.653 22.515-7.181 28.442-28.698 27.866-51.878-1.37-103.821-0.512-155.738-0.397-11.955 0.026-28.749-3.187-29.056 13.888-0.333 18.445 17.318 16.422 30.106 16.486 53.67 0.307 107.366 0.922 161.024-0.294 18.099-0.41 22.438 5.901 22.182 22.643-0.806 53.619-0.371 107.264-0.218 160.896 0.026 8.589-1.856 17.882 5.35 24.934 4.109 4.032 9.242 5.069 14.566 2.842 7.578-3.174 9.574-9.818 9.6-17.242 0.064-30.771 0.026-61.542 0.026-92.314 0.051 0 0.115 0 0.166 0zM429.811 629.056c-2.445-61.632-40.179-96.576-101.517-98.854-31.642-1.178-63.36-0.205-95.053-0.243s-63.411-0.947-95.053 0.154c-62.349 2.189-100.454 38.336-102.554 100.864-2.112 63.258-1.805 126.669-0.026 189.939 1.715 60.506 38.912 99.597 99.264 101.978 65.894 2.598 132.070 2.573 197.952-0.23 58.022-2.47 94.707-40.128 96.87-98.432 2.419-64.986 2.675-130.214 0.102-195.187zM399.386 826.253c-0.512 40.333-26.189 64.576-67.187 65.229-32.538 0.512-65.088 0.102-97.638 0.090-34.304-0.013-68.621 0.538-102.912-0.166-39.219-0.794-64.704-25.382-65.216-64.461-0.883-66.79-0.845-133.594-0.064-200.384 0.448-38.822 26.048-64.96 64.602-65.485 67.712-0.934 135.462-0.87 203.187-0.038 38.746 0.474 64.742 26.253 65.242 64.832 0.87 66.79 0.832 133.606 0 200.384zM958.694 630.669c-2.176-62.733-40.102-98.355-102.758-100.557-31.642-1.114-63.373-0.192-95.053-0.23-30.81-0.038-61.645-0.845-92.416 0.128-63.936 2.010-102.374 38.362-104.307 101.978-1.92 63.258-1.805 126.682 0.205 189.939 1.907 60.288 39.526 98.803 100.186 101.094 65.024 2.458 130.304 2.458 195.328-0.154 59.443-2.394 96.499-40.179 98.611-99.635 2.291-64.115 2.432-128.448 0.205-192.563zM928.077 825.395c-0.461 40.806-25.626 65.318-66.368 66.048-32.538 0.589-65.088 0.115-97.638 0.115-34.304 0-68.621 0.499-102.912-0.128-40.653-0.742-65.702-25.408-66.15-66.278-0.717-65.907-0.73-131.84-0.026-197.747 0.435-40.115 26.189-65.958 66.432-66.419 66.842-0.768 133.709-0.781 200.55 0 40.179 0.474 65.741 26.355 66.163 66.65 0.678 65.907 0.704 131.84-0.038 197.747zM429.926 101.696c-2.304-62.643-40.41-97.766-103.386-99.866-31.654-1.050-63.373-0.179-95.053-0.192-30.81 0-61.645-0.858-92.416 0.166-62.72 2.086-101.043 37.645-103.296 100.058-2.317 64.115-2.061 128.435 0.013 192.563 1.92 59.162 39.014 97.69 98.227 100.134 65.882 2.726 132.058 2.65 197.952-0.026 58.278-2.368 95.322-39.616 97.638-97.664 2.598-64.973 2.714-130.202 0.333-195.174zM399.296 299.942c-0.563 37.645-26.189 62.285-63.744 63.194-33.408 0.806-66.842 0.166-100.275 0.179-34.304 0.013-68.621 0.512-102.912-0.115-39.36-0.717-65.357-25.101-65.894-63.77-0.947-67.661-0.998-135.36 0-203.021 0.55-37.107 26.598-63.002 63.782-63.514 68.595-0.96 137.229-0.973 205.824 0.026 37.082 0.55 62.771 26.611 63.283 64 0.934 67.661 0.96 135.36-0.051 203.021z" />
<glyph unicode="&#xe810;" glyph-name="oi-panel-right" d="M977.189 769.097c-16.335 32.114-49.137 53.732-86.988 53.732-2.85 0-5.672-0.123-8.46-0.363l0.363 0.025h-742.4c-1.152 0.045-2.504 0.071-3.863 0.071-57.766 0-104.594-46.828-104.594-104.594 0-4.926 0.341-9.772 0.999-14.517l-0.062 0.548v-512c0-76.8 39.497-120.686 108.251-120.686h746.057c0.909-0.029 1.978-0.045 3.050-0.045 56.554 0 102.4 45.846 102.4 102.4 0 4.658-0.311 9.243-0.913 13.736l0.058-0.525v522.24c0.035 1.087 0.055 2.365 0.055 3.648 0 20.606-5.164 40.005-14.268 56.975l0.316-0.645zM665.6 96.183h-307.2c-0.877-0.252-1.884-0.397-2.926-0.397s-2.049 0.145-3.003 0.416l0.077-0.019h-12.434c-3.386-0.187-7.349-0.293-11.337-0.293s-7.951 0.106-11.886 0.316l0.549-0.023h-185.051c-0.148-0.001-0.323-0.002-0.499-0.002-42.819 0-77.531 34.712-77.531 77.531 0 3.093 0.181 6.144 0.533 9.143l-0.035-0.364v528.091c-0.267 2.414-0.419 5.212-0.419 8.047 0 42.819 34.712 77.531 77.531 77.531 0.147 0 0.294 0 0.441-0.001h193.074c4.49 0.379 9.717 0.594 14.994 0.594s10.505-0.216 15.673-0.639l-0.679 0.045s0 0 4.389 0c101.669 0 203.337 0 305.737 0 12.434 0 16.823 0 16.823-18.286 0-219.429 0-438.857 0-664.137 0-13.897-5.12-17.554-16.823-17.554zM969.143 194.194c0-66.56-27.794-97.28-87.040-97.28h-163.109c-12.434 0-16.091 3.657-16.091 18.286 0 111.177 0 219.429 0 332.8s0 219.429 0 329.143c0 16.091 3.657 20.48 18.286 20.48h164.571c54.857 0 83.383-32.183 83.383-93.623v-512z" />
<glyph unicode="&#xe812;" glyph-name="oi-launch" d="M466.651-9.143h-302.811c-2.534-0.226-5.482-0.355-8.46-0.355-55.746 0-100.937 45.191-100.937 100.937 0 3.215 0.15 6.395 0.444 9.534l-0.030-0.401v604.891c-0.142 2.011-0.223 4.358-0.223 6.723 0 56.15 45.519 101.669 101.669 101.669 1.879 0 3.747-0.051 5.601-0.152l-0.258 0.011c81.92 0 163.84 0 245.76 0h13.897c8.046 0 13.897-5.12 13.897-13.166s-5.851-12.434-13.897-13.166h-24.137c-73.143 0-153.6 0-230.4 0-1.101 0.053-2.391 0.083-3.689 0.083-45.243 0-81.92-36.677-81.92-81.92 0-0.801 0.011-1.599 0.034-2.394l-0.003 0.117c0-201.143 0-401.554 0-602.697-0.467-3.106-0.734-6.69-0.734-10.337 0-40.396 32.747-73.143 73.143-73.143 3.873 0 7.676 0.301 11.386 0.881l-0.412-0.053h604.891c2.11-0.206 4.561-0.323 7.040-0.323 42.415 0 76.8 34.385 76.8 76.8 0 2.948-0.166 5.858-0.49 8.72l0.032-0.351c0 79.726 0 160.183 0 239.909v13.897c0 8.046 3.657 13.166 11.703 13.897s13.166-5.12 13.897-13.166c0.174-2.624 0.273-5.689 0.273-8.777s-0.099-6.153-0.294-9.192l0.021 0.415v-236.251c0.486-3.719 0.763-8.021 0.763-12.387 0-55.746-45.191-100.937-100.937-100.937-4.135 0-8.212 0.249-12.217 0.732l0.483-0.047zM942.080 832v-237.714c0-8.046 0-14.629 11.703-15.36s13.897 6.583 15.36 14.629v279.406c0 28.526 0 32.183-31.451 32.183h-261.851c-0.145 0.001-0.316 0.002-0.488 0.002-6.118 0-11.984-1.073-17.423-3.041l0.357 0.113c-4.38-1.758-7.417-5.969-7.417-10.89 0-0.545 0.037-1.081 0.109-1.605l-0.007 0.061c-0.040-0.342-0.064-0.738-0.064-1.14 0-4.636 3.080-8.552 7.305-9.813l0.072-0.019h242.103c5.851 0 13.166 0 16.091 0s-5.12-10.971-9.509-15.36l-468.114-470.309c-8.046-8.046-19.017-16.823-8.046-28.526s20.48 0 29.257 8.046h4.389l438.857 442.514c11.017 14.16 23.807 26.253 38.195 36.198l0.571 0.373z" />
<glyph unicode="&#xe813;" glyph-name="oi-studio" d="M599.040 633.051c0 24.137-9.509 57.783 3.657 83.383 17 25.031 36.828 46.486 59.411 64.656l0.567 0.441c21.211 21.211 43.154 42.423 64.366 64.366 3.657 0 8.777 5.851 7.314 11.703s-8.046 4.389-12.434 5.12c-13.186 2.509-28.353 3.945-43.855 3.945-79.802 0-150.72-38.035-195.614-96.967l-0.439-0.601c-6.583-8.046-13.166-16.091-24.137-7.314s0 17.554 4.389 24.137c44.41 55.139 108.971 92.49 182.335 100.821l1.254 0.116c12.852 1.778 27.702 2.793 42.789 2.793s29.937-1.015 44.485-2.981l-1.697 0.188c14.629 0 28.526-5.851 34.377-21.943s-5.12-24.137-14.629-33.646l-115.566-114.103c-7.204-6.207-11.738-15.342-11.738-25.536 0-0.537 0.013-1.071 0.037-1.602l-0.003 0.075c0-38.034 0-73.143 0-113.371 0-13.166 0-18.286 17.554-18.286h118.491c0.432-0.025 0.937-0.039 1.445-0.039 8.581 0 16.229 3.994 21.187 10.223l0.042 0.055c35.84 36.571 73.143 73.143 108.251 109.714 12.434 12.434 24.137 25.6 44.617 18.286s18.286-22.674 19.749-38.034c2.504-13.956 3.935-30.021 3.935-46.42 0-76.494-31.147-145.714-81.451-195.667l-0.016-0.016c-5.466-5.606-11.447-10.658-17.883-15.098l-0.402-0.262c-2.279-2.467-5.531-4.007-9.143-4.007s-6.864 1.54-9.135 3.999l-0.008 0.008c-5.12 7.314 0 13.166 0 18.286 16.853 13.452 31.342 28.871 43.418 46.106l0.468 0.705c29.249 39.866 46.805 89.901 46.805 144.037 0 16.318-1.595 32.264-4.638 47.689l0.256-1.554c0 14.629-6.583 13.166-15.36 4.389l-118.491-117.029c-5.407-6.729-13.635-10.999-22.861-10.999-0.449 0-0.895 0.010-1.339 0.030l0.063-0.002h-153.6c-14.629 0-17.554 5.12-17.554 18.286 0.731 24.869 0.731 50.469 0.731 81.92zM280.137 41.326l168.229 168.229c6.583 7.314 24.869 13.897 12.434 27.063s-21.943 0-29.989-10.24c-55.589-54.126-109.714-108.983-164.571-163.109-18.736-19.991-45.304-32.446-74.781-32.446-16.449 0-31.993 3.879-45.765 10.771l0.592-0.268c-31.557 17.098-52.628 49.965-52.628 87.753 0 29.284 12.654 55.613 32.793 73.816l0.086 0.077 247.954 245.029c3.984 3.753 7.585 7.818 10.798 12.187l0.174 0.247c2.2 2.13 3.566 5.111 3.566 8.411s-1.366 6.281-3.563 8.408l-0.003 0.003c-1.756 2.104-4.38 3.433-7.314 3.433s-5.558-1.329-7.302-3.418l-0.012-0.015-12.434-10.971-138.971-133.851c-38.034-38.034-73.143-73.143-113.371-112.64-22.985-22.913-37.206-54.605-37.206-89.62 0-17.268 3.459-33.728 9.722-48.725l-0.31 0.836c16.722-46.003 60.063-78.267 110.94-78.267 0.341 0 0.681 0.001 1.020 0.004h-0.052c1.075-0.035 2.34-0.055 3.609-0.055 34.019 0 64.69 14.336 86.301 37.297l0.056 0.061zM206.994 168.594c-14.136-0.566-25.655-11.080-27.773-24.704l-0.021-0.164c0.263-15.060 11.588-27.396 26.183-29.242l0.148-0.015c14.572 0.678 26.319 11.919 27.784 26.207l0.010 0.125c0.026 0.437 0.041 0.948 0.041 1.463 0 14.542-11.789 26.331-26.331 26.331-0.014 0-0.029 0-0.043 0h0.002zM932.571 110.811c-27.063-28.526-54.857-55.589-82.651-83.383-13.483-15.464-33.218-25.181-55.223-25.181s-41.74 9.717-55.148 25.094l-0.075 0.087c-65.829 65.097-130.926 130.926-196.023 197.486-25.823 24.57-41.885 59.194-41.885 97.569 0 27.991 8.545 53.986 23.169 75.519l-0.301-0.47c6.583 9.509 7.314 15.36 0 24.137-38.034 37.303-73.143 73.143-111.909 113.371-6.983 7.662-17.004 12.451-28.144 12.451-0.391 0-0.782-0.006-1.17-0.018l0.057 0.001h-130.194c-0.482-0.031-1.044-0.048-1.611-0.048-8.908 0-16.812 4.304-21.743 10.947l-0.052 0.073-151.406 198.217c-5.053 3.773-8.29 9.737-8.29 16.457s3.237 12.684 8.236 16.419l0.054 0.038 96.549 92.16c3.513 4.208 8.76 6.866 14.629 6.866s11.116-2.658 14.604-6.835l0.025-0.030 201.143-149.943c6.281-4.419 10.335-11.637 10.335-19.802 0-0.754-0.035-1.5-0.102-2.236l0.007 0.095c0-21.943 0-44.617 0-77.531-16.091-49.006 12.434-89.234 55.589-125.074 23.995-21.215 45.958-42.946 66.655-65.844l0.637-0.716c3.297-5.125 8.972-8.472 15.429-8.472 4.774 0 9.122 1.83 12.378 4.826l-0.013-0.012c21.033 15.569 47.487 24.921 76.125 24.921 34.638 0 66.080-13.68 89.219-35.932l-0.042 0.040c49.737-46.080 96.549-94.354 146.286-141.897 19.017-19.017 39.497-37.303 58.514-57.051 15.305-14.085 24.86-34.213 24.86-56.573 0-24.058-11.062-45.532-28.376-59.613l-0.141-0.111zM389.851 587.703c0 37.303 0 73.143 0 111.177 0.101 0.748 0.158 1.614 0.158 2.492 0 6.883-3.522 12.944-8.862 16.479l-0.073 0.046-177.737 136.046c-2.567 3.279-6.525 5.367-10.971 5.367s-8.405-2.088-10.948-5.337l-0.023-0.030c-22.674-22.674-44.617-46.080-68.023-68.023-10.971-10.24-10.24-17.554 0-29.257 32.914-44.617 65.829-89.234 95.086-130.926s57.051-68.023 100.937-53.394h64.366c11.703-0.731 16.823 2.926 16.091 15.36zM911.36 211.749l-179.931 181.394c-7.334 7.199-15.21 13.914-23.535 20.056l-0.602 0.424c-17.605 13.933-40.13 22.35-64.621 22.35-18.415 0-35.718-4.759-50.747-13.114l0.534 0.272c-36.78-16.194-62.529-51.25-65.082-92.584l-0.015-0.307c-0.053-1.337-0.083-2.907-0.083-4.483 0-33.344 13.441-63.548 35.2-85.491l193.089-193.089c9.583-11.177 23.718-18.214 39.497-18.214s29.914 7.037 39.439 18.144l0.059 0.070 76.8 77.531c13.968 9.612 23.008 25.51 23.008 43.52s-9.040 33.908-22.831 43.404l-0.177 0.116z" />
<glyph unicode="&#xe814;" glyph-name="oi-view-kanban" d="M353.28 904.411c-53.394 0-106.057 0-158.72 0-3.917 0.52-8.445 0.816-13.043 0.816-49.233 0-90.521-34.016-101.645-79.827l-0.147-0.715c-0.694-2.523-1.093-5.421-1.093-8.411s0.399-5.888 1.146-8.642l-0.053 0.231v-326.949c-0.694-2.523-1.093-5.421-1.093-8.411s0.399-5.888 1.146-8.642l-0.053 0.231c9.164-46.662 49.738-81.379 98.421-81.379 2.172 0 4.327 0.069 6.465 0.205l-0.292-0.015c62.903 0 125.806-3.657 188.709 0 0.023 0 0.051 0 0.079 0 52.918 0 95.817 42.899 95.817 95.817 0 4.384-0.294 8.7-0.865 12.928l0.054-0.493v298.423c0.552 3.995 0.868 8.612 0.868 13.302 0 56.554-45.846 102.4-102.4 102.4-4.69 0-9.307-0.315-13.829-0.926l0.528 0.058zM438.857 491.886c0-53.394-24.869-77.531-78.263-77.531h-180.663c-3.384-0.646-7.276-1.015-11.255-1.015-34.74 0-62.903 28.163-62.903 62.903 0 3.979 0.369 7.871 1.076 11.645l-0.061-0.39c0 106.789 0 212.846 0 319.634-0.3 2.296-0.472 4.95-0.472 7.645 0 34.336 27.835 62.171 62.171 62.171 4.046 0 8.003-0.387 11.834-1.125l-0.39 0.063h185.783c2.334 0.293 5.035 0.461 7.775 0.461 36.356 0 65.829-29.472 65.829-65.829 0-2.74-0.167-5.441-0.493-8.093l0.032 0.318c0-51.931 0-103.863 0-156.526s0-103.863 0-154.331zM943.543 397.531c0.63 4.253 0.99 9.163 0.99 14.156 0 56.15-45.519 101.669-101.669 101.669-4.993 0-9.903-0.36-14.703-1.055l0.547 0.065h-158.72c-3.968 0.533-8.555 0.838-13.213 0.838-48.976 0-90.090-33.662-101.468-79.111l-0.153-0.721c-0.679-2.635-1.069-5.661-1.069-8.777s0.39-6.142 1.123-9.030l-0.054 0.253v-333.531c-0.85-2.512-1.34-5.404-1.34-8.411s0.49-5.9 1.396-8.602l-0.055 0.191c12.802-43.428 52.313-74.586 99.102-74.586 6.074 0 12.025 0.525 17.811 1.532l-0.616-0.089h163.109c3.229-0.377 6.97-0.593 10.762-0.593 54.13 0 98.011 43.881 98.011 98.011 0 3.558-0.19 7.071-0.559 10.531l0.037-0.43zM914.286 91.794c0.365-2.589 0.573-5.58 0.573-8.619 0-35.952-29.145-65.097-65.097-65.097-3.039 0-6.030 0.208-8.958 0.611l0.34-0.038h-187.977c-1.957-0.219-4.226-0.343-6.524-0.343-34.336 0-62.171 27.835-62.171 62.171 0 3.218 0.245 6.379 0.716 9.466l-0.043-0.346c0 54.126 0 107.52 0 160.914v158.72c-0.293 2.334-0.461 5.035-0.461 7.775 0 36.356 29.472 65.829 65.829 65.829 2.74 0 5.441-0.167 8.093-0.493l-0.318 0.032h182.857c2.334 0.293 5.035 0.461 7.775 0.461 36.356 0 65.829-29.472 65.829-65.829 0-2.74-0.167-5.441-0.493-8.093l0.032 0.318c0.731-107.52 0.731-210.651 0-317.44zM943.543 786.651c0.769 4.731 1.208 10.185 1.208 15.741 0 56.958-46.174 103.131-103.131 103.131-5.33 0-10.566-0.404-15.678-1.184l0.573 0.072h-156.526c-3.917 0.52-8.445 0.816-13.043 0.816-49.233 0-90.521-34.016-101.645-79.827l-0.147-0.715c-1.752-24.722-2.75-53.57-2.75-82.651s0.998-57.93 2.963-86.512l-0.213 3.861c8.993-46.867 49.668-81.797 98.5-81.797 5.769 0 11.423 0.487 16.926 1.423l-0.592-0.083h167.497c2.5-0.227 5.408-0.356 8.346-0.356 54.13 0 98.011 43.881 98.011 98.011 0 2.7-0.109 5.374-0.323 8.018l0.023-0.348zM914.286 676.937c0.033-0.778 0.052-1.691 0.052-2.608 0-36.356-29.472-65.829-65.829-65.829-2.595 0-5.155 0.15-7.672 0.442l0.306-0.029h-187.977c-1.362-0.104-2.95-0.163-4.552-0.163-35.144 0-63.634 28.49-63.634 63.634 0 1.602 0.059 3.19 0.175 4.762l-0.012-0.21c0 42.423 0 85.577 0 128-0.151 1.624-0.237 3.511-0.237 5.419 0 34.336 27.835 62.171 62.171 62.171 2.144 0 4.263-0.109 6.351-0.32l-0.263 0.022h189.44c2.666 0.391 5.744 0.615 8.875 0.615 35.548 0 64.366-28.818 64.366-64.366 0-1.245-0.035-2.483-0.105-3.711l0.008 0.17c0-42.423 0-85.577-1.463-128zM468.114 219.063c0.021 0.739 0.033 1.609 0.033 2.482 0 48.336-37.211 87.981-84.549 91.85l-0.33 0.022c-27.874 1.747-60.449 2.742-93.257 2.742s-65.383-0.995-97.697-2.958l4.44 0.216c-4.946 0.84-10.643 1.321-16.453 1.321-48.869 0-89.799-33.99-100.439-79.618l-0.137-0.697c-1.223-14.455-1.92-31.283-1.92-48.274s0.697-33.819 2.064-50.456l-0.144 2.182c-1.394-10.979-2.19-23.682-2.19-36.571s0.796-25.593 2.341-38.064l-0.151 1.492c10.285-41.301 46.381-71.668 89.806-73.139l0.159-0.004c68.023 0 136.777 0 204.8 0 51.796 0.413 93.626 42.497 93.626 94.351 0 0.258-0.001 0.516-0.003 0.774v-0.039c0.731 43.886 0.731 88.503 0 132.389zM438.857 89.6c0.036-0.806 0.056-1.751 0.056-2.7 0-35.952-29.145-65.097-65.097-65.097-2.856 0-5.669 0.184-8.428 0.541l0.326-0.034h-187.977c-1.362-0.104-2.95-0.163-4.552-0.163-35.144 0-63.634 28.49-63.634 63.634 0 1.602 0.059 3.19 0.175 4.762l-0.012-0.21c0 41.691 0 83.383 0 125.806-0.236 2.047-0.371 4.419-0.371 6.823 0 34.74 28.163 62.903 62.903 62.903 1.933 0 3.846-0.087 5.734-0.258l-0.243 0.018c63.634 0 128 0 191.634 0 1.347 0.1 2.918 0.158 4.502 0.158 35.548 0 64.366-28.818 64.366-64.366 0-1.342-0.041-2.675-0.122-3.996l0.009 0.181c0.731-42.423 0.731-84.846 0.731-128z" />
<glyph unicode="&#xe815;" glyph-name="oi-text-wrap" d="M513.229 30.912c-148.339 0-296.678 0-445.018 0-6.374 0-12.774-0.077-19.123 0.294-7.309 0.422-12.314 5.069-13.248 11.686-0.998 7.091 4.186 12.403 10.624 14.067 6.797 1.766 14.144 1.933 21.261 1.933 296.678 0.090 593.357 0.077 890.048 0.077 2.394 0 4.787-0.013 7.181 0 11.75 0.064 25.152-1.216 24.781-15.642-0.358-13.619-13.811-12.442-24.282-12.442-150.733 0.026-301.466 0.026-452.198 0.026zM73.101 865.101c-7.974 0-15.949-0.192-23.91-0.55-7.155-0.307-12.71-3.661-13.197-11.123-0.55-8.23 3.968-13.594 12.518-14.323 9.523-0.819 19.072-1.651 28.621-1.651 290.304-0.090 580.595-0.090 870.899 0 9.549 0 19.085 0.934 28.634 1.51 8.563 0.512 13.619 5.594 13.363 13.683-0.282 8.627-6.874 11.878-14.925 12.096-7.168 0.205-14.349 0.358-21.517 0.358-146.739 0.026-293.491 0.013-440.23 0.013s-293.491 0-440.23-0.026zM605.658 177.485c-3.341 0-6.682-0.192-10.022-0.55-2.995-0.307-5.325-3.661-5.53-11.123-0.23-8.23 1.664-13.594 5.248-14.323 3.994-0.819 8-1.651 11.994-1.651 121.69-0.090 243.379-0.090 365.082 0 4.006 0 8 0.934 12.006 1.51 3.597 0.512 5.709 5.594 5.594 13.683-0.115 8.627-2.88 11.878-6.259 12.096-3.008 0.205-6.016 0.358-9.024 0.358-61.517 0.026-123.034 0.013-184.538 0.013-61.517 0-123.034 0-184.538-0.026zM605.658 461.568c-3.341 0-6.682-0.192-10.022-0.55-2.995-0.307-5.325-3.661-5.53-11.123-0.23-8.23 1.664-13.594 5.248-14.323 3.994-0.819 8-1.651 11.994-1.651 121.69-0.090 243.379-0.090 365.082 0 4.006 0 8 0.934 12.006 1.51 3.597 0.512 5.709 5.594 5.594 13.683-0.115 8.627-2.88 11.878-6.259 12.096-3.008 0.205-6.016 0.358-9.024 0.358-61.517 0.026-123.034 0.013-184.538 0.013-61.517 0-123.034 0-184.538-0.026zM605.658 745.651c-3.341 0-6.682-0.192-10.022-0.55-2.995-0.307-5.325-3.661-5.53-11.123-0.23-8.23 1.664-13.594 5.248-14.323 3.994-0.819 8-1.651 11.994-1.651 121.69-0.090 243.379-0.090 365.082 0 4.006 0 8 0.934 12.006 1.51 3.597 0.512 5.709 5.594 5.594 13.683-0.115 8.627-2.88 11.878-6.259 12.096-3.008 0.205-6.016 0.358-9.024 0.358-61.517 0.026-123.034 0.013-184.538 0.013-61.517 0-123.034 0-184.538-0.026zM555.622 447.885c0 67.84 0.090 135.693-0.026 203.533-0.102 57.51-34.56 93.798-91.533 94.208-96.512 0.704-193.024 0.666-289.536 0.013-58.867-0.397-95.475-37.261-95.667-96.102-0.435-134.093-0.41-268.186-0.013-402.278 0.179-59.238 36.442-96.205 95.155-96.589 96.512-0.627 193.024-0.589 289.536-0.026 57.011 0.333 91.93 36.48 92.045 93.696 0.154 67.84 0.038 135.693 0.038 203.533zM486.221 179.955c-5.030-3.302-10.714-2.317-16.192-2.317-100.672-0.051-201.331-0.051-302.003-0.013-5.504 0-11.149-0.691-16.294 2.163-33.024 13.082-45.274 29.67-45.338 64.922-0.269 135.616-0.346 271.232 0.026 406.848 0.115 43.686 23.066 66.086 66.726 66.202 96.461 0.256 192.922 0.243 289.382 0 43.93-0.102 65.267-20.915 65.344-63.885 0.218-137.216-0.090-274.419 0.205-411.635 0.064-30.733-12.416-51.942-41.869-62.285z" />
<glyph unicode="&#xe816;" glyph-name="oi-view-cohort" d="M512 793.234h424.229c13.166 0 34.377 5.851 35.109-14.629s-21.943-16.823-35.84-16.823h-844.8c-4.288-0.893-9.216-1.404-14.263-1.404s-9.975 0.511-14.734 1.485l0.471-0.081c-6.583 0-11.703 7.314-10.24 14.629-0.118 0.663-0.186 1.426-0.186 2.206 0 7.079 5.588 12.854 12.593 13.153l0.027 0.001c4.27 0.348 9.243 0.546 14.263 0.546s9.993-0.198 14.913-0.587l-0.65 0.041zM438.857 433.371h242.103c10.971 0 26.331 0 25.6 14.629s-14.629 15.36-26.331 15.36h-596.114c-2.963 0.346-6.395 0.544-9.874 0.544s-6.911-0.197-10.287-0.582l0.413 0.038c-7.675 0-13.897-6.222-13.897-13.897s6.222-13.897 13.897-13.897v0c2.635-0.336 5.684-0.529 8.777-0.529s6.142 0.192 9.135 0.565l-0.357-0.036h356.937zM76.8 133.486c-11.703 0-24.137 0-24.869-14.629s13.897-16.823 26.331-16.823h340.114c10.971 0 24.137 0 24.137 15.36s-13.166 16.091-25.6 16.091h-340.114z" />
<glyph unicode="&#xe817;" glyph-name="oi-view-list" d="M666.331 145.92h301.349c3.182 0.358 6.87 0.563 10.606 0.563s7.424-0.204 11.054-0.603l-0.448 0.040c6.705-0.668 11.897-6.28 11.897-13.104 0-0.797-0.071-1.577-0.206-2.335l0.012 0.080c-0.277-6.668-5.212-12.105-11.622-13.155l-0.080-0.011h-623.177c-1.979-0.345-4.258-0.542-6.583-0.542s-4.604 0.197-6.821 0.576l0.238-0.034c-10.24 0-25.6 0-24.137 16.823s15.36 14.629 26.331 14.629h311.589zM977.189 756.663c10.971 0 23.406 0 23.406 15.36s-12.434 14.629-23.406 16.091h-611.474c-2.855 0.362-6.157 0.569-9.509 0.569s-6.654-0.207-9.897-0.608l0.388 0.039c-8.777 0-14.629-6.583-13.166-16.091s7.314-11.703 14.629-12.434h631.223zM361.326 464.091c-11.703 0-29.989 5.851-29.257-13.897s17.554-13.897 29.989-15.36h629.029c5.623 1.27 9.759 6.224 9.759 12.143 0 0.88-0.091 1.738-0.265 2.566l0.014-0.081c-0.375 6.711-5.723 12.060-12.4 12.433l-0.034 0.002h-626.834zM215.040 71.314c-1.93-20.592-19.129-36.581-40.063-36.581-0.315 0-0.63 0.004-0.944 0.011l0.047-0.001h-100.937c-0.657-0.033-1.427-0.052-2.201-0.052-25.853 0-46.811 20.958-46.811 46.811 0 0.275 0.002 0.55 0.007 0.824l-0.001-0.041c0 29.257 0 58.514 0 87.040s19.017 51.2 54.857 51.2h92.16c0.342 0.010 0.745 0.016 1.149 0.016 20.563 0 37.587-15.153 40.515-34.901l0.027-0.224c2.656-17.145 4.173-36.921 4.173-57.051s-1.517-39.907-4.444-59.221l0.27 2.169zM186.514 128.366v46.811c0.112 0.712 0.175 1.534 0.175 2.37 0 8.887-7.204 16.091-16.091 16.091-0.836 0-1.658-0.064-2.459-0.187l0.090 0.011h-95.086c-0.48 0.045-1.039 0.070-1.604 0.070-10.099 0-18.286-8.187-18.286-18.286 0-0.798 0.051-1.585 0.15-2.356l-0.010 0.091c0-29.257 0-58.514 0-87.771-0.106-0.738-0.166-1.591-0.166-2.458 0-10.099 8.187-18.286 18.286-18.286 1.092 0 2.162 0.096 3.202 0.279l-0.11-0.016h90.697c13.166 0 19.017 6.583 19.017 18.286zM215.771 394.606c-1.94-21.398-19.793-38.035-41.531-38.035-0.056 0-0.113 0-0.169 0h0.009c-17.554 0-35.84 0-53.394 0v0c-15.36 0-29.989 0-44.617 0-1.54-0.18-3.323-0.282-5.131-0.282-25.853 0-46.811 20.958-46.811 46.811 0 0.356 0.004 0.712 0.012 1.066l-0.001-0.053c0 30.72 0 62.171 0 93.623 0 0.007 0 0.015 0 0.023 0 26.257 21.286 47.543 47.543 47.543 0.514 0 1.027-0.008 1.537-0.024l-0.075 0.002h87.040c35.109 0 51.931-13.897 54.857-49.006 1.286-13.179 2.019-28.489 2.019-43.97 0-20.336-1.265-40.376-3.721-60.046l0.239 2.348zM186.514 494.811c0 13.166-5.851 20.48-19.017 20.48h-94.354c-13.897 0-20.48-8.046-20.48-21.943 0-28.526 0-56.32 0-84.846 0-14.629 6.583-22.674 22.674-21.943h88.503c13.897 0 20.48 5.851 20.48 19.017zM215.771 714.24c-1.143-22.109-19.348-39.604-41.639-39.604-1.048 0-2.087 0.039-3.115 0.115l0.137-0.008h-98.011c-0.719-0.039-1.56-0.062-2.406-0.062-25.853 0-46.811 20.958-46.811 46.811 0 1.567 0.077 3.116 0.227 4.644l-0.015-0.193q0 45.349 0 89.966c-0.058 0.882-0.092 1.913-0.092 2.951 0 26.257 21.286 47.543 47.543 47.543 0.547 0 1.091-0.009 1.633-0.028l-0.079 0.002h44.617c16.091 0 32.914 0 49.006 0 0.892 0.070 1.931 0.111 2.98 0.111 21.485 0 39.036-16.842 40.17-38.044l0.004-0.101c3.776-20.757 5.935-44.645 5.935-69.038 0-15.101-0.828-30.009-2.44-44.681l0.162 1.811zM186.514 724.48v89.234c0.090 0.68 0.141 1.466 0.141 2.265 0 10.099-8.187 18.286-18.286 18.286-0.565 0-1.123-0.026-1.675-0.076l0.071 0.005h-46.811c-14.629 0-28.526 0-43.154 0s-22.674-7.314-22.674-21.943c0-28.526 0-57.051 0-85.577-0.153-0.925-0.241-1.99-0.241-3.076 0-10.907 8.842-19.749 19.749-19.749 0.858 0 1.704 0.055 2.534 0.161l-0.098-0.010h87.771c0.836-0.136 1.801-0.213 2.783-0.213 10.099 0 18.286 8.187 18.286 18.286 0 1.635-0.215 3.221-0.617 4.729l0.029-0.128z" />
<glyph unicode="&#xe827;" glyph-name="oi-text-effect" d="M558.285 132.109c-0.998 2.944-2.637 8.435-4.71 13.76-80.102 205.722-160.218 411.456-240.486 617.114-3.302 8.448-3.981 20.352-16.819 20.365-12.288 0-12.032-11.789-15.014-19.443-71.347-182.502-142.451-365.082-213.555-547.674-10.65-27.366-21.158-54.784-31.514-82.266-2.381-6.298-2.931-13.414 4.39-16.653 8.384-3.725 13.005 1.869 15.962 9.050 1.216 2.944 2.291 5.952 3.43 8.934 20.122 52.429 40.563 104.73 60.096 157.389 4.25 11.469 10.048 15.475 22.31 15.424 102.976-0.461 205.952-0.461 308.928 0.013 11.738 0.051 17.050-4.173 20.915-14.618 10.829-29.338 22.566-58.342 33.92-87.488 10.202-26.163 20.275-52.365 30.605-78.477 2.701-6.822 6.72-13.171 15.539-10.598 5.734 1.677 6.938 6.963 6.016 15.181zM436.39 330.15c-93.286 0.666-186.586 0.474-279.872 0.128-13.683-0.051-20.454 0.986-13.914 17.702 48.576 124.045 96.448 248.371 144.589 372.595 2.048 5.274 4.646 10.342 9.6 21.235 13.747-34.957 25.395-64.384 36.915-93.862 38.771-99.187 77.171-198.528 116.57-297.472 6.63-16.64 3.75-20.442-13.888-20.314zM989.043 137.254c0.102 144.704 0.102 289.408 0.013 434.112 0 5.619 1.434 11.507-1.754 16.845-14.694 4.864-17.101 3.507-18.317-11.802-1.574-19.904 1.92-40.102-1.907-60.301-9.088 1.357-10.547 8.614-14.515 13.094-49.51 55.974-111.232 77.069-182.835 56.499-67.482-19.392-110.477-65.779-121.062-136.346-8.934-59.482-8.115-120.166-1.574-179.494 11.725-106.253 106.918-171.878 210.778-149.274 39.322 8.563 71.066 30.746 96.538 61.875 3.046 3.725 4.89 11.11 10.534 9.485 7.322-2.112 3.494-9.818 3.674-14.976 0.563-15.296-0.358-30.669 0.691-45.926 0.717-10.33 4.032-20.058 17.651-10.483 3.763 5.171 2.061 11.123 2.061 16.691zM967.59 276.454c-6.285-84.429-72.384-140.608-160.269-137.651-75.712 2.547-139.085 68.877-140.134 147.469-0.614 45.939-0.768 91.904 0.026 137.83 1.395 80.243 65.126 144.090 145.19 146.47 82.816 2.458 149.107-55.565 155.162-137.267 1.933-26.010 0.307-52.275 0.307-78.426s1.651-52.429-0.294-78.426z" />
<glyph unicode="&#xe82e;" glyph-name="oi-gif-picker" d="M991.817 695.223c0.078 1.576 0.123 3.421 0.123 5.278 0 62.613-50.758 113.371-113.371 113.371-2.102 0-4.19-0.057-6.263-0.17l0.289 0.013c-239.177 0-477.623 0-716.8 0-4.653 0.709-10.022 1.113-15.486 1.113-51.891 0-95.255-36.512-105.802-85.246l-0.129-0.713c-0.858-3.071-1.35-6.598-1.35-10.24s0.493-7.169 1.416-10.517l-0.065 0.277v-530.286c-0.871-3.182-1.372-6.835-1.372-10.606s0.5-7.424 1.439-10.898l-0.067 0.292c9.599-50.348 53.272-87.892 105.713-87.892 4.762 0 9.453 0.31 14.051 0.91l-0.542-0.058h724.114c2.953-0.294 6.383-0.462 9.853-0.462 58.17 0 105.326 47.156 105.326 105.326 0 2.994-0.125 5.96-0.37 8.891l0.026-0.383c-1.463 171.154-3.657 337.92-0.731 512zM966.217 183.223c0.418-3.053 0.657-6.581 0.657-10.165 0-43.627-35.367-78.994-78.994-78.994-3.584 0-7.112 0.239-10.57 0.701l0.404-0.044h-731.429c-2.248-0.223-4.859-0.35-7.5-0.35-44.435 0-80.457 36.022-80.457 80.457 0 1.925 0.068 3.834 0.201 5.725l-0.014-0.255c0 174.080 0 348.891 0 522.971-0.119 1.636-0.186 3.546-0.186 5.47 0 44.435 36.022 80.457 80.457 80.457 2.641 0 5.252-0.127 7.828-0.376l-0.328 0.026h731.429c2.488 0.275 5.372 0.433 8.294 0.433 44.031 0 79.726-35.694 79.726-79.726 0-2.212-0.090-4.402-0.267-6.569l0.019 0.285c1.463-174.080 1.463-348.891 0.731-522.971zM192.366 423.131c6.207-52.981 43.8-95.742 93.45-109.5l0.905-0.214c11.88-3.945 25.557-6.221 39.765-6.221 23.269 0 45.112 6.104 64.015 16.798l-0.648-0.337c10.401 3.932 17.662 13.807 17.662 25.378 0 0.851-0.039 1.692-0.116 2.523l0.008-0.107c-0.524 9.612-0.823 20.863-0.823 32.183s0.299 22.571 0.889 33.744l-0.066-1.561c0 10.24-3.657 13.166-13.897 13.166h-83.383c-9.509 0-22.674 0-21.943 13.166s11.703 11.703 21.211 11.703h100.206c16.823 0 22.674-6.583 21.943-22.674v-92.16c0.079-0.786 0.124-1.699 0.124-2.622 0-9.985-5.265-18.74-13.171-23.641l-0.119-0.069c-25.649-18.558-57.736-29.684-92.421-29.684-87.659 0-158.72 71.061-158.72 158.72s71.061 158.72 158.72 158.72c28.881 0 55.96-7.714 79.289-21.193l-0.766 0.408c5.578-2.994 10.364-6.146 14.843-9.671l-0.214 0.163c6.583-5.12 15.36-10.24 9.509-20.48s-16.091-4.389-23.406 0c-22.258 15.986-50.056 25.565-80.091 25.565s-57.833-9.579-80.506-25.848l0.414 0.283c-28.528-21.473-48.196-53.395-53.312-89.98l-0.082-0.717c-1.356-4.989-2.135-10.717-2.135-16.628 0-6.855 1.048-13.465 2.992-19.679l-0.126 0.466zM649.509 594.286c5.851 5.851 13.166 3.657 20.48 3.657h146.286c9.509 0 25.6 5.851 25.6-9.509s-16.091-13.897-27.063-13.897h-123.611c-14.629 0-21.211 0-20.48-20.48 0-31.451 0-63.634 0-95.817 0-15.36 5.12-19.017 19.749-19.017 35.109 0 73.143 0 104.594 0 10.24 0 21.943 0 21.211-13.897s-13.166-10.971-21.943-10.971c-34.377 0-69.486 0-103.863 0-15.36 0-19.749-5.12-19.749-19.749 0-32.183 0-64.366 0-95.817 0-16.091-5.851-24.137-21.943-12.434-0.677 2.189-1.067 4.706-1.067 7.314s0.39 5.125 1.115 7.496l-0.048-0.181c0 92.891 0 185.051 0 277.943-1.463 7.314-2.926 15.36 0.731 15.36zM512 442.88v134.583c0 9.509 0 21.943 13.166 21.211s11.703-11.703 11.703-20.48v-276.48c0-9.509 0-20.48-12.434-21.211s-12.434 14.629-12.434 21.211z" />
<glyph unicode="&#xe839;" glyph-name="oi-chevron-down" d="M513.536 205.837c-10.381-0.179-16.934 6.067-23.334 12.454-145.152 144.896-290.317 289.792-435.366 434.79-8.832 8.832-21.082 19.904-8.576 31.808 13.389 12.749 24.755-0.435 34.138-9.856 135.117-135.821 270.067-271.795 405.094-407.706 26.445-26.611 26.598-26.637 53.683 0.627 134.387 135.258 268.723 270.579 403.136 405.824 4.416 4.442 8.986 8.998 14.285 12.211 7.296 4.429 15.642 5.978 22.208-1.267 6.426-7.091 5.094-15.053-0.64-22.016-4.57-5.53-9.766-10.56-14.861-15.642-141.325-141.094-282.662-282.176-424.038-423.232-7.578-7.565-14.4-16.32-25.741-18.010z" />
<glyph unicode="&#xe83a;" glyph-name="oi-chevron-left" d="M731.429-6.949c-11.372 0.476-21.344 6.076-27.727 14.536l-0.067 0.093c-137.509 137.509-274.286 275.017-411.063 411.063-21.943 21.943-19.017 38.034 0 58.514 136.777 135.314 272.091 271.36 407.406 409.6 11.703 10.971 24.137 29.989 41.691 10.971s0-28.526-13.166-39.497c-128.731-130.926-258.194-259.657-388.389-386.926-19.017-18.286-20.48-28.526 0-47.543 124.343-122.149 249.417-247.223 373.76-370.834 11.259-9.701 21.13-20.502 29.614-32.363l0.375-0.551c8.777-14.629 2.194-24.137-12.434-27.063z" />
<glyph unicode="&#xe83b;" glyph-name="oi-chevron-right" d="M292.571-6.949c11.372 0.476 21.344 6.076 27.727 14.536l0.067 0.093c137.509 137.509 274.286 275.017 411.063 411.063 21.943 21.943 19.017 38.034 0 58.514-136.777 135.314-272.091 271.36-407.406 409.6-11.703 8.046-24.137 27.063-41.691 8.046s0-28.526 13.166-39.497c128.731-128 258.194-256.731 388.389-384 19.017-18.286 20.48-28.526 0-47.543-124.343-122.149-249.417-247.223-373.76-370.834-11.259-9.701-21.13-20.502-29.614-32.363l-0.375-0.551c-8.777-14.629-2.194-24.137 12.434-27.063z" />
<glyph unicode="&#xe83c;" glyph-name="oi-chevron-up" d="M510.464 690.163c10.381 0.179 16.934-6.067 23.334-12.454 145.152-144.896 290.317-289.792 435.366-434.79 8.832-8.832 21.082-19.904 8.576-31.808-13.389-12.749-24.755 0.435-34.138 9.856-135.117 135.821-270.067 271.795-405.094 407.706-26.445 26.611-26.598 26.637-53.683-0.627-134.387-135.258-268.723-270.579-403.136-405.824-4.416-4.442-8.986-8.998-14.285-12.211-7.296-4.429-15.642-5.978-22.208 1.267-6.426 7.091-5.094 15.053 0.64 22.016 4.57 5.53 9.766 10.56 14.861 15.642 141.325 141.094 282.662 282.176 424.038 423.232 7.578 7.565 14.4 16.32 25.741 18.010z" />
<glyph unicode="&#xe83d;" glyph-name="oi-arrows-h" d="M940.262 425.613h-851.866c-1.203-1.779-2.394-3.558-3.597-5.35 23.91-22.912 47.936-45.722 71.718-68.762 28.723-27.827 57.408-55.693 85.747-83.917 8.205-8.166 20.928-17.83 9.434-30.080-11.75-12.518-21.632-0.205-29.901 8.013-59.008 58.662-117.658 117.696-176.832 176.205-13.722 13.568-13.939 24.883-0.141 38.541 59.725 59.085 118.925 118.707 178.56 177.869 7.565 7.501 16.474 19.136 28.019 7.104 10.79-11.251 0.998-20.634-7.002-28.557-48.269-47.885-96.794-95.501-144.96-143.488-4.122-4.109-12.698-7.475-9.651-14.758 3.046-7.258 11.392-3.635 17.318-3.648 271.45-0.154 542.886-0.154 814.336-0.026 6.029 0 14.298-3.392 17.562 3.494 3.507 7.411-5.363 10.534-9.306 14.784-48.435 52.122-97.139 103.974-145.779 155.904-1.638 1.754-3.315 3.482-5.018 5.158-7.322 7.219-13.619 15.936-4.966 24.858 10.573 10.906 18.918 1.165 25.997-6.349 25.229-26.752 50.176-53.786 75.2-80.73 35.379-38.067 70.374-76.493 106.291-114.035 12.826-13.414 12.186-23.693-0.666-36.39-59.738-59.059-118.989-118.605-178.496-177.907-8.128-8.102-18.048-17.408-28.518-6.131-10.317 11.11-0.115 20.25 7.898 28.314 51.776 52.173 103.539 104.358 158.618 159.872z" />
<glyph unicode="&#xe83e;" glyph-name="oi-arrows-v" d="M490.266 20.378v851.866c-1.779 1.203-3.558 2.394-5.35 3.597-22.912-23.91-45.722-47.936-68.762-71.718-27.827-28.723-55.693-57.408-83.917-85.747-8.166-8.205-17.83-20.928-30.080-9.434-12.518 11.75-0.205 21.632 8.013 29.901 58.662 59.008 117.696 117.658 176.205 176.832 13.568 13.722 24.883 13.939 38.541 0.141 59.085-59.725 118.707-118.925 177.869-178.56 7.501-7.565 19.136-16.474 7.104-28.019-11.251-10.79-20.634-0.998-28.557 7.002-47.885 48.269-95.501 96.794-143.488 144.96-4.109 4.122-7.475 12.698-14.758 9.651-7.258-3.046-3.635-11.392-3.648-17.318-0.154-271.45-0.154-542.886-0.026-814.336 0-6.029-3.392-14.298 3.494-17.562 7.411-3.507 10.534 5.363 14.784 9.306 52.122 48.435 103.974 97.139 155.904 145.779 1.754 1.638 3.482 3.315 5.158 5.018 7.219 7.322 15.936 13.619 24.858 4.966 10.906-10.573 1.165-18.918-6.349-25.997-26.752-25.229-53.786-50.176-80.73-75.2-38.067-35.379-76.493-70.374-114.035-106.291-13.414-12.826-23.693-12.186-36.39 0.666-59.059 59.738-118.605 118.989-177.907 178.496-8.102 8.128-17.408 18.048-6.131 28.518 11.11 10.317 20.25 0.115 28.314-7.898 52.173-51.776 104.358-103.539 159.872-158.618z" />
<glyph unicode="&#xe83f;" glyph-name="oi-arrow-down-left" d="M204.8 171.379c0 137.933 0 274.291 0 410.65 0 15.462 0.23 30.938-0.269 46.387-0.346 10.586-3.162 20.902-16.294 21.005-14.656 0.115-13.798-11.251-13.798-21.517 0.038-164.646 0.218-329.293-0.23-493.939-0.051-19.29 8.013-25.498 26.163-25.472 162.982 0.294 325.965 0.141 488.96 0.243 11.008 0 24.243-0.218 24.205 15.053-0.038 16.947-14.234 16-26.125 16.013-138.406 0.064-276.8 0.026-415.206 0.026-7.283 0-14.566 0.038-21.85 0.064-13.478 0.038-17.178 5.248-7.526 15.782 9.805 10.701 20.314 20.762 30.592 31.027 162.88 162.739 325.747 325.504 488.704 488.166 25.114 25.062 50.714 49.651 76.032 74.509 9.306 9.139 20.966 20.749 9.766 32.435-12.557 13.107-24.525 0.922-34.368-8.947-160.026-160.435-320.064-320.845-480.051-481.318-35.341-35.443-70.349-71.206-105.792-106.547-5.453-5.44-9.485-13.619-22.886-13.619z" />
<glyph unicode="&#xe840;" glyph-name="oi-arrow-down-right" d="M821.888 171.379c0 137.933 0 274.291 0 410.65 0 15.462-0.23 30.938 0.269 46.387 0.346 10.586 3.162 20.902 16.294 21.005 14.656 0.115 13.798-11.251 13.798-21.517-0.038-164.646-0.218-329.293 0.23-493.939 0.051-19.29-8.013-25.498-26.163-25.472-162.982 0.294-325.965 0.141-488.96 0.243-11.008 0-24.243-0.218-24.205 15.053 0.038 16.947 14.234 16 26.125 16.013 138.406 0.064 276.8 0.026 415.206 0.026 7.283 0 14.566 0.038 21.85 0.064 13.478 0.038 17.178 5.248 7.526 15.782-9.805 10.701-20.314 20.762-30.592 31.027-162.88 162.739-325.747 325.504-488.704 488.166-25.114 25.062-50.714 49.651-76.032 74.509-9.306 9.139-20.966 20.749-9.766 32.435 12.557 13.107 24.525 0.922 34.368-8.947 160.026-160.435 320.064-320.845 480.051-481.318 35.341-35.443 70.349-71.206 105.792-106.547 5.453-5.44 9.485-13.619 22.886-13.619z" />
<glyph unicode="&#xe841;" glyph-name="oi-arrow-down" d="M526.374 76.454c39.706 36.16 82.56 72.128 121.843 111.654 68.954 69.363 135.731 140.902 203.43 211.52 2.317 2.419 4.672 4.8 7.142 7.053 7.194 6.605 15.949 12.326 24.179 4.237 7.974-7.846 3.533-17.318-3.174-24.525-18.803-20.186-37.837-40.154-56.922-60.083-94.822-99.046-189.709-198.029-284.544-297.062-22.272-23.258-29.158-23.808-48.691-3.366-112.653 117.875-225.293 235.763-337.933 353.638-0.576 0.602-1.229 1.152-1.766 1.779-7.206 8.576-20.365 16.666-8.256 29.248 12.058 12.544 21.030 1.050 29.094-7.258 30.285-31.206 60.442-62.515 90.483-93.952 73.37-76.749 146.637-153.587 219.994-230.349 3.379-3.546 7.155-6.707 11.315-10.573 8.538 8.435 4.723 18.099 4.736 26.509 0.23 250.995 0.051 501.99 0.576 752.973 0.026 13.069-8.499 35.904 14.208 35.84 22.886-0.064 13.862-22.886 13.901-35.917 0.525-248.486 0.384-496.96 0.384-745.446v-25.92z" />
<glyph unicode="&#xe842;" glyph-name="oi-arrow-left" d="M111.909 432.64c29.257-31.451 55.589-62.171 84.846-89.966 88.503-85.577 178.469-170.423 267.703-255.269 9.509-8.777 19.749-19.017 8.046-31.451s-20.48 0-28.526 8.046l-259.657 247.954-117.029 112.64c-25.6 23.406-25.6 23.406-0.731 50.469l363.52 347.429c5.12 5.12 9.509 10.24 15.36 15.36s19.017 11.703 27.794 0 0-18.286-5.12-25.6l-78.994-71.68-269.897-258.926c-3.781-4.167-7.384-8.7-10.684-13.459l-0.287-0.438c7.346-3.694 16.009-5.856 25.177-5.856 4.56 0 8.994 0.535 13.245 1.545l-0.388-0.078h811.886c9.509 0 17.554 0 17.554-14.629s-8.777-14.629-18.286-15.36c-3.508-0.354-7.582-0.555-11.703-0.555s-8.195 0.202-12.212 0.596l0.509-0.040h-822.126z" />
<glyph unicode="&#xe843;" glyph-name="oi-arrow-right" d="M912.091 432.64c-29.257-31.451-55.589-62.171-84.846-89.966-88.503-85.577-178.469-170.423-267.703-255.269-9.509-8.777-19.749-19.017-8.046-31.451s20.48 0 28.526 8.046l259.657 247.954 117.029 112.64c25.6 24.869 25.6 26.331 0 50.469l-362.789 347.429c-5.12 5.12-9.509 10.24-15.36 15.36s-19.017 11.703-27.794 0 0-18.286 5.12-25.6l78.994-71.68 269.897-256.731c3.781-4.167 7.384-8.7 10.684-13.459l0.287-0.438c-7.056-3.363-15.335-5.327-24.072-5.327-3.643 0-7.207 0.342-10.66 0.994l0.355-0.056h-815.543c-9.509 0-17.554 0-17.554-14.629s8.777-14.629 18.286-15.36c3.508-0.354 7.582-0.555 11.703-0.555s8.195 0.202 12.212 0.596l-0.509-0.040h822.126z" />
<glyph unicode="&#xe844;" glyph-name="oi-arrow-up-left" d="M204.8 724.621c0-137.933 0-274.291 0-410.65 0-15.462 0.23-30.938-0.269-46.387-0.346-10.586-3.162-20.902-16.294-21.005-14.656-0.115-13.798 11.251-13.798 21.517 0.038 164.646 0.218 329.293-0.23 493.939-0.051 19.29 8.013 25.498 26.163 25.472 162.982-0.294 325.965-0.141 488.96-0.243 11.008 0 24.243 0.218 24.205-15.053-0.038-16.947-14.234-16-26.125-16.013-138.406-0.064-276.8-0.026-415.206-0.026-7.283 0-14.566-0.038-21.85-0.064-13.478-0.038-17.178-5.248-7.526-15.782 9.805-10.701 20.314-20.762 30.592-31.027 162.88-162.739 325.747-325.504 488.704-488.166 25.114-25.062 50.714-49.651 76.032-74.509 9.306-9.139 20.966-20.749 9.766-32.435-12.557-13.107-24.525-0.922-34.368 8.947-160.026 160.435-320.064 320.845-480.051 481.318-35.341 35.443-70.349 71.206-105.792 106.547-5.453 5.44-9.485 13.619-22.886 13.619z" />
<glyph unicode="&#xe845;" glyph-name="oi-arrow-up-right" d="M821.888 724.621c0-137.933 0-274.291 0-410.65 0-15.462-0.23-30.938 0.269-46.387 0.346-10.586 3.162-20.902 16.294-21.005 14.656-0.115 13.798 11.251 13.798 21.517-0.038 164.646-0.218 329.293 0.23 493.939 0.051 19.29-8.013 25.498-26.163 25.472-162.982-0.294-325.965-0.141-488.96-0.243-11.008 0-24.243 0.218-24.205-15.053 0.038-16.947 14.234-16 26.125-16.013 138.406-0.064 276.8-0.026 415.206-0.026 7.283 0 14.566-0.038 21.85-0.064 13.478-0.038 17.178-5.248 7.526-15.782-9.805-10.701-20.314-20.762-30.592-31.027-162.88-162.739-325.747-325.504-488.704-488.166-25.114-25.062-50.714-49.651-76.032-74.509-9.306-9.139-20.966-20.749-9.766-32.435 12.557-13.107 24.525-0.922 34.368 8.947 160.026 160.435 320.064 320.845 480.051 481.318 35.341 35.443 70.349 71.206 105.792 106.547 5.453 5.44 9.485 13.619 22.886 13.619z" />
<glyph unicode="&#xe846;" glyph-name="oi-arrow-up" d="M497.626 818.419c-39.706-36.16-82.56-72.128-121.843-111.654-68.954-69.363-135.731-140.902-203.43-211.52-2.317-2.419-4.672-4.8-7.142-7.053-7.194-6.605-15.949-12.326-24.179-4.237-7.974 7.846-3.533 17.318 3.174 24.525 18.803 20.186 37.837 40.154 56.922 60.083 94.822 99.046 189.709 198.029 284.544 297.062 22.272 23.258 29.158 23.808 48.691 3.366 112.653-117.875 225.293-235.763 337.933-353.638 0.576-0.602 1.229-1.152 1.766-1.779 7.206-8.576 20.365-16.666 8.256-29.248-12.058-12.544-21.030-1.050-29.094 7.258-30.285 31.206-60.442 62.515-90.483 93.952-73.37 76.749-146.637 153.587-219.994 230.349-3.379 3.546-7.155 6.707-11.315 10.573-8.538-8.435-4.723-18.099-4.736-26.509-0.23-250.995-0.051-501.99-0.576-752.973-0.026-13.069 8.499-35.904-14.208-35.84-22.886 0.064-13.862 22.886-13.901 35.917-0.525 248.486-0.384 496.96-0.384 745.446v25.92z" />
<glyph unicode="&#xe847;" glyph-name="oi-draggable" d="M477.376 447.859c0 15.040 0.064 30.080 0 45.12-0.243 50.048-34.202 85.184-84.314 86.272-31.846 0.691-63.744 0.858-95.578-0.051-45.734-1.306-77.504-32.192-81.792-77.747-3.584-37.99-3.11-75.968 0.269-113.907 2.944-33.088 27.533-63.514 60.096-68.979 46.4-7.782 93.581-7.987 139.93-0.090 36.288 6.182 60.621 38.886 61.35 76.301 0.346 17.69 0.064 35.392 0.064 53.082zM446.528 396.608c-0.909-30.042-17.894-48.205-48.115-49.6-34.496-1.6-69.184-1.6-103.68 0.013-31.309 1.459-47.578 20.16-48.538 51.878-0.486 15.936-0.090 31.898-0.077 47.859 0 15.949-0.461 31.923 0.102 47.859 1.152 32.538 18.534 51.789 50.778 53.21 32.742 1.446 65.638 1.472 98.381 0.038 32.32-1.421 50.458-20.749 51.226-52.89 0.781-32.768 0.909-65.6-0.090-98.368zM811.264 493.568c-1.395 51.648-36.582 85.312-88.55 85.811-13.286 0.128-26.573 0.013-39.846 0.013-15.053 0-30.106 0.064-45.158 0-55.091-0.269-90.022-34.202-90.893-88.909-0.486-30.093-0.602-60.198 0.038-90.291 1.050-48.909 34.24-83.469 83.328-85.517 32.704-1.37 65.574-1.421 98.278 0.026 49.114 2.176 81.933 36.762 82.88 85.926 0.602 30.976 0.794 61.978-0.051 92.941zM781.056 404.71c-1.19-39.424-20.416-57.587-60.288-58.406-14.195-0.294-28.39-0.051-42.586 0-15.078 0.038-30.195-0.461-45.248 0.141-34.214 1.37-53.517 18.509-55.296 52.134-1.677 31.834-1.805 63.91-0.090 95.744 1.83 33.997 23.027 53.069 57.19 53.862 29.261 0.678 58.573 0.653 87.846 0 36.544-0.794 57.101-21.069 58.432-58.33 1.011-28.352 0.909-56.781 0.038-85.133zM810.931 166.426c-2.278 46.195-37.542 78.106-83.699 78.323-15.974 0.077-31.936 0-47.91 0s-31.949 0.051-47.91 0c-46.426-0.192-81.677-31.654-84.134-77.875-1.83-34.496-1.83-69.222-0.115-103.731 2.419-48.717 36.25-79.283 85.133-79.514 31.053-0.141 62.106-0.128 93.171 0 49.293 0.205 83.021 30.336 85.517 79.053 1.766 34.496 1.664 69.222-0.038 103.731zM780.634 67.379c-1.907-35.814-20.557-52.57-56.602-53.389-30.144-0.678-60.339-0.717-90.483 0.026-35.558 0.87-54.195 18.214-56.077 54.003-1.574 30.067-1.408 60.326-0.141 90.419 1.613 38.413 20.339 55.13 59.533 55.706 14.195 0.205 28.39 0.038 42.586 0.026 15.078 0 30.17 0.269 45.248-0.064 34.65-0.768 53.466-16.614 55.68-51.008 2.035-31.795 1.958-63.885 0.269-95.706zM811.174 828.314c-1.651 48.333-35.11 81.229-83.238 82.355-32.806 0.768-65.664 0.806-98.47-0.064-46.81-1.242-80.333-33.562-82.394-80.41-1.472-33.638-1.434-67.43-0.051-101.082 1.971-47.949 36.339-79.962 84.531-80.755 15.078-0.243 30.17-0.038 45.248-0.038 16.858 0 33.715-0.243 50.573 0.051 47.923 0.832 81.997 33.306 83.802 81.51 1.229 32.768 1.126 65.651 0 98.419zM780.518 731.277c-1.843-33.011-22.029-51.968-54.81-53.082-30.912-1.050-61.926-0.998-92.851-0.013-32.947 1.050-53.274 19.814-55.155 52.723-1.805 31.718-1.779 63.68-0.128 95.424 1.869 35.93 20.314 52.186 56.23 53.018 15.027 0.346 30.067 0.064 45.107 0.064s30.080 0.269 45.107-0.051c36.147-0.768 54.592-16.768 56.55-52.659 1.728-31.718 1.702-63.693-0.064-95.411zM477.21 167.475c-0.934 43.123-35.533 76.851-78.477 77.248-34.56 0.32-69.133 0.269-103.706 0-45.171-0.333-78.387-33.626-79.014-78.976-0.23-16.832-0.038-33.664-0.038-50.496 0-17.715-0.192-35.443 0.038-53.158 0.563-44.339 32.806-77.619 76.659-78.336 35.443-0.576 70.912-0.55 106.355-0.026 43.354 0.627 77.44 34.278 78.221 77.427 0.64 35.43 0.717 70.886-0.051 106.317zM446.515 63.411c-1.536-28.749-17.805-47.232-46.144-48.576-36.211-1.728-72.64-1.818-108.851-0.051-27.52 1.344-43.904 18.982-44.864 46.605-1.229 35.366-1.37 70.848 0.051 106.189 1.139 28.262 19.418 45.338 48.205 46.208 33.626 1.011 67.315 0.96 100.941 0.090 32.397-0.845 49.677-19.11 50.88-52.211 0.576-15.91 0.102-31.859 0.102-47.795-0.051 0-0.102 0-0.166 0 0-16.819 0.73-33.677-0.166-50.445zM477.274 830.157c-0.678 45.158-33.562 79.206-78.618 80.461-35.418 0.986-70.912 1.139-106.304-0.154-43.955-1.613-75.712-35.482-76.326-79.36-0.23-16.819-0.038-33.651-0.038-50.483s-0.115-33.651 0.026-50.483c0.384-47.066 32.589-80.64 79.347-81.638 33.651-0.73 67.341-0.589 101.005-0.026 46.669 0.781 80.269 34.355 80.909 80.717 0.461 33.651 0.499 67.315 0 100.966zM446.63 732.070c-0.742-31.987-18.854-52.019-50.56-53.619-32.678-1.638-65.562-1.6-98.266-0.064-33.562 1.574-50.739 21.069-51.622 55.13-0.41 15.923-0.077 31.872-0.051 47.795 0.026 15.936-0.576 31.898 0.154 47.795 1.421 31.219 18.893 49.088 50.342 50.010 32.742 0.96 65.536 0.87 98.291 0.013 32.819-0.845 50.854-18.829 51.699-51.469 0.832-31.846 0.742-63.744 0-95.59z" />
<glyph unicode="&#xe84e;" glyph-name="oi-smile-add" d="M930.739 690.65c-14.848-0.026-29.773-1.011-44.506 0.23-17.869 1.51-25.446-3.443-24.23-23.206 1.792-28.915 0.499-58.035 0.422-87.066-0.013-5.376 0.038-10.854-0.909-16.115-1.28-7.053-4.634-13.376-13.12-12.442-7.206 0.794-9.702 6.618-9.933 13.248-0.397 11.456-0.755 22.925-0.806 34.394-0.115 23.629-1.050 47.322 0.307 70.874 0.96 16.781-5.683 20.787-21.107 20.352-32.358-0.922-64.768-0.371-97.152-0.218-8.717 0.038-19.686-0.717-19.149 11.93 0.486 11.52 10.803 12.109 19.866 12.122 33.741 0.064 67.482 0.448 101.21-0.179 12.378-0.23 16.486 4.083 16.218 16.384-0.678 30.362-0.794 60.774 0.090 91.123 0.32 10.854-5.773 28.992 11.674 29.376 17.638 0.397 12.416-17.613 12.659-28.685 0.666-30.362 0.909-60.774-0.077-91.123-0.448-13.696 4.39-17.382 17.306-17.088 31.027 0.704 62.067 0.243 93.107 0.205 4.723 0 9.498 0.205 14.144-0.422 7.283-0.998 13.466-4.467 12.954-12.723-0.499-8.166-6.554-10.995-14.259-10.957-18.214 0.077-36.442 0.026-54.656 0zM732.582 397.978c-0.102-194.458-158.938-353.446-353.101-353.434-197.018 0.013-355.866 159.014-355.162 355.507 0.691 193.408 161.152 352.589 355.2 352.371 193.101-0.218 353.165-160.896 353.062-354.432zM697.51 485.722c-36.454 129.626-150.746 227.187-281.728 240.486-139.418 14.157-268.506-55.693-332.147-178.419-19.597-37.798-28.723-78.246-36.339-119.411-3.558-20.915-3.891-41.818 0.166-62.707 1.19-3.814 2.995-7.552 3.482-11.456 9.984-80.678 47.258-147.059 106.432-201.536 108.186-99.597 268.467-113.434 396.058-34.739 123.238 76.006 183.13 228.902 144.077 367.782zM564.403 298.138c3.994 7.552 6.093 16.166-4.518 20.326-8.87 3.482-13.517-2.138-16.73-9.92-10.79-26.138-29.018-47.155-48.678-66.637-38.464-38.144-85.568-52.518-138.816-45.466-68.928 9.126-111.232 53.158-141.53 111.565-4.326 8.346-8.218 14.733-17.933 10.086-9.165-4.39-6.323-12.48-2.944-19.277 39.616-79.629 99.866-124.979 186.138-128.256 86.31 4.173 143.552 49.254 184.998 127.578zM251.174 497.408c-14.080-0.346-22.771-8.55-22.579-23.168 0.205-15.296 8.896-24.102 24.179-23.731 14.067 0.333 22.618 7.821 22.093 21.222-0.026 17.677-8.41 26.061-23.693 25.69zM528.858 472.538c0.486 14.822-7.13 24.486-22.63 25.011-15.475 0.525-24.128-8.973-24.627-23.373-0.512-15.014 9.165-22.822 23.974-24.192 14.208 0.947 22.822 8.397 23.283 22.554z" />
<glyph unicode="&#xe852;" glyph-name="oi-close" d="M487.131 448c0 8.777-7.314 12.434-12.434 16.823l-328.411 324.754-78.263 78.263c-8.046 8.046-19.749 19.017-8.046 29.257s22.674 0 31.451-7.314q201.143-201.143 397.897-400.091c21.211-21.943 21.211-21.943 43.154 0q198.949 196.754 394.24 393.509c10.24 10.24 21.211 29.257 36.571 13.897s-3.657-26.331-13.166-35.84l-397.897-393.509c-16.091-15.36-16.823-23.406 0-38.766q199.68-200.411 398.629-398.629c9.509-9.509 27.794-20.48 11.703-35.109s-24.869 0-33.646 12.434c-133.851 133.851-270.629 266.971-400.091 400.823-14.629 14.629-22.674 13.897-36.571 0-130.926-133.851-263.314-266.24-394.971-399.36-10.24-10.24-21.943-29.257-37.303-12.434s5.851 25.6 14.629 35.109l399.36 399.36c5.733 4.326 10.231 9.998 13.064 16.557l0.102 0.266z" />
<glyph unicode="&#xe861;" glyph-name="oi-view" d="M995.981 749.824c0 6.285 1.242 12.787-1.907 18.79-10.496 53.466-48.883 88.947-102.029 96.243-29.53 4.058-59.046 2.675-88.563 2.701-207.872 0.205-415.744 0.269-623.616 0.026-92.378-0.102-140.672-48.653-140.672-140.275 0-186.163 1.715-372.365-0.832-558.49-1.037-76.416 45.645-142.323 140.954-140.544 160.64 3.008 321.382 0.755 482.086 0.858 74.355 0.038 148.723-0.653 223.040 0.96 56.090 1.216 101.21 43.366 109.722 98.675 3.034 6.029 1.818 12.518 1.818 18.816 0.064 200.742 0.064 401.485 0 602.227zM278.81 834.97c8.192 4.672 17.178 2.931 25.856 2.931 187.072 0.090 374.144 0.128 561.216 0.038 68.275-0.038 103.667-35.264 103.91-102.925 0.064-19.174-0.717-38.387 0.243-57.51 0.755-14.912-3.315-21.376-19.789-21.35-218.253 0.435-436.506 0.282-654.746 0.41-5.478 0-10.957 1.638-16.448 2.509-6.541 22.669-2.662 45.85-2.534 68.71 0.205 35.725-3.533 71.59 2.304 107.187zM140.71 835.725c31.654 4.966 63.654 1.306 95.488 2.189 10.33 0.282 13.632-4.826 13.581-14.733-0.294-50.189-0.218-100.365-0.064-150.554 0.026-8.922-1.382-16.064-12.416-16.038-54.182 0.154-108.378 0.282-162.56 0.73-2.598 0.026-5.158 3.11-7.744 4.762-3.622 28.966-2.88 57.958-0.282 86.95-5.466 33.677 33.869 80.397 73.997 86.694zM969.766 162.573c-0.038-70.054-34.726-104.819-104.307-104.819-232.73-0.013-465.446-0.038-698.176 0.013-54.835 0-93.069 30.605-103.718 83.034-0.512 2.496 2.010 5.606 3.123 8.435-2.547 5.286-1.702 10.957-1.702 16.486-0.038 146.675-0.051 293.35 0.038 440.026 0 6.259-1.498 12.813 2.24 18.662 7.757 6.195 16.922 3.648 25.472 3.648 283.11 0.128 566.208-0.102 849.318 0.538 21.133 0.051 28.506-4.211 28.326-27.238-1.152-146.253-0.525-292.518-0.614-438.771z" />
<glyph unicode="&#xe862;" glyph-name="oi-archive" d="M526.886 387.674c12.378 0.474 17.254 11.392 24.358 18.483 49.28 49.19 98.048 98.918 146.982 148.454 3.187 3.226 6.438 6.413 9.664 9.613 7.872 7.821 17.574 15.898 27.046 5.824 7.834-8.346 1.83-18.291-5.76-25.869-66.445-66.33-132.851-132.685-199.206-199.104-11.443-11.456-21.939-10.752-33.229 0.576-66.278 66.496-132.749 132.8-199.155 199.155-7.245 7.232-15.398 16.333-6.848 25.318 9.498 9.984 19.302 1.984 27.11-5.888 54.323-54.874 108.595-109.786 162.931-164.646 4.198-4.237 8.704-8.166 13.696-12.826 8.269 7.322 4.8 16.090 4.8 23.552 0.23 152.154 0.154 304.307 0.218 456.474 0 7.539-0.934 15.629 1.408 22.49 3.84 11.277 11.187 16.294 21.171 4.723 3.93-7.898 1.958-16.358 1.971-24.525 0.141-152.55 0.051-305.101 0.243-457.651 0-8.026-2.803-16.614 2.598-24.154zM963.008 62.17c-10.406-42.355-39.539-66.534-82.47-66.56-245.235-0.205-490.47-0.256-735.718 0.026-48.499 0.051-84.57 35.597-85.478 84.685-1.050 55.962-1.037 111.974 0.038 167.949 0.87 45.722 28.698 77.658 74.125 83.226 50.33 6.17 101.082 4.646 151.629 0.55 28.813-2.33 48.998-18.035 63.13-42.406 3.789-6.528 7.782-13.043 10.637-19.994 15.552-37.888 43.661-52.429 84.237-50.803 49.882 1.997 99.891 0.73 149.85 0.384 30.733-0.205 54.464 10.47 67.763 39.718 3.43 7.552 7.923 14.618 11.61 22.067 15.706 31.654 40.461 51.277 76.262 52.39 48.32 1.498 96.832 4.621 144.986-1.907 39.334-5.325 61.542-27.699 69.632-66.752 2.662-67.533 3.085-135.066-0.218-202.586zM940.019 243.392c-0.192 41.805-21.12 63.411-62.4 63.936-40.883 0.512-81.779 0.371-122.662 0-26.368-0.23-46.618-11.059-57.92-36.045-3.738-8.256-8.115-16.218-12.16-24.346-17.459-35.085-45.197-53.363-84.992-53.133-57.536 0.333-115.085 0.499-172.634-0.051-40.781-0.397-69.133 17.882-86.822 53.99-4.326 8.832-8.96 17.51-13.184 26.394-10.163 21.35-28.109 32.179-50.598 32.755-45.402 1.152-90.88 1.459-136.256 0.026-31.437-0.998-52.48-22.938-55.194-52.966-2.598-62.285-3.2-124.57 0.32-186.842 14.925-35.866 27.942-45.274 64.499-45.286 242.291-0.077 484.582-0.102 726.874 0.013 41.843 0.026 62.899 20.979 63.13 62.63 0.307 52.979 0.256 105.946 0 158.925z" />
<glyph unicode="&#xe863;" glyph-name="oi-unarchive" d="M498.816 849.715c-12.378-0.474-17.254-11.392-24.358-18.483-49.28-49.19-98.048-98.918-146.982-148.454-3.187-3.226-6.438-6.413-9.664-9.613-7.872-7.821-17.574-15.898-27.046-5.824-7.834 8.346-1.83 18.291 5.76 25.869 66.445 66.33 132.851 132.685 199.206 199.104 11.443 11.456 21.939 10.752 33.229-0.576 66.278-66.496 132.749-132.8 199.155-199.155 7.245-7.232 15.398-16.333 6.848-25.318-9.498-9.984-19.302-1.984-27.11 5.888-54.323 54.874-108.595 109.786-162.931 164.646-4.198 4.237-8.704 8.166-13.696 12.826-8.269-7.322-4.8-16.090-4.8-23.552-0.23-152.154-0.154-304.307-0.218-456.474 0-7.539 0.934-15.629-1.408-22.49-3.84-11.277-11.187-16.294-21.171-4.723-3.93 7.898-1.958 16.358-1.971 24.525-0.141 152.55-0.051 305.101-0.243 457.651 0 8.026 2.803 16.614-2.598 24.154zM963.008 62.157c-10.406-42.355-39.539-66.534-82.47-66.56-245.235-0.205-490.47-0.256-735.718 0.026-48.499 0.051-84.57 35.597-85.478 84.685-1.050 55.962-1.037 111.974 0.038 167.949 0.87 45.722 28.698 77.658 74.125 83.226 50.33 6.17 101.082 4.646 151.629 0.55 28.813-2.33 48.998-18.035 63.13-42.406 3.789-6.528 7.782-13.043 10.637-19.994 15.552-37.888 43.661-52.429 84.237-50.803 49.882 1.997 99.891 0.73 149.85 0.384 30.733-0.205 54.464 10.47 67.763 39.718 3.43 7.552 7.923 14.618 11.61 22.067 15.706 31.654 40.461 51.277 76.262 52.39 48.32 1.498 96.832 4.621 144.986-1.907 39.334-5.325 61.542-27.699 69.632-66.752 2.662-67.533 3.085-135.066-0.218-202.586zM940.019 243.379c-0.192 41.805-21.12 63.411-62.4 63.936-40.883 0.512-81.779 0.371-122.662 0-26.368-0.23-46.618-11.059-57.92-36.045-3.738-8.256-8.115-16.218-12.16-24.346-17.459-35.085-45.197-53.363-84.992-53.133-57.536 0.333-115.085 0.499-172.634-0.051-40.781-0.397-69.133 17.882-86.822 53.99-4.326 8.832-8.96 17.51-13.184 26.394-10.163 21.35-28.109 32.179-50.598 32.755-45.402 1.152-90.88 1.459-136.256 0.026-31.437-0.998-52.48-22.938-55.194-52.966-2.598-62.285-3.2-124.57 0.32-186.842 14.925-35.866 27.942-45.274 64.499-45.286 242.291-0.077 484.582-0.102 726.874 0.013 41.843 0.026 62.899 20.979 63.13 62.63 0.307 52.979 0.256 105.946 0 158.925z" />
<glyph unicode="&#xe902;" glyph-name="oi-microphone" d="M509.85-24.41c-49.741 0-99.482-0.051-149.21 0.051-9.971 0.026-23.142-2.483-24.026 12.096-0.986 16.41 13.158 15.027 23.898 15.117 38.682 0.32 77.402 0.986 116.045-0.256 17.19-0.55 21.35 5.542 20.89 21.632-1.037 36.301-1.037 72.666 0.013 108.966 0.435 15.13-4.224 20.109-19.443 22.029-94.003 11.93-167.219 57.69-218.304 137.958-27.379 43.021-40.256 90.931-43.341 141.107-2.227 36.186-0.563 72.627-0.41 108.954 0.038 9.741 0.947 21.133 13.606 20.813 12.39-0.307 12.774-11.648 13.133-21.402 1.69-45.683-2.867-91.418 4.314-137.114 20.544-130.752 135.168-228.032 267.366-225.651 146.112 2.637 262.477 119.872 263.526 265.651 0.23 31.59-0.102 63.181 0.128 94.771 0.077 10.355 0.435 23.322 13.798 23.578 15.117 0.294 12.557-13.67 12.237-23.347-1.843-55.846 7.155-112.448-8.755-167.334-35.61-122.829-117.594-194.944-243.098-216.154-22.579-3.814-30.976-10.304-29.389-33.818 2.189-32.23 1.587-64.768 0.154-97.088-0.858-19.341 6.336-24.166 24.576-23.552 37.85 1.267 75.776 0.435 113.677 0.346 11.149-0.026 24.806 0.666 24.115-15.091-0.627-14.336-13.824-12.237-23.923-12.25-50.522-0.051-101.056-0.026-151.578-0.026zM686.541 445.12c-0.768-93.146-71.475-167.181-164.314-172.582-96.269-5.606-177.677 59.277-184.986 154.458-8.768 114.138-8.806 228.877 0.269 343.066 6.541 82.458 79.488 153.126 177.088 151.398 96.973-1.728 171.469-79.13 171.981-172.992 0.282-50.56 0.051-101.12 0.051-151.667 0-50.56 0.346-101.12-0.077-151.667zM659.674 594.342c0 49.754 0.179 99.507-0.038 149.261-0.384 85.44-65.856 151.296-149.811 150.976-83.187-0.32-147.2-64.947-147.686-150.413-0.563-98.714-0.525-197.44-0.013-296.154 0.448-85.875 63.718-148.634 148.378-148.365 86.182 0.269 148.915 63.373 149.158 150.182 0.128 48.179 0.026 96.346 0.026 144.525z" />
<glyph unicode="&#xe903;" glyph-name="oi-microphone-off" d="M31.142 842.253c4.134-2.675 9.344-5.478 13.901-9.114 124.109-98.688 248.077-197.555 372.211-296.205 136.499-108.48 273.126-216.794 409.702-325.184 52.058-41.318 104.102-82.637 156.122-123.994 5.146-4.096 10.138-8.397 15.040-12.774 5.824-5.184 6.848-11.418 1.69-17.331-5.082-5.824-10.726-3.046-15.718 0.794-13.030 10.048-26.061 20.109-38.938 30.349-215.808 171.635-431.578 343.309-647.398 514.931-88.064 70.054-176.243 139.981-264.32 210.022-4.595 3.661-9.011 7.667-12.89 12.058-2.688 3.046-3.379 6.976-0.64 10.906 2.483 3.584 5.939 4.954 11.251 5.542zM241.254 488.704c-5.773 7.155-12.032 13.632-21.606 16.525-7.898-65.254-0.627-129.613 23.283-179.059 47.411-98.035 125.491-155.443 233.754-169.933 17.062-2.278 22.131-8.384 21.517-25.203-1.267-35.456-1.126-71.002-0.064-106.47 0.499-16.589-4.826-21.747-21.478-21.235-37.837 1.165-75.725 0.576-113.6 0.243-11.136-0.102-27.034 3.584-26.842-14.157 0.179-15.834 14.848-13.018 25.536-13.030 99.405-0.090 198.822-0.128 298.227 0.077 9.28 0.013 21.658-4.442 22.003 12.826 0.371 18.816-13.274 14.131-23.219 14.259-44.173 0.55-88.346 0.512-132.518 0.678-6.618 49.088-4.352 98.253-1.075 147.418 29.658 6.733 60.442 8.563 88.909 20.378 5.453 2.266 14.515 1.933 14.413 9.51-0.115 7.59-8.883 10.394-14.605 14.118-6.682 4.339-13.376 0.358-20.198-1.651-38.003-11.187-76.288-16.026-116.237-10.342-127.258 18.125-210.304 108.288-231.846 226.010-6.208 26.086 1.741 52.941-4.378 79.027zM660.109 737.536c0.141-71.693-0.038-143.386 0.243-215.078 0.026-7.411-3.379-15.782 3.52-22.272 5.427-4.826 9.728-11.29 17.805-12.275 3.686 7.475 1.92 15.475 1.933 23.219 0.154 73.882 0.256 147.75-0.038 221.632-0.064 16.397 2.304 32.947-1.92 49.203-10.637 75.904-85.158 142.566-176.973 138.854-83.277-3.366-145.395-59.136-166.515-140.070-6.131-23.488 3.597-32.704 23.475-39.347 5.133 104.986 75.84 150.464 147.29 151.501 78.874 1.139 139.558-51.085 148.979-129.728 3.891-8.269 2.176-17.075 2.189-25.638zM805.274 428.89c0.179 37.683 0 75.366 0.128 113.050 0.038 10.675-0.294 23.283-13.44 23.181-13.056-0.102-13.414-12.928-13.414-23.462-0.026-37.683 1.536-75.469-0.768-113.011-1.139-18.522 5.875-27.494 21.030-34.522 5.043 11.418 6.413 23.040 6.464 34.765z" />
<glyph unicode="&#xe904;" glyph-name="oi-microphone-off-filled" d="M687.078-12.915c-0.909-14.784-14.374-11.776-24.192-11.814-50.598-0.192-101.197-0.090-151.795-0.090-49.805 0-99.61-0.051-149.414 0.051-10.035 0.026-23.309-2.24-23.808 12.378-0.576 16.832 14.195 13.888 24.576 13.99 39.526 0.384 79.066 0.691 118.579-0.141 13.76-0.282 17.818 4.403 17.549 17.715-0.704 34.816-2.342 69.811 0.474 104.41 1.997 24.512-8.038 30.31-29.248 33.216-91.008 12.442-159.859 60.006-208.883 136.896-28.326 44.416-40.934 94.016-43.213 146.099-1.459 33.178-0.307 66.47-0.256 99.712 0.013 11.046-1.331 25.242 14.042 24.883 13.44-0.307 12.429-13.875 12.762-24.141 1.574-47.36-3.123-94.81 5.542-142.080 22.81-124.48 131.315-216.243 259.686-218.304 52.646-0.845 102.515 14.016 144.73 40.525 0.55 0.218 1.114 0.448 1.664 0.717-3.046-1.446 0.87-0.038 2.97 0.666 0.678 0.064 2.624 0.358 3.366 0.358 1.254 0 5.76-0.87 2.317-0.051 1.19-0.243 2.368-0.563 3.533-0.934 0.154-0.077 0.307-0.154 0.486-0.243 1.050-0.614 2.086-1.216 3.123-1.843-0.141 0 1.882-1.562 2.47-2.086 0.154-0.179 0.282-0.333 0.41-0.474 0.576-0.87 1.152-1.728 1.69-2.637 0.192-0.371 0.384-0.73 0.576-1.101 0.102-0.32 0.269-0.819 0.525-1.523 0.141-0.589 0.73-6.118 0.627-2.586 0.038-0.666 0.064-1.318 0.051-1.984 0-0.051-0.013-0.077-0.026-0.128-0.154-0.653-0.371-1.293-0.589-1.933-0.051-0.115-0.102-0.205-0.154-0.333-0.512-0.922-1.024-1.83-1.549-2.739-32.832-21.325-71.027-36.109-114.688-44.198-35.354-6.554-35.571-5.402-35.571-41.754 0-31.654 0.474-63.322-0.205-94.976-0.307-14.323 4.749-19.418 19.302-19.123 39.514 0.806 79.053 0.435 118.579 0.179 10.637-0.064 25.037 2.266 24-14.566zM1003.162 69.542c-0.141-4.544-1.997-7.68-5.722-9.882-5.824-3.43-10.112 0.090-14.144 3.251-24.717 19.392-49.357 38.886-73.946 58.445-289.958 230.554-579.891 461.146-869.824 691.725-0.512 0.41-1.050 0.794-1.51 1.254-6.31 6.477-20.224 11.456-10.394 22.81 9.139 10.547 17.92-0.512 25.075-6.17 59.034-46.669 117.773-93.722 176.678-140.57 34.982-27.814 69.965-55.629 104.947-83.456-0.090 44.096 0.141 88.179 1.242 132.237 2.214 89.101 49.613 151.002 127.501 174.336 111.616 33.434 224.653-50.035 224.998-166.259 0.154-50.637 0.026-101.286 0.026-151.923s0.218-101.286-0.051-151.923c-0.179-35.354-10.534-67.955-28.442-95.117 25.958-20.646 45.478-34.278 71.437-54.912-1.843 2.598 2.432-2.048 0 0 19.942 28.429 34.547 61.056 42.189 96.563 8.973 41.651 5.402 83.469 6.554 125.274 0.243 8.704-0.218 17.421 0.128 26.112 0.41 10.432 0.947 23.398 14.298 23.283 14.848-0.128 12.173-14.016 11.917-23.808-1.702-65.293 7.872-131.533-17.203-194.867-10.214-25.805-22.541-49.075-36.928-69.824-2.867 2.112 3.034-1.856 0 0 44.941-35.738 80.947-65.638 125.888-101.376 37.901-30.144 75.75-60.352 113.574-90.598 5.005-4.006 11.11-7.309 11.712-14.592z" />
<glyph unicode="&#xe905;" glyph-name="oi-microphone-filled" d="M688.077 593.421c0-50.637 0.218-101.286-0.051-151.923-0.474-92.774-70.886-166.669-164.442-172.915-91.533-6.106-171.878 58.342-184.883 148.454-1.69 11.738-3.597 23.59-3.622 35.392-0.256 94.95-1.869 189.939 0.474 284.838 2.214 89.101 49.613 151.002 127.501 174.336 111.616 33.434 224.653-50.035 224.998-166.259 0.154-50.637 0.026-101.286 0.026-151.923zM662.899-27.93c9.805 0.038 23.283-2.97 24.192 11.814 1.037 16.832-13.363 14.502-24 14.566-39.526 0.256-79.066 0.627-118.579-0.179-14.554-0.294-19.61 4.8-19.302 19.123 0.666 31.642 0.205 63.309 0.205 94.976 0 36.365 0.218 35.2 35.571 41.754 110.669 20.506 186.445 83.776 227.955 188.595 25.075 63.334 15.488 129.574 17.203 194.867 0.256 9.792 2.931 23.68-11.917 23.808-13.35 0.115-13.875-12.838-14.298-23.283-0.346-8.691 0.102-17.421-0.128-26.112-1.152-41.792 2.419-83.622-6.554-125.274-26.573-123.405-137.152-212.096-263.731-210.061-128.371 2.061-236.89 93.811-259.686 218.304-8.666 47.27-3.968 94.72-5.542 142.080-0.346 10.266 0.678 23.821-12.762 24.141-15.386 0.358-14.029-13.837-14.042-24.883-0.051-33.242-1.19-66.534 0.256-99.712 2.278-52.083 14.899-101.683 43.213-146.099 49.037-76.89 117.875-124.454 208.883-136.896 21.21-2.906 31.245-8.704 29.248-33.216-2.816-34.598-1.178-69.606-0.474-104.41 0.269-13.312-3.789-17.997-17.549-17.715-39.514 0.819-79.053 0.525-118.579 0.141-10.381-0.102-25.152 2.854-24.576-13.99 0.499-14.63 13.773-12.365 23.808-12.378 49.805-0.102 99.61-0.051 149.414-0.051 50.598 0 101.197-0.102 151.795 0.090z" />
<glyph unicode="&#xe906;" glyph-name="oi-menu" d="M511.27 431.014c-146.394 0-292.787 0-439.194 0-7.309 0-14.656-0.218-21.939 0.346-8.141 0.614-14.221 5.286-15.283 13.286-1.306 9.805 5.427 15.411 14.080 17.216 7.053 1.472 14.554 1.024 21.862 1.024 294.618 0.038 589.248 0.038 883.866 0.038 3.661 0 7.322 0.115 10.982-0.051 11.251-0.512 24.346-1.152 24.538-15.629 0.218-16.653-13.683-16.269-25.997-16.269-100.646 0.064-201.293 0.038-301.939 0.038-50.33 0-100.646 0-150.976 0zM951.949 772.173c14.438 0.038 36.902-5.53 37.606 15.923 0.832 25.229-23.872 17.69-38.106 17.728-291.725 0.614-583.462 0.614-875.187 0.026-14.63-0.026-39.846 7.373-40.346-15.424-0.55-24.832 24.998-18.125 40.845-18.189 145.408-0.499 290.816-0.294 436.224-0.294 146.317 0 292.646-0.141 438.963 0.23zM62.579 118.874c-11.917 0-26.829 1.229-27.558-14.912-0.73-15.974 13.99-16.486 25.997-17.498 3.635-0.307 7.322-0.102 10.982-0.102 293.773 0 587.546 0 881.306 0.051 7.283 0 14.682 0.141 21.811 1.408 8.64 1.523 16.141 5.978 15.578 16.038-0.538 9.613-7.309 14.31-16.614 14.822-7.296 0.41-14.643 0.205-21.952 0.205-145.51 0-291.021 0-436.531 0-151.002 0-302.003 0.013-453.005-0.026z" />
<glyph unicode="&#xe907;" glyph-name="oi-maximize" d="M86.861 45.67c8.23-1.216 11.955 5.222 16.627 9.92 104.947 105.677 209.792 211.469 314.944 316.941 8.858 8.883 19.379 26.125 33.011 12.122 12.211-12.531-3.968-22.874-12.531-31.373-107.789-107.11-215.821-213.965-323.75-320.934-1.536-1.523-2.509-3.622-3.802-5.542 4.57-8.358 12.224-4.57 18.266-4.582 69.606-0.256 139.213-0.141 208.819-0.166 6.042 0 12.198 0.333 18.112-0.64 7.053-1.165 13.414-4.48 12.71-13.107-0.64-7.872-5.773-11.955-13.632-12.352-3.776-0.192-7.565-0.115-11.341-0.115-85.491 0-170.995 0.358-256.486-0.282-18.739-0.141-27.878 4.877-27.725 25.408 0.653 86.144 0.090 172.301 0.486 258.445 0.051 12.39-2.611 30.31 20.736 20.71 4.634-14.003 1.946-28.416 2.022-42.598 0.358-63.45 0.038-126.899 0.333-190.349 0.038-7.142-3.213-15.155 3.187-21.491zM964.774 603.75c0.218 94.899 0.166 189.786 0.038 284.685 0 2.458-1.306 4.25-2.202 6.285-5.875 7.872-14.566 6.886-22.746 6.886-85.491 0.077-170.995 0.154-256.486-0.090-10.138-0.026-24.064 1.613-24.333-13.325-0.294-16.090 13.926-12.557 23.898-12.57 71.872-0.179 143.757-0.026 215.629-0.23 5.658-0.013 13.466 3.149 16.64-2.918 3.52-6.733-4.275-10.342-8.23-14.272-99.328-98.47-198.771-196.826-298.189-295.206-9.677-9.574-19.546-18.97-28.723-29.005-6.246-6.835-12.531-15.603-3.302-23.629 8.256-7.181 16.96-2.688 23.962 4.416 3.187 3.226 6.438 6.387 9.651 9.6 99.904 100.058 199.731 200.192 299.814 300.058 8.742 8.717 14.707 20.723 27.008 26.24 6.272-7.667 3.584-15.462 3.61-22.592 0.218-71.040 0.013-142.067 0.205-213.107 0.051-21.414 4.531-24.704 21.722-17.562 0.832 2.074 2.035 3.942 2.048 6.362z" />
<glyph unicode="&#xe908;" glyph-name="oi-map" d="M62.656 532.774c6.272 19.443 20.186 30.31 39.027 36.992 51.584 18.266 102.81 37.555 154.496 55.501 6.106 2.125 15.642 12.429 21.542-1.971 6.195-15.117-5.837-16.538-14.835-19.878-50.688-18.816-101.235-38.016-152.256-55.885-18.726-6.554-26.458-17.869-26.419-37.235 0.282-130.714 0-261.427 0.269-392.154 0.064-29.248 16.013-40 43.469-29.939 65.229 23.91 130.227 48.461 195.571 72.038 12.237 4.416 16.026 11.021 15.923 23.603-0.55 63.002-0.358 126.016-0.115 189.030 0.038 8.576-3.635 21.274 11.469 20.557 12.698-0.602 10.419-11.981 10.445-20.224 0.192-63.68 0.422-127.373-0.179-191.040-0.115-12.122 3.738-17.626 15.334-21.133 91.405-27.661 182.669-55.744 273.843-84.134 15.411-4.8 14.835 3.712 14.81 14.195-0.154 91.162-0.358 182.336 0.282 273.498 0.077 10.304-6.95 28.736 11.853 28.275 16.179-0.397 10.291-17.69 10.355-27.674 0.538-90.496 0.666-180.992 0-271.488-0.128-17.152 3.059-20.71 20.058-14.259 69.338 26.33 139.046 51.674 208.934 76.506 18.15 6.451 24.96 17.894 24.934 36.186-0.192 131.392 0.026 262.771-0.205 394.163-0.051 28.518-14.848 38.618-42.035 28.941-50.355-17.907-100.506-36.442-150.81-54.49-6.029-2.163-11.789-6.477-19.213-4.416 1.51 17.165 9.946 26.202 26.829 31.821 44.979 14.989 89.766 30.899 133.517 49.101 41.254 17.165 76.019-11.123 75.354-52.314-2.125-131.354-0.768-262.758-0.794-394.15 0-31.859-8.448-44.365-38.566-55.565-78.221-29.094-156.646-57.613-234.701-87.142-12.864-4.864-23.565-1.19-34.944 2.342-96.371 29.85-192.781 59.571-288.986 89.984-12.301 3.891-22.938 3.482-34.726-0.947-65.037-24.435-130.202-48.486-195.392-72.499-36.48-13.44-58.048-4.224-74.176 31.27-3.085 5.632-1.946 11.776-1.946 17.715-0.064 133.056-0.064 266.099 0 399.155 0 5.939-1.152 12.083 1.984 17.702zM700.621 655.526c-1.382-34.752-17.779-71.296-36.275-106.97-34.893-67.315-80.282-127.667-126.387-187.443-13.069-16.947-35.648-17.907-48.397-1.37-56.333 73.101-111.232 146.995-148.454 232.576-50.688 116.544 32.397 252.429 168.282 255.373 110.387 2.394 189.773-83.136 191.232-192.179zM677.683 665.434c-1.126 20.429-6.502 44.198-16.435 66.65-27.277 61.594-102.477 101.299-176.384 89.702-97.229-15.258-164.275-123.29-123.136-217.459 35.674-81.677 86.579-152.781 140.557-222.413 7.462-9.638 13.594-11.008 21.811-0.333 47.744 62.016 94.899 124.467 128.243 195.789 12.39 26.509 25.203 53.389 25.357 88.090zM586.483 672.218c-0.23-41.984-31.462-73.728-72.576-73.741-42.803 0-75.046 32.115-74.88 74.586 0.166 40.768 33.459 74.56 73.574 74.675 41.958 0.115 74.099-32.742 73.869-75.52zM564.275 671.667c0.358 30.067-21.363 52.019-51.354 51.904-28.851-0.102-50.88-21.683-51.277-50.227-0.397-29.235 22.349-52.262 51.661-52.288 28.582-0.026 50.624 21.85 50.97 50.611z" />
<glyph unicode="&#xe909;" glyph-name="oi-headset" d="M985.306 380.288c-0.205 35.162 2.035 70.362-1.459 105.485-3.302 67.661-25.318 129.574-57.818 188.262-97.779 176.512-310.579 273.818-507.034 226.829-257.357-61.555-396.134-275.149-371.021-559.539 0.794-8.934 5.018-15.552 14.63-14.797 9.638 0.755 12.262 8.026 12.211 16.934-0.154 31.411-0.282 62.822 0.026 94.221 0.474 50.099 7.334 99.187 23.821 146.739 67.354 194.266 263.475 320.576 468.864 296.627 216.474-25.242 386.995-206.592 392.294-424.512 2.253-92.595 1.229-185.293 0.525-277.939-0.486-63.552-42.086-104.602-105.101-105.088-67.482-0.512-134.976 0.141-202.47-0.346-13.338-0.090-20.39 2.867-25.536 17.114-13.568 37.542-41.011 54.643-81.421 54.72-18.829 0.038-37.67 0.192-56.499-0.038-49.766-0.589-87.078-37.261-87.27-85.53-0.192-48.576 36.39-86.221 85.901-87.782 19.597-0.627 39.232-0.192 58.854-0.038 39.168 0.307 67.738 19.264 80.653 56.486 4.851 13.978 11.763 17.549 25.485 17.421 67.482-0.589 134.976-0.653 202.47-0.154 65.651 0.486 115.213 40.858 127.744 102.912 4.224 7.322 2.15 15.334 2.176 23.002 0.179 69.67 0.397 139.341-0.013 209.011zM546.086-1.114c-19.558-0.371-39.142-0.512-58.688 0.064-35.226 1.050-58.918 25.242-59.123 59.622-0.218 34.586 23.219 57.997 59.085 58.854 10.163 0.243 20.339 0.038 30.515 0.051 9.395 0 18.778 0.128 28.173 0 38.323-0.576 61.222-22.669 61.082-58.842-0.141-35.725-23.744-59.021-61.043-59.738zM370.829 287.104c-1.83 31.283-0.32 62.771-0.32 94.17 0 37.67 0.512 75.354-0.141 113.024-0.691 39.718-23.821 66.15-59.264 64.256-55.795-2.982-101.363-25.472-128.154-77.594-23.040-44.826-20.326-93.082-15.859-140.608 6.093-64.96 41.165-109.274 104.499-127.629 68.787-19.93 102.989 10.573 99.238 74.394zM341.53 269.581c-0.269-26.752-14.618-38.605-40.794-34.714-57.178 8.486-96.653 43.494-105.126 101.158-7.757 52.762-11.955 106.944 26.355 152.499 21.197 25.19 48.845 38.899 81.37 42.010 26.304 2.509 37.939-8.333 38.195-34.957 0.358-38.451 0.090-76.902 0.090-115.354 0-36.877 0.282-73.766-0.090-110.643zM870.413 404.659c-0.32 81.882-45.12 135.923-125.453 151.821-47.77 9.446-78.464-14.694-79.219-63.13-0.576-36.877-0.115-73.754-0.115-110.643 0-37.67-0.499-75.341 0.141-112.998 0.666-39.066 24.499-65.19 60.288-63.13 60.544 3.482 114.291 32.666 136.090 100.211 10.368 32.102 8.397 65.037 8.269 97.869zM815.859 279.309c-21.632-27.597-50.688-40.986-84.531-44.851-24.115-2.752-38.554 11.059-39.194 38.4-0.858 36.787-0.218 73.6-0.243 110.4-0.026 35.238-0.538 70.49 0.115 105.702 0.627 33.984 17.088 46.95 49.83 40.717 51.866-9.869 90.355-45.12 97.958-97.51 7.629-52.582 12.531-106.33-23.936-152.87z" />
<glyph unicode="&#xe90a;" glyph-name="oi-headphone" d="M981.734 328.333c0-30.451-0.064-60.915 0.026-91.366 0.026-9.958-0.96-20.685-13.222-20.826-12.378-0.154-13.376 10.406-13.338 20.48 0.141 48.422 0.154 96.832 0.051 145.254-0.474 222.080-151.731 402.522-370.342 441.869-238.989 43.008-477.99-133.632-507.635-374.438-8.154-66.24-3.251-132.595-4.928-198.874-0.154-6.246-0.115-12.493-0.051-18.739 0.090-9.216-4.237-15.859-13.44-15.629-9.382 0.23-12.979 7.578-12.736 16.461 2.432 91.814-8.41 184.23 15.232 275.021 61.581 236.454 297.754 386.406 537.549 340.685 224.486-42.803 382.682-233.434 382.848-461.325 0.013-19.52 0-39.053 0-58.573zM366.669 242.394c0-45.299 0.205-90.598-0.051-135.885-0.269-47.334-19.904-66.394-66.906-66.88-26.688-0.282-53.184-0.128-78.234 10.714-51.226 22.182-80.947 61.926-85.619 116.582-4.442 51.981-6.093 104.704 1.011 156.595 14.554 106.33 116.186 136.614 191.104 119.654 24.538-5.555 38.336-28.595 38.592-60.224 0.384-46.861 0.102-93.709 0.102-140.57zM340.621 242.214c-0.013 45.286 0.179 90.586-0.102 135.872-0.128 20.454-6.477 38.554-29.594 41.306-75.302 8.973-131.712-30.016-146.15-91.392-9.805-41.651-3.981-83.994-4.416-125.99-0.947-88.691 47.846-136.678 135.744-135.731 35.085 0.371 44.032 8.922 44.416 44.736 0.474 43.725 0.115 87.462 0.102 131.187zM893.594 187.264c-0.653-87.347-60.762-147.341-147.558-147.507-72.704-0.141-85.146 12.429-85.146 86.131 0 39.053 0 78.093 0 117.146 0 45.299-0.179 90.586 0.051 135.885 0.243 47.040 21.747 68.096 69.312 68.506 103.808 0.883 163.341-58.061 163.366-161.754 0-32.794 0.205-65.6-0.038-98.394zM867.226 288.499c0.845 80.768-50.88 131.738-131.686 131.904-37.325 0.077-48.333-10.842-48.538-49.139-0.23-42.944-0.051-85.901-0.038-128.845 0.013-44.506-0.448-89.024 0.256-133.53 0.256-16.269 0.666-36.301 20.864-40.128 66.176-12.544 134.707 11.366 154.342 86.746 11.354 43.61 4.339 88.627 4.813 132.979z" />
<glyph unicode="&#xe90b;" glyph-name="oi-filter" d="M941.555 850.778c-14.643 6.413-30.515 6.771-46.234 6.771-255.795 0.026-511.578 0.038-767.373-0.077-9.37 0-18.816-0.87-28.096-2.176-26.547-3.738-43.981-18.995-53.606-43.648-10.65-27.277-2.138-50.214 15.219-71.859 96.627-120.474 191.808-242.15 290.163-361.19 32.141-38.899 56-76.851 44.019-129.011 0-14.118 0.87-28.301-0.166-42.33-2.496-33.805 10.586-58.317 38.938-77.286 38.413-25.702 75.635-53.248 112.704-80.896 18.048-13.466 36.454-17.907 56.922-8.013 20.646 9.984 24.371 28.736 24.307 49.446-0.205 63.514 1.126 127.066-0.614 190.541-0.781 28.275 5.133 51.149 24.845 72.346 22.362 24.051 41.549 51.046 62.106 76.774 83.674 104.704 167.68 209.152 250.842 314.266 29.466 37.248 17.28 88.282-23.974 106.342zM941.99 759.078c-107.302-134.106-214.067-268.621-321.69-402.47-13.005-16.166-19.686-31.91-19.328-53.030 1.165-69.786 0.474-139.61 0.397-209.408 0-10.854 1.677-22.81-10.778-28.787-11.814-5.658-20.992 0.934-30.054 7.578-37.965 27.789-75.891 55.629-114.074 83.11-12.634 9.088-22.118 19.827-24.397 35.738-4.122 38.707-0.704 77.542-1.946 116.301-0.294 9.203 2.022 18.675-2.125 27.597-44.083 55.987-87.974 112.115-132.275 167.923-67.763 85.363-135.654 170.624-203.866 255.616-11.328 14.118-16.422 28.083-8.41 45.338 8.371 18.061 23.078 24.064 41.971 24.051 264.474-0.115 528.96-0.115 793.434 0 18.97 0 33.421-6.336 41.856-24.282 8.179-17.408 2.522-31.27-8.678-45.274z" />
<glyph unicode="&#xe90c;" glyph-name="oi-event" d="M924.826 685.35c-0.307 61.517-43.328 106.266-104.051 115.379-28.314 4.25-56.627 2.125-84.928 2.15-14.298 0.013-19.699 4.57-19.213 19.046 0.832 25.203 0.269 50.445 0.205 75.674-0.026 9.459 1.152 20.928-12.365 21.21-13.286 0.282-13.453-11.072-13.568-20.595-0.282-24.435-0.909-48.909 0.141-73.306 0.666-15.539-2.688-22.246-20.403-22.106-105.626 0.806-211.251 0.781-316.877 0.013-17.651-0.128-21.094 6.643-20.506 22.208 0.973 25.178 0.448 50.445-0.128 75.661-0.384 16.755-7.066 24.358-23.68 13.389-6.054-15.68-1.51-32.026-2.982-48-1.894-20.467 4.045-41.37-3.418-61.53-22.003-0.448-44.006-1.203-66.010-1.293-73.83-0.307-111.629-26.778-136.23-95.782-3.866-6.566-2.458-13.811-2.458-20.787-0.077-197.53-0.077-395.059 0-592.576 0-6.976-1.459-14.221 2.419-20.787 21.811-69.248 59.2-96.512 132.211-96.512 189.965 0 379.942-0.038 569.907 0.026 69.709 0.026 121.6 48.192 121.946 117.299 0.973 197.069 0.96 394.163-0.038 591.232zM899.046 105.51c-0.154-64.41-37.53-101.325-101.542-101.35-189.99-0.077-379.981-0.090-569.971 0-64.589 0.038-101.133 36.326-101.235 101.094-0.23 145.856 0.269 291.712-0.486 437.568-0.102 19.251 4.454 25.408 24.64 25.242 121.395-0.973 242.803-0.486 364.211-0.486 119.834 0 239.654-0.41 359.475 0.422 19.405 0.141 25.562-4.954 25.446-24.934-0.794-145.856-0.192-291.712-0.538-437.568zM876.608 594.957c-132.429 0.691-264.87 0.384-397.299 0.384-110.362 0-220.723 0.448-331.085-0.448-18.15-0.141-23.334 5.389-22.31 22.669 1.344 22.784-0.563 45.773 0.87 68.544 3.11 49.267 34.419 83.456 82.765 87.757 31.194 2.778 62.835 3.162 94.195-0.755 5.773-18.048 1.126-36.595 2.624-54.835 0.678-8.333-1.805-16.973 2.509-24.934 15.501-12.070 23.168-5.914 24.154 11.354 0.986 17.293 0.947 34.688 0.358 52.006-0.41 12.416 2.522 18.611 16.883 18.547 107.994-0.474 216-0.486 323.994 0 14.528 0.064 17.126-6.259 16.678-18.573-0.64-17.318-0.256-34.688 0.064-52.019 0.179-9.434 3.046-18.035 14.618-17.011 10.086 0.896 11.354 9.152 11.302 17.626-0.102 18.138 0.179 36.262-0.090 54.4-0.154 10.829 4.224 15.693 15.475 15.462 26.79-0.55 53.722 1.178 80.358-0.909 51.341-4.019 84.352-41.126 86.336-95.142 0.742-20.467-0.883-41.062 0.461-61.466 1.178-17.818-5.21-22.758-22.848-22.669zM704.128 335.424c-5.222 13.632-16.998 17.498-30.042 19.251-19.507 2.624-38.925 6.195-58.509 7.821-23.782 1.984-40.832 10.138-49.165 35.072-6.426 19.213-17.715 36.8-26.739 55.155-5.53 11.251-13.082 19.712-26.662 20.186-13.914 0.486-21.606-8.282-27.251-19.226-11.917-23.078-24.128-46.067-34.778-69.734-5.184-11.533-12.787-16.883-24.602-18.483-25.741-3.494-51.469-7.104-77.133-11.046-12.89-1.984-24.307-6.451-29.325-20.365-5.133-14.259 1.408-24.038 11.11-33.37 17.6-16.934 33.907-35.354 52.557-51.008 12.813-10.765 15.501-21.683 12.198-37.158-5.414-25.37-9.178-51.098-12.864-72.282-2.15-30.528 16.909-44.57 40.986-33.498 24.282 11.162 48.166 23.424 71.27 36.851 12.608 7.322 22.234 6.81 34.586-0.422 21.030-12.301 43.059-22.963 65.037-33.536 31.514-15.168 48.858-3.558 45.658 31.693-2.342 25.779-6.938 51.43-12.045 76.838-2.509 12.518 0.589 20.352 9.933 28.787 18.701 16.87 35.904 35.379 53.99 52.966 10.214 9.933 17.498 20.621 11.789 35.533zM611.738 258.867c-12.493-10.982-16.653-21.926-12.454-39.194 6.797-27.942 9.766-56.806 15.181-90.445-31.718 16.755-58.906 30.502-85.453 45.427-11.597 6.515-21.248 6.592-32.909 0.102-26.586-14.81-53.837-28.416-82.573-43.43-3.648 34.010 8.038 62.861 12.685 92.57 2.048 13.12 0.115 22.323-9.805 31.334-22.669 20.582-44.544 42.035-70.221 66.445 34.624 12.378 65.203 12.595 94.72 17.050 14.618 2.214 22.272 7.795 28.109 20.352 10.624 22.835 22.234 45.21 33.741 67.61 2.381 4.634 3.11 12.186 9.011 12.582 7.834 0.538 8.653-8 11.341-13.248 11.494-22.426 23.014-44.864 33.69-67.686 5.453-11.661 12.096-17.984 26.214-19.315 29.568-2.803 58.867-8.41 88.282-12.864 1.446-2.778 2.893-5.555 4.339-8.346-21.261-19.699-42.15-39.795-63.91-58.931z" />
</font>
</defs>
</svg>
