<?xml version="1.0" encoding="UTF-8"?>
<svg id="Layer_1" data-name="Layer 1" xmlns="http://www.w3.org/2000/svg" viewBox="0 0 162 120">
  <defs>
    <style>
      .cls-1 {
        fill: #f2f2f3;
      }

      .cls-2 {
        stroke-width: .5px;
      }

      .cls-2, .cls-3 {
        stroke: #515251;
        stroke-miterlimit: 10;
      }

      .cls-2, .cls-3, .cls-4 {
        fill: none;
      }

      .cls-3 {
        stroke-width: .25px;
      }

      .cls-5 {
        fill: #515351;
      }
    </style>
  </defs>
  <rect class="cls-4" width="162" height="120"/>
  <rect class="cls-1" x="49.63" y="8.82" width="62.74" height="97.59"/>
  <line class="cls-2" x1="66.4" y1="29.03" x2="95.6" y2="29.03"/>
  <rect class="cls-5" x="55.34" y="74.72" width="51.8" height="7.49" rx="3.74" ry="3.74"/>
  <rect class="cls-5" x="55.34" y="94.87" width="22.65" height="6.01" rx="3" ry="3"/>
  <rect class="cls-5" x="84.48" y="94.87" width="22.65" height="6.01" rx="3" ry="3"/>
  <rect class="cls-5" x="74.76" y="90.66" width="12.94" height="1.04"/>
  <rect class="cls-5" x="67.21" y="86.45" width="26.38" height="1.04"/>
  <rect class="cls-3" x="55.34" y="38.14" width="51.8" height="5.84" rx="2.92" ry="2.92"/>
  <rect class="cls-3" x="55.34" y="51.49" width="51.8" height="5.84" rx="2.92" ry="2.92"/>
  <rect class="cls-3" x="55.34" y="63.76" width="51.8" height="5.84" rx="2.92" ry="2.92"/>
  <path d="m86.81,17.42c0-.23-.08-.44-.22-.63-.24-.33-.57-.49-.98-.49-.44,0-.88,0-1.31,0-.27,0-.45-.14-.54-.4-.11-.33-.22-.67-.34-1-.08-.22-.26-.33-.49-.33-1.3,0-2.59,0-3.89,0-.22,0-.4.12-.47.32-.12.34-.23.68-.35,1.02-.04.12-.11.22-.21.3-.11.08-.23.09-.36.09-.42,0-.84,0-1.26,0-.21,0-.41.04-.6.15-.38.22-.61.55-.61.99,0,1.74,0,3.49,0,5.23,0,.23.06.45.2.64.21.3.5.5.88.51.35,0,.71,0,1.06,0,1.2,0,2.4,0,3.6,0h0c1.48,0,2.96,0,4.45,0,.16,0,.32,0,.48-.02.53-.08.95-.57.95-1.1,0-1.76,0-3.52,0-5.28Zm-5.87,5.27c-1.57-.03-2.86-1.34-2.85-2.91,0-1.58,1.27-2.89,2.88-2.9,1.72-.01,2.97,1.37,2.95,2.91.03,1.57-1.31,2.94-2.98,2.91Zm4.3-4.41c-.22,0-.41-.21-.41-.42,0-.23.19-.41.42-.4.24,0,.42.18.42.4,0,.24-.2.43-.43.42Zm-4.24-.23c.91-.03,1.74.74,1.74,1.71,0,.88-.69,1.74-1.73,1.74-.97,0-1.73-.76-1.74-1.73-.01-.93.78-1.74,1.73-1.72Z"/>
  <line class="cls-3" x1="91.19" y1="38.14" x2="91.19" y2="43.98"/>
</svg>