<?xml version="1.0" encoding="UTF-8"?>
<svg id="Layer_1" data-name="Layer 1" xmlns="http://www.w3.org/2000/svg" viewBox="0 0 162 120">
  <defs>
    <style>
      .cls-1 {
        fill: #f2f2f3;
      }

      .cls-2 {
        stroke-width: .5px;
      }

      .cls-2, .cls-3 {
        stroke: #515251;
        stroke-miterlimit: 10;
      }

      .cls-2, .cls-3, .cls-4 {
        fill: none;
      }

      .cls-3 {
        stroke-width: .25px;
      }

      .cls-5 {
        opacity: .17;
      }

      .cls-6 {
        fill: #515351;
      }
    </style>
  </defs>
  <rect class="cls-4" width="162" height="120"/>
  <rect class="cls-1" x="7.3" y="8.82" width="147.39" height="102.29"/>
  <path class="cls-5" d="m86.81,56.24c0-.23-.08-.44-.22-.63-.24-.33-.57-.49-.98-.49-.44,0-.88,0-1.31,0-.27,0-.45-.14-.54-.4-.11-.33-.22-.67-.34-1-.08-.22-.26-.33-.49-.33-1.3,0-2.59,0-3.89,0-.22,0-.4.12-.47.32-.12.34-.23.68-.35,1.02-.04.12-.11.22-.21.3-.11.08-.23.09-.36.09-.42,0-.84,0-1.26,0-.21,0-.41.04-.6.15-.38.22-.61.55-.61.99,0,1.74,0,3.49,0,5.23,0,.23.06.45.2.64.21.3.5.5.88.51.35,0,.71,0,1.06,0,1.2,0,2.4,0,3.6,0h0c1.48,0,2.96,0,4.45,0,.16,0,.32,0,.48-.02.53-.08.95-.57.95-1.1,0-1.76,0-3.52,0-5.28Zm-5.87,5.27c-1.57-.03-2.86-1.34-2.85-2.91,0-1.58,1.27-2.89,2.88-2.9,1.72-.01,2.97,1.37,2.95,2.91.03,1.57-1.31,2.94-2.98,2.91Zm4.3-4.41c-.22,0-.41-.21-.41-.42,0-.23.19-.41.42-.4.24,0,.42.18.42.4,0,.24-.2.43-.43.42Zm-4.24-.23c.91-.03,1.74.74,1.74,1.71,0,.88-.69,1.74-1.73,1.74-.97,0-1.73-.76-1.74-1.73-.01-.93.78-1.74,1.73-1.72Z"/>
  <path d="m43.75,52.66c0-.2-.07-.37-.18-.52-.2-.28-.48-.41-.82-.41-.37,0-.73,0-1.1,0-.23,0-.38-.12-.45-.34-.09-.28-.18-.56-.28-.83-.07-.18-.21-.28-.41-.28-1.08,0-2.17,0-3.25,0-.18,0-.33.1-.4.27-.1.28-.19.57-.29.85-.03.1-.09.18-.18.25-.09.07-.19.08-.3.08-.35,0-.7,0-1.05,0-.17,0-.35.03-.5.12-.32.19-.51.46-.51.83,0,1.46,0,2.92,0,4.37,0,.2.05.38.16.54.18.25.42.42.74.42.3,0,.59,0,.89,0,1,0,2.01,0,3.01,0h0c1.24,0,2.48,0,3.72,0,.13,0,.27,0,.4-.02.44-.06.79-.48.79-.92,0-1.47,0-2.95,0-4.42Zm-4.91,4.41c-1.31-.03-2.39-1.12-2.39-2.44,0-1.33,1.06-2.42,2.41-2.43,1.44-.01,2.49,1.15,2.46,2.43.03,1.31-1.1,2.46-2.49,2.43Zm3.6-3.69c-.18,0-.34-.17-.34-.35,0-.19.16-.34.35-.34.2,0,.35.15.35.34,0,.2-.17.36-.36.35Zm-3.55-.19c.76-.03,1.45.62,1.46,1.43,0,.73-.58,1.45-1.45,1.46-.81,0-1.45-.64-1.46-1.44,0-.77.65-1.46,1.45-1.44Z"/>
  <line class="cls-2" x1="81" y1="90.77" x2="81" y2="34.52"/>
  <rect class="cls-6" x="94.42" y="64.3" width="45.99" height="6.65" rx="1.49" ry="1.49"/>
  <rect class="cls-6" x="94.42" y="76.34" width="11.49" height="1.04"/>
  <rect class="cls-6" x="128.93" y="76.34" width="11.49" height="1.04"/>
  <rect class="cls-6" x="105.5" y="80.43" width="23.43" height="1.04"/>
  <rect class="cls-6" x="100.57" y="90.36" width="33.3" height="1.04"/>
  <rect class="cls-6" x="24.57" y="63.17" width="28.64" height="3.15"/>
  <rect class="cls-3" x="94.42" y="31.82" width="45.99" height="5.18" rx="1.03" ry="1.03"/>
  <rect class="cls-3" x="94.42" y="43.67" width="45.99" height="5.18" rx="1.03" ry="1.03"/>
  <rect class="cls-3" x="94.42" y="54.56" width="45.99" height="5.18" rx="1.03" ry="1.03"/>
  <line class="cls-3" x1="126.26" y1="31.82" x2="126.26" y2="37"/>
</svg>