<?xml version="1.0" encoding="UTF-8"?>
<svg id="Layer_1" data-name="Layer 1" xmlns="http://www.w3.org/2000/svg" viewBox="0 0 162 120">
  <defs>
    <style>
      .cls-1 {
        fill: #eaeaea;
      }

      .cls-2 {
        stroke: #515251;
        stroke-miterlimit: 10;
        stroke-width: .25px;
      }

      .cls-2, .cls-3 {
        fill: none;
      }

      .cls-4 {
        fill: #d1d3d4;
      }

      .cls-5 {
        fill: #515351;
      }
    </style>
  </defs>
  <rect class="cls-3" width="162" height="120"/>
  <rect class="cls-1" x="63.62" y="8.82" width="91.07" height="102.29"/>
  <path d="m115.67,56.94c0-.23-.08-.44-.22-.63-.24-.33-.57-.49-.98-.49-.44,0-.88,0-1.31,0-.27,0-.45-.14-.54-.4-.11-.33-.22-.67-.34-1-.08-.22-.26-.33-.49-.33-1.3,0-2.59,0-3.89,0-.22,0-.4.12-.47.32-.12.34-.23.68-.35,1.02-.04.12-.11.22-.21.3-.11.08-.23.09-.36.09-.42,0-.84,0-1.26,0-.21,0-.41.04-.6.15-.38.22-.61.55-.61.99,0,1.74,0,3.49,0,5.23,0,.23.06.45.2.64.21.3.5.5.88.51.35,0,.71,0,1.06,0,1.2,0,2.4,0,3.6,0h0c1.48,0,2.96,0,4.45,0,.16,0,.32,0,.48-.02.53-.08.95-.57.95-1.1,0-1.76,0-3.52,0-5.28Zm-5.87,5.27c-1.57-.03-2.86-1.34-2.85-2.91,0-1.58,1.27-2.89,2.88-2.9,1.72-.01,2.97,1.37,2.95,2.91.03,1.57-1.31,2.94-2.98,2.91Zm4.3-4.41c-.22,0-.41-.21-.41-.42,0-.23.19-.41.42-.4.24,0,.42.18.42.4,0,.24-.2.43-.43.42Zm-4.24-.23c.91-.03,1.74.74,1.74,1.71,0,.88-.69,1.74-1.73,1.74-.97,0-1.73-.76-1.74-1.73-.01-.93.78-1.74,1.73-1.72Z"/>
  <rect class="cls-5" x="10.5" y="65.86" width="45.99" height="6.65" rx="1.49" ry="1.49"/>
  <rect class="cls-5" x="10.9" y="77.9" width="11.49" height="1.04"/>
  <rect class="cls-5" x="45" y="77.9" width="11.49" height="1.04"/>
  <rect class="cls-5" x="21.58" y="81.99" width="23.43" height="1.04"/>
  <rect class="cls-5" x="16.64" y="91.92" width="33.3" height="1.04"/>
  <rect class="cls-5" x="18.97" y="23.09" width="28.64" height="3.15"/>
  <rect class="cls-4" x="43.98" y="33.38" width="12.51" height="5.18"/>
  <line class="cls-2" x1="56.5" y1="38.56" x2="10.5" y2="38.56"/>
  <line class="cls-2" x1="56.5" y1="49.67" x2="10.5" y2="49.67"/>
  <line class="cls-2" x1="56.29" y1="59.97" x2="10.29" y2="59.97"/>
</svg>