<?xml version="1.0" encoding="utf-8"?>
<!-- Generator: Adobe Illustrator 16.0.0, SVG Export Plug-In . SVG Version: 6.00 Build 0)  -->
<!DOCTYPE svg PUBLIC "-//W3C//DTD SVG 1.1//EN" "http://www.w3.org/Graphics/SVG/1.1/DTD/svg11.dtd">
<svg version="1.1" id="Layer_1" xmlns="http://www.w3.org/2000/svg" xmlns:xlink="http://www.w3.org/1999/xlink" x="0px" y="0px"
	 width="512px" height="512px" viewBox="0 0 512 512" enable-background="new 0 0 512 512" xml:space="preserve">
<image display="none" overflow="visible" width="465" height="512" xlink:href="DEBCB710.jpg"  transform="matrix(0.937 0 0 0.937 37.9546 15.5757)">
</image>
<g>
	<path fill="#696969" d="M287.695,37.043C163.347-20.348,109.435,84,109.435,84c-49.565,84,23.479,153.043,23.479,153.043
		C44.217,284,37.955,373.565,37.955,373.565c0,46.957,27.132,56.521,27.132,56.521c65.087,37.392,190.713,26.957,190.713,26.957
		c-21.46-24.348-20.279-45.218-20.279-45.218c-113.913,9.565-153.043-23.479-153.043-23.479
		c6.957-59.131,49.565-93.913,49.565-93.913c73.043-51.305,154.091-15.068,154.091-15.068s-0.113,0.127-0.299,0.335
		c0.452-0.442,0.917-0.882,1.407-1.316C302.142,265.191,333.782,256,333.782,256c-6.087-6.261-26.956-18.957-26.956-18.957
		C400.739,122.261,287.695,37.043,287.695,37.043z M218.913,231.087c-46.584,0-84.348-37.764-84.348-84.348
		c0-46.584,37.764-84.348,84.348-84.348s84.349,37.764,84.349,84.348C303.262,193.323,265.497,231.087,218.913,231.087z"/>
</g>
<path fill="#696969" d="M470,400v-29.763c-51-5.937-19.848-49.716-19.848-49.716l-23.326-20C386.826,327.478,378,280,378,280
	h-29.435c-10.435,49-49.516,19.845-49.516,19.845l-20.073,20.762C304.906,371.228,256,370.258,256,370.258v30.265
	c56,3.478,23.01,50.436,23.01,50.436l20.859,20.869C347.695,438.783,348,495,348,495h30.131c8.696-55,52.174-22.457,52.174-22.457
	l20-20.717C420.74,409.218,470,400,470,400z M363.392,425.828c-22.092,0-40-17.908-40-40s17.908-40,40-40s40,17.908,40,40
	S385.483,425.828,363.392,425.828z"/>
</svg>
