<?xml version="1.0" encoding="utf-8"?>
<!-- Generator: Adobe Illustrator 16.0.0, SVG Export Plug-In . SVG Version: 6.00 Build 0)  -->
<!DOCTYPE svg PUBLIC "-//W3C//DTD SVG 1.1//EN" "http://www.w3.org/Graphics/SVG/1.1/DTD/svg11.dtd">
<svg version="1.1" id="Layer_1" xmlns="http://www.w3.org/2000/svg" xmlns:xlink="http://www.w3.org/1999/xlink" x="0px" y="0px"
	 width="512px" height="512px" viewBox="0 0 512 512" enable-background="new 0 0 512 512" xml:space="preserve">
<image display="none" overflow="visible" width="510" height="476" xlink:href="DB26B57F.jpg"  transform="matrix(0.9538 0 0 0.9538 12.9741 29.1094)">
</image>
<path fill="#696969" d="M492.044,207.479c0,0,20.87-66.849-21.739-122.609L379,177.043l-28.695-28.696l92.174-90.435
	c0,0-62.609-60-159.131-8.696c0,0-86.956,57.391-57.391,152.174l-9.565,10.435l-67.826-66.957l-1.739-54.783L56.391,35.304
	l-43.591,43L66.826,167H123l69.043,70.043L57.261,368.348c0,0-34.783,43.479,0,89.565c0,0,38.261,48.695,93.913,12.174l100-98.261
	l100,96.521c0,0,47.826,36.521,92.174-6.087c0,0,42.609-42.609,8.696-87.826l-67.826-69.565
	C384.218,304.869,472.088,292.696,492.044,207.479z M113,134H88L54.848,83.348l8.642-7.935L113,108.348V134z M424.218,395.305
	c0,0,14.781,24.348-4.349,44.348c0,0-21.738,16.45-40.869,9.529L278.131,346.608l44.348-46.087L333.782,304L424.218,395.305z
	 M312.913,264.869L137.261,442.261c-33.043,17.392-47.826-3.479-47.826-3.479c-22.609-20.87-5.511-46.087-5.511-46.087
	l178.555-180.869c-27.826-68.695,15.652-113.043,15.652-113.043c53.914-53.913,102.608-29.565,102.608-29.565l-77.392,79.13
	l76.521,74.783l78.262-76.521c24.349,42.609-28.696,101.739-28.696,101.739C365.087,296.186,312.913,264.869,312.913,264.869z"/>
</svg>
