<?xml version="1.0" encoding="utf-8"?>
<!-- Generator: Adobe Illustrator 16.0.0, SVG Export Plug-In . SVG Version: 6.00 Build 0)  -->
<!DOCTYPE svg PUBLIC "-//W3C//DTD SVG 1.1//EN" "http://www.w3.org/Graphics/SVG/1.1/DTD/svg11.dtd">
<svg version="1.1" id="Layer_1" xmlns="http://www.w3.org/2000/svg" xmlns:xlink="http://www.w3.org/1999/xlink" x="0px" y="0px"
	 width="512px" height="512px" viewBox="0 0 512 512" enable-background="new 0 0 512 512" xml:space="preserve">
<image display="none" overflow="visible" width="504" height="512" xlink:href="75892C3E.jpg"  transform="matrix(0.9472 0 0 0.9472 16.7959 12.9673)">
</image>
<path fill="#FFFFFF" d="M245,149v116l-83-46.217V104l23.087,12.174L183.348,144c0,0,2.609,15.652,12.174,18.261
	c0,0,9.565,5.217,16.521-6.087l-0.87-27.826L245,149z"/>
<path fill="#696969" d="M494,419V296.305c0-25.217-13.343-23.369-13.343-23.369L377,219V80.652
	c0-11.304-12.912-13.913-12.912-13.913L259.869,13.967L152.913,65C133.783,71.957,138,86,138,86v133.783L25.716,272.739
	C12.869,278.798,17,288,17,288v134.392c0,14.783,8.716,17.391,8.716,17.391l95.023,52.175c19.13,13.913,28.695,1.738,28.695,1.738
	l106.046-58.261l105.259,57.392c13.913,13.913,27.826,0,27.826,0l93.913-51.305C494.652,438.912,494,419,494,419z M376.392,244.13
	l17.391,12.31l-82.608,40.733l-19.13-10.435L376.392,244.13z M259.869,40.652l20,9.565l-79.13,44.348L178.13,81.522L259.869,40.652z
	 M139,244.13l15.652,8.696l-80,43.479l-18.261-10.436L139,244.13z M126,468l-85-47.348V305.368l20,10.066V356
	c0,0,3.935,16.826,12.631,21.174c0,0,12.369,5.217,16.369-7.826V330l36,21.957V468z M136.391,329.348l-32.174-17.391l80.87-41.739
	l30.435,15.651L136.391,329.348z M233,422l-85,44.739V353.065l85-44.587V422z M245,265l-83-46.217l-0.087-114.908L185,116.174V150
	c0,0,5.304,14,13.13,14c0,0,7.827,0,11.739-3.302c1.304-1.101,2.174-2.568,2.174-4.524c0-7.826-0.87-27.826-0.87-27.826L245,149V265
	z M226.087,108.609l80.739-44.479l30.435,14.783L256,124.13L226.087,108.609z M271,145.783l82-43.392V217l-82,45.392V145.783z
	 M362,468l-84-46.608V304.673l21,12.371V369c0,0-1.586,17.608,13.196,25.435c0,0,11.804,6.088,15.804-11.304V332l34,18.157V468z
	 M373.782,331.087l-32.174-17.392L423.348,266l29.565,19L373.782,331.087z M469,421l-83,46.479V349.891l83-45.021V421z"/>
</svg>
