<?xml version="1.0" encoding="utf-8"?>
<!-- Generator: Adobe Illustrator 16.0.0, SVG Export Plug-In . SVG Version: 6.00 Build 0)  -->
<!DOCTYPE svg PUBLIC "-//W3C//DTD SVG 1.1//EN" "http://www.w3.org/Graphics/SVG/1.1/DTD/svg11.dtd">
<svg version="1.1" id="Layer_1" xmlns="http://www.w3.org/2000/svg" xmlns:xlink="http://www.w3.org/1999/xlink" x="0px" y="0px"
	 width="512px" height="512px" viewBox="0 0 512 512" enable-background="new 0 0 512 512" xml:space="preserve">
<image display="none" overflow="visible" width="512" height="512" xlink:href="../theme-1/icon/icons/21.png"  transform="matrix(0.9586 0 0 0.9586 10.6084 10.6084)">
</image>
<path fill="#696969" d="M497.32,179.593c-31.305-85.217-139.07-100.06-139.07-100.06c-107.826-13.913-174.663,47.706-174.663,47.706
	c-79.761-5.457-119.37,30.674-119.37,30.674c-64.348,41.739-53.609,96.309-53.609,96.309C10.608,334.009,116,367,116,367v63.956
	l49.328-57.393c73.913,7.826,124.111-27.828,124.111-27.828c19.13,5.218,44.352,2.604,44.352,2.604l65.225,82.602l-4.332-95.667
	C533.813,277.884,497.32,179.593,497.32,179.593z M373,317.913V362l-27.043-37.131c0,0-70.436,9.566-129.566-29.564
	c0,0-99.913-68.957-21.695-147.957c0,0,92.152-84.282,221.717-24.282c0,0,59.43,29.03,61.772,89.598
	C478.186,212.663,483,293.565,373,317.913z"/>
</svg>
