<?xml version="1.0" encoding="utf-8"?>
<!-- Generator: Adobe Illustrator 16.0.0, SVG Export Plug-In . SVG Version: 6.00 Build 0)  -->
<!DOCTYPE svg PUBLIC "-//W3C//DTD SVG 1.1//EN" "http://www.w3.org/Graphics/SVG/1.1/DTD/svg11.dtd">
<svg version="1.1" id="Layer_1" xmlns="http://www.w3.org/2000/svg" xmlns:xlink="http://www.w3.org/1999/xlink" x="0px" y="0px"
	 width="512px" height="512px" viewBox="0 0 512 512" enable-background="new 0 0 512 512" xml:space="preserve">
<image display="none" overflow="visible" width="512" height="512" xlink:href="../theme-1/icon/22.png"  transform="matrix(1 0 0 1 0 -3.6958)">
</image>
<path fill="#696969" d="M340.739,95.304c-7.826-59.13-60-73.043-60-73.043C195.521,6.608,172.043,87.478,172.043,87.478
	c-9.565,45.217,24.348,77.392,24.348,77.392l-65.217,113.043l34.783,23.479l70.024-115.652
	c36.111,12.174,74.324-17.392,74.324-17.392C343.349,142.261,340.739,95.304,340.739,95.304z M256.218,147.565
	c-24.013,0-43.479-19.466-43.479-43.479c0-24.012,19.466-43.478,43.479-43.478c24.012,0,43.478,19.466,43.478,43.478
	C299.695,128.1,280.229,147.565,256.218,147.565z"/>
<path fill="#696969" d="M389.837,477.743c55.085,22.876,93.282-15.289,93.282-15.289c56.271-65.884-1.927-126.745-1.927-126.745
	c-34.327-30.948-79.168-17.737-79.168-17.737l-65.106-113.108l-37.755,18.323l64.954,118.574
	c-28.639,25.14-22.219,73.025-22.219,73.025C347.901,456.457,389.837,477.743,389.837,477.743z M387,378.411
	c12.039-20.776,38.641-27.859,59.418-15.818c20.774,12.039,27.857,38.642,15.817,59.418c-12.04,20.774-38.643,27.856-59.417,15.816
	C382.041,425.787,374.96,399.186,387,378.411z"/>
<path fill="#696969" d="M38.933,332.872c-46.625,37.2-31.638,89.075-31.638,89.075c30.537,81.085,111.931,59.493,111.931,59.493
	c43.674-15.124,53.749-60.771,53.749-60.771l130.485-2.421l2.178-41.91l-135.199-0.351c-8.193-37.217-53.229-54.709-53.229-54.709
	C77.817,306.421,38.933,332.872,38.933,332.872z M127.295,378.336c12.384,20.572,5.747,47.289-14.828,59.673
	c-20.572,12.383-47.289,5.744-59.672-14.829c-12.382-20.572-5.743-47.288,14.829-59.671
	C88.198,351.124,114.913,357.764,127.295,378.336z"/>
</svg>
