<?xml version="1.0" encoding="utf-8"?>
<!-- Generator: Adobe Illustrator 16.0.0, SVG Export Plug-In . SVG Version: 6.00 Build 0)  -->
<!DOCTYPE svg PUBLIC "-//W3C//DTD SVG 1.1//EN" "http://www.w3.org/Graphics/SVG/1.1/DTD/svg11.dtd">
<svg version="1.1" id="Layer_1" xmlns="http://www.w3.org/2000/svg" xmlns:xlink="http://www.w3.org/1999/xlink" x="0px" y="0px"
	 width="512px" height="512px" viewBox="0 0 512 512" enable-background="new 0 0 512 512" xml:space="preserve">
<image display="none" overflow="visible" width="512" height="512" xlink:href="../theme-1/icon/23.png"  transform="matrix(0.9733 0 0 0.9733 6.8262 6.8262)">
</image>
<path fill="#696969" d="M442,445h-13.218l-0.217-403.543C430.305,24.935,421,27,421,27h-50V17c0-7-9-10-9-10H150.304
	C143.348,7,141,14,141,14v13H86c-6.913,3.87-1.783,10.913-1.783,10.913L82,444h-9.087c-9.565-0.869-9.609,6.087-9.609,6.087
	l0.043,46.087C62.478,503.13,75,505,75,505h364.869c6.087,0,6.131-8,6.131-8v-41.695C446,442.262,442,445,442,445z M389,445h-45
	l-1.521-106.218c0,0,0-5.218-12.174-6.087l-35.652-0.869c0,0-10.435,0-12.174,7.826L282,445H122V64h267V445z"/>
<path fill="#696969" d="M178,122h41c0,0,9,0.261,9,11.565V171c0,0-0.304,7-7.261,7H178c0,0-9.435,0.783-7.696-7.913l-0.214-40
	C170.09,130.087,169.174,122,178,122z"/>
<path fill="#696969" d="M293,122h41c0,0,9,0.261,9,11.565V171c0,0-0.305,7-7.261,7H293c0,0-9.436,0.783-7.695-7.913l-0.215-40
	C285.09,130.087,284.174,122,293,122z"/>
<path fill="#696969" d="M293,219h41c0,0,9,0.261,9,11.565V268c0,0-0.305,7-7.261,7H293c0,0-9.436,0.783-7.695-7.913l-0.215-40
	C285.09,227.087,284.174,219,293,219z"/>
<path fill="#696969" d="M178,219h41c0,0,9,0.261,9,11.565V268c0,0-0.305,7-7.261,7H178c0,0-9.436,0.783-7.695-7.913l-0.215-40
	C170.09,227.087,169.174,219,178,219z"/>
<path fill="#696969" d="M178,313h41c0,0,9,0.262,9,11.565V362c0,0-0.305,7-7.261,7H178c0,0-9.436,0.783-7.695-7.913l-0.215-40
	C170.09,321.087,169.174,313,178,313z"/>
</svg>
