<?xml version="1.0" encoding="utf-8"?>
<!-- Generator: Adobe Illustrator 16.0.0, SVG Export Plug-In . SVG Version: 6.00 Build 0)  -->
<!DOCTYPE svg PUBLIC "-//W3C//DTD SVG 1.1//EN" "http://www.w3.org/Graphics/SVG/1.1/DTD/svg11.dtd">
<svg version="1.1" id="Layer_1" xmlns="http://www.w3.org/2000/svg" xmlns:xlink="http://www.w3.org/1999/xlink" x="0px" y="0px"
	 width="512px" height="512px" viewBox="0 0 512 512" enable-background="new 0 0 512 512" xml:space="preserve">
<image display="none" overflow="visible" width="471" height="512" xlink:href="437A537C.jpg"  transform="matrix(0.9234 0 0 0.9234 38.0635 19.0542)">
</image>
<path fill="#696969" d="M425,19H122.479C81.609,25,74,65,74,65v43H38v38h36v90.174L38,236v38.435L74,275v92.479L38,367v37.869
	L74,405v37.261C79,491.826,125,492,125,492h297.479C472.913,483,473,438,473,438V69.217C469,23.13,425,19,425,19z M436,434
	c0,0-0.478,17-17.869,20H132c0,0-21.212,0.436-21.019-16.956S110.979,404,110.979,404l14.107-0.869c0,0,10.435-0.674,13.913-15.457
	c0,0,2.608-16.674-13.913-20.674H111l-0.021-95H129c0,0,10.87-2.957,10.87-15.826c0,0,2.609-13.174-13.913-16.174H111l-0.021-93.391
	l15.847-0.87c0,0,11.304-1.739,12.174-19.13c0,0-1.565-13.914-14.783-18.261L111,108V74c0,0-1.565-19.565,23.652-17.826
	l281.979-0.109c0,0,18.369-0.76,19.369,20.109V434z"/>
<path fill="#606060" d="M331.174,250.957c0,0,40.87-48.696-13.043-96.522c0,0-48.695-30.435-89.565,15.652
	c0,0-29.565,38.882,2.608,77.702c0,0-61.739,25.864-62.174,103.211h37c0,0,4.304-69.609,73.869-74.826
	c0,0,72.175-1.652,76.522,74.826H394C394,351,393.782,280.521,331.174,250.957z M280.891,238.304
	c-15.956,0-28.891-12.935-28.891-28.891s12.935-28.891,28.891-28.891c15.957,0,28.892,12.935,28.892,28.891
	S296.848,238.304,280.891,238.304z"/>
</svg>
