<?xml version="1.0" encoding="utf-8"?>
<!-- Generator: Adobe Illustrator 16.0.0, SVG Export Plug-In . SVG Version: 6.00 Build 0)  -->
<!DOCTYPE svg PUBLIC "-//W3C//DTD SVG 1.1//EN" "http://www.w3.org/Graphics/SVG/1.1/DTD/svg11.dtd">
<svg version="1.1" id="Layer_1" xmlns="http://www.w3.org/2000/svg" xmlns:xlink="http://www.w3.org/1999/xlink" x="0px" y="0px"
	 width="512px" height="512px" viewBox="0 0 512 512" enable-background="new 0 0 512 512" xml:space="preserve">
<image display="none" overflow="visible" width="507" height="333" xlink:href="1DE33D73.jpg"  transform="matrix(0.9695 0 0 0.9695 10.2319 83.2334)">
</image>
<path fill="#969696" d="M461,83H49c0,0-35.333,3.333-39,39v242c0,0-1,39,44.333,42H466c0,0,30-7.667,36-37.667V127
	C502,127,499,87,461,83z M32,118c0,0,3-13,17-14h412c0,0,15,3,17,15.667V148H32V118z M460.334,386H54c0,0-22.333-2.333-22-20.333
	s-0.004-3.334-0.004-3.334L32,214h446v154C478,368,479.668,382,460.334,386z"/>
<path fill="#969696" d="M107.667,263c0,0-39.333,39.333,0,83.333c0,0-47.334,15.999-56.667-38
	C51,308.333,48.334,253.667,107.667,263z"/>
<circle fill="#969696" cx="145" cy="305.595" r="44.667"/>
<path fill="#969696" d="M226,296h55c0,0,14.666,9,0,19h-51C230,315,213.667,310.333,226,296z"/>
<path fill="#969696" d="M312,296h55c0,0,14.666,9,0,19h-51C316,315,299.666,310.333,312,296z"/>
<path fill="#969696" d="M395,296h55c0,0,14.666,9,0,19h-51C399,315,382.666,310.333,395,296z"/>
</svg>
