<?xml version="1.0" encoding="utf-8"?>
<!-- Generator: Adobe Illustrator 16.0.0, SVG Export Plug-In . SVG Version: 6.00 Build 0)  -->
<!DOCTYPE svg PUBLIC "-//W3C//DTD SVG 1.1//EN" "http://www.w3.org/Graphics/SVG/1.1/DTD/svg11.dtd">
<svg version="1.1" id="Layer_1" xmlns="http://www.w3.org/2000/svg" xmlns:xlink="http://www.w3.org/1999/xlink" x="0px" y="0px"
	 width="512px" height="512px" viewBox="0 0 512 512" enable-background="new 0 0 512 512" xml:space="preserve">
<image display="none" overflow="visible" width="511" height="423" xlink:href="794B75.jpg"  transform="matrix(0.9599 0 0 0.9599 11.0615 52.7378)">
</image>
<path fill="#696969" d="M489.435,107.478L291.174,57.043c0,0-19.129-10.435-26.956,5.217l-37.392,96.522l-26.087,6.957
	L32.043,89.217c0,0-13.8-6.087-17.391,1.739c0,0-6.087,7.826,0,17.391L71,188v151c0,0-3.305,14.564,14.087,19.782L239,452.695
	c0,0,7.826,13.913,24.348,0l169.565-63.478c0,0,10.435-1.74,7.826-20.87l0.419-142.608l54.363-98.261
	C495.521,127.479,510.304,116.173,489.435,107.478z M421.608,210.957c0,0-3.478,5.217-3.478,17.391l1.738,140.87l-170.435,63.478
	L92.043,338.782l2.544-157.988L55.49,125.006l126.103,55.584l32.182,46.053l-86.953-40.018c0,0-11.302-0.877-13.911,6.949
	c0,0-4.477,9.56,8.566,14.778L237,263.131V393c0,0-0.543,11.869,11.631,13.608c0,0,8.369,1.739,11.369-12.174V256l156.392-37.217
	l-164.348-66.087l29.565-75.652l190.436,48.696L421.608,210.957z"/>
</svg>
