<?xml version="1.0" encoding="utf-8"?>
<!-- Generator: Adobe Illustrator 16.0.0, SVG Export Plug-In . SVG Version: 6.00 Build 0)  -->
<!DOCTYPE svg PUBLIC "-//W3C//DTD SVG 1.1//EN" "http://www.w3.org/Graphics/SVG/1.1/DTD/svg11.dtd">
<svg version="1.1" id="Layer_1" xmlns="http://www.w3.org/2000/svg" xmlns:xlink="http://www.w3.org/1999/xlink" x="0px" y="0px"
	 width="512px" height="512px" viewBox="0 0 512 512" enable-background="new 0 0 512 512" xml:space="preserve">
<image display="none" overflow="visible" width="380" height="509" xlink:href="1D065115.jpg"  transform="matrix(0.9571 0 0 0.9571 73.7583 12.5078)">
</image>
<path fill="#696969" d="M437,468V144.87L306,13H105.957c-34.783,0-32.267,33.231-32.267,33.231l0.069,422.986
	C73.758,491.827,101,500,101,500h309.305C439.87,492,437,468,437,468z M315,63l72,73h-72V63z M409,470H104V43h181l2.695,93.174
	c-3.479,27.826,23.479,26.957,23.479,26.957L409,163V470z"/>
<path fill="#696969" d="M180,107V85c0,0,2.631-12.304,15.674-12.304c0,0,11.326,1.739,12.326,10.435V107
	c0,0,21.435,3.086,28.391,14.391c0,0,12.174,20-11.304,22.609c0,0-20.87-12.174-26.087-11.304c0,0-41.739,2.609-33.043,32.174
	c0,0,9.565,18.26,40,16.521c0,0,47.508,4.348,49.406,53.913c0,0,1.417,38.262-45.299,47.827l0.002,21.738
	c0,0-1.5,8.696-15.414,10.436c0,0-13.043-0.001-13.913-8.696L179,284.869c0,0-18.261-6.955-27.826-15.651c0,0-4.348-9.565,0-16.522
	c0,0,2.609-10.435,14.783-6.087c0,0,17.392,14.434,41.739,9.391c0,0,31.304-17.217,10.435-38.087c0,0-5.218-8.696-34.783-8.696
	c0,0-40-6.087-46.957-38.261C136.391,170.957,124.479,118.696,180,107z"/>
<path fill="#696969" d="M295,227h72c0,0,8.522,3.087,9.392,13.522c0,0,1.738,10.957-8.696,15.478L295,256.5
	c0,0-9.043-5.696-8.174-14.75C286.826,241.75,284.913,234.348,295,227z"/>
<path fill="#696969" d="M295,288h72c0,0,8.522,3.088,9.392,13.521c0,0,1.738,10.957-8.696,15.479L295,317.5
	c0,0-9.043-5.695-8.174-14.75C286.826,302.75,284.913,295.348,295,288z"/>
<path fill="#696969" d="M144,347h219c0,0,12.739,3.869,13.5,15.174c0,0-0.107,11.826-10.543,13.826H149
	c0,0-12.148,2.131-13.683-14.5C135.317,361.5,131.609,353.479,144,347z"/>
<path fill="#696969" d="M144,410h219c0,0,12.739,3.869,13.5,15.174c0,0-0.107,11.826-10.543,13.826H149
	c0,0-12.148,2.131-13.683-14.5C135.317,424.5,131.609,416.479,144,410z"/>
</svg>
