<?xml version="1.0" encoding="utf-8"?>
<!-- Generator: Adobe Illustrator 16.0.0, SVG Export Plug-In . SVG Version: 6.00 Build 0)  -->
<!DOCTYPE svg PUBLIC "-//W3C//DTD SVG 1.1//EN" "http://www.w3.org/Graphics/SVG/1.1/DTD/svg11.dtd">
<svg version="1.1" id="Layer_1" xmlns="http://www.w3.org/2000/svg" xmlns:xlink="http://www.w3.org/1999/xlink" x="0px" y="0px"
	 width="512px" height="512px" viewBox="0 0 512 512" enable-background="new 0 0 512 512" xml:space="preserve">
<image display="none" overflow="visible" width="446" height="512" xlink:href="A23D6875.jpg"  transform="matrix(0.9879 0 0 0.9879 35.2139 2.5327)">
</image>
<path fill="#696969" d="M439.956,143.129l-110.521,13.043c-33.913,3.478,0.87-39.13,0.87-39.13
	c28.696-46.957-9.563-90.436-9.563-90.436c-53.043-46.957-101.739-11.304-101.739-11.304c-47.826,30.435-34.78,78.263-34.78,78.263
	l23.483,46.088c11.305,20-11.295,15.654-11.295,15.654L86.864,144.011C52.082,142.272,50.38,168.37,50.38,168.37L35.366,300.566
	c8.54,45.264,53.199,9.519,53.199,9.519c58.261-42.608,80-13.043,80-13.043C221.609,331.825,179,382.259,179,382.259
	c-51.304,45.217-94.783-10.435-94.783-10.435c-55.652-28.695-48.851,24.348-48.851,24.348l12.33,80C56.392,510.085,80,508,80,508
	h356.392C474.652,505,476,474,476,474V185.738C476,145.738,439.956,143.129,439.956,143.129z M429.435,485.735l-352.174,0.035
	c0,0-18.261-20.904-18.261-100.904c0,0,20,12.173,38.261,23.478c0,0,49.565,34.784,96.522-9.564c0,0,60.87-61.74-11.304-119.131
	c0,0-51.304-37.391-108.696,15.652c0,0,4.348,0.874-14.783,3.48c0,0,10.435-129.566,15.652-133.044l129.565,10.435
	c0,0,40.87-1.74,24.348-44.348l-21.739-35.652c0,0-9.59-38.534,25.673-66.087c0,0,56.927-24.205,80.414,25.216
	c0,0,23.479,25.217-13.913,67.826c0,0-29.565,53.914,32.174,56.522l108.695-13.043c0,0,13.913,1.738,13.044,19.13l0.039,285.217
	C452.952,470.953,456.391,486.604,429.435,485.735z"/>
</svg>
