<?xml version="1.0" encoding="utf-8"?>
<!-- Generator: Adobe Illustrator 16.0.0, SVG Export Plug-In . SVG Version: 6.00 Build 0)  -->
<!DOCTYPE svg PUBLIC "-//W3C//DTD SVG 1.1//EN" "http://www.w3.org/Graphics/SVG/1.1/DTD/svg11.dtd">
<svg version="1.1" id="Layer_1" xmlns="http://www.w3.org/2000/svg" xmlns:xlink="http://www.w3.org/1999/xlink" x="0px" y="0px"
	 width="512px" height="512px" viewBox="0 0 512 512" enable-background="new 0 0 512 512" xml:space="preserve">
<image display="none" overflow="visible" width="512" height="429" xlink:href="3E357D55.jpg"  transform="matrix(0.9509 0 0 0.9509 13.0112 51.5132)">
</image>
<path fill="#696969" d="M500,334.435c-8-66.957-68.763-100.004-68.763-100.004c47.826-52.174,32.978-96.526,32.978-96.526
	c-21.739-88.696-103.481-86.408-103.481-86.408c-53.913,0-89.571,45.514-89.571,45.514c-15.653-4.348-29.578,0.837-29.578,0.837
	c-28.696-46.087-80.026-46.465-80.026-46.465c-85.217,0-106.137,64.528-106.137,64.528
	c-25.217,77.391,25.986,117.997,25.986,117.997C12.51,269.031,13,356,13,356v58.435l101.646-0.869L116,459h282.131L398,414h102
	V334.435z M419.845,105.739c0,0,42.608,46.956,0,102.608c0,0-19.999,25.217-64.348,28.696c0,0,31.551-95.611-56.522-131.304
	C298.975,105.739,359.845,41.392,419.845,105.739z M257.124,119.13c47.134,0,85.342,38.209,85.342,85.342
	c0,47.133-38.208,85.341-85.342,85.341c-47.132,0-85.341-38.208-85.341-85.341C171.783,157.339,209.992,119.13,257.124,119.13z
	 M92.913,105.739c60-64.348,120.87,0,120.87,0c-88.073,35.693-56.522,131.304-56.522,131.304
	c-44.348-3.479-64.348-28.696-64.348-28.696C50.304,152.695,92.913,105.739,92.913,105.739z M37,388v-49
	c0,0,6.087-53.391,67.087-88.978c0,0,24.413,17.423,67.021,10.467l13.946,18.974c0,0-60.837,27.537-67.793,108.537H37z M376,435H139
	v-47c0,0,14.392-76.479,68.935-91.979c0,0,52.293,22.685,96.641,0.076c0,0,51.424,13.294,71.424,91.902V435z M477,389h-80.206
	c-6.956-81-67.801-108.537-67.801-108.537l13.939-18.974c42.608,6.956,67.008-10.467,67.008-10.467C470.94,286.609,477,340,477,340
	V389z"/>
</svg>
