<?xml version="1.0" encoding="utf-8"?>
<!-- Generator: Adobe Illustrator 16.0.0, SVG Export Plug-In . SVG Version: 6.00 Build 0)  -->
<!DOCTYPE svg PUBLIC "-//W3C//DTD SVG 1.1//EN" "http://www.w3.org/Graphics/SVG/1.1/DTD/svg11.dtd">
<svg version="1.1" id="Layer_1" xmlns="http://www.w3.org/2000/svg" xmlns:xlink="http://www.w3.org/1999/xlink" x="0px" y="0px"
	 width="512px" height="512px" viewBox="0 0 512 512" enable-background="new 0 0 512 512" xml:space="preserve">
<path fill-rule="evenodd" clip-rule="evenodd" fill="#A0A0A0" d="M135.619,136.572c3.618-0.537,7.195-1.07,10.772-1.598
	c6.712-0.991,13.423-1.991,20.138-2.964c2.699-0.392,5.42-0.648,8.104-1.116c1.399-0.244,1.913,0.318,2.2,1.54
	c0.789,3.352,1.036,6.782,1.536,10.176c0.57,3.875,1.142,7.75,1.725,11.623c0.667,4.429,1.366,8.854,2.014,13.286
	c0.248,1.697-1.188,1.743-2.208,1.914c-3.036,0.51-6.098,0.861-9.146,1.308c-9.415,1.38-18.823,2.8-28.24,4.159
	c-8.517,1.229-17.018,2.574-25.537,3.76c-9.839,1.37-19.664,2.827-29.489,4.287c-8.853,1.315-17.724,2.508-26.584,3.775
	c-1.319,0.189-1.938-0.373-1.74-1.625c1.141-7.208,1.056-14.521,1.901-21.761c0.649-5.558,0.812-11.172,1.353-16.752
	c0.789-8.152,1.409-16.322,2.053-24.487c0.501-6.356,0.883-12.721,1.404-19.075c0.607-7.396,1.331-14.783,1.96-22.178
	c0.363-4.255,0.756-8.514,0.904-12.779c0.066-1.915,0.749-2.464,2.534-2.289c5.852,0.576,11.702,1.237,17.569,1.571
	c4.62,0.264,9.196,1.021,13.839,1.013c5.109-0.009,5.375,0.518,4.662,5.643c-0.529,3.805-0.776,7.656-0.989,11.496
	c-0.274,4.969-0.711,9.92-1.264,14.863c-0.039,0.349-0.07,0.703-0.054,1.052c0.021,0.458-0.223,1.076,0.412,1.266
	c0.446,0.133,0.743-0.312,1.031-0.604c2.462-2.503,5.021-4.9,7.625-7.26c8.014-7.267,16.528-13.857,25.554-19.833
	c9.425-6.24,19.332-11.618,29.588-16.262c7.882-3.568,16.003-6.647,24.346-9.132c7.127-2.124,14.31-4.025,21.582-5.443
	c6.716-1.31,13.503-2.427,20.367-2.839c3.496-0.21,7.11-0.02,10.452-0.87c5.574-1.418,11.178-0.94,16.668-0.564
	c3.961,0.271,7.974,0.951,11.982,1.254c7.059,0.534,14.061,1.511,21.012,2.797c4.608,0.853,9.19,1.898,13.725,3.084
	c8.744,2.288,17.321,5.088,25.708,8.5c11.247,4.576,22.02,10.041,32.359,16.4c11.263,6.927,21.681,14.916,31.443,23.841
	c12.072,11.037,22.891,23.149,32.136,36.617c6.47,9.426,12.132,19.343,17.022,29.712c3.622,7.677,6.742,15.545,9.495,23.545
	c2.666,7.745,4.743,15.686,6.347,23.735c2.025,10.174,3.072,20.454,4.029,30.781c0.516,5.556,0.96,11.074,0.992,16.642
	c0.024,4.532-1.205,8.912-1.42,13.455c-0.367,7.743-1.604,15.442-3.101,23.078c-1.348,6.876-3.137,13.63-5.034,20.371
	c-2.646,9.398-6.327,18.398-10.295,27.274c-3.401,7.609-7.492,14.876-11.781,22.035c-6.109,10.199-13.126,19.735-20.921,28.671
	c-7.389,8.469-15.398,16.353-24.006,23.605c-6.979,5.881-14.283,11.34-22.015,16.184c-7.53,4.719-15.24,9.115-23.306,12.917
	c-7.551,3.559-15.272,6.656-23.106,9.471c-6.056,2.175-12.311,3.759-18.554,5.327c-6.521,1.638-13.151,2.775-19.8,3.678
	c-4.778,0.647-9.591,1.138-14.417,1.479c-6.385,0.453-12.711,1.531-19.167,1.229c-4.526-0.213-8.896-1.406-13.453-1.507
	c-7.493-0.166-14.888-1.569-22.269-2.808c-4.48-0.751-8.906-1.895-13.305-3.053c-8.054-2.12-15.988-4.587-23.742-7.694
	c-7.607-3.048-15.048-6.389-22.298-10.202c-11.383-5.985-22.141-12.914-32.193-20.935c-11.499-9.175-21.96-19.389-31.493-30.612
	c-7.655-9.015-14.452-18.609-20.406-28.78c-5.768-9.855-10.74-20.116-14.834-30.818c-2.834-7.409-5.349-14.897-7.369-22.552
	c-2.323-8.803-4.025-17.727-5.147-26.777c-0.699-5.639-0.553-11.388-1.645-16.919c-1.104-5.598-0.393-11.137-0.732-16.689
	c-0.173-2.817,1.355-5.37,1.275-8.195c-0.024-0.866,0.775-0.978,1.587-0.832c7.85,1.416,15.695,2.872,23.563,4.181
	c5.385,0.896,10.796,1.66,16.217,2.31c1.766,0.211,2.484,0.819,2.442,2.612c-0.083,3.582-0.11,7.17-0.012,10.751
	c0.238,8.686,1.138,17.286,2.74,25.853c1.421,7.601,3.284,15.054,5.688,22.379c3.46,10.544,8.011,20.596,13.495,30.257
	c4.583,8.074,9.751,15.731,15.632,22.891c7.68,9.351,16.208,17.847,25.706,25.401c9.873,7.854,20.469,14.479,31.784,20.014
	c11.574,5.66,23.671,9.831,36.234,12.604c8.472,1.87,17.037,3.136,25.729,3.666c8.149,0.498,16.276,0.509,24.39-0.149
	c18.658-1.514,36.633-5.981,53.741-13.545c14.548-6.433,28.014-14.702,40.247-24.97c14.704-12.342,26.967-26.715,36.789-43.187
	c7.874-13.205,13.903-27.232,17.794-42.086c2.407-9.189,4.208-18.52,4.985-28.066c0.555-6.805,0.817-13.588,0.668-20.381
	c-0.178-8.05-1.048-16.043-2.441-24.001c-2.322-13.256-6.082-26.072-11.513-38.346c-6.091-13.764-13.817-26.577-23.358-38.285
	c-11.537-14.155-24.877-26.266-40.308-36.027c-11.052-6.992-22.71-12.733-35.099-17.04c-10.569-3.675-21.385-6.278-32.423-7.833
	c-10.219-1.44-20.545-1.892-30.861-1.353c-15.325,0.801-30.32,3.601-44.868,8.473c-12.527,4.195-24.451,9.775-35.639,16.845
	c-11.008,6.956-21.215,14.926-30.332,24.25C136.406,134.958,135.508,135.337,135.619,136.572z"/>
<path fill-rule="evenodd" clip-rule="evenodd" fill="#A0A0A0" d="M232.781,196.502c0-21.01-0.001-42.021,0-63.031
	c0-2.688,0.006-2.691,2.716-2.692c12.438-0.003,24.875-0.005,37.313-0.005c2.813,0,2.976,0.169,2.976,3.006
	c-0.002,37.242,0.011,74.485-0.048,111.728c-0.003,1.922,0.58,3.25,1.907,4.605c7.86,8.027,15.655,16.119,23.429,24.231
	c8.452,8.819,16.881,17.661,25.274,26.538c9.696,10.255,19.386,20.517,29.337,30.525c1.106,1.114,1.082,1.69-0.069,2.821
	c-8.428,8.266-16.79,16.6-25.102,24.982c-1.23,1.241-1.931,1.286-3.167,0.014c-13.609-14.002-27.286-27.939-40.921-41.919
	c-8.875-9.099-17.714-18.233-26.561-27.36c-8.65-8.926-17.274-17.876-25.956-26.771c-0.943-0.966-1.137-1.979-1.136-3.22
	c0.019-21.151,0.014-42.302,0.014-63.453C232.787,196.502,232.784,196.502,232.781,196.502z"/>
</svg>
