<?xml version="1.0" encoding="utf-8"?>
<!-- Generator: Adobe Illustrator 16.0.0, SVG Export Plug-In . SVG Version: 6.00 Build 0)  -->
<!DOCTYPE svg PUBLIC "-//W3C//DTD SVG 1.1//EN" "http://www.w3.org/Graphics/SVG/1.1/DTD/svg11.dtd">
<svg version="1.1" id="Layer_1" xmlns="http://www.w3.org/2000/svg" xmlns:xlink="http://www.w3.org/1999/xlink" x="0px" y="0px"
	 width="512px" height="512px" viewBox="0 0 512 512" enable-background="new 0 0 512 512" xml:space="preserve">
<image display="none" overflow="visible" width="512" height="512" xlink:href="../theme-1/icon/24.png" >
</image>
<path fill="#696969" d="M51,67h411c0,0,37,3.957,41.348,44.826c0,0,2.609,40-36.521,48.696L51,164c0,0-40.695-11.783-42.435-48.5
	C8.565,115.5,3.87,76.957,51,67z"/>
<path fill="#696969" d="M51,208h411c0,0,37,3.957,41.348,44.826c0,0,2.609,40-36.521,48.695L51,305c0,0-40.695-11.783-42.435-48.5
	C8.565,256.5,3.87,217.957,51,208z"/>
<path fill="#696969" d="M51,351h411c0,0,37,3.957,41.348,44.826c0,0,2.609,40-36.521,48.695L51,448c0,0-40.695-11.783-42.435-48.5
	C8.565,399.5,3.87,360.957,51,351z"/>
</svg>
