<?xml version="1.0" encoding="utf-8"?>
<!-- Generator: Adobe Illustrator 16.0.0, SVG Export Plug-In . SVG Version: 6.00 Build 0)  -->
<!DOCTYPE svg PUBLIC "-//W3C//DTD SVG 1.1//EN" "http://www.w3.org/Graphics/SVG/1.1/DTD/svg11.dtd">
<svg version="1.1" id="Layer_1" xmlns="http://www.w3.org/2000/svg" xmlns:xlink="http://www.w3.org/1999/xlink" x="0px" y="0px"
	 width="512px" height="512px" viewBox="0 0 512 512" enable-background="new 0 0 512 512" xml:space="preserve">
<image display="none" overflow="visible" enable-background="new    " width="514" height="473" xlink:href="8D8EDF87.jpeg"  transform="matrix(0.834 0 0 0.8354 31.6555 58.4336)">
</image>
<path display="none" fill="#8E1906" d="M156,345h40c0,0,42.088,36.218,119.479,23.174c0,0,24.349,28.695,35.652,36.521
	c0,0-4.349-26.088,0-46.088c0,0,38.26-12.174,53.043-50.435c0,0,15.652-47.825-26.956-73.043c0,0,6.956-18.261,6.956-31.305
	c0,0,53.994,31.304,49.171,86.957c0,0,4.743,46.957-57.866,86.957c0,0,13.795,54.924,14.782,55.65
	c16.521,12.176-13.043,20.001-22.608,12.176c0,0-33.843-19.341-58.261-46.958C309.392,398.607,203.478,413.131,156,345z"/>
<image display="none" overflow="visible" enable-background="new    " width="331" height="290" xlink:href="8D8EDF85.jpeg"  transform="matrix(0.8337 0 0 0.8355 211.7141 220.5537)">
</image>
<image display="none" overflow="visible" enable-background="new    " width="416" height="380" xlink:href="8D8EDF8B.jpeg"  transform="matrix(0.9427 0 0 0.9452 32.8811 46.5703)">
</image>
<g id="Layer_2">
	<g id="Layer_4">
		<path fill="#969696" d="M212,362h38c0,0,37,37,120,24.5c0,0,21.5,29,36,34.5c0,0-5-33-4-42.5c0,0,54.332-14.833,58.332-62.833
			c0,0,5.334-42.667-30-65.333c0,0,4.002-10.226,9.334-29.78c0,0,48.005,24.447,48.005,77.113c0,0,13.329,61.999-58.005,95.999
			c0,0,4,39.334,11.334,52.667c0,0,11.332,16.524-8.668,16.524c0,0-39.998-11.191-72.666-49.191
			C359.666,413.666,264.334,432.334,212,362z"/>
		<path display="none" fill="#969696" d="M86.826,384.869c0,0-11.826,14.275,6.174,20.869c0,0,4.667-0.071,12-2.738
			c0,0,58.667-20,95.333-58c0,0,64,11.332,130.667-17.334c0,0,90.756-33.998,94.045-133.332c0,0,7.287-92.667-126.045-139.333
			c0,0-83.333-21.334-156.667,7.332c0,0-115.571,42.667-109.452,134c0,0-1.214,79.998,74.786,126.665
			C107.667,322.998,123.319,317.406,86.826,384.869z"/>
		<path fill="#969696" d="M299,55.001c0,0-83.333-21.334-156.667,7.332c0,0-115.571,42.667-109.452,134
			c0,0-1.214,79.998,74.786,126.665c0,0,15.651-5.592-20.841,61.871c0,0-11.826,14.275,6.174,20.869c0,0,4.667-0.071,12-2.738
			c0,0,58.667-20,95.333-58c0,0,64,11.332,130.667-17.334c0,0,90.756-33.998,94.045-133.332
			C425.045,194.334,432.332,101.667,299,55.001z M394.335,205c-10,68.666-73.334,94-73.334,94c-50.667,30-132.667,16-132.667,16
			c-24,24.667-60,47.333-60,47.333c8-13.333,11.333-56.667,11.333-56.667C73,278.999,66.333,226.155,66.335,226.155
			C47.001,139.31,119.668,105,119.668,105c106-59.333,199.333-9.333,199.333-9.333C407.667,132.333,394.335,205,394.335,205z"/>
	</g>
</g>
</svg>
