<?xml version="1.0" encoding="utf-8"?>
<!-- Generator: Adobe Illustrator 16.0.0, SVG Export Plug-In . SVG Version: 6.00 Build 0)  -->
<!DOCTYPE svg PUBLIC "-//W3C//DTD SVG 1.1//EN" "http://www.w3.org/Graphics/SVG/1.1/DTD/svg11.dtd">
<svg version="1.1" id="Layer_1" xmlns="http://www.w3.org/2000/svg" xmlns:xlink="http://www.w3.org/1999/xlink" x="0px" y="0px"
	 width="512px" height="512px" viewBox="0 0 512 512" enable-background="new 0 0 512 512" xml:space="preserve">
<image display="none" overflow="visible" width="506" height="506" xlink:href="7B587896.jpg"  transform="matrix(0.9607 0 0 0.9607 12.6582 12.6582)">
</image>
<path fill="#696969" d="M197.261,12.658c0,0-68.696,89.603-13.043,206.125c0,0,26.958,79.131,138.261,116.522
	c0,0,81.304,26.088,176.304-24.348c0,0-43.261,133.044-153.695,170.435c0,0-126.956,49.564-243.478-40.87
	c0,0-106.957-91.304-83.479-233.913C18.13,206.609,47.521,50.316,197.261,12.658z"/>
<polygon fill="#696969" points="237,73 280,65 298,27 315,65 361,73 330,103 335,145 299,127 256.772,145 269,104 "/>
<polygon fill="#696969" points="356.017,234.148 388.602,228.086 402.242,199.291 415.125,228.086 449.983,234.148 426.491,256.882 
	430.281,288.71 403,275.069 370.999,288.71 380.267,257.641 "/>
<polygon fill="#696969" points="411.799,104.99 438.293,100.061 449.384,76.648 459.858,100.061 488.201,104.99 469.101,123.474 
	472.182,149.353 450,138.262 423.98,149.353 431.516,124.091 "/>
</svg>
