<?xml version="1.0" encoding="utf-8"?>
<!-- Generator: Adobe Illustrator 16.0.0, SVG Export Plug-In . SVG Version: 6.00 Build 0)  -->
<!DOCTYPE svg PUBLIC "-//W3C//DTD SVG 1.1//EN" "http://www.w3.org/Graphics/SVG/1.1/DTD/svg11.dtd">
<svg version="1.1" id="Layer_1" xmlns="http://www.w3.org/2000/svg" xmlns:xlink="http://www.w3.org/1999/xlink" x="0px" y="0px"
	 width="512px" height="512px" viewBox="0 0 512 512" enable-background="new 0 0 512 512" xml:space="preserve">
<image display="none" overflow="visible" width="512" height="512" xlink:href="9551315F.jpg"  transform="matrix(0.9336 0 0 0.9336 17.4458 16.4458)">
</image>
<path fill="#696969" d="M488.565,436.174L385.957,332.695c58.262-86.957,28.695-165.217,28.695-165.217
	C384.218,52.696,277.261,23.13,277.261,23.13c-130.435-29.565-200,52.174-200,52.174C-5.348,166.61,22.479,255.44,22.479,255.44
	c22.479,122.745,128.695,152.907,128.695,152.907c108.695,36.521,181.739-22.608,181.739-22.608l106.956,104.348
	c26.956,13.913,45.218-8.695,45.218-8.695C506.826,460.522,488.565,436.174,488.565,436.174z M219.608,349.041
	c-71.557,0-129.565-58.008-129.565-129.565c0-71.557,58.008-129.565,129.565-129.565c71.558,0,129.565,58.008,129.565,129.565
	C349.174,291.033,291.166,349.041,219.608,349.041z"/>
</svg>
