<?xml version="1.0" encoding="utf-8"?>
<!-- Generator: Adobe Illustrator 16.0.0, SVG Export Plug-In . SVG Version: 6.00 Build 0)  -->
<!DOCTYPE svg PUBLIC "-//W3C//DTD SVG 1.1//EN" "http://www.w3.org/Graphics/SVG/1.1/DTD/svg11.dtd">
<svg version="1.1" id="Layer_1" xmlns="http://www.w3.org/2000/svg" xmlns:xlink="http://www.w3.org/1999/xlink" x="0px" y="0px"
	 width="512px" height="512px" viewBox="0 0 512 512" enable-background="new 0 0 512 512" xml:space="preserve">
<image display="none" overflow="visible" width="500" height="500" xlink:href="514823E2.jpg"  transform="matrix(0.9503 0 0 0.9503 18.4341 18.4341)">
</image>
<path fill="#696969" d="M481.667,306.333c-42-12.667-38-57.333-38-57.333c2.667-34,40-45.333,40-45.333c12.667-10,9.898-20,9.898-20
	c-6.102-33.333-21.521-50.101-21.521-50.101c-11.304-12.174-20.87-0.87-20.87-0.87c-46.087,13.913-67.826-13.913-67.826-13.913
	c-17.392-25.217-6.956-57.392-6.956-57.392C388.565,31.826,328,18,328,18c-1.191,0-2.717,0-4.652,0c-15.652,0-20,18.826-20,18.826
	c-9.565,26.957-52.174,30.652-52.174,30.652c-38.261-9.565-46.086-40-46.086-40c-7.826-13.913-20.87-9.044-20.87-9.044
	c-32.174,6.608-49.634,23.826-49.634,23.826c-9.634,6.957-6.016,13.042-6.016,13.042l5.22,17.388
	c4.348,26.087-10.43,46.08-10.43,46.08C90,142.5,91,136,66.864,134.38c-20.87-15.652-28.658-0.054-28.658-0.054
	c-16.522,15.652-19.62,52.936-19.62,52.936c0.152,15.596,11.747,17.071,11.747,17.071c41.333,18.667,40,51.674,40,51.674
	c-1.333,31.673-36,47.659-36,47.659c-16.667,2.667-15.747,16-15.747,16c0.152,30,18.414,55.333,18.414,55.333
	c10.667,10.666,22,5.334,22,5.334c46-13.333,58.667,9.333,58.667,9.333c25.333,23.333,8,56.667,8,56.667
	c-8.667,13.334,2.667,23.333,2.667,23.333c18.667,18,56,23.9,56,23.9c19.333,0,22-18.567,22-18.567
	c24-40.667,57.333-31.333,57.333-31.333c27.333,4.667,42,35.333,42,35.333C310.334,499.664,329,493.565,329,493.565
	c27.333-5.433,45.334-21.233,45.334-21.233c10.667-8,5.333-22.667,5.333-22.667C364.334,416.998,383,393,383,393
	c26-28.667,68-12,68-12c16,5.333,25.334-10.667,25.334-10.667c8-10,17.231-38,17.231-38
	C498.131,310.999,481.667,306.333,481.667,306.333z M255.5,368C193.368,368,143,317.632,143,255.5S193.368,143,255.5,143
	S368,193.368,368,255.5S317.632,368,255.5,368z"/>
</svg>
