<?xml version="1.0" encoding="utf-8"?>
<!-- Generator: Adobe Illustrator 16.0.0, SVG Export Plug-In . SVG Version: 6.00 Build 0)  -->
<!DOCTYPE svg PUBLIC "-//W3C//DTD SVG 1.1//EN" "http://www.w3.org/Graphics/SVG/1.1/DTD/svg11.dtd">
<svg version="1.1" id="Layer_1" xmlns="http://www.w3.org/2000/svg" xmlns:xlink="http://www.w3.org/1999/xlink" x="0px" y="0px"
	 width="512px" height="512px" viewBox="0 0 512 512" enable-background="new 0 0 512 512" xml:space="preserve">
<image display="none" overflow="visible" width="512" height="511" xlink:href="859739E.jpg"  transform="matrix(0.9563 0 0 0.9563 11.6299 10.9878)">
</image>
<path fill="#696969" d="M262,11H48c0,0-36,7.782-36,37.348V461c0,0,0.913,34,37.435,39H462c0,0,35-5.565,39-37.739V264
	c0,0,2.348-34-26.348-32H459c0,0-22,0.695-23,18.957V433l-358,0.565V77l178.523,0.043c0,0,14.651,0,21.607-13.913l1.738-33.043
	C279.869,30.087,278.043,12.783,262,11z"/>
<path fill="#696969" d="M214.805,131.587c0,0-1.022-23.587,18.978-23.587H262c0,0,12.484,2.171,16.057,12.094
	c0.596,1.657,0.943,3.53,0.943,5.645c0,14.783,0,55.261,0,55.261L445.087,20.522c0,0,23.479-21.739,46.957,0
	c0,0,24.349,15.739,0,45.304L327.695,232H387c0,0,17,2.435,17,17.217V282c0,0-5,12-17.174,14H252c0,0-35.321-1.565-37.204-32
	L214.805,131.587z"/>
</svg>
