<svg id="Layer_1" data-name="Layer 1" xmlns="http://www.w3.org/2000/svg" viewBox="0 0 160 40.13"><defs><style>.cls-1,.cls-2,.cls-4{fill:none;}.cls-2,.cls-3,.cls-4{stroke:#e0dede;stroke-miterlimit:10;}.cls-2,.cls-3{stroke-width:0.91px;}.cls-3{fill:#e0dede;}.cls-4{stroke-width:0.99px;}</style></defs><title>4</title><rect class="cls-1" width="160" height="40.13"/><path class="cls-2" d="M65,1.68h55.67a2.68,2.68,0,0,1,2.68,2.68V38.44a0,0,0,0,1,0,0h-61a0,0,0,0,1,0,0V4.36A2.68,2.68,0,0,1,65,1.68Z"/><path class="cls-3" d="M3.94,1.68H59.61a2.68,2.68,0,0,1,2.68,2.68V38.44a0,0,0,0,1,0,0h-61a0,0,0,0,1,0,0V4.36A2.68,2.68,0,0,1,3.94,1.68Z"/><line class="cls-4" x1="62.29" y1="38.44" x2="154.09" y2="38.44"/></svg>