<svg id="Layer_1" data-name="Layer 1" xmlns="http://www.w3.org/2000/svg" viewBox="0 0 160 40.13"><defs><style>.cls-1,.cls-2,.cls-3,.cls-4{fill:none;}.cls-2{stroke:#515351;}.cls-2,.cls-3,.cls-4{stroke-miterlimit:10;}.cls-2,.cls-3{stroke-width:0.91px;}.cls-3,.cls-4{stroke:#e0dede;}.cls-4{stroke-width:0.99px;}</style></defs><title>6</title><rect class="cls-1" width="160" height="40.13"/><path class="cls-2" d="M1.26,1.68H52.92a9.37,9.37,0,0,1,9.37,9.37V38.44a0,0,0,0,1,0,0H10.63a9.37,9.37,0,0,1-9.37-9.37V1.68a0,0,0,0,1,0,0Z"/><path class="cls-3" d="M65.12,1.62h51.65A9.37,9.37,0,0,1,126.14,11V38.38a0,0,0,0,1,0,0H74.49A9.37,9.37,0,0,1,65.12,29V1.62A0,0,0,0,1,65.12,1.62Z"/><line class="cls-4" x1="63.11" y1="38.51" x2="154.92" y2="38.51"/></svg>