<?xml version="1.0" encoding="utf-8"?>
<!-- Generator: Adobe Illustrator 16.0.0, SVG Export Plug-In . SVG Version: 6.00 Build 0)  -->
<!DOCTYPE svg PUBLIC "-//W3C//DTD SVG 1.1//EN" "http://www.w3.org/Graphics/SVG/1.1/DTD/svg11.dtd">
<svg version="1.1" id="Layer_1" xmlns="http://www.w3.org/2000/svg" xmlns:xlink="http://www.w3.org/1999/xlink" x="0px" y="0px"
	 width="150px" height="150px" viewBox="0 0 150 150" enable-background="new 0 0 150 150" xml:space="preserve">
<path d="M112,20H38c-1.104,0-2,0.896-2,2v108c0,1.104,0.896,2,2,2h74c1.104,0,2-0.896,2-2V22C114,20.896,113.104,20,112,20z
	 M111,127.413c0,1.145-0.896,1.587-2,1.587H41c-1.104,0-2-0.442-2-1.587V24.836C39,23.692,39.896,23,41,23h68
	c1.104,0,2,0.692,2,1.836V127.413z"/>
<path d="M102,31H47c-1.104,0-2,0.896-2,2v22c0,1.104,0.896,2,2,2h55c1.104,0,2-0.896,2-2V33C104,31.896,103.104,31,102,31z
	 M102,52.8c0,1.215-0.912,2.2-2.037,2.2H49.037C47.912,55,47,54.015,47,52.8V35.2c0-1.215,0.912-2.2,2.037-2.2h50.926
	c1.125,0,2.037,0.985,2.037,2.2V52.8z"/>
<path d="M51,61.25c-3.728,0-6.75,3.022-6.75,6.75s3.022,6.75,6.75,6.75s6.75-3.022,6.75-6.75S54.728,61.25,51,61.25z M51,73.5
	c-3.037,0-5.5-2.463-5.5-5.5s2.463-5.5,5.5-5.5s5.5,2.463,5.5,5.5S54.037,73.5,51,73.5z"/>
<path d="M66.394,61.25c-3.728,0-6.75,3.022-6.75,6.75s3.022,6.75,6.75,6.75s6.75-3.022,6.75-6.75S70.121,61.25,66.394,61.25z
	 M66.394,73.5c-3.037,0-5.5-2.463-5.5-5.5s2.463-5.5,5.5-5.5s5.5,2.463,5.5,5.5S69.431,73.5,66.394,73.5z"/>
<path d="M82.67,61.25c-3.729,0-6.75,3.022-6.75,6.75s3.022,6.75,6.75,6.75c3.727,0,6.75-3.022,6.75-6.75S86.396,61.25,82.67,61.25z
	 M82.67,73.5c-3.037,0-5.5-2.463-5.5-5.5s2.463-5.5,5.5-5.5s5.5,2.463,5.5,5.5S85.707,73.5,82.67,73.5z"/>
<path d="M98.833,61.25c-3.729,0-6.751,3.022-6.751,6.75s3.022,6.75,6.751,6.75c3.727,0,6.75-3.022,6.75-6.75
	S102.56,61.25,98.833,61.25z M98.833,73.5c-3.037,0-5.5-2.463-5.5-5.5s2.463-5.5,5.5-5.5s5.5,2.463,5.5,5.5S101.87,73.5,98.833,73.5
	z"/>
<path d="M51.083,77.721c-3.728,0-6.75,3.021-6.75,6.75c0,3.727,3.022,6.75,6.75,6.75s6.75-3.023,6.75-6.75
	C57.833,80.742,54.811,77.721,51.083,77.721z M51.083,89.971c-3.037,0-5.5-2.463-5.5-5.5s2.463-5.5,5.5-5.5s5.5,2.463,5.5,5.5
	S54.121,89.971,51.083,89.971z"/>
<path d="M66.477,77.721c-3.728,0-6.75,3.021-6.75,6.75c0,3.727,3.022,6.75,6.75,6.75s6.75-3.023,6.75-6.75
	C73.227,80.742,70.205,77.721,66.477,77.721z M66.477,89.971c-3.037,0-5.5-2.463-5.5-5.5s2.463-5.5,5.5-5.5s5.5,2.463,5.5,5.5
	S69.514,89.971,66.477,89.971z"/>
<path d="M82.754,77.721c-3.729,0-6.751,3.021-6.751,6.75c0,3.727,3.022,6.75,6.751,6.75c3.727,0,6.75-3.023,6.75-6.75
	C89.504,80.742,86.48,77.721,82.754,77.721z M82.754,89.971c-3.037,0-5.5-2.463-5.5-5.5s2.463-5.5,5.5-5.5s5.5,2.463,5.5,5.5
	S85.791,89.971,82.754,89.971z"/>
<path d="M51.083,93.346c-3.728,0-6.75,3.021-6.75,6.75c0,3.727,3.022,6.75,6.75,6.75s6.75-3.023,6.75-6.75
	C57.833,96.367,54.811,93.346,51.083,93.346z M51.083,105.596c-3.037,0-5.5-2.463-5.5-5.5s2.463-5.5,5.5-5.5s5.5,2.463,5.5,5.5
	S54.121,105.596,51.083,105.596z"/>
<path d="M66.477,93.346c-3.728,0-6.75,3.021-6.75,6.75c0,3.727,3.022,6.75,6.75,6.75s6.75-3.023,6.75-6.75
	C73.227,96.367,70.205,93.346,66.477,93.346z M66.477,105.596c-3.037,0-5.5-2.463-5.5-5.5s2.463-5.5,5.5-5.5s5.5,2.463,5.5,5.5
	S69.514,105.596,66.477,105.596z"/>
<path d="M82.754,93.346c-3.729,0-6.751,3.021-6.751,6.75c0,3.727,3.022,6.75,6.751,6.75c3.727,0,6.75-3.023,6.75-6.75
	C89.504,96.367,86.48,93.346,82.754,93.346z M82.754,105.596c-3.037,0-5.5-2.463-5.5-5.5s2.463-5.5,5.5-5.5s5.5,2.463,5.5,5.5
	S85.791,105.596,82.754,105.596z"/>
<path d="M51.083,108.471c-3.728,0-6.75,3.021-6.75,6.75c0,3.727,3.022,6.75,6.75,6.75s6.75-3.023,6.75-6.75
	C57.833,111.492,54.811,108.471,51.083,108.471z M51.083,120.721c-3.037,0-5.5-2.463-5.5-5.5s2.463-5.5,5.5-5.5s5.5,2.463,5.5,5.5
	S54.121,120.721,51.083,120.721z"/>
<path d="M66.477,108.471c-3.728,0-6.75,3.021-6.75,6.75c0,3.727,3.022,6.75,6.75,6.75s6.75-3.023,6.75-6.75
	C73.227,111.492,70.205,108.471,66.477,108.471z M66.477,120.721c-3.037,0-5.5-2.463-5.5-5.5s2.463-5.5,5.5-5.5s5.5,2.463,5.5,5.5
	S69.514,120.721,66.477,120.721z"/>
<path d="M82.754,108.471c-3.729,0-6.751,3.021-6.751,6.75c0,3.727,3.022,6.75,6.751,6.75c3.727,0,6.75-3.023,6.75-6.75
	C89.504,111.492,86.48,108.471,82.754,108.471z M82.754,120.721c-3.037,0-5.5-2.463-5.5-5.5s2.463-5.5,5.5-5.5s5.5,2.463,5.5,5.5
	S85.791,120.721,82.754,120.721z"/>
<path d="M98.916,77.721c-3.729,0-6.75,3.021-6.75,6.75c0,3.727,3.021,6.75,6.75,6.75c3.727,0,6.75-3.023,6.75-6.75
	C105.666,80.742,102.643,77.721,98.916,77.721z M98.916,89.971c-3.037,0-5.5-2.463-5.5-5.5s2.463-5.5,5.5-5.5s5.5,2.463,5.5,5.5
	S101.953,89.971,98.916,89.971z"/>
<path d="M99.5,93c-3.59,0-6.5,2.91-6.5,6.5v16c0,3.59,2.91,6.5,6.5,6.5s6.5-2.91,6.5-6.5v-16C106,95.91,103.09,93,99.5,93z
	 M105,114.811c0,3.28-2.359,5.939-5.5,5.939s-5.5-2.659-5.5-5.939v-14.621c0-3.28,2.359-5.939,5.5-5.939s5.5,2.659,5.5,5.939
	V114.811z"/>
</svg>
