<?xml version="1.0" encoding="utf-8"?>
<!-- Generator: Adobe Illustrator 16.0.0, SVG Export Plug-In . SVG Version: 6.00 Build 0)  -->
<!DOCTYPE svg PUBLIC "-//W3C//DTD SVG 1.1//EN" "http://www.w3.org/Graphics/SVG/1.1/DTD/svg11.dtd">
<svg version="1.1" id="Layer_1" xmlns="http://www.w3.org/2000/svg" xmlns:xlink="http://www.w3.org/1999/xlink" x="0px" y="0px"
	 width="150px" height="150px" viewBox="0 0 150 150" enable-background="new 0 0 150 150" xml:space="preserve">
<path d="M31,60V37h25v8l46.014,0.239c0,0,14.86,2.344,14.694,18.511c0,0,0.959,16.25-15.208,18.25H47c0,0-10,2.916-10,12.083
	c0,0-1,9.917,8.833,12.917H91V97l25-0.166V122H92l-0.167-9.25L45.5,112.459c0,0-15-2.896-14-18.896c0,0-1-13.53,14-17.197
	l55.667-0.35c0,0,9.5-2.341,9.5-12.174c0,0,1.166-8.337-8.334-12.337l-46.167-0.502l-0.417,9.499L31,60z"/>
</svg>
