<?xml version="1.0" encoding="utf-8"?>
<!-- Generator: Adobe Illustrator 16.0.0, SVG Export Plug-In . SVG Version: 6.00 Build 0)  -->
<!DOCTYPE svg PUBLIC "-//W3C//DTD SVG 1.1//EN" "http://www.w3.org/Graphics/SVG/1.1/DTD/svg11.dtd">
<svg version="1.1" id="Layer_1" xmlns="http://www.w3.org/2000/svg" xmlns:xlink="http://www.w3.org/1999/xlink" x="0px" y="0px"
	 width="150px" height="150px" viewBox="0 0 150 150" enable-background="new 0 0 150 150" xml:space="preserve">
<image display="none" overflow="visible" opacity="0.2" width="149" height="150" xlink:href="../../Softhealer Technologies/odoo icon/3D/1-50/line final 50/android and iphone.png"  transform="matrix(1 0 0 1 0.5 0)">
</image>
<path d="M92.493,38H59.326C54.238,38,50,42.777,50,48.299v68c0,5.523,4.238,9.701,9.326,9.701h33.167
	c5.088,0,10.507-4.178,10.507-9.701v-68C103,42.777,97.581,38,92.493,38z M55,59h43v46H55V59z M93.861,121H58.821
	c-3.674,0-3.821-4.006-3.821-4.006V109h0.79h41.629l-0.014,7.633C97.668,120.26,93.861,121,93.861,121z M55.79,55H55v-7.395
	c0,0,0.494-4.605,4.168-4.605h35.041c0,0,3.807,0.74,3.544,4.368L97.766,55H55.79z"/>
<path d="M83,49.604C83,50.375,82.375,51,81.604,51H71.396C70.625,51,70,50.375,70,49.604v-0.208C70,48.625,70.625,48,71.396,48
	h10.207C82.375,48,83,48.625,83,49.396V49.604z"/>
<circle cx="76.375" cy="115.035" r="3.553"/>
<path d="M87.083,72.5C86.875,68.75,84,68,84,68v-4c-1-1.333-2.166-1.229-2.166-1.229C79.834,62.542,79,64,79,64v1h-6v-0.833
	c-0.625-1.979-2.911-1.333-2.911-1.333C67.755,62.833,68,65,68,65v2.833c-3.125,1.292-3,4.5-3,4.5c-4.833,0-5,3.667-5,3.667v10
	c0,4.5,4.839,4.586,4.839,4.586C64.833,92.886,67,93,67,93v3.5c-0.167,3.334,4,3.5,4,3.5h4v-1h1.803c0.02-0.001,0.039-0.001,0.058,0
	c0.045-0.013,0.087-0.028,0.14-0.028s0.095,0.016,0.14,0.028h0.193l-0.028,0.085c0.171,0.144,0.217,0.396,0.133,0.599
	c-0.004,0.105-0.011,0.211-0.013,0.316h2.504c3.929,0,4.404-3.167,4.404-3.167l0.167-3.667c2.333-0.167,2.333-2.581,2.333-2.581
	C91.833,90.67,92,87,92,87V76C92,72.334,87.083,72.5,87.083,72.5z M66,86.042C66,87.123,65.435,88,64.361,88h-0.083
	C63.205,88,62,87.123,62,86.042v-8.084C62,76.877,63.205,76,64.278,76h0.083C65.435,76,66,76.877,66,77.958V86.042z M81,91
	l0.25,4.25c0,0,0.333,1.833-1.917,1.75c0,0-1.832,0.166-1.916-1.5L77.333,91H74l0.167,4.334c0,0-0.25,1.666-1.833,1.333
	c0,0-1.834,0.416-1.917-1.917S70.333,91,70.333,91H68V76h16l0.25,15H81z M67.702,74c0,0-0.185-3.666,3.482-4.833l-1.176-1.751
	c0,0-0.838-2.124,1.162-1.458L72.822,68H80l1.25-1.75c0,0,1.334-0.5,0.917,0.833l-1,2.292c0,0,3,0.625,3.083,4.625H67.702z
	 M90,86.042C90,87.123,89.435,88,88.361,88h-0.083C87.205,88,86,87.123,86,86.042v-8.084C86,76.877,87.205,76,88.278,76h0.083
	C89.435,76,90,76.877,90,77.958V86.042z"/>
</svg>
