<?xml version="1.0" encoding="utf-8"?>
<!-- Generator: Adobe Illustrator 16.0.0, SVG Export Plug-In . SVG Version: 6.00 Build 0)  -->
<!DOCTYPE svg PUBLIC "-//W3C//DTD SVG 1.1//EN" "http://www.w3.org/Graphics/SVG/1.1/DTD/svg11.dtd">
<svg version="1.1" id="Layer_1" xmlns="http://www.w3.org/2000/svg" xmlns:xlink="http://www.w3.org/1999/xlink" x="0px" y="0px"
	 width="150px" height="150px" viewBox="0 0 150 150" enable-background="new 0 0 150 150" xml:space="preserve">
<path d="M41.858,42.701c0,0,5.33-5.583,10.66,0l11.929,14.721c0,0,2.538,5.077,0,7.868l-3.807,4.822c0,0-1.261,1.16,0.614,3.993
	c0.186,0.282,0.403,0.58,0.655,0.895c2.792,3.487,16.751,17.7,16.751,17.7s0.508,2.284,4.314,0l2.792-3.807c0,0,4.061-4.822,9.391,0
	l15.482,13.451c0,0,3.046,3.047,0,7.361l-14.721,14.721c0,0-5.077,4.062-16.244,0c0,0-23.351-13.705-30.964-25.127l4.823-4.568
	c0,0,28.173,29.695,39.594,21.827l10.406-10.406L90.335,94.984c0,0-8.629,11.168-18.02,1.27L54.041,77.726
	c0,0-4.314-7.36-0.761-10.152l4.568-5.076L46.68,49.046l-9.137,8.375c0,0-9.188,8.561,6.345,25.804l-5.33,3.638
	c0,0-7.868-8.122-10.406-18.528c0,0-2.792-8.629,0-12.183C28.152,56.152,36.021,47.016,41.858,42.701z"/>
<path d="M40.843,90.162l5.583-3.299l3.3,3.299l-4.442,5.076C45.284,95.238,43.127,93.461,40.843,90.162z"/>
<path d="M61.655,29.502l2.03,7.36c0,0,44.67-6.853,49.493,36.294l-2.284-2.03L106.579,75l6.599,9.832c0,0,2.029,3.299,6.091,0
	l7.868-7.867l-4.822-5.077L119.776,75C119.776,75,123.31,25.188,61.655,29.502z"/>
<path d="M69.163,60.469l2.753,4.06c0,0,5.938-5.077,5.938,1.522c0,0,2.146,1.777-8.854,10.66V79h14v-4h-5c0,0,3.249-2.604,5-6.665
	c0,0,3.02-6.414-3.071-10.567C79.929,57.768,73.879,55.649,69.163,60.469z"/>
<path d="M99,71l0.125-13H94l-8,13v4h8l0.396,4H99v-4h3v-4H99z M95,70.75l-3.617-0.072L95,65V70.75z"/>
</svg>
