<?xml version="1.0" encoding="utf-8"?>
<!-- Generator: Adobe Illustrator 16.0.0, SVG Export Plug-In . SVG Version: 6.00 Build 0)  -->
<!DOCTYPE svg PUBLIC "-//W3C//DTD SVG 1.1//EN" "http://www.w3.org/Graphics/SVG/1.1/DTD/svg11.dtd">
<svg version="1.1" id="Layer_1" xmlns="http://www.w3.org/2000/svg" xmlns:xlink="http://www.w3.org/1999/xlink" x="0px" y="0px"
	 width="150px" height="150px" viewBox="0 0 150 150" enable-background="new 0 0 150 150" xml:space="preserve">
<path d="M96,107v10H46c0,0-19.117-2.98-18.609-19.478l-0.01-44.34c0,0,2.294-16.183,16.761-17.183H49l0.218,4.67
	c0,0,0.507,5.838,7.106,5.838c0,0,6.853-0.254,7.36-5.076L63.939,36H71l-0.208,4.924c0,0,0.457,4.568,7.208,5.076
	c0,0,4.976-0.507,6.244-4.568L84.5,36H92v5c0,0,1.084,5.167,6.084,5.167c0,0,5.916-0.167,6.916-5V36h6c0,0,14,0.667,16,15.833V82h-8
	V59l-83,0.167V97c0,0,1.667,9,11.333,10H96z"/>
<path d="M60,39.5c0,1.933-1.567,3.5-3.5,3.5l0,0c-1.933,0-3.5-1.567-3.5-3.5v-7c0-1.933,1.567-3.5,3.5-3.5l0,0
	c1.933,0,3.5,1.567,3.5,3.5V39.5z"/>
<path d="M81,39.5c0,1.933-1.566,3.5-3.5,3.5l0,0c-1.933,0-3.5-1.567-3.5-3.5v-7c0-1.933,1.567-3.5,3.5-3.5l0,0
	c1.934,0,3.5,1.567,3.5,3.5V39.5z"/>
<path d="M102,39.5c0,1.933-1.566,3.5-3.5,3.5l0,0c-1.934,0-3.5-1.567-3.5-3.5v-7c0-1.933,1.566-3.5,3.5-3.5l0,0
	c1.934,0,3.5,1.567,3.5,3.5V39.5z"/>
<rect x="49" y="65" width="10" height="10"/>
<rect x="65" y="65" width="10" height="10"/>
<rect x="81" y="65" width="10" height="10"/>
<rect x="96" y="65" width="10" height="10"/>
<rect x="49" y="79" width="10" height="10"/>
<rect x="65" y="79" width="10" height="10"/>
<rect x="81" y="79" width="10" height="10"/>
<rect x="49" y="92" width="10" height="10"/>
<rect x="65" y="92" width="10" height="10"/>
<rect x="81" y="92" width="10" height="10"/>
<rect x="96" y="79" width="10" height="10"/>
<path d="M96,99v-7h5C101,92,96.667,94.334,96,99z"/>
<polygon points="111.5,105.75 115,103 120.375,108.375 135.75,94 139,97.5 120.625,115.25 "/>
<path d="M127.875,94.875c0,0-7.25-3.375-13.75,0.625c0,0-9.375,5.75-6,17.75c0,0,3.25,8.375,11,9c0,0,8,1.875,13.75-4.625
	c0,0,4.125-5.75,2.75-12l5-3.625c0,0,1,6.125,0.625,9.125c0,0-0.5,14.375-18,17c0,0-17,1.125-20.625-14.125c0,0-3.625-13,6.5-22
	c0,0,9.875-7.75,22.625-1.25L127.875,94.875z"/>
</svg>
