<?xml version="1.0" encoding="utf-8"?>
<!-- Generator: Adobe Illustrator 16.0.0, SVG Export Plug-In . SVG Version: 6.00 Build 0)  -->
<!DOCTYPE svg PUBLIC "-//W3C//DTD SVG 1.1//EN" "http://www.w3.org/Graphics/SVG/1.1/DTD/svg11.dtd">
<svg version="1.1" id="Layer_1" xmlns="http://www.w3.org/2000/svg" xmlns:xlink="http://www.w3.org/1999/xlink" x="0px" y="0px"
	 width="150px" height="150px" viewBox="0 0 150 150" enable-background="new 0 0 150 150" xml:space="preserve">
<path d="M121.396,39.852L111.873,50h-7.351l-2.04-6.572l10.913-11.8c0,0-13.675-9.533-27.981,8.371
	c-0.148,0.186-0.297,0.343-0.445,0.534c0,0-4.567,9.26,0,14.59L50.197,90.394c0,0-17.512-3.303-23.096,12.94
	c0,0-4.315,19.795,13.197,22.333c0,0,16.751,3.299,22.335-12.691c0,0,1.015-4.062,0-9.138l29.188-30.203l-3.046-3.807
	l-31.979,32.233c0,0,5.557,9.632-3.3,16.752c0,0-10.66,6.598-17.767-1.523c0,0-7.694-5.684-1.776-15.989
	c0,0,6.599-9.898,17.005-5.33l40.102-39.848c0,0-5.33-10.914,0.762-15.736c0,0,6.852-9.391,13.705-7.106l-7.867,8.375l2.283,12.183
	l12.691,2.538l7.105-8.122c0,0-0.507,20.304-21.319,14.213l-5.837,3.554l2.791,3.807l3.554-2.538c0,0,9.644,6.598,19.035-3.554
	c0,0,12.954-10.534,3.432-25.001"/>
<path d="M44.832,98.756c-5.116,0-9.264,4.147-9.264,9.265c0,5.116,4.147,9.264,9.264,9.264c5.117,0,9.265-4.147,9.265-9.264
	C54.097,102.903,49.949,98.756,44.832,98.756z M44.832,112.103c-2.256,0-4.082-1.826-4.082-4.082c0-2.257,1.826-4.083,4.082-4.083
	c2.257,0,4.083,1.826,4.083,4.083C48.915,110.276,47.089,112.103,44.832,112.103z"/>
</svg>
