<?xml version="1.0" encoding="utf-8"?>
<!-- Generator: Adobe Illustrator 16.0.0, SVG Export Plug-In . SVG Version: 6.00 Build 0)  -->
<!DOCTYPE svg PUBLIC "-//W3C//DTD SVG 1.1//EN" "http://www.w3.org/Graphics/SVG/1.1/DTD/svg11.dtd">
<svg version="1.1" id="Layer_1" xmlns="http://www.w3.org/2000/svg" xmlns:xlink="http://www.w3.org/1999/xlink" x="0px" y="0px"
	 width="150px" height="150px" viewBox="0 0 150 150" enable-background="new 0 0 150 150" xml:space="preserve">
<path d="M113,56c0,1.104-0.896,2-2,2H71c-1.104,0-2-0.896-2-2l0,0c0-1.104,0.896-2,2-2h40C112.104,54,113,54.896,113,56L113,56z"/>
<path d="M113,67c0,1.104-0.896,2-2,2H71c-1.104,0-2-0.896-2-2l0,0c0-1.104,0.896-2,2-2h40C112.104,65,113,65.896,113,67L113,67z"/>
<path d="M113,77c0,1.104-0.821,2-1.834,2H42.834C41.821,79,41,78.104,41,77l0,0c0-1.104,0.821-2,1.834-2h68.332
	C112.179,75,113,75.896,113,77L113,77z"/>
<path d="M57.5,59.833c0,0,3.834-4.167,0.167-10c0,0-6.333-5-11,0c0,0-4.333,5.667-0.333,10.167c0,0-6,0.5-5.333,11h4
	c0,0-1.167-8,7-8.167c0,0,7.833-1,7.5,8.167H63C63,71,65.333,62.333,57.5,59.833z M51.917,58.167c-1.795,0-3.25-1.455-3.25-3.25
	s1.455-3.25,3.25-3.25s3.25,1.455,3.25,3.25S53.712,58.167,51.917,58.167z"/>
<path d="M113.5,36H39c0,0-7.625,1.5-7.5,8l-0.001,53.75c0,0-0.749,8.25,7.501,8.25h22v7h-6c0,0-2.5,0-2.5,2c0,0-0.875,3,3.375,3H99
	c0,0,2.625,0,2.625-3c0,0-0.375-2-2.875-2H90v-7l25-0.5c0,0,7-0.25,7-7.625V45C122,45,123,37,113.5,36z M86,112H66v-6h20V112z
	 M118,99c0,0-1,3-3.5,3H40c0,0-3.833-0.999-4-3.833V91h82V99z M118,87H36V45c0,0,0-4,5.167-4H114c0,0,4,0.167,4,4.833V87z"/>
</svg>
