<?xml version="1.0" encoding="utf-8"?>
<!-- Generator: Adobe Illustrator 16.0.0, SVG Export Plug-In . SVG Version: 6.00 Build 0)  -->
<!DOCTYPE svg PUBLIC "-//W3C//DTD SVG 1.1//EN" "http://www.w3.org/Graphics/SVG/1.1/DTD/svg11.dtd">
<svg version="1.1" id="Layer_1" xmlns="http://www.w3.org/2000/svg" xmlns:xlink="http://www.w3.org/1999/xlink" x="0px" y="0px"
	 width="150px" height="150px" viewBox="0 0 150 150" enable-background="new 0 0 150 150" xml:space="preserve">
<path d="M107.281,50.907l-0.719,1.532L100,40.125C97.375,35.75,89,36,89,36H67.203c0.755,0,6.578-0.007-0.453-0.124
	c-7.5-0.125-10.625,4.624-10.625,4.624l-10.375,18l21.875,13L78,53.625l7.125,11L84,65v2.25l18.539,2.789l7.789-17.21
	L107.281,50.907z M66.125,66.625L50,57.375l8.375-14c10.015-10.597,17.375,6.5,17.375,6.5L66.125,66.625z M100.125,66.125L88,64.625
	L78.039,46c-1.211-3.125-4.539-6-4.539-6h18c4.25-0.125,7,4.625,7,4.625L105,55.75L100.125,66.125z"/>
<path d="M91.177,122.813l-1.019-1.354l13.732-0.151c5.096-0.272,8.575-7.906,8.575-7.906l10.203-19.261
	c-0.354,0.668-2.853,5.933,0.542-0.226c3.622-6.568,0.999-11.495,0.999-11.495l-10.993-17.565l-21.701,13.26l10.953,17.542
	l-12.991,1.041l0.261-1.277l-1.987-1.054l-11.202,15.188l11.532,14.995L91.177,122.813z M96.554,79.086l15.723-9.918l8.451,13.955
	c4.675,13.812-13.878,12.311-13.878,12.311L96.554,79.086z M81.078,109.365l7.002-10.013l20.9-0.2
	c3.329,0.393,7.206-1.319,7.206-1.319l-8.427,15.906c-1.105,4.224-7.143,4.138-7.143,4.138l-12.763,0.593L81.078,109.365z"/>
<path d="M37.462,72.47l1.689-0.133l-7.24,11.669c-2.504,4.446,2.071,11.479,2.071,11.479l10.779,18.944
	c-0.374-0.657-3.476-5.591-0.101,0.578c3.6,6.581,9.165,7.011,9.165,7.011l20.721,0.147L75,96.738l-20.68-0.169l6.092-11.521
	l0.938,0.905l1.956-1.112L56.5,67.239l-18.842,1.686L37.462,72.47z M71.478,100.469l-0.066,18.59l-16.31-0.355
	c-14.164-3.466-2.942-18.316-2.942-18.316L71.478,100.469z M54.229,71.163l4.693,11.281l-11.045,17.744
	c-2.117,2.599-2.753,6.789-2.753,6.789l-8.901-15.646c-2.971-3.199,0.34-8.247,0.34-8.247l6.348-11.088L54.229,71.163z"/>
</svg>
