<?xml version="1.0" encoding="utf-8"?>
<!-- Generator: Adobe Illustrator 16.0.0, SVG Export Plug-In . SVG Version: 6.00 Build 0)  -->
<!DOCTYPE svg PUBLIC "-//W3C//DTD SVG 1.1//EN" "http://www.w3.org/Graphics/SVG/1.1/DTD/svg11.dtd">
<svg version="1.1" id="Layer_1" xmlns="http://www.w3.org/2000/svg" xmlns:xlink="http://www.w3.org/1999/xlink" x="0px" y="0px"
	 width="150px" height="150px" viewBox="0 0 150 150" enable-background="new 0 0 150 150" xml:space="preserve">
<path d="M47,39H19c-1.104,0-2,0.896-2,2v74c0,1.104,0.896,2,2,2h28c1.104,0,2-0.896,2-2V41C49,39.896,48.104,39,47,39z M44,108.826
	c0,0.946-0.926,2.174-1.66,2.174H23.645c-0.734,0-1.645-1.228-1.645-2.174V45.62c0-0.946,0.911-1.62,1.645-1.62H42.34
	c0.734,0,1.66,0.674,1.66,1.62V108.826z"/>
<path d="M89,59H61c-1.104,0-2,0.896-2,2v54c0,1.104,0.896,2,2,2h28c1.104,0,2-0.896,2-2V61C91,59.896,90.104,59,89,59z M87,109.396
	c0,0.872-0.837,1.604-1.621,1.604H65.358c-0.784,0-1.358-0.732-1.358-1.604V66.579C64,65.707,64.575,65,65.358,65h20.021
	C86.163,65,87,65.707,87,66.579V109.396z"/>
<path d="M132,84h-28c-1.104,0-2,0.896-2,2v30c0,1.104,0.896,2,2,2h28c1.104,0,2-0.896,2-2V86C134,84.896,133.104,84,132,84z
	 M128,111.384c0,0.738-0.609,1.616-1.359,1.616h-18.702c-0.75,0-0.938-0.878-0.938-1.616V91.337c0-0.738,0.188-1.337,0.938-1.337
	h18.702c0.75,0,1.359,0.599,1.359,1.337V111.384z"/>
</svg>
