<?xml version="1.0" encoding="utf-8"?>
<!-- Generator: Adobe Illustrator 16.0.0, SVG Export Plug-In . SVG Version: 6.00 Build 0)  -->
<!DOCTYPE svg PUBLIC "-//W3C//DTD SVG 1.1//EN" "http://www.w3.org/Graphics/SVG/1.1/DTD/svg11.dtd">
<svg version="1.1" id="Layer_1" xmlns="http://www.w3.org/2000/svg" xmlns:xlink="http://www.w3.org/1999/xlink" x="0px" y="0px"
	 width="150px" height="150px" viewBox="0 0 150 150" enable-background="new 0 0 150 150" xml:space="preserve">
<path d="M113.686,58.47l-8.376-6.632l1.016-11.167c0.508-6.599-6.854-6.853-6.854-6.853l-11.167,0.254l-7.614-7.868
	c-5.076-6.091-9.391,0-9.391,0l-6.853,7.965l-11.167,0.157c-7.36-1.269-7.107,5.584-7.107,5.584l0.508,11.929l-8.375,6.853
	c-5.837,4.315,0,9.391,0,9.391L46.934,75l-0.762,12.37c-0.508,7.867,7.107,5.838,7.107,5.838l-12.183,24.111
	c-3.807,7.867,3.553,3.554,3.553,3.554l12.944-4.568l6.853,9.898c4.315,5.838,6.345,0.762,6.345,0.762l5.147-19.29l5.005,15.482
	c1.523,10.406,5.584,3.808,5.584,3.808l8.375-10.152l13.198,5.583c6.599,1.015,2.792-4.314,2.792-4.314L98.965,93.443
	c8.884,0.743,6.853-5.819,6.853-5.819l-0.508-11.421l8.376-7.36C119.27,64.274,113.686,58.47,113.686,58.47z M67.239,122.903
	l-7.868-11.675l-14.213,5.584L58,93h6l9.584,9.599L67.239,122.903z M106.585,116.813l-14.214-5.584l-7.867,11.675l-6.346-20.305
	L87.742,93h6L106.585,116.813z M101.875,74.438L101.75,90H86l-10.061,10L65.875,89.875l-15.25-0.5l0.25-15.625l-11.313-9.938
	L50,53.375V39h16l9.939-10.5L87.25,39H102v14l10.25,10.625L101.875,74.438z"/>
<path d="M75.953,38.167c-14.195,0-25.703,11.507-25.703,25.703c0,14.195,11.507,25.703,25.703,25.703
	c14.195,0,25.704-11.508,25.704-25.703C101.656,49.674,90.147,38.167,75.953,38.167z M75.953,86.156
	c-12.309,0-22.287-9.979-22.287-22.287c0-12.309,9.978-22.287,22.287-22.287c12.308,0,22.288,9.978,22.288,22.287
	C98.24,76.178,88.261,86.156,75.953,86.156z"/>
<path d="M76,44.5c-10.677,0-19.333,8.656-19.333,19.333S65.323,83.167,76,83.167c10.678,0,19.334-8.656,19.334-19.333
	S86.678,44.5,76,44.5z M76,79.834c-8.836,0-16-7.163-16-16c0-8.837,7.164-16,16-16c8.837,0,16.001,7.164,16.001,16
	C92.001,72.671,84.837,79.834,76,79.834z"/>
<path d="M74,77.457v-4C74,73.457,85.487,75,85.981,63h3.501C89.482,63,91,78.176,74,77.457z"/>
<path d="M79,51.025v4c0,0-11.971-2.025-12.465,9.975h-3.501C63.034,65,62,50.306,79,51.025z"/>
</svg>
