<?xml version="1.0" encoding="utf-8"?>
<!-- Generator: Adobe Illustrator 16.0.0, SVG Export Plug-In . SVG Version: 6.00 Build 0)  -->
<!DOCTYPE svg PUBLIC "-//W3C//DTD SVG 1.1//EN" "http://www.w3.org/Graphics/SVG/1.1/DTD/svg11.dtd">
<svg version="1.1" id="Layer_1" xmlns="http://www.w3.org/2000/svg" xmlns:xlink="http://www.w3.org/1999/xlink" x="0px" y="0px"
	 width="150px" height="150px" viewBox="0 0 150 150" enable-background="new 0 0 150 150" xml:space="preserve">
<rect x="36" y="38" width="46" height="4"/>
<rect x="36" y="52" width="38" height="4"/>
<rect x="36" y="65" width="26" height="4"/>
<polygon points="51,81 37,81 36,117 116,117 116,80 98,80 97.949,85 112,85 112.162,113 41,113 40.843,85.086 50.487,84.832 "/>
<path d="M116,49.807L105.31,40c-4.568-4.223-8.629,0-8.629,0L57.848,78.741L49,98.5c-1.995,7.83,6,6.13,6,6.13L76,96l40-40
	C119.584,53.817,116,49.807,116,49.807z M53,101.001c-0.46,0-0.833-0.373-0.833-0.833c0-0.461,0.373-0.834,0.833-0.834
	s0.833,0.373,0.833,0.834C53.833,100.628,53.46,101.001,53,101.001z M56.359,99.504l-2.478-3.282l6.352-12.087l10.033,9.784
	L56.359,99.504z M74,92.5l-2.833-2.833l35.167-35L103.5,52l-35,35.5L62,81.334L101,42l11,11.167L74,92.5z"/>
</svg>
