<?xml version="1.0" encoding="utf-8"?>
<!-- Generator: Adobe Illustrator 16.0.0, SVG Export Plug-In . SVG Version: 6.00 Build 0)  -->
<!DOCTYPE svg PUBLIC "-//W3C//DTD SVG 1.1//EN" "http://www.w3.org/Graphics/SVG/1.1/DTD/svg11.dtd">
<svg version="1.1" id="Layer_1" xmlns="http://www.w3.org/2000/svg" xmlns:xlink="http://www.w3.org/1999/xlink" x="0px" y="0px"
	 width="150px" height="150px" viewBox="0 0 150 150" enable-background="new 0 0 150 150" xml:space="preserve">
<path d="M121.807,108.69c-11.422,2.284-15.228-8.63-15.228-8.63c-5.076-12.184-12.69-9.391-12.69-9.391l-6.854-7.106l34.771-34.264
	l-15.989-15.736L70.538,68.081L40.081,40.416c-3.807-4.061-6.853-1.776-6.853-1.776l-3.553,3.553
	c-2.284,2.284,1.522,6.091,1.522,6.091l28.934,29.982l-18.02,18.749l-10.152,22.589c-1.776,4.823,3.299,3.045,3.299,3.045
	l23.858-10.659L75,96l7.467,7.868c-1.016,4.062,4.568,11.675,15.229,14.467c0.364,0.096,0.731,0.18,1.102,0.253
	c10.461,2.063,23.01-4.567,23.01-4.567C127.136,110.214,121.807,108.69,121.807,108.69z M113.636,45.431l-55.535,56.243l-4.517-4.46
	l55.537-56.242L113.636,45.431z M34.333,46.833c-3-2.667,0-4.5,0-4.5c2.333-2.167,4.225,1.128,4.225,1.128l29.188,27.919
	l-4.822,4.822L34.333,46.833z M105.479,37.534l2.116,2.126L51.402,95.61l-2.117-2.125L105.479,37.534z M42.873,115.289l-3.807-3.553
	l5.33-10.914l9.645,9.898L42.873,115.289z M57.65,109.18L46.246,97.958l2.104-2.138l11.405,11.222L57.65,109.18z M61.402,105.61
	l-2.117-2.125l56.193-55.951l2.116,2.126L61.402,105.61z M83.167,98.834l-5-5.667l6.333-6.333l5.167,5.333L83.167,98.834z
	 M95.667,113.5c-11.944-5.128-9.167-12.833-9.167-12.833l1.167-0.833l1,3.666l1.833-0.833L89.333,99c-0.167-1.5,2-1.666,2-1.666
	L95,98l0.167-1.666l-3-0.667c5.667-5,10,4.167,10,4.167c0.46,7.076,9,10.5,9,10.5c-11.666,0-13-5-13-5
	c-2.833-2.333-2.167,1.333-2.167,1.333c3,6.833,17.333,5.833,17.333,5.833C104.859,116.31,95.667,113.5,95.667,113.5z"/>
</svg>
