<?xml version="1.0" encoding="utf-8"?>
<!-- Generator: Adobe Illustrator 16.0.0, SVG Export Plug-In . SVG Version: 6.00 Build 0)  -->
<!DOCTYPE svg PUBLIC "-//W3C//DTD SVG 1.1//EN" "http://www.w3.org/Graphics/SVG/1.1/DTD/svg11.dtd">
<svg version="1.1" id="Layer_1" xmlns="http://www.w3.org/2000/svg" xmlns:xlink="http://www.w3.org/1999/xlink" x="0px" y="0px"
	 width="150px" height="150px" viewBox="0 0 150 150" enable-background="new 0 0 150 150" xml:space="preserve">
<path d="M66.25,95.25c0,0-4-2-7.75-1c0,0-8.5-11.25-3.25-27.5c0,0,5.5,0.75,9.25-4.75c0,0,12-14,4-20.75c0,0-7-8.75-17.75-1.75
	c0,0-18.25,17.75-14.25,45.25c0,0,4.5,27,21.75,36.75c0,0,14.25,7,19.25-9C77.5,112.5,79,103.75,66.25,95.25z M72.5,113.25
	c-3.252,8.191-13.25,4.25-13.25,4.25C37.25,95.25,40.5,75,40.5,75c1.501-19.313,13.75-32,13.75-32c2.852-3.484,9.5,0,9.5,0
	c7,3.75,0.75,13.25,0.75,13.25c-2.75,7.25-12,6.5-12,6.5C43,84.25,56.524,99.5,56.524,99.5c4.274-1.5,8.226-0.25,8.226-0.25
	C74.75,107.5,72.5,113.25,72.5,113.25z"/>
<path d="M71.375,70c-4.764,0-8.625,3.861-8.625,8.625s3.861,8.625,8.625,8.625S80,83.389,80,78.625S76.139,70,71.375,70z M71.375,83
	C68.958,83,67,81.041,67,78.625s1.958-4.375,4.375-4.375s4.375,1.959,4.375,4.375S73.792,83,71.375,83z"/>
<path d="M91.265,70c-4.764,0-8.625,3.861-8.625,8.625s3.861,8.625,8.625,8.625s8.625-3.861,8.625-8.625S96.028,70,91.265,70z
	 M91.265,83c-2.417,0-4.375-1.959-4.375-4.375s1.958-4.375,4.375-4.375s4.375,1.959,4.375,4.375S93.682,83,91.265,83z"/>
<path d="M110.265,70c-4.764,0-8.625,3.861-8.625,8.625s3.861,8.625,8.625,8.625s8.625-3.861,8.625-8.625S115.028,70,110.265,70z
	 M110.265,83c-2.417,0-4.375-1.959-4.375-4.375s1.958-4.375,4.375-4.375s4.375,1.959,4.375,4.375S112.682,83,110.265,83z"/>
</svg>
