<?xml version="1.0" encoding="utf-8"?>
<!-- Generator: Adobe Illustrator 16.0.0, SVG Export Plug-In . SVG Version: 6.00 Build 0)  -->
<!DOCTYPE svg PUBLIC "-//W3C//DTD SVG 1.1//EN" "http://www.w3.org/Graphics/SVG/1.1/DTD/svg11.dtd">
<svg version="1.1" id="Layer_1" xmlns="http://www.w3.org/2000/svg" xmlns:xlink="http://www.w3.org/1999/xlink" x="0px" y="0px"
	 width="150px" height="150px" viewBox="0 0 150 150" enable-background="new 0 0 150 150" xml:space="preserve">
<path d="M122,43h-11.36c0-6-5.64-6-5.64-6H64c-5.523,0-5,6-5,6v10.36c0,8.122,6,7.64,6,7.64h39.802c5.33,0,6.092-4.71,6.092-4.71
	l-0.254-4.964L122,43z M88.5,52h-20c-1.381,0-2.5-1.273-2.5-3s1.119-3,2.5-3h20c1.381,0,2.5,1.273,2.5,3S89.881,52,88.5,52z M102,52
	h-5c-1.657,0-3-1.343-3-3s1.343-3,3-3h5c1.657,0,3,1.343,3,3S103.657,52,102,52z"/>
<path d="M122,101h-11.36c0-6-5.64-6-5.64-6H64c-5.523,0-5,6.376-5,6.376v10.36c0,8.121,6,7.264,6,7.264h39.802
	c5.33,0,6.092-4.521,6.092-4.521l-0.254-5.059L122,101z M88.5,110h-20c-1.381,0-2.5-1.272-2.5-3s1.119-3,2.5-3h20
	c1.381,0,2.5,1.272,2.5,3S89.881,110,88.5,110z M102,110h-5c-1.657,0-3-1.343-3-3s1.343-3,3-3h5c1.657,0,3,1.343,3,3
	S103.657,110,102,110z"/>
<path d="M40.937,80.373l-0.254,5.011c0,0,0.762,4.616,6.092,4.616h39.802c0,0,6.424,0.67,6.424-7.452v-10.36
	c0,0,0.099-6.188-5.424-6.188h-41c0,0-5.64,0-5.64,6h-11.36L40.937,80.373z M60.576,78c0-1.727,1.119-3,2.5-3h20
	c1.381,0,2.5,1.273,2.5,3s-1.119,3-2.5,3h-20C61.695,81,60.576,79.727,60.576,78z M46.576,78c0-1.656,1.343-3,3-3h5
	c1.657,0,3,1.344,3,3s-1.343,3-3,3h-5C47.919,81,46.576,79.656,46.576,78z"/>
<circle cx="48.665" cy="49" r="6.853"/>
<circle cx="103.665" cy="78" r="6.853"/>
<circle cx="48.665" cy="107" r="6.853"/>
</svg>
