<?xml version="1.0" encoding="utf-8"?>
<!-- Generator: Adobe Illustrator 16.0.0, SVG Export Plug-In . SVG Version: 6.00 Build 0)  -->
<!DOCTYPE svg PUBLIC "-//W3C//DTD SVG 1.1//EN" "http://www.w3.org/Graphics/SVG/1.1/DTD/svg11.dtd">
<svg version="1.1" id="Layer_1" xmlns="http://www.w3.org/2000/svg" xmlns:xlink="http://www.w3.org/1999/xlink" x="0px" y="0px"
	 width="150px" height="150px" viewBox="0 0 150 150" enable-background="new 0 0 150 150" xml:space="preserve">
<path d="M119.047,41H33.09C28.622,41,25,44.582,25,49v59c0,4.418,3.622,8,8.09,8h85.957c4.468,0,7.953-3.582,7.953-8V49
	C127,44.582,123.515,41,119.047,41z M123,104.075c0,3.925-2.707,6.925-6.883,6.925H35.762c-4.177,0-6.762-3-6.762-6.925V51.674
	C29,47.75,31.585,45,35.762,45h80.355c4.176,0,6.883,2.75,6.883,6.674V104.075z"/>
<rect x="38" y="55" width="6" height="46"/>
<rect x="49" y="55" width="4" height="46"/>
<rect x="58" y="55" width="5" height="46"/>
<rect x="65" y="55" width="5" height="46"/>
<rect x="78" y="55" width="4" height="46"/>
<rect x="84" y="55" width="4" height="46"/>
<rect x="92" y="55" width="5" height="46"/>
<rect x="103" y="55" width="4" height="46"/>
<rect x="110" y="55" width="5" height="46"/>
</svg>
