<?xml version="1.0" encoding="utf-8"?>
<!-- Generator: Adobe Illustrator 16.0.0, SVG Export Plug-In . SVG Version: 6.00 Build 0)  -->
<!DOCTYPE svg PUBLIC "-//W3C//DTD SVG 1.1//EN" "http://www.w3.org/Graphics/SVG/1.1/DTD/svg11.dtd">
<svg version="1.1" id="Layer_1" xmlns="http://www.w3.org/2000/svg" xmlns:xlink="http://www.w3.org/1999/xlink" x="0px" y="0px"
	 width="150px" height="150px" viewBox="0 0 150 150" enable-background="new 0 0 150 150" xml:space="preserve">
<path d="M92.369,34.579l-49.497-0.05c0,0-7.873,1.319-7.873,6.141V59l2,1h8v56c0,0-0.351,5,4.979,5H98c0,0,3-0.127,3-4.441V42
	C101,42,101.76,33.817,92.369,34.579z M45,43v12h-5V42.375C41,40,42.5,40,42.5,40C45.125,39.75,45,43,45,43z M96,115H51V41h42
	c0,0,3-0.375,3,3.125V115z"/>
<rect x="56" y="85" width="35" height="6"/>
<rect x="56" y="95" width="35" height="6"/>
<rect x="56" y="105" width="35" height="6"/>
<path d="M81.5,65.125c-1.5-5.625-8-5.5-8-5.5c-0.007-0.004-0.013-0.009-0.021-0.013c-0.273,0.129-0.604,0.133-0.945-0.087
	c-0.7-0.453-1.203-1.133-1.121-2.002c-0.551-1.698,2.087-2.647,2.087-2.647C77.125,54.5,78.375,58,78.375,58l3.125-3.375
	C81.25,51,77,50,77,50v-5h-6v5c-6.875,2.625-5.125,8.625-5.125,8.625c-0.006,0.147,0.012,0.273,0.014,0.413
	c0.024,0.06,0.062,0.104,0.077,0.174c0.6,2.786,2.627,5,5.447,5.531c0.852,0.138,1.463,0.132,1.463,0.132
	C76,64,76.125,66.5,76.125,66.5c-0.5,3.625-3.625,3.125-3.625,3.125c-2.75,0-3.75-2.875-3.75-2.875l-2.875,3.75
	C67.625,74.375,71,74,71,74v5h4.875l0.375-4.688C83.875,72.688,81.5,65.125,81.5,65.125z"/>
<path d="M106,45v53l5.167,10.667c2.833,3.833,5.167,0,5.167,0L121,98V45H106z M114,102.334L111,95h6L114,102.334z M117,91h-6V50h6
	V91z"/>
</svg>
