<?xml version="1.0" encoding="utf-8"?>
<!-- Generator: Adobe Illustrator 16.0.0, SVG Export Plug-In . SVG Version: 6.00 Build 0)  -->
<!DOCTYPE svg PUBLIC "-//W3C//DTD SVG 1.1//EN" "http://www.w3.org/Graphics/SVG/1.1/DTD/svg11.dtd">
<svg version="1.1" id="Layer_1" xmlns="http://www.w3.org/2000/svg" xmlns:xlink="http://www.w3.org/1999/xlink" x="0px" y="0px"
	 width="150px" height="150px" viewBox="0 0 150 150" enable-background="new 0 0 150 150" xml:space="preserve">
<image overflow="visible" width="44" height="39" xlink:href="AEB33910.jpg"  transform="matrix(0.9999 0 0 0.9999 -8117 -8117)">
</image>
<image overflow="visible" width="44" height="39" xlink:href="AEB33911.jpg"  transform="matrix(0.9999 0 0 0.9999 -8117 -8117)">
</image>
<path d="M109,64V32.25l-35.362-14.5L37,33v31L9,75.748v42.002L45.313,133L75,120.5l27.5,12.5l35.5-15V75.748L109,64z M135,115
	l-32.25,14.25L75,116.75l-29.5,12.5L13,115V78l27-12V36l33.763-14.25l32.237,13V66l29,12V115z"/>
<path d="M75,28.5l-19.125,8.75l18.75,9.25l18.75-9.25L75,28.5z M63.092,37.346l11.764-5.382l11.303,5.382l-11.533,5.69
	L63.092,37.346z"/>
<path d="M106.076,73.401l-19.125,8.75l18.75,9.25l18.75-9.25L106.076,73.401z M94.168,82.247l11.764-5.382l11.303,5.382
	l-11.533,5.69L94.168,82.247z"/>
<path d="M45.076,73.401l-19.125,8.75l18.75,9.25l18.75-9.25L45.076,73.401z M33.168,82.247l11.764-5.382l11.303,5.382l-11.533,5.69
	L33.168,82.247z"/>
<path d="M78,53.563v24.063L98,66V43L78,53.563z M95,64.223l-14,7.992V55.672l14-7.262V64.223z"/>
<path d="M106,97.438V121.5l20-11.625v-23L106,97.438z M123,108.098l-14,7.992V99.547l14-7.262V108.098z"/>
<path d="M49,97.438V121.5l20-11.625v-23L49,97.438z M66,108.098l-14,7.992V99.547l14-7.262V108.098z"/>
</svg>
