<?xml version="1.0" encoding="utf-8"?>
<!-- Generator: Adobe Illustrator 16.0.0, SVG Export Plug-In . SVG Version: 6.00 Build 0)  -->
<!DOCTYPE svg PUBLIC "-//W3C//DTD SVG 1.1//EN" "http://www.w3.org/Graphics/SVG/1.1/DTD/svg11.dtd">
<svg version="1.1" id="Layer_1" xmlns="http://www.w3.org/2000/svg" xmlns:xlink="http://www.w3.org/1999/xlink" x="0px" y="0px"
	 width="512px" height="512px" viewBox="0 0 512 512" enable-background="new 0 0 512 512" xml:space="preserve">
<image display="none" overflow="visible" width="471" height="512" xlink:href="41798F92.jpg"  transform="matrix(0.9234 0 0 0.9234 38.0635 19.0542)">
</image>
<path d="M379,230.167V120.729L257.198,70.75L131,123.314v106.853l-97,40.494v144.774L159.253,468l102.372-43.086l94.9,43.086
	L479,416.297V270.661L379,230.167z M468,405.957l-110.92,49.117l-95.53-43.086l-101.604,43.086L48,405.957V278.423l93-41.362
	V133.655l116.629-49.118L369,129.347v107.714l99,41.362V405.957z"/>
<path d="M261.67,107.804l-65.921,30.16l64.629,31.883l64.628-31.883L261.67,107.804z M220.625,138.295l40.547-18.552l38.959,18.552
	l-39.753,19.612L220.625,138.295z"/>
<path d="M368.785,262.568l-65.921,30.16l64.629,31.884l64.628-31.884L368.785,262.568z M327.739,293.063l40.548-18.551
	l38.959,18.551l-39.753,19.613L327.739,293.063z"/>
<path d="M158.527,262.568l-65.921,30.16l64.628,31.884l64.629-31.884L158.527,262.568z M117.481,293.063l40.547-18.551
	l38.959,18.551l-39.753,19.613L117.481,293.063z"/>
<path d="M272,194.19v82.94l69-40.07v-79.277L272,194.19z M331,230.935l-49,27.548v-57.021l49-25.03V230.935z"/>
<path d="M369,345.421v82.94l68-40.07v-79.277L369,345.421z M427,382.165l-48,27.548v-57.021l48-25.03V382.165z"/>
<path d="M172,345.421v82.94l69-40.07v-79.277L172,345.421z M231,382.165l-49,27.548v-57.021l49-25.03V382.165z"/>
</svg>
