<?xml version="1.0" encoding="utf-8"?>
<!-- Generator: Adobe Illustrator 16.0.0, SVG Export Plug-In . SVG Version: 6.00 Build 0)  -->
<!DOCTYPE svg PUBLIC "-//W3C//DTD SVG 1.1//EN" "http://www.w3.org/Graphics/SVG/1.1/DTD/svg11.dtd">
<svg version="1.1" id="Layer_1" xmlns="http://www.w3.org/2000/svg" xmlns:xlink="http://www.w3.org/1999/xlink" x="0px" y="0px"
	 width="512px" height="512px" viewBox="0 0 512 512" enable-background="new 0 0 512 512" xml:space="preserve">
<image display="none" overflow="visible" width="471" height="512" xlink:href="D665A0F2.jpg"  transform="matrix(0.9234 0 0 0.9234 38.0635 19.0542)">
</image>
<path d="M429,115V92h-14v23h-41V92h-14v23h-40V92h-14v23h-45V92h-14v23h-36V92h-14v23h-45V92h-14v23H97V92H83v23H33v318h446V115H429
	z M466,419H46V176h420V419z M466,164H46v-35h37v13h14v-13h41v13h14v-13h45v13h14v-13h36v13h14v-13h45v13h14v-13h40v13h14v-13h41v13
	h14v-13h37V164z"/>
<path d="M70,201v91h114v-91H70z M174,283H78v-73h96V283z"/>
<path d="M197,201v91h113v-91H197z M301,283h-95v-73h95V283z"/>
<path d="M328,201v91h114v-91H328z M434,283h-96v-73h96V283z"/>
<path d="M70,305v91h114v-91H70z M174,388H78v-73h96V388z"/>
<path d="M197,305v91h113v-91H197z M301,388h-95v-73h95V388z"/>
<path d="M328,305v91h114v-91H328z M434,388h-96v-73h96V388z"/>
<polygon points="93.457,246.586 105.96,239.767 114.485,252.27 151.427,226.695 159.952,239.482 111.644,271.593 "/>
<polygon points="220.764,246.586 233.267,239.767 241.792,252.27 278.733,226.695 287.259,239.482 238.95,271.593 "/>
<polygon points="93.457,346.613 105.96,339.794 114.485,352.297 151.427,326.722 159.952,339.509 111.644,371.62 "/>
<polygon points="348.069,346.613 360.573,339.794 369.098,352.297 406.04,326.722 414.564,339.509 366.257,371.62 "/>
<polyline points="358.868,231.81 370.235,221.012 385.58,237.493 399.22,221.012 408.313,232.947 394.104,246.586 408.313,262.5 
	395.241,271.593 383.591,255.68 369.098,271.593 358.868,262.5 372.509,246.586 358.868,233.515 "/>
<polyline points="227.015,336.384 238.382,325.585 253.727,342.066 267.366,325.585 276.46,337.521 262.252,351.16 276.46,367.073 
	263.389,376.167 251.737,360.253 237.245,376.167 227.015,367.073 240.655,351.16 227.015,338.088 "/>
</svg>
