<?xml version="1.0" encoding="utf-8"?>
<!-- Generator: Adobe Illustrator 16.0.0, SVG Export Plug-In . SVG Version: 6.00 Build 0)  -->
<!DOCTYPE svg PUBLIC "-//W3C//DTD SVG 1.1//EN" "http://www.w3.org/Graphics/SVG/1.1/DTD/svg11.dtd">
<svg version="1.1" id="Layer_1" xmlns="http://www.w3.org/2000/svg" xmlns:xlink="http://www.w3.org/1999/xlink" x="0px" y="0px"
	 width="150px" height="150px" viewBox="0 0 150 150" enable-background="new 0 0 150 150" xml:space="preserve">
<path d="M113.266,57.258c-35.594-35.91-69.566-4.956-69.566-4.956c-22.973,19.284-11.966,53.928-11.966,53.928
	C33.649,115.272,42.748,115,42.748,115h64.689c13.915,0,14.238-8.755,14.238-8.755C129.117,74.655,113.266,57.258,113.266,57.258z
	 M111.909,100.363c0,0-0.254,6.637-11.168,6.637H50c0,0-7.137,0.261-8.64-6.643c0,0-8.634-26.417,9.386-41.138
	c0,0,26.647-23.615,54.566,3.796C105.313,63.016,117.746,76.25,111.909,100.363z"/>
<path d="M79.167,82l15-15.333l6.333,5.667l-15,15.5c0,0,1.5,8.666-6.333,10.833c0,0-5.542,0.959-8.917-2.916c0,0-5-4.375-0.875-10
	C69.375,85.75,72.334,80.75,79.167,82z"/>
</svg>
