<?xml version="1.0" encoding="utf-8"?>
<!-- Generator: Adobe Illustrator 16.0.0, SVG Export Plug-In . SVG Version: 6.00 Build 0)  -->
<!DOCTYPE svg PUBLIC "-//W3C//DTD SVG 1.1//EN" "http://www.w3.org/Graphics/SVG/1.1/DTD/svg11.dtd">
<svg version="1.1" id="Layer_1" xmlns="http://www.w3.org/2000/svg" xmlns:xlink="http://www.w3.org/1999/xlink" x="0px" y="0px"
	 width="150px" height="150px" viewBox="0 0 150 150" enable-background="new 0 0 150 150" xml:space="preserve">
<path d="M30,55v-6c0,0,0.444-6,7.551-6H44v6c0,0,0.995,3.599,6.071,3.599c0,0,4.929,0.762,5.929-4.822V43h40v5
	c0,0,0.629,3.837,6.467,4.345c0,0,4.533-0.091,5.533-3.345v-6h7c0,0,6.499,1.167,5.833,7.001L120.881,55H30z"/>
<path d="M54,46.167C54,48.284,52.284,50,50.167,50h-0.333C47.716,50,46,48.284,46,46.167v-9.333C46,34.716,47.716,33,49.833,33
	h0.333C52.284,33,54,34.716,54,36.833V46.167z"/>
<path d="M106,46.167c0,2.117-1.717,3.833-3.834,3.833h-0.332C99.717,50,98,48.284,98,46.167v-9.333C98,34.716,99.717,33,101.834,33
	h0.332c2.117,0,3.834,1.716,3.834,3.833V46.167z"/>
<path d="M30,60c0,0-0.167,34.501,0,42.501c0.005,0.237,0.018,0.468,0.037,0.692C30.682,110.53,39,111,39,111h74.667
	c7.167,0,7.333-7,7.333-7V60H30z M56,107H44c0,0-3.833,0.168-4-3.999V95h16V107z M56,92H40V80h16V92z M56,76H40V64h16V76z M75,107
	H59V95h16V107z M75,92H59V80h16V92z M75,76H59V64h16V76z M94,107H78V95h16V107z M94,92H78V80h16V92z M94,76H78V64h16V76z M112,104
	c0,0-0.667,3-3.167,3h-12L112,95V104z M112,92H96V80h16V92z M112,76H96V64h16V76z"/>
</svg>
