<?xml version="1.0" encoding="utf-8"?>
<!-- Generator: Adobe Illustrator 16.0.0, SVG Export Plug-In . SVG Version: 6.00 Build 0)  -->
<!DOCTYPE svg PUBLIC "-//W3C//DTD SVG 1.1//EN" "http://www.w3.org/Graphics/SVG/1.1/DTD/svg11.dtd">
<svg version="1.1" id="Layer_1" xmlns="http://www.w3.org/2000/svg" xmlns:xlink="http://www.w3.org/1999/xlink" x="0px" y="0px"
	 width="512px" height="512px" viewBox="0 0 512 512" enable-background="new 0 0 512 512" xml:space="preserve">
<image display="none" overflow="visible" enable-background="new    " width="514" height="473" xlink:href="C3B62F7B.jpg"  transform="matrix(0.834 0 0 0.8354 31.6555 58.4336)">
</image>
<path display="none" fill="#8E1906" d="M156,345h40c0,0,42.088,36.218,119.479,23.174c0,0,24.349,28.695,35.652,36.521
	c0,0-4.349-26.088,0-46.088c0,0,38.26-12.174,53.043-50.435c0,0,15.652-47.825-26.956-73.043c0,0,6.956-18.261,6.956-31.305
	c0,0,53.994,31.304,49.171,86.957c0,0,4.743,46.957-57.866,86.957c0,0,13.795,54.924,14.782,55.65
	c16.521,12.176-13.043,20.001-22.608,12.176c0,0-33.843-19.341-58.261-46.958C309.392,398.607,203.478,413.131,156,345z"/>
<image display="none" overflow="visible" enable-background="new    " width="331" height="290" xlink:href="C3B62F79.jpg"  transform="matrix(0.8337 0 0 0.8355 211.7141 220.5537)">
</image>
<image display="none" overflow="visible" enable-background="new    " width="416" height="380" xlink:href="C3B62F7F.jpg"  transform="matrix(0.9427 0 0 0.9452 32.8811 46.5703)">
</image>
<path display="none" fill="#969696" stroke="#D11818" stroke-width="7" stroke-miterlimit="10" d="M212,362h38c0,0,37,37,120,24.5
	c0,0,21.5,29,36,34.5c0,0-5-33-4-42.5c0,0,54.332-14.833,58.332-62.833c0,0,5.334-42.667-30-65.333c0,0,4.002-10.226,9.334-29.78
	c0,0,48.005,24.447,48.005,77.113c0,0,13.329,61.999-58.005,95.999c0,0,4,39.334,11.334,52.667c0,0,11.332,16.524-8.668,16.524
	c0,0-39.998-11.191-72.666-49.191C359.666,413.666,264.334,432.334,212,362z"/>
<path display="none" fill="#969696" d="M86.826,384.869c0,0-11.826,14.275,6.174,20.869c0,0,4.667-0.071,12-2.738
	c0,0,58.667-20,95.333-58c0,0,64,11.332,130.667-17.334c0,0,90.756-33.998,94.045-133.332c0,0,7.287-92.667-126.045-139.333
	c0,0-83.333-21.334-156.667,7.332c0,0-115.571,42.667-109.452,134c0,0-1.214,79.998,74.786,126.665
	C107.667,322.998,123.319,317.406,86.826,384.869z"/>
<path display="none" fill="#D11818" d="M92.406,409.248l-0.609-0.224c-6.542-2.396-10.523-6.071-11.834-10.923
	c-1.888-6.987,2.774-13.652,3.928-15.159c22.171-41.025,23.867-53.012,23.646-56.181l-0.271,0.097l-1.429-0.878
	c-40.128-24.641-58.779-58.541-67.359-82.641c-8.985-25.24-9.11-44.844-9.097-46.908c-2.531-38.5,16.061-74.495,53.771-104.102
	c28.236-22.168,56.769-32.837,57.97-33.28c25.749-10.066,55.515-15.182,88.409-15.182c39.635,0,69.104,7.426,70.339,7.742
	l0.288,0.087c69.967,24.489,101.146,61.847,114.981,88.875c14.818,28.949,13.533,52.104,13.403,53.95
	c-1.76,52.5-27.834,86.793-49.402,106.323c-22.863,20.702-45.058,29.395-46.828,30.067c-38.089,16.362-75.305,19.797-99.826,19.797
	c-15.626,0-26.704-1.357-30.91-1.971c-36.866,37.317-93.045,56.756-95.446,57.574c-7.73,2.813-12.861,2.922-13.076,2.926
	L92.406,409.248z M108.481,319.386c2.04,0.019,3.816,1.051,4.88,2.836c1.625,2.727,5.94,9.968-23.456,64.313l-0.164,0.303
	l-0.219,0.265c-1.101,1.352-3.768,5.659-2.796,9.196c0.655,2.385,2.945,4.368,6.812,5.899c1.396-0.124,5.115-0.612,10.267-2.486
	c0.646-0.221,58.378-20.212,94.011-57.142l1.292-1.339l1.835,0.323c0.122,0.021,12.458,2.155,31.543,2.155
	c23.879,0,60.115-3.341,97.132-19.259l0.155-0.062c0.22-0.083,22.514-8.607,44.862-28.909c29.8-27.073,45.584-61.142,46.912-101.261
	l0.009-0.159c0.017-0.219,1.526-22.842-12.853-50.693c-13.289-25.74-43.281-61.373-110.708-85.009
	c-2.242-0.554-31.119-7.489-68.466-7.489c-32.019,0-60.927,4.954-85.922,14.725c-0.347,0.129-28.899,10.821-56.274,32.354
	c-36.267,28.526-53.412,61.549-50.96,98.153l0.01,0.143l-0.002,0.144c-0.002,0.193-0.161,19.883,8.786,44.873
	C53.312,264.008,70.901,295.935,108.481,319.386z"/>
<path opacity="0.9" d="M419.167,74.5h-62V51.167c-0.666-5.333-12-5.345-12-5.345c-7.333,0.655-8,8.012-8,8.012V74.5H167.834V53.833
	c-0.667-8.667-10.667-8-10.667-8c-8,0-10.667,8.667-10.667,8.667v20h-64c-34,5.333-35.343,38-35.343,38l0.009,312.665
	c-0.667,36,35.333,40,35.333,40h339.333c32.666-1.334,35.334-38,35.334-38V110.5C453.167,77.167,419.167,74.5,419.167,74.5z
	 M438.5,421.166c0,0,0.001,21.334-21.333,24.667h-326c0,0-24.667,4.667-24-29.333V169.833H438.5V421.166z M438.5,149.834H67.167v-36
	c0,0-1.333-18,20.667-19.333H146.5v20c0,0,1.333,7.334,9.333,7.667c0,0,11.333-0.333,12-7.667v-20H338.5v21.333c0,0,2,5.334,8,6.333
	c0,0,10.667,0.333,10.667-8.333V94.501H420.5c0,0,18,2.667,18,18.667V149.834z"/>
<path d="M166.5,217.5h-58c-6.627,0-12,5.373-12,12v61c0,6.627,5.373,12,12,12h58c6.627,0,12-5.373,12-12v-61
	C178.5,222.873,173.128,217.5,166.5,217.5z M164.994,283.136c0,2.962-2.402,5.364-5.365,5.364h-44.259
	c-2.963,0-5.365-2.402-5.365-5.364v-46.271c0-2.963,2.402-5.365,5.365-5.365h44.259c2.963,0,5.365,2.402,5.365,5.365V283.136z"/>
<path d="M281.664,217.5h-58c-6.627,0-12,5.373-12,12v61c0,6.627,5.373,12,12,12h58c6.627,0,12-5.373,12-12v-61
	C293.664,222.873,288.291,217.5,281.664,217.5z M280.158,283.136c0,2.962-2.402,5.364-5.365,5.364h-44.258
	c-2.963,0-5.365-2.402-5.365-5.364v-46.271c0-2.963,2.402-5.365,5.365-5.365h44.258c2.963,0,5.365,2.402,5.365,5.365V283.136z"/>
<path d="M395.5,217.5h-58c-6.627,0-12,5.373-12,12v61c0,6.627,5.373,12,12,12h58c6.627,0,12-5.373,12-12v-61
	C407.5,222.873,402.127,217.5,395.5,217.5z M393.994,283.136c0,2.962-2.402,5.364-5.365,5.364h-44.258
	c-2.963,0-5.365-2.402-5.365-5.364v-46.271c0-2.963,2.402-5.365,5.365-5.365h44.258c2.963,0,5.365,2.402,5.365,5.365V283.136z"/>
<path d="M167.164,331.5h-58c-6.627,0-12,5.373-12,12v61c0,6.627,5.373,12,12,12h58c6.627,0,12-5.373,12-12v-61
	C179.164,336.873,173.792,331.5,167.164,331.5z M165.658,397.136c0,2.962-2.402,5.364-5.365,5.364h-44.259
	c-2.963,0-5.365-2.402-5.365-5.364v-46.271c0-2.963,2.402-5.365,5.365-5.365h44.259c2.963,0,5.365,2.402,5.365,5.365V397.136z"/>
<path d="M282.328,331.5h-58c-6.627,0-12,5.373-12,12v61c0,6.627,5.373,12,12,12h58c6.627,0,12-5.373,12-12v-61
	C294.328,336.873,288.955,331.5,282.328,331.5z M280.823,397.136c0,2.962-2.402,5.364-5.365,5.364h-44.258
	c-2.963,0-5.365-2.402-5.365-5.364v-46.271c0-2.963,2.402-5.365,5.365-5.365h44.258c2.963,0,5.365,2.402,5.365,5.365V397.136z"/>
<path d="M396.164,331.5h-58c-6.627,0-12,5.373-12,12v61c0,6.627,5.373,12,12,12h58c6.627,0,12-5.373,12-12v-61
	C408.164,336.873,402.791,331.5,396.164,331.5z M394.658,397.136c0,2.962-2.402,5.364-5.365,5.364h-44.258
	c-2.963,0-5.365-2.402-5.365-5.364v-46.271c0-2.963,2.402-5.365,5.365-5.365h44.258c2.963,0,5.365,2.402,5.365,5.365V397.136z"/>
</svg>
