<?xml version="1.0" encoding="utf-8"?>
<!-- Generator: Adobe Illustrator 16.0.0, SVG Export Plug-In . SVG Version: 6.00 Build 0)  -->
<!DOCTYPE svg PUBLIC "-//W3C//DTD SVG 1.1//EN" "http://www.w3.org/Graphics/SVG/1.1/DTD/svg11.dtd">
<svg version="1.1" id="Layer_1" xmlns="http://www.w3.org/2000/svg" xmlns:xlink="http://www.w3.org/1999/xlink" x="0px" y="0px"
	 width="512px" height="512px" viewBox="0 0 512 512" enable-background="new 0 0 512 512" xml:space="preserve">
<image display="none" overflow="visible" width="511" height="511" xlink:href="5A3779E6.jpg"  transform="matrix(1.002 0 0 1.002 -4.882813e-004 -4.882813e-004)">
</image>
<polygon fill="#696969" points="0,112 110,112 110,0 182,0 182,181 0,181 "/>
<polygon fill="#696969" points="512,112 402,112 402,0 330,0 330,181 512,181 "/>
<polygon fill="#696969" points="512,400 402,400 402,512 330,512 330,331 512,331 "/>
<polygon fill="#696969" points="112,512 112,402 0,402 0,330 181,330 181,512 "/>
</svg>
