<?xml version="1.0" encoding="utf-8"?>
<!-- Generator: Adobe Illustrator 16.0.0, SVG Export Plug-In . SVG Version: 6.00 Build 0)  -->
<!DOCTYPE svg PUBLIC "-//W3C//DTD SVG 1.1//EN" "http://www.w3.org/Graphics/SVG/1.1/DTD/svg11.dtd">
<svg version="1.1" id="Layer_1" xmlns="http://www.w3.org/2000/svg" xmlns:xlink="http://www.w3.org/1999/xlink" x="0px" y="0px"
	 width="512px" height="512px" viewBox="0 0 512 512" enable-background="new 0 0 512 512" xml:space="preserve">
<image display="none" overflow="visible" width="471" height="512" xlink:href="E96AFD47.jpg"  transform="matrix(0.9234 0 0 0.9234 38.0635 19.0542)">
</image>
<path fill="#FFFFFF" stroke="#000000" stroke-miterlimit="10" d="M38,108"/>
<path d="M418.146,81.446H93.854c-23.562,0.008-42.66,19.108-42.67,42.67v276.502c0.011,23.562,19.108,42.659,42.67,42.67h324.292
	c23.562-0.011,42.659-19.108,42.67-42.67V124.116C460.806,100.554,441.708,81.454,418.146,81.446z M93.854,98.514h324.292
	c14.121,0.04,25.562,11.481,25.602,25.602V159.7H68.252v-35.584C68.292,109.995,79.733,98.554,93.854,98.514z M418.146,426.22
	H93.854c-14.121-0.04-25.562-11.48-25.602-25.602v-223.85h375.496v223.85C443.708,414.739,432.268,426.18,418.146,426.22z"/>
<path d="M173.562,319.624c24.367,0,44.121-19.757,44.121-44.121c0-24.37-19.753-44.121-44.121-44.121s-44.121,19.751-44.121,44.121
	C129.473,299.854,149.208,319.589,173.562,319.624z M173.562,248.533c14.94,0,27.053,12.113,27.053,27.053
	c0,14.942-12.113,27.055-27.053,27.055c-14.942,0-27.053-12.112-27.053-27.055C146.514,260.648,158.622,248.541,173.562,248.533z"/>
<path d="M173.562,301.924c-18.052-0.134-35.379,7.109-47.961,20.055c-12.801,13.055-19.799,30.805-19.799,50.095
	c0.014,4.707,3.827,8.521,8.534,8.534h118.452c4.707-0.014,8.521-3.827,8.534-8.534c0-19.29-6.998-37.04-19.799-50.095
	C208.94,309.033,191.616,301.79,173.562,301.924z M123.467,363.539c1.461-11.158,6.491-21.546,14.337-29.613
	c9.443-9.558,22.322-14.935,35.757-14.935s26.314,5.377,35.757,14.935c7.83,8.078,12.86,18.458,14.337,29.613H123.467z"/>
<path d="M397.152,321.337H289.197c-4.713,0-8.534,3.822-8.534,8.534c0,4.71,3.821,8.534,8.534,8.534h107.955
	c4.713,0,8.534-3.824,8.534-8.534C405.687,325.159,401.865,321.337,397.152,321.337z"/>
<path d="M397.152,371.005H289.197c-4.713,0-8.534,3.819-8.534,8.534c0,4.713,3.821,8.534,8.534,8.534h107.955
	c4.713,0,8.534-3.821,8.534-8.534C405.687,374.824,401.865,371.005,397.152,371.005z"/>
<path d="M397.152,221.999H289.197c-4.713,0-8.534,3.822-8.534,8.534c0,4.715,3.821,8.534,8.534,8.534h107.955
	c4.713,0,8.534-3.818,8.534-8.534C405.687,225.82,401.865,221.999,397.152,221.999z"/>
<path d="M397.152,271.667H289.197c-4.713,0-8.534,3.824-8.534,8.533c0,4.716,3.821,8.534,8.534,8.534h107.955
	c4.713,0,8.534-3.818,8.534-8.534C405.687,275.491,401.865,271.667,397.152,271.667z"/>
</svg>
