<?xml version="1.0" encoding="utf-8"?>
<!-- Generator: Adobe Illustrator 16.0.0, SVG Export Plug-In . SVG Version: 6.00 Build 0)  -->
<!DOCTYPE svg PUBLIC "-//W3C//DTD SVG 1.1//EN" "http://www.w3.org/Graphics/SVG/1.1/DTD/svg11.dtd">
<svg version="1.1" id="Layer_1" xmlns="http://www.w3.org/2000/svg" xmlns:xlink="http://www.w3.org/1999/xlink" x="0px" y="0px"
	 width="150px" height="150px" viewBox="0 0 150 150" enable-background="new 0 0 150 150" xml:space="preserve">
<path d="M113,98V36.366c0-3.302-2-2.366-2-2.366H43.667c-5.5,0-4.934,6.064-4.934,6.064l-0.017,70.979C39.098,117.877,45,118,45,118
	h60v-16h6.333C114.333,102,113,98,113,98z M102,114H46c0,0-4.833,1.332-4-5h60V114z M111,99h-6V86h6V99z M111,82h-6V69h6V82z
	 M111,66h-6V53h6V66z M111,50h-9v56H42V41.001c0-5,3-4.001,3-4.001h66V50z"/>
<path d="M84.583,80.833c0,0-4.5-1.583-5.333-2.583c0,0-3.167-1.917-1-5.083c0,0,2.499-1.417,2.833-5.667l0.084-7.833
	c0,0-0.155-5.333-5.161-4.75l-6.839-0.044c0,0-4.833,0.294-4.667,5.378l-0.167,7.083c0,0-0.083,3.667,3.167,6.417
	c0,0,1.917,1.917,0.167,4.25c0,0-4.333,3.583-6.417,4.083c0,0-4.167,0.916-4.917,3c0,0-0.334,0.55-0.342,3.73
	c0.506-0.056,1.014-0.102,1.522-0.139c0.484-0.132,0.974-0.241,1.487-0.258V88c0,0,0.167-2.417,2.167-3.25
	c0,0,9.583-3.166,9.583-8.25c0,0,0.768-2.227-1.309-4.617c-0.086-0.1-0.178-0.2-0.274-0.3C66.75,69.083,67,68.25,67,65.667
	l0.167-5.292c0,0,0.417-2.375,2.75-2.375H77c0,0,1.417,0.667,1.167,1.833c0,0,0.499,6.416,0.416,7.333c0,0-0.155,2.167-2.577,4.333
	c0,0-1.422,0.667-1.006,4.917c0,0,0.353,3.333,3.593,4.833c0,0,3.524,2.256,5.806,3.268c0.121,0.054,0.238,0.104,0.352,0.149
	c2.25,0.916,1.75,2.582,1.75,3.416l3.5,0.25V86C90,86,89.499,82.166,84.583,80.833z"/>
</svg>
