<?xml version="1.0" encoding="utf-8"?>
<!-- Generator: Adobe Illustrator 16.0.0, SVG Export Plug-In . SVG Version: 6.00 Build 0)  -->
<!DOCTYPE svg PUBLIC "-//W3C//DTD SVG 1.1//EN" "http://www.w3.org/Graphics/SVG/1.1/DTD/svg11.dtd">
<svg version="1.1" id="Layer_1" xmlns="http://www.w3.org/2000/svg" xmlns:xlink="http://www.w3.org/1999/xlink" x="0px" y="0px"
	 width="512px" height="512px" viewBox="0 0 512 512" enable-background="new 0 0 512 512" xml:space="preserve">
<image display="none" overflow="visible" width="511" height="370" xlink:href="2ACCDEED.jpg"  transform="matrix(0.9532 0 0 0.9532 12.771 79.0537)">
</image>
<path opacity="0.9" d="M415.667,291L429,264.483l-64-134.15C347.666,131,331,127,331,127
	c-26.667-12.667-67.333-13.333-67.333-13.333C230.334,113,202,134,202,134h-36.333c-13.333,1-18.688,10.813-18.688,10.813
	L90.263,255.359c-5.363,9.734-0.042,17.253-0.042,17.253l10.352,11.221l-25.363,29.834c-7.124,46,41.124,44,41.124,44
	c9.333,34,40,27.333,40,27.333c8,36,44.667,27.333,44.667,27.333c28.667,40,50.667,4,50.667,4c42,20,48-15.333,48-15.333
	l16.667,9.333c34,6,36.666-30,36.666-30c39.333,10.666,38.667-32.666,38.667-32.666c21.333,0,30-16,30-16
	C438.334,311.667,415.667,291,415.667,291z M117,340c0,0-10,7.5-22-3c0,0-8-6-5.5-17.5l30.5-37.833c0,0,12-7.167,22,3.333
	c0,0,12.5,9,4,22.5L117,340z M156.564,370c0,0-8.27,6.5-18.917-3c0,0-11.647-7-8.147-18.5l26-31c0,0,10-6.5,20.5,4
	c0,0,12.5,11.189,5.5,21.095L156.564,370z M194.901,399c0,0-9.401,5.5-17.901-4.5c0,0-12-8-7.5-18l22-26.5c0,0,11-8,21.5,3
	c0,0,11,8,6,16.5L194.901,399z M248.5,400.509L232.297,416.5c0,0-4.19,3.5-11.994-3c0,0-10.303-3.982-7.303-12.991l15.5-20.009
	c0,0,9-6,15.5,0C244,380.5,257.5,391.018,248.5,400.509z M387.667,333L293,264.483c0,0-14-4.622-13.333,7.947
	c0,0,1.346,5.236,4.673,9.236l90.431,62c0,0,9.829,22.899-14.271,23.805c-0.486,0.019-0.486,0.019-0.486,0.019L276.5,309
	c0,0-18.5-7-14,10l73.5,55c0,0,7.5,21-15,22l-69.254-46c0,0-9.746-6.5-11.746,8.5l46.5,37.5c0,0-7,19.5-26,8l3.5-7.5
	c0,0,0-31.5-30.5-31c0,0-2.5-35-37.5-31c0,0-1.5-29.5-35-32c0,0,6-18.639-13.5-30.069c0,0-19.5-14.569-37,0l-5.5-7.947L161,151
	h21.333c0,0-11.333,13.161-13.333,20.247c0,0-1.333,45.753-11.333,53.086c0,0-5.334,6.667,5.333,14c0,0,44,26,66.667-38
	c0,0,6.26-32.577,44-16.667l136,121.333C409.667,305,423.667,333,387.667,333z M405,281.667L285.667,177c0,0-15.333-16-41.333-8.667
	c0,0-25.333,4-28,30c0,0-9.333,40-44,30c0,0,12.667-28.667,9.333-51.333c0,0,1.333-9.333,9.333-16.667c0,0,55.147-56.859,136.667-20
	c0,0,18,4,28,4l58,120.15L405,281.667z"/>
<path d="M133.783,96.174l-31.304-17.12c-13.043-4.946-20,9.294-20,9.294L12.771,232.696c0,13.043,7.099,15.652,7.099,15.652
	l30.435,13.044c9.565,6.957,13.043,0,13.043,0l70.435-148.696C142.479,100.522,133.783,96.174,133.783,96.174z M120.333,113.651
	l-60.667,127.35c0,0-2.667,10-10.667,4l-16.667-7.333c0,0-4.432-0.895,0-10l61.333-126c0,0,1.334-8.667,12.667-4l11.333,5.333
	C117.667,103.001,126.333,106.301,120.333,113.651z"/>
<path d="M378.635,112.363l70.435,148.696c0,0,3.479,6.957,13.044,0l30.434-13.044c0,0,7.1-2.608,7.1-15.652L429.938,88.015
	c0,0-6.956-14.24-20-9.294l-31.304,17.12C378.635,95.841,369.938,100.189,378.635,112.363z M394.75,102.668l11.334-5.333
	c11.332-4.667,12.666,4,12.666,4l61.334,126c4.432,9.105,0,10,0,10l-16.667,7.333c-8,6-10.667-4-10.667-4l-60.666-127.35
	C386.084,105.968,394.75,102.668,394.75,102.668z"/>
</svg>
