<?xml version="1.0" encoding="utf-8"?>
<!-- Generator: Adobe Illustrator 16.0.0, SVG Export Plug-In . SVG Version: 6.00 Build 0)  -->
<!DOCTYPE svg PUBLIC "-//W3C//DTD SVG 1.1//EN" "http://www.w3.org/Graphics/SVG/1.1/DTD/svg11.dtd">
<svg version="1.1" id="Layer_1" xmlns="http://www.w3.org/2000/svg" xmlns:xlink="http://www.w3.org/1999/xlink" x="0px" y="0px"
	 width="512px" height="512px" viewBox="0 0 512 512" enable-background="new 0 0 512 512" xml:space="preserve">
<image display="none" overflow="visible" width="471" height="512" xlink:href="90A58075.jpg"  transform="matrix(0.9234 0 0 0.9234 38.0635 19.0542)">
</image>
<path d="M418.073,165.066c-153.74-147.4-304.957-18.726-304.957-18.726C12.41,230.876,64.663,382.148,64.663,382.148
	C73.062,421.79,108.947,419,108.947,419l283.578,1c49.143,0.013,62.416-37.784,62.416-37.784
	C487.562,243.737,418.073,165.066,418.073,165.066z M433.127,356.966c0,0-5.46,47.366-69.957,41.034H140.738
	c0,0-53.738,4.998-59.874-41.059c0,0-33.848-126.778,45.144-191.307c0,0,137.659-115.301,271.201,9.627
	C397.209,175.262,458.714,251.26,433.127,356.966z"/>
<path d="M268.596,276.527l65.756-64.216l21.762,20.84l-65.755,67.946c0,0,8.642,29.9-21.763,44.489c0,0-28.929,7.411-39.089-8.783
	c0,0-15.84-19.139-3.835-43.837C225.671,292.967,238.643,271.049,268.596,276.527z"/>
</svg>
