<?xml version="1.0" encoding="utf-8"?>
<!-- Generator: Adobe Illustrator 16.0.0, SVG Export Plug-In . SVG Version: 6.00 Build 0)  -->
<!DOCTYPE svg PUBLIC "-//W3C//DTD SVG 1.1//EN" "http://www.w3.org/Graphics/SVG/1.1/DTD/svg11.dtd">
<svg version="1.1" id="Layer_1" xmlns="http://www.w3.org/2000/svg" xmlns:xlink="http://www.w3.org/1999/xlink" x="0px" y="0px"
	 width="150px" height="150px" viewBox="0 0 150 150" enable-background="new 0 0 150 150" xml:space="preserve">
<path d="M123.499,91.17c-8.333-1.5-7.5-11.334-7.5-11.334c19.834-14.167,3.833-30.666,3.833-30.666
	c-21.667-21.667-54.5-9.667-54.5-9.667c-24.333,11-20.167,25.833-20.167,25.833c-20.833,7-17.833,22-17.833,22
	c1.833,8.5,10.5,15.999,10.5,15.999c-0.5,8.667-7.333,8.667-7.333,8.667c-4.667,4.332,6.333,4.834,6.333,4.834
	c11.833-0.5,15.333-8.833,15.333-8.833c12.333,3.333,26-2.667,26-2.667c11.999-5.334,13.667-16,13.667-16
	c7.333-0.167,12-2.833,12-2.833c5,12.333,20.333,9.5,20.333,9.5C128.498,92.17,123.499,91.17,123.499,91.17z M72,102.333
	c-13.333,3.333-23.333,0.833-23.333,0.833C45.5,112.332,40,110.833,40,110.833c5.167-8.333,2.667-10.667,2.667-10.667
	C33.333,95.332,32.333,87.5,32.333,87.5s-1,19.5,0-0.834S61.5,67.333,61.5,67.333c17.984,1.405,24.167,13,24.167,13
	C92.501,95.666,72,102.333,72,102.333z M114.25,89.668c-7.748-1.111-7.416-9.834-7.416-9.834c-3.5,3.417-14.669,4.669-14.669,4.669
	C86.331,57.67,49.999,63.67,49.999,63.67C56.122,37.09,90.5,41.375,90.5,41.375c14,0.125,25,10.625,25,10.625
	c13.125,12.5-4.416,25.918-4.416,25.918c-2.333,5.583,3.166,10.75,3.166,10.75C115.5,89.668,114.25,89.668,114.25,89.668z"/>
<path d="M52.625,79.125c-3.728,0-6.75,3.022-6.75,6.75s3.022,6.75,6.75,6.75s6.75-3.022,6.75-6.75S56.353,79.125,52.625,79.125z
	 M52.625,87.875c-1.105,0-2-0.896-2-2s0.895-2,2-2s2,0.896,2,2S53.73,87.875,52.625,87.875z"/>
<path d="M67.5,79.125c-3.728,0-6.75,3.022-6.75,6.75s3.022,6.75,6.75,6.75s6.75-3.022,6.75-6.75S71.228,79.125,67.5,79.125z
	 M67.5,87.875c-1.105,0-2-0.896-2-2s0.895-2,2-2s2,0.896,2,2S68.605,87.875,67.5,87.875z"/>
</svg>
