<?xml version="1.0" encoding="utf-8"?>
<!-- Generator: Adobe Illustrator 16.0.0, SVG Export Plug-In . SVG Version: 6.00 Build 0)  -->
<!DOCTYPE svg PUBLIC "-//W3C//DTD SVG 1.1//EN" "http://www.w3.org/Graphics/SVG/1.1/DTD/svg11.dtd">
<svg version="1.1" id="Layer_1" xmlns="http://www.w3.org/2000/svg" xmlns:xlink="http://www.w3.org/1999/xlink" x="0px" y="0px"
	 width="512px" height="512px" viewBox="0 0 512 512" enable-background="new 0 0 512 512" xml:space="preserve">
<image display="none" overflow="visible" width="471" height="512" xlink:href="8F6714D2.jpg"  transform="matrix(0.9234 0 0 0.9234 38.0635 19.0542)">
</image>
<path d="M40,235.997v-2.533v-2.534c0,0-4.86-35.461,23.002-53.826L233.764,54.888c0,0,22.374-20.897,45.172,0l86.227,62.059
	l-9.448,12.031L270.252,68.82c0,0-13.918-14.564-30.381,1.9L76.961,185.971c0,0-16.961,9.499-22.961,35.461v217.204
	c0,0,2.875,25.364,33.903,25.364H434.29c0,0,22.797-1.918,21.53-31.681l0.05-200.113c0,0,5.017-18.685-10.815-35.784l-53.191-38.155
	l8.231-14.012l53.826,36.688c0,0,20.265,20.877,17.099,44.308l0.335,208.961c0,0,3.31,36.932-32.652,39.157
	c-0.816,0.05-1.652,0.083-2.513,0.094c-38.628,0.634-360.317,0-360.317,0s-36.627-0.633-35.514-36.729L40,235.997z"/>
<polygon points="67.006,419.639 73.505,426.303 183.058,341.349 175.292,334.783 "/>
<polygon points="327.371,342.448 334.236,334.783 443.155,420.905 436.39,427.303 "/>
<path d="M72.006,223.232l7.032-10.665l157.011,125.283c0,0,23.618,12.482,42.129-1.534l153.579-123.749l7.351,10.564
	L285.957,345.356c0,0-30.402,23.644-62.328-2.221L72.006,223.232z"/>
<polygon points="156,262 156,237 216,237 216,297 205,297 205,248 168,248 168,262 "/>
<polygon points="358,262 358,237 298,237 298,297 309,297 309,248 346,248 346,262 "/>
<polygon points="227,317 241,317 241,189 273,189 273,317 287,317 287,175 227,175 "/>
<path d="M451.817,55.356c-0.463-0.331-0.083-0.384-0.642-0.567c0,0-19.176-9.188-29.996,11.577c0,0-5.065,10.665,3.8,21.64
	l-83.611,82.191c0,0-16.268-7.756-25.976,0.266l-39.395-40.396c0,0,9.002-20.567-6.332-30.571c0,0-18.166-9.996-31.705,7.442
	c0,0-5.643,6.104-4.376,17.081L123.999,231.406l6.622,5.244l109.363-105.166c0,0,9.517,12.015,30.195,4.8l39.129,39.92
	c0,0-11.244,14.477,4.8,30.362c0,0,10.893,11.433,29.641,0c0,0,13.252-13.067,4.485-29.198l82.146-83.146
	c0,0,15.121,8.776,26.686-4.95C457.064,89.273,473,70.5,451.817,55.356z M257.164,131.615c-7.33,0-13.271-5.942-13.271-13.273
	c0-7.33,5.941-13.271,13.271-13.271c7.331,0,13.273,5.941,13.273,13.271C270.438,125.673,264.495,131.615,257.164,131.615z
	 M328.087,202.539c-7.326,0-13.273-5.942-13.273-13.273c0-7.33,5.947-13.271,13.273-13.271c7.332,0,13.273,5.942,13.273,13.271
	C341.36,196.597,335.419,202.539,328.087,202.539z M441.542,88.664c-7.094,0-12.853-5.754-12.853-12.853
	c0-7.1,5.759-12.851,12.853-12.851c7.101,0,12.853,5.751,12.853,12.851C454.395,82.91,448.643,88.664,441.542,88.664z"/>
</svg>
