<?xml version="1.0" encoding="utf-8"?>
<!-- Generator: Adobe Illustrator 16.0.0, SVG Export Plug-In . SVG Version: 6.00 Build 0)  -->
<!DOCTYPE svg PUBLIC "-//W3C//DTD SVG 1.1//EN" "http://www.w3.org/Graphics/SVG/1.1/DTD/svg11.dtd">
<svg version="1.1" id="Layer_1" xmlns="http://www.w3.org/2000/svg" xmlns:xlink="http://www.w3.org/1999/xlink" x="0px" y="0px"
	 width="512px" height="512px" viewBox="0 0 512 512" enable-background="new 0 0 512 512" xml:space="preserve">
<image display="none" overflow="visible" width="471" height="512" xlink:href="D4012BBD.jpg"  transform="matrix(0.9234 0 0 0.9234 38.0635 19.0542)">
</image>
<path d="M369.176,354.747c-25.077-23.748-93.403-47.202-93.403-47.202c-4.541-17.024,14.214-49.82,14.214-49.82
	c25.347-34.725,11.755-104.971,11.755-104.971c-5.673-57.873-77.843-57.146-77.843-57.146c-62.417,0-76.437,45.798-76.437,45.798
	c-18.16,35.179,6.671,114.615,6.671,114.615c21.561,20.425,20.623,49.793,20.623,49.793l-77.952,33.373
	c-59.137,25.146-35.666,91.648-35.666,91.648c19.195,25.718,80.057,24.981,80.057,24.981l133.771,0.736
	c112.701-2.888,114.425-23.235,114.425-23.235C406.333,380.999,369.176,354.747,369.176,354.747z M202.677,113.78
	c14.531-4.471,41.358,0,41.358,0c38.005,6.147,40.841,48.591,40.841,48.591C284.318,151.335,269.743,148,269.743,148
	s-73.772-1-87.744-1c-0.386,0-1.25,0.644-1.625,0.666c-13.032,0.771-18.958,14.556-18.958,14.556
	C158.481,123.798,202.677,113.78,202.677,113.78z M163.18,226.837c0,0-2.261-14.517,0-15.017c0,0,10.649,2.192,10.649-23.89
	c0,0,1.28-23.93,19.165-23.93h67.81c0,0,14.173,4.004,13.43,19.281c0,0-2.345,16.44,6.83,24.534c0.393,0.345,3.803,0.64,4.23,0.946
	c0,0,0.843,2.357,0.47,12.417l0.022,5.669c0,0,0.385,6.012-3.808,7.099c-0.322,0.085-0.675,0.14-1.055,0.159
	c-5.311,0.279-8.106,3.913-8.384,13.134c0.012,2.389-1.539,25.762-24.328,51.298c0,0-18.878,9.797-38.666,1.646
	c0,0-19.927-3.484-34.179-52.945c0,0-1.192-10.694-8.737-11.811C166.629,235.426,163.367,231.308,163.18,226.837z M256.331,306.854
	l-32.455,35.769l-28.98-34.394c-0.767-0.852-1.16-1.375-1.16-1.375l1.16,1.375C200.166,314.098,223.129,335.5,256.331,306.854z
	 M196.845,436.6c-32.25,6.095-94.64-0.084-94.64-0.084c-35.871-7.517-30.556-40.319-30.556-40.319
	c-0.747-41.808,83.462-61.773,83.462-61.773l28.316,45.457c11.92,28.316,23.102,6.18,23.102,6.18L196.845,436.6z M198.677,373.427
	l-27.063-46.217l14.436-7.708l28.552,34.297L198.677,373.427z M214.092,440l9.414-69.791L231.504,440H214.092z M266.762,319.502
	l10.434,6.708l-29.064,50.217l-11.92-22.628L266.762,319.502z M345.008,436.516c0,0-62.391,6.179-94.643,0.084l-9.684-51.54
	c0,0,11.182,23.137,23.103-5.18l28.314-49.457c0,0,84.21,23.966,83.463,65.773C375.562,396.196,384.5,438.752,345.008,436.516z"/>
<path d="M222.876,73.628l10.572,8.766c0,0,76.182-46.829,114.186,19.121c0,0,6.591,26.12,1,49.592l7.824,9.943
	c0,0,4.237,34.415-9.176,31.062c0,0-10.825,0-10.825,11.178c0,0,5.589,13.767-8.942,24.945c0,0-21.473,48.652,41.122,58.712
	c0,0,64.943,10.199,71.128,47.537c0,0,11.176,46.121-17.885,53.945c0,0-15.65,10.178-1.118,16.885c0,0,9.571,8.354,34.358-28.298
	c0,0,17.213-49.349-25.416-82.068c0,0-23.704-15.866-80.969-27.544c0,0-27.125-13.199-5.511-38.532c0,0,7.493-7.687,7.493-15.884
	c0,0,13.412,4.471,17.885-20.12c0,0,9.684-43.966-2.983-46.201c0,0,2.218-38.005-9.706-60.361c0,0-26.337-38.493-66.577-36.258
	C289.336,50.047,259,46.333,222.876,73.628z"/>
</svg>
