<?xml version="1.0" encoding="utf-8"?>
<!-- Generator: Adobe Illustrator 16.0.0, SVG Export Plug-In . SVG Version: 6.00 Build 0)  -->
<!DOCTYPE svg PUBLIC "-//W3C//DTD SVG 1.1//EN" "http://www.w3.org/Graphics/SVG/1.1/DTD/svg11.dtd">
<svg version="1.1" id="Layer_1" xmlns="http://www.w3.org/2000/svg" xmlns:xlink="http://www.w3.org/1999/xlink" x="0px" y="0px"
	 width="150px" height="150px" viewBox="0 0 150 150" enable-background="new 0 0 150 150" xml:space="preserve">
<path d="M113.939,67.701c-5.33,7.234-10.916,0-10.916,0c-5.33-6.472,3.044-10.533,3.044-10.533l-10.918-9.391l-4.83,4.822
	l2.015-8.883l-13.989-3.553c-2.03,9.645-9.453,7.106-9.453,7.106c-7.615-2.284-4.185-10.406-4.185-10.406l-13.445-3.045L33,101.584
	v2.03l20.545,4.314l18.77,18.782l51.777-48.985L113.939,67.701z M39.5,98.875l11.25-41.75l1.75-0.875l-1.125-1.75l3.681-15.099
	L60,40.375C57.625,48.625,68,52,68,52c11.625,2.5,13.625-6.375,13.625-6.375l5,2.125l-3.25,10.125l-4.25,3.75L75.75,59.5l-2,3.875
	l2.875,1.25L67.75,73l1.75-5.75l-3.375-0.75L63.5,77.375l-3.75,2.889L63.5,66l-3.375-1.25L55.5,81.125l2.75,1.25L56,84.125
	L50.375,89.5L53.75,77l-3.875-0.75L46.25,91.875l-3,4.25l5.125,5.375L39.5,98.875z M103.532,87.117l-0.507,3.299l-31.473,28.552
	L49.861,96.055L81.198,67H83v-3l11.907-10.386l3.425,3.299l-1.968,2.538c0,0-3.015,7.36,2.062,12.183c0,0,4.373,6.698,11.944,3.366
	l2.546-2.097l4.318,3.808L106.83,86.863L103.532,87.117z"/>
<polygon points="50.375,74.125 54.125,75 57,64.375 53.125,63.625 "/>
<polygon points="82.917,68.582 85.5,66.249 89.417,70.249 86.834,72.499 "/>
<polygon points="87.917,73.582 90.5,71.249 94.417,75.249 91.834,77.498 "/>
<polygon points="92.917,78.582 95.5,76.248 99.417,80.248 96.834,82.498 "/>
<polygon points="97.917,83.582 100.5,81.248 104.417,85.248 101.834,87.498 "/>
<polygon points="57,94.776 70.052,82.915 73.083,85.876 59.947,97.742 "/>
<polygon points="72,89.776 85.053,77.915 88.084,80.876 74.947,92.742 "/>
<polygon points="81,99.776 94.053,87.915 97.084,90.876 83.947,102.742 "/>
<polygon points="72,81.248 75,83.819 83.834,75.569 80.584,72.902 "/>
<polygon points="81,90.248 84,92.819 92.834,84.568 89.584,81.902 "/>
<polygon points="70,110.248 73,112.819 81.834,104.568 78.584,101.902 "/>
<polygon points="61,100.248 64,102.819 72.834,94.568 69.584,91.902 "/>
<polygon points="65.5,104.402 79.084,91.485 82.25,94.652 68.417,107.361 "/>
<rect x="53.084" y="55.191" transform="matrix(0.9785 0.2062 -0.2062 0.9785 12.9803 -10.3382)" width="6" height="3.818"/>
<rect x="60.549" y="56.581" transform="matrix(0.9809 0.1944 -0.1944 0.9809 12.6004 -11.2515)" width="6.151" height="3.979"/>
<rect x="68.085" y="58.182" transform="matrix(0.9785 0.2062 -0.2062 0.9785 13.9204 -13.3673)" width="6" height="3.827"/>
</svg>
