<?xml version="1.0" encoding="utf-8"?>
<!-- Generator: Adobe Illustrator 16.0.0, SVG Export Plug-In . SVG Version: 6.00 Build 0)  -->
<!DOCTYPE svg PUBLIC "-//W3C//DTD SVG 1.1//EN" "http://www.w3.org/Graphics/SVG/1.1/DTD/svg11.dtd">
<svg version="1.1" id="Layer_1" xmlns="http://www.w3.org/2000/svg" xmlns:xlink="http://www.w3.org/1999/xlink" x="0px" y="0px"
	 width="512px" height="512px" viewBox="0 0 512 512" enable-background="new 0 0 512 512" xml:space="preserve">
<image display="none" overflow="visible" width="471" height="512" xlink:href="2452776B.jpg"  transform="matrix(0.9234 0 0 0.9234 38.0635 19.0542)">
</image>
<path d="M351.655,130.964l8.151-12.28c0,0,21.091,7.552,33.979,32.158l-10.303,9.788C383.483,160.63,363.18,138.793,351.655,130.964
	z"/>
<path d="M181.364,325h14.061c0,0,0,17.996,11.717,24.441c0,0,19.919,16.906,41.596-4.185c0,0,25.778-43.395-25.778-49.253
	c0,0-38.863-4.507-41.595-33.805c0,0-2.067-17.197,0.666-24.616c0,0,3.97-28.522,36.97-33.209V189h19v13.812
	c0,0,40.029,8.984,38.47,45.696l-20.466-0.389c0,0,3.164-24.998-27.511-28.513c0,0-29.139,1.169-29.528,27.729
	c0,0-5.481,30.075,39.826,32.808c0,0,33.125,7.03,36.596,35.93c0,0,4.613,49.587-42.387,57.4V386h-14.141l-0.389-11.779
	C218.47,374.221,175.732,372,181.364,325z"/>
<path d="M453.623,169.818C428.642,87.739,332.912,58.38,332.912,58.38c-78.508-19.033-140.314,23.981-140.314,23.981l-106.87,98.3
	C33.389,256.792,53.37,329.355,53.37,329.355c26.171,99.924,120.143,127.28,120.143,127.28
	c97.542,29.737,168.484-36.876,168.484-36.876l84.84-98.73C484.333,256.443,453.623,169.818,453.623,169.818z M225.889,450.354
	c-87.686,0-164.766-76.08-164.766-163.766c0-87.685,77.08-162.766,164.766-162.766c90.353,0,162.767,75.081,162.767,162.766
	C388.655,374.273,313.574,450.354,225.889,450.354z M425.423,303.909c25.577-79.576-20.869-139.48-20.869-139.48l-11.5,8.715
	c53.115,93.736,1.562,161.686,1.562,161.686s-20.446,52.901,0.782-3.126c21.228-56.027-9.571-118.347-9.571-118.347
	c-19.918-46.282-67.959-77.918-67.959-77.918c-60.342-39.251-140.604-16.403-140.604-16.403
	c89.416-54.75,162.867,4.101,162.867,4.101l9.132-12.06C281.667,63,207.485,89.813,207.485,89.813
	c56.848-36.293,121.514-20.214,121.514-20.214c46.868,12.498,82.802,53.242,82.802,53.242
	C487.667,203.333,425.423,303.909,425.423,303.909z"/>
<path d="M224.953,151.641c-75.582,0-136.854,61.272-136.854,136.856c0,15.826,2.719,31.013,7.662,45.147
	c0.183-0.146,0.343-0.315,0.535-0.458c5.147-3.822,7.232-5.964,13.208-8.188c-3.847-11.739-7.811-24.272-7.957-37.298
	c-0.687-61.083,51.585-122.686,125.683-122.686c66.105,0,122.688,56.585,122.688,122.686c0,66.106-56.583,123.688-122.688,123.688
	c-10.39,0-20.471-1.326-30.084-3.817c-0.035,0.72-0.11-2.558-0.259-1.835c-0.664,3.246-1.781,6.321-2.856,9.447
	c-0.545,1.584-1.112,3.176-1.511,4.806c0.01-0.037-0.117-0.337-0.247,0.332c10.475,2.586,21.4,5.027,32.679,5.027
	c75.583,0,136.854-61.271,136.854-136.851C361.807,212.913,300.535,151.641,224.953,151.641z"/>
<path d="M102.86,351.617l11.061-7.788c0,0,25.934,47.838,62.929,57.071l-7.788,12.231
	C169.062,413.132,126.294,396.729,102.86,351.617z"/>
</svg>
