<?xml version="1.0" encoding="utf-8"?>
<!-- Generator: Adobe Illustrator 16.0.0, SVG Export Plug-In . SVG Version: 6.00 Build 0)  -->
<!DOCTYPE svg PUBLIC "-//W3C//DTD SVG 1.1//EN" "http://www.w3.org/Graphics/SVG/1.1/DTD/svg11.dtd">
<svg version="1.1" id="Layer_1" xmlns="http://www.w3.org/2000/svg" xmlns:xlink="http://www.w3.org/1999/xlink" x="0px" y="0px"
	 width="150px" height="150px" viewBox="0 0 150 150" enable-background="new 0 0 150 150" xml:space="preserve">
<path d="M49,51v12.005c-28-1.269-24.561,22.69-24.561,22.69c-1.269,0.254-2.48,1.878-2.48,1.878
	c-1.644,1.399,1.878,3.413,1.878,3.413l7.614-0.445c1.015,5.584,7.868,5.709,7.868,5.709C45.665,95.996,47,91,47,91h4.756
	c1.523-3,4.252-3.177,4.252-3.177l-2.093-2.991l-0.379-30.203L92,55v13.986L96,69V51H49z M39.875,68H49v5l-16.438-0.188
	C32.563,72.813,36,69,39.875,68z M38.939,90.924c-1.752,0-3.173-1.42-3.173-3.172s1.42-3.173,3.173-3.173
	c1.752,0,3.172,1.421,3.172,3.173S40.691,90.924,38.939,90.924z M50,86h-3c0,0-0.5-6.25-7.688-6.375c0,0-6.813-0.625-8.063,6.375
	h-2.625l1.875-9H50V86z"/>
<path d="M95.125,72C77.375,73,67,86.625,67,86.625l-8.75,2.125C53,89.25,53,93,53,93v6.75c-1.25,0-3.188,2.625-3.188,2.625
	c-0.813,3,2.563,2.625,2.563,2.625l9.75,0.125c1.625,6.125,8.5,5.923,8.5,5.923c6.875,0.298,8.125-6.298,8.125-6.298l24.625,0.125
	c0.625,7.125,8.5,6.125,8.5,6.125c6.75-0.125,8.125-6,8.125-6h7V72H95.125z M70.375,106.25c-2.278,0-4.125-1.848-4.125-4.125
	S68.097,98,70.375,98c2.279,0,4.125,1.848,4.125,4.125S72.654,106.25,70.375,106.25z M89,99H79c0,0-1.625-6-8-6.125
	c0,0-7.25-0.875-9.25,6.125H57v-5c0,0,0.5-1.566,3-2.221c0,0,7-0.779,9.875-2.779H89V99z M89,84.516l-14.343,0.066
	c0,0,6.818-6.248,14.343-7.457V84.516z M111.375,106.25c-2.278,0-4.125-1.848-4.125-4.125S109.097,98,111.375,98
	c2.279,0,4.125,1.848,4.125,4.125S113.654,106.25,111.375,106.25z M123,99h-3c0,0-1.375-6.5-7.625-6.625c0,0-8.75-0.375-9.25,6.625
	H93V76h30V99z"/>
</svg>
