<?xml version="1.0" encoding="utf-8"?>
<!-- Generator: Adobe Illustrator 16.0.0, SVG Export Plug-In . SVG Version: 6.00 Build 0)  -->
<!DOCTYPE svg PUBLIC "-//W3C//DTD SVG 1.1//EN" "http://www.w3.org/Graphics/SVG/1.1/DTD/svg11.dtd">
<svg version="1.1" id="Layer_1" xmlns="http://www.w3.org/2000/svg" xmlns:xlink="http://www.w3.org/1999/xlink" x="0px" y="0px"
	 width="150px" height="150px" viewBox="0 0 150 150" enable-background="new 0 0 150 150" xml:space="preserve">
<path d="M130.69,121.635l-22.335-22.589c15.736-17.767,8.375-44.923,8.375-44.923c-12.69-36.041-46.7-35.279-46.7-35.279
	c-40.609-0.254-49.746,36.548-49.746,36.548c-7.36,40.355,23.858,56.853,23.858,56.853c32.741,16.243,55.077-4.314,55.077-4.314
	l22.588,22.335c4.314,4.568,8.884,0,8.884,0C133.99,126.965,130.69,121.635,130.69,121.635z M68.279,106.082
	c-20.676,0-37.437-16.761-37.437-37.437c0-20.676,16.761-37.437,37.437-37.437s37.438,16.761,37.438,37.437
	C105.717,89.321,88.955,106.082,68.279,106.082z"/>
</svg>
