<?xml version="1.0" encoding="utf-8"?>
<!-- Generator: Adobe Illustrator 16.0.0, SVG Export Plug-In . SVG Version: 6.00 Build 0)  -->
<!DOCTYPE svg PUBLIC "-//W3C//DTD SVG 1.1//EN" "http://www.w3.org/Graphics/SVG/1.1/DTD/svg11.dtd">
<svg version="1.1" id="Layer_1" xmlns="http://www.w3.org/2000/svg" xmlns:xlink="http://www.w3.org/1999/xlink" x="0px" y="0px"
	 width="150px" height="150px" viewBox="0 0 150 150" enable-background="new 0 0 150 150" xml:space="preserve">
<path d="M104.041,99.046C99.727,93.209,80.69,87.37,80.69,87.37c-1.016-3.808,2.284-10.024,2.284-10.024
	c4.822-7.74,3.3-23.478,3.3-23.478c-1.269-12.944-18.528-13.452-18.528-13.452c-13.96,0-17.767,10.914-17.767,10.914
	c-4.061,7.868,1.269,25.635,1.269,25.635c4.822,4.568,3.046,10.913,3.046,10.913L39.32,94.224
	c-13.452,4.568-10.66,20.051-10.66,20.051c2.792,10.66,20.813,8.942,20.813,8.942l29.696-0.06
	c25.635,0.762,27.157-6.091,27.157-6.091C108.863,104.884,104.041,99.046,104.041,99.046z M63,45.375c3.25-1,9.25,0,9.25,0
	c8.5,1.375,8.688,9.906,8.688,9.906C80.813,52.813,78,52,78,52s-16.5,0-19.625,0c-0.086,0-0.28-0.013-0.363-0.008
	c-2.916,0.173-3.793,3.289-3.793,3.289C53.563,46.688,63,45.375,63,45.375z M54.167,70.438c0,0-0.506-2.576,0-2.688
	c0,0,3.5-0.208,3.5-6.042c0,0-0.833-4.708,3.167-4.708H76c0,0,2.499,0.252,2.333,3.668c0,0-0.077,4.138,1.975,5.948
	c0.088,0.077,0.18,0.15,0.275,0.218c0,0,1.083,0.083,1,2.333l0.005,1.269c0,0,0.086,1.346-0.852,1.589
	c-0.072,0.019-0.151,0.032-0.236,0.036c-1.188,0.063-1.813,0.875-1.875,2.938c0,0,0.04,7.582-8.125,11.25c0,0-3.25,2.188-6.188-0.75
	c0,0-3.563,0.563-6.75-10.5c0,0-0.938-3.063-2.625-3.313C54.938,71.688,54.208,71.438,54.167,70.438z M75,88.334l-7.259,8
	l-6.482-7.692C61.088,88.451,61,88.334,61,88.334l0.259,0.308C62.438,89.954,67.574,94.741,75,88.334z M61.695,117.353
	c-7.212,1.363-21.167-0.019-21.167-0.019c-8.833,0.5-6.834-9.018-6.834-9.018C33.527,98.966,52.361,94.5,52.361,94.5l6.333,10.167
	c2.666,6.333,5.167,2.5,5.167,2.5L61.695,117.353z M63,103l-6.5-9.666l2.334-1.5l6.833,7L63,103z M66,118l1.658-7.334L69,118H66z
	 M77.333,91.834l2.334,1.5l-6.5,9.666L70.5,98.834L77.333,91.834z M94.833,117.334c0,0-13.954,1.382-21.167,0.019L71.5,107.167
	c0,0,2.501,3.833,5.167-2.5L83,94.5c0,0,18.834,4.466,18.667,13.816C101.667,108.316,103.666,117.834,94.833,117.334z"/>
<path d="M67.741,35.5L71,39.25c0,0,15.25-10.25,23.75,4.5c0,0,1.25,4.5,0,9.75l1.75,2c0,0,0.5,7.25-2.5,6.5c0,0-1.75,0-1.75,2.5
	c0,0,1.25,3.75-2,6.25c0,0-5.25,12,8.75,14.25c0,0,17,3.5,17.25,11.75c0,0,2.5,8.75-4,10.5c0,0-3.5,2.5-0.25,4c0,0,4.5,2.5,9.25-7
	c0,0,4.083-12.579-7.25-18.579c0,0-7.166-5.998-18.333-6.831c0,0-4.501-1.834,0.333-7.5c0,0,0.334-2.167,0.334-4c0,0,3,1,4-4.5
	c0,0,2.166-9.833-0.667-10.333c0,0,1.167-8.5-1.5-13.5c0,0-5.667-8.833-14.667-8.333C83.5,30.673,74.813,29.488,67.741,35.5z"/>
</svg>
