<?xml version="1.0" encoding="utf-8"?>
<!-- Generator: Adobe Illustrator 16.0.0, SVG Export Plug-In . SVG Version: 6.00 Build 0)  -->
<!DOCTYPE svg PUBLIC "-//W3C//DTD SVG 1.1//EN" "http://www.w3.org/Graphics/SVG/1.1/DTD/svg11.dtd">
<svg version="1.1" id="Layer_1" xmlns="http://www.w3.org/2000/svg" xmlns:xlink="http://www.w3.org/1999/xlink" x="0px" y="0px"
	 width="150px" height="150px" viewBox="0 0 150 150" enable-background="new 0 0 150 150" xml:space="preserve">
<path d="M113,42v-5h-3v5h-9v-5h-3v5H88v-5h-3v5h-8v-5h-4v5h-8v-5h-4v5h-8v-5h-4v5h-9v-5h-3v5H26v70h98V42H113z M121,110H29V55h92
	V110z M121,53H29v-8h8v3h3v-3h9v3h3v-3h10v3h3v-3h8v3h3v-3h10v3h3v-3h9v3h3v-3h9v3h3v-3h8V53z"/>
<path d="M34,61v20h25V61H34z M57,79H36V63h21V79z"/>
<path d="M62,61v20h25V61H62z M85,79H64V63h21V79z"/>
<path d="M91,61v20h25V61H91z M114,79H93V63h21V79z"/>
<path d="M34,84v20h25V84H34z M57,102H36V86h21V102z"/>
<path d="M62,84v20h25V84H62z M85,102H64V86h21V102z"/>
<path d="M91,84v20h25V84H91z M114,102H93V86h21V102z"/>
<polygon points="39.25,71 42,69.5 43.875,72.25 52,66.625 53.875,69.438 43.25,76.5 "/>
<polygon points="67.25,71 70,69.5 71.875,72.25 80,66.625 81.875,69.438 71.25,76.5 "/>
<polygon points="39.25,93 42,91.5 43.875,94.25 52,88.625 53.875,91.438 43.25,98.5 "/>
<polygon points="95.25,93 98,91.5 99.875,94.25 108,88.625 109.875,91.438 99.25,98.5 "/>
<polyline points="97.625,67.75 100.125,65.375 103.5,69 106.5,65.375 108.5,68 105.375,71 108.5,74.5 105.625,76.5 103.063,73 
	99.875,76.5 97.625,74.5 100.625,71 97.625,68.125 "/>
<polyline points="68.625,90.75 71.125,88.375 74.5,92 77.5,88.375 79.5,91 76.375,94 79.5,97.5 76.625,99.5 74.063,96 70.875,99.5 
	68.625,97.5 71.625,94 68.625,91.125 "/>
</svg>
