<?xml version="1.0" encoding="utf-8"?>
<!-- Generator: Adobe Illustrator 16.0.0, SVG Export Plug-In . SVG Version: 6.00 Build 0)  -->
<!DOCTYPE svg PUBLIC "-//W3C//DTD SVG 1.1//EN" "http://www.w3.org/Graphics/SVG/1.1/DTD/svg11.dtd">
<svg version="1.1" id="Layer_1" xmlns="http://www.w3.org/2000/svg" xmlns:xlink="http://www.w3.org/1999/xlink" x="0px" y="0px"
	 width="150px" height="150px" viewBox="0 0 150 150" enable-background="new 0 0 150 150" xml:space="preserve">
<path d="M94.334,53.67l2.166-2.833c0,0,4.5,2.038,7.25,7.288L101.125,60C101.125,60,96.793,55.341,94.334,53.67z"/>
<path d="M58,95h3c0,0,0,3.875,2.5,5.25c0,0,4.25,3.625,8.875-0.875c0,0,5.5-9.25-5.5-10.5c0,0-8.292-0.957-8.875-7.208
	c0,0-0.456-3.667,0.127-5.25c0,0,0.873-6.083,7.873-7.083V66h4v3c0,0,8.583,1.917,8.25,9.75l-4.346-0.083
	c0,0,0.686-5.333-5.859-6.083c0,0-6.212,0.25-6.295,5.917c0,0-1.167,6.417,8.5,7c0,0,7.061,1.5,7.801,7.666
	c0,0,0.949,10.58-9.051,12.247V108h-3l-0.083-2.506C65.917,105.494,56.798,105.113,58,95z"/>
<path d="M116.73,60.467c-5.33-17.513-26.396-23.35-26.396-23.35c-16.751-4.061-31.218,5.33-31.218,5.33L36.528,64.274
	C25.36,80.518,30.69,96,30.69,96c5.584,21.32,25.634,27.157,25.634,27.157c20.812,6.345,36.802-7.868,36.802-7.868l18.528-21.065
	C122.823,83.311,116.73,60.467,116.73,60.467z M67.5,120.75c-18.709,0-33.875-15.166-33.875-33.875S48.791,53,67.5,53
	s33.875,15.166,33.875,33.875S86.209,120.75,67.5,120.75z M110.5,89.504c5.333-17.667-4.666-29.333-4.666-29.333l-2.667,2.5
	c11.333,20,0.333,34.498,0.333,34.498s-4.362,11.287,0.167-0.667s-2.042-25.251-2.042-25.251c-4.25-9.875-14.5-16.625-14.5-16.625
	c-12.875-8.375-30-3.5-30-3.5C76.203,39.443,91.875,52,91.875,52l2.375-3C83.375,39.625,64,44.25,64,44.25
	c12.5-6.92,25.5-3.246,25.5-3.246c10,2.667,17.667,12,17.667,12C122,69.837,110.5,89.504,110.5,89.504z"/>
<path d="M67.3,58.082c-16.126,0-29.2,13.073-29.2,29.2c0,3.377,0.58,6.617,1.635,9.633c0.039-0.031,0.073-0.067,0.114-0.098
	c1.098-0.815,2.396-1.272,3.671-1.747c-0.821-2.505-1.271-5.179-1.271-7.958c0-14.104,11.433-25.537,25.536-25.537
	c14.104,0,25.537,11.433,25.537,25.537c0,14.104-11.433,25.537-25.537,25.537c-2.217,0-4.368-0.283-6.419-0.814
	c-0.007,0.153-0.023,0.308-0.055,0.462c-0.142,0.692-0.38,1.349-0.609,2.016c-0.116,0.338-0.237,0.678-0.322,1.025
	c0.002-0.008-0.025,0.142-0.053,0.284c2.235,0.552,4.566,0.859,6.973,0.859c16.126,0,29.2-13.073,29.2-29.199
	C96.5,71.155,83.427,58.082,67.3,58.082z"/>
<path d="M41.25,100.75l3-1.875c0,0,6.303,10.018,13,11.75l-1.875,3.25C55.375,113.875,46.25,110.375,41.25,100.75z"/>
</svg>
