<?xml version="1.0" encoding="utf-8"?>
<!-- Generator: Adobe Illustrator 16.0.0, SVG Export Plug-In . SVG Version: 6.00 Build 0)  -->
<!DOCTYPE svg PUBLIC "-//W3C//DTD SVG 1.1//EN" "http://www.w3.org/Graphics/SVG/1.1/DTD/svg11.dtd">
<svg version="1.1" id="Layer_1" xmlns="http://www.w3.org/2000/svg" xmlns:xlink="http://www.w3.org/1999/xlink" x="0px" y="0px"
	 width="150px" height="150px" viewBox="0 0 150 150" enable-background="new 0 0 150 150" xml:space="preserve">
<path d="M113.689,34.833l-68.81-0.067c0,0-5.88,0.321-6.88,6.413V107c0,0,2.335,6,7.665,6H71c0,0,2.878,0.76,4-2.794
	c0,0-0.492-3.206-4-3.206H48c0,0-3.35,0.925-3.604-5.928s0-0.717,0-0.717L44.283,57H115v14c0,0,3,6.473,7,0.127V40
	C122,40,120.289,34.071,113.689,34.833z M117,50H44v-7c0,0-0.365-3,3.188-3H113c0,0,3-0.345,4,2.701V50z"/>
<rect x="91" y="43" width="5" height="5"/>
<rect x="99" y="43" width="5" height="5"/>
<rect x="107" y="43" width="5" height="5"/>
<path d="M78,105v13h12l30.284-30.63c0,0,2.498-5.144-0.784-9.87c0,0-4.166-5.333-11.333-1.833L78,105z"/>
</svg>
