<?xml version="1.0" encoding="utf-8"?>
<!-- Generator: Adobe Illustrator 16.0.0, SVG Export Plug-In . SVG Version: 6.00 Build 0)  -->
<!DOCTYPE svg PUBLIC "-//W3C//DTD SVG 1.1//EN" "http://www.w3.org/Graphics/SVG/1.1/DTD/svg11.dtd">
<svg version="1.1" id="Layer_1" xmlns="http://www.w3.org/2000/svg" xmlns:xlink="http://www.w3.org/1999/xlink" x="0px" y="0px"
	 width="150px" height="150px" viewBox="0 0 150 150" enable-background="new 0 0 150 150" xml:space="preserve">
<path d="M105.167,96.583C102.167,83.583,90,83,90,83h-9.5l-1.502-5.911c8.75-6.5,10.996-16.828,10.996-16.828
	c6-19.75-7.004-26.99-7.004-26.99c-14.251-9.5-31.261-1.479-31.261-1.479c-14.25,7.5-9.271,27.042-9.271,27.042
	c0.75,8,11.208,18.334,11.208,18.334l-1,5.832L45.5,82.833C30,83,26.667,97.333,26.667,97.333L21,129h90.833L105.167,96.583z
	 M61.906,107.34L57,100.84V80.674c0,0,2.583,1.5,6.083,2.333c0,0-2.792,0.834-2.958,6.167c0,0-0.646,1.334,3.021,0
	C63.146,89.174,59.24,99.006,61.906,107.34z M75,100.84l-4.843,6.5c2.667-8.334-1.175-18.166-1.175-18.166
	c3.667,1.334,3.002,0,3.002,0c-0.167-5.333-2.995-6.167-2.995-6.167c3.5-0.833,6.01-2.333,6.01-2.333V100.84z M72.833,78.813
	c0,0-7.228,3.712-14.167,0c0,0-16.833-16.14-13.333-28.64c0,0,15.167-7.833,22.167,1.667c0,0,6.167,6.833,19.667,0
	C87.167,51.84,90.334,63.62,72.833,78.813z"/>
<path d="M102,36v-3h2v3c0,0,2,0.177,4,1.177V39c0,0-5.667-1.489-7.5,0.844c0,0-1.833,2.667,2.5,4.5c0,0,6.333,1.333,6.333,5.667
	c0,0,0.281,5.162-4.609,5.495L104.726,59H103l-0.333-3.493c0,0-3.501,0.25-5.084-1.25l1-1.667c0,0,7.417,3,8.667-1.75
	c0,0,1.083-3.25-5-4.417c0,0-5.417-0.667-4.667-5.5C97.583,40.924,97.25,36.993,102,36z"/>
<path d="M103.438,23.628c-6.615,0-12.564,2.847-16.691,7.382c1.449,0.948,2.657,2.289,3.866,3.58
	c3.168-3.5,7.732-5.712,12.825-5.712c9.562,0,17.313,7.75,17.313,17.313c0,9.562-7.751,17.313-17.313,17.313
	c-3.26,0-6.299-0.917-8.902-2.484c-0.041,0.047-0.084,0.094-0.126,0.141c-0.77,1.51-1.589,2.989-2.581,4.366
	c3.393,2.042,7.36,3.228,11.609,3.228C115.898,68.753,126,58.651,126,46.19C126,33.729,115.898,23.628,103.438,23.628z"/>
</svg>
