<?xml version="1.0" encoding="utf-8"?>
<!-- Generator: Adobe Illustrator 16.0.0, SVG Export Plug-In . SVG Version: 6.00 Build 0)  -->
<!DOCTYPE svg PUBLIC "-//W3C//DTD SVG 1.1//EN" "http://www.w3.org/Graphics/SVG/1.1/DTD/svg11.dtd">
<svg version="1.1" id="Layer_1" xmlns="http://www.w3.org/2000/svg" xmlns:xlink="http://www.w3.org/1999/xlink" x="0px" y="0px"
	 width="150px" height="150px" viewBox="0 0 150 150" enable-background="new 0 0 150 150" xml:space="preserve">
<path d="M119.522,116.305l-23.35-23.097c0,0,13.958-19.796,1.015-40.355c0,0-14.467-23.858-44.923-14.467
	c0,0-24.111,8.762-22.589,36.614c0,0,2.538,21.761,21.066,29.883c0,0,16.244,8.376,35.025-2.03l23.604,23.604
	c0,0,4.315,1.521,8.884-1.523C118.254,124.934,122.567,119.858,119.522,116.305z M66.093,103.68
	c-17.357,0-31.429-14.071-31.429-31.429s14.071-31.429,31.429-31.429c17.357,0,31.428,14.071,31.428,31.429
	S83.45,103.68,66.093,103.68z M114.75,121.413c0,0-1.999,1.25-3.583,0L90.25,99.875l3.625-3.5l20.875,21.375
	C114.75,117.75,116.167,119.413,114.75,121.413z"/>
<path d="M73.625,72.074C79.25,68.199,77.5,60.023,77.5,60.023c-0.75-8.125-11.25-9.102-11.25-9.102c-10,0.5-12.19,7.672-12.19,7.672
	c-1.94,10.75,4.565,13.594,4.565,13.594C49,77.938,49.5,88,49.5,88h33.625C82.875,75,73.625,72.074,73.625,72.074z M58.375,62.625
	c0-4.142,3.358-7.5,7.5-7.5s7.5,3.358,7.5,7.5s-3.358,7.5-7.5,7.5S58.375,66.767,58.375,62.625z M55,84c1.625-8.625,11-9,11-9
	c9,0.75,11,9,11,9H55z"/>
</svg>
