<?xml version="1.0" encoding="utf-8"?>
<!-- Generator: Adobe Illustrator 16.0.0, SVG Export Plug-In . SVG Version: 6.00 Build 0)  -->
<!DOCTYPE svg PUBLIC "-//W3C//DTD SVG 1.1//EN" "http://www.w3.org/Graphics/SVG/1.1/DTD/svg11.dtd">
<svg version="1.1" id="Layer_1" xmlns="http://www.w3.org/2000/svg" xmlns:xlink="http://www.w3.org/1999/xlink" x="0px" y="0px"
	 width="150px" height="150px" viewBox="0 0 150 150" enable-background="new 0 0 150 150" xml:space="preserve">
<path d="M93,96h6v-8c0,0,3-5.462,7,0v12c0,0-0.437,3-2.975,3H93C93,103,89.066,99.046,93,96z"/>
<path d="M89,49.081C89,50.693,87.693,52,86.081,52H57.919C56.307,52,55,50.693,55,49.081v-0.162C55,47.307,56.307,46,57.919,46
	h28.162C87.693,46,89,47.307,89,48.919V49.081z"/>
<path d="M89,60.081C89,61.693,87.693,63,86.081,63H57.919C56.307,63,55,61.693,55,60.081v-0.162C55,58.307,56.307,57,57.919,57
	h28.162C87.693,57,89,58.307,89,59.919V60.081z"/>
<path d="M89,71.081C89,72.693,87.693,74,86.081,74H57.919C56.307,74,55,72.693,55,71.081v-0.162C55,69.307,56.307,68,57.919,68
	h28.162C87.693,68,89,69.307,89,70.919V71.081z"/>
<circle cx="46.046" cy="49.173" r="3.173"/>
<circle cx="46.046" cy="60.173" r="3.173"/>
<circle cx="46.046" cy="71.173" r="3.173"/>
<circle cx="46.046" cy="82.173" r="3.173"/>
<circle cx="46.046" cy="94.173" r="3.173"/>
<path d="M127.902,99.046C125.364,72.904,100,74,100,74V35.34c0-6.091-7-6.34-7-6.34H38c-7.157,1-7.116,6.844-7.116,6.844
	l0.044,69.039c-0.761,8.629,7.04,9.138,7.04,9.138l43.167-0.254c8.63,13.706,24.557,10.914,24.557,10.914
	C129.551,122.143,127.902,99.046,127.902,99.046z M81.198,85.786c-0.187,0.076-0.526,0.259-0.526,0.259s0.064,0.492-0.159,0.718
	c-0.877,0.883-1.88,1.896-2.064,3.18c-0.039,0.275-0.195,0.421-0.386,0.483C78.01,90.776,78,91,78,91H56.833
	C53.025,94.63,57,97,57,97h19.883C76.375,102,78,107,78,107H38V36h56v39c-3,0.066-7,4-7,4H56.579C51.125,82.5,57,86,57,86h22.23
	c0.086-0.088,0.257-0.263,0.257-0.263l0.936-0.036C80.423,85.701,77.125,86,81.198,85.786z M102.318,119.124
	c-10.801,0-19.557-8.757-19.557-19.558c0-10.8,8.756-19.556,19.557-19.556c10.8,0,19.557,8.756,19.557,19.556
	C121.875,110.367,113.118,119.124,102.318,119.124z"/>
</svg>
