<?xml version="1.0" encoding="utf-8"?>
<!-- Generator: Adobe Illustrator 16.0.0, SVG Export Plug-In . SVG Version: 6.00 Build 0)  -->
<!DOCTYPE svg PUBLIC "-//W3C//DTD SVG 1.1//EN" "http://www.w3.org/Graphics/SVG/1.1/DTD/svg11.dtd">
<svg version="1.1" id="Layer_1" xmlns="http://www.w3.org/2000/svg" xmlns:xlink="http://www.w3.org/1999/xlink" x="0px" y="0px"
	 width="150px" height="150px" viewBox="0 0 150 150" enable-background="new 0 0 150 150" xml:space="preserve">
<path d="M102,39H48.964C35.766,40,34,53,34,53v36c2,13.051,14.714,15.945,14.714,15.945l0.504,9.961
	c0,6.091,6.853,3.171,6.853,3.171L76,105h25.503C114.701,103,115,89,115,89V53.36C114,40.416,102,39,102,39z M108,57v29.609
	c0,8.63-9,9.391-9,9.391H74.5L57,107.145l-0.421-6.322c0.761-4.568-3.299-4.568-3.299-4.568L50.741,96C42.873,94.984,42,88,42,88
	V54.629C42,46,51,46,51,46h47.711C109.117,47,108,57,108,57z"/>
<path d="M101,64.066C101,66.239,99.174,68,96.922,68H53.253C51.001,68,49,66.239,49,64.066v-0.132C49,61.761,51.001,60,53.253,60
	h43.668c2.252,0,4.078,1.761,4.078,3.934V64.066z"/>
<path d="M93,79c0,2.209-1.791,4-4,4H60c-2.209,0-4-1.791-4-4l0,0c0-2.209,1.791-4,4-4h29C91.209,75,93,76.791,93,79L93,79z"/>
</svg>
