<?xml version="1.0" encoding="utf-8"?>
<!-- Generator: Adobe Illustrator 16.0.0, SVG Export Plug-In . SVG Version: 6.00 Build 0)  -->
<!DOCTYPE svg PUBLIC "-//W3C//DTD SVG 1.1//EN" "http://www.w3.org/Graphics/SVG/1.1/DTD/svg11.dtd">
<svg version="1.1" id="Layer_1" xmlns="http://www.w3.org/2000/svg" xmlns:xlink="http://www.w3.org/1999/xlink" x="0px" y="0px"
	 width="512px" height="512px" viewBox="0 0 512 512" enable-background="new 0 0 512 512" xml:space="preserve">
<image display="none" overflow="visible" width="471" height="512" xlink:href="D3389417.jpg"  transform="matrix(0.9234 0 0 0.9234 38.0635 19.0542)">
</image>
<path fill="#FFFFFF" stroke="#000000" stroke-miterlimit="10" d="M38,108"/>
<path d="M331.314,41.787L75.7,42.53c0,0-28.033-1.094-30.7,21.708v94.642l0.308,5.12H94v289.184c0,0-1,15.816,18.324,15.816h247.941
	c0,0,10.735,0.345,10.735-21.932l-2-375.963C369,71.105,371,37.667,331.314,41.787z M97,76.269V149H60V73.042
	c5-12.263,14-14.263,14-14.263C95,55,97,76.269,97,76.269z M355,452H110l1-392l223.448-1c0,0,20.552,2,20.552,23.077V452z"/>
<rect x="143" y="293" width="181" height="20"/>
<rect x="143" y="345" width="181" height="20"/>
<rect x="143" y="396" width="181" height="21"/>
<path d="M267.071,190.505c-4.737-23.503-33.306-25.398-33.306-25.398c-0.041-0.022,0.929-0.045,0.894-0.068
	c-1.412,0.668-8.121-0.312-9.881-1.449c-3.615-2.34-8.207-9.849-7.789-14.339c2.677-18.246,18.775-19.669,18.775-19.669
	c20.234-4.577,26.171,17.135,26.171,17.135l10.135-5.426c-1.737-23.286-26.234-24.88-26.234-24.88v-13.816h-16.979l-0.762,13.921
	c-26.857,8.26-27.03,36.851-27.03,36.851c-0.03,0.759,1.391,4.986,1.4,5.71c0.124,0.31,0.237,0.562,0.396,0.897
	c6.805,14.396,11.931,16.136,20.123,18.557c4.271,1.262,9.553,1.683,9.553,1.683c23.461-1.21,18.781,21.391,18.781,21.391
	c-2.582,18.716-21.717,17.135-21.717,17.135c-14.199,0-20.362-10.844-20.362-10.844l-9.844,10.362
	c10.604,14.748,25.461,15.071,25.461,15.071v14.816h19.171l-0.063-16.203C274.334,220.334,267.071,190.505,267.071,190.505z"/>
<path d="M404,87v257.246l24.464,66.076c14.627,19.79,26.562,1,26.562,1L479,345.246V87H404z M442.876,403.867L419.387,340h45.979
	L442.876,403.867z M466,324h-48V101h48V324z"/>
</svg>
