<?xml version="1.0" encoding="utf-8"?>
<!-- Generator: Adobe Illustrator 16.0.0, SVG Export Plug-In . SVG Version: 6.00 Build 0)  -->
<!DOCTYPE svg PUBLIC "-//W3C//DTD SVG 1.1//EN" "http://www.w3.org/Graphics/SVG/1.1/DTD/svg11.dtd">
<svg version="1.1" id="Layer_1" xmlns="http://www.w3.org/2000/svg" xmlns:xlink="http://www.w3.org/1999/xlink" x="0px" y="0px"
	 width="150px" height="150px" viewBox="0 0 150 150" enable-background="new 0 0 150 150" xml:space="preserve">
<path d="M69,43c0,0,12.001-0.333,17.334,4l11-11.333c0,0,4.666-4.667,10.333,0L118.334,47c0,0,3.334,5-2,10L86,87.667
	c0,0-5.783,4-9.225,0l-11.108-11l-9.667,10L69.333,100c0,0,12.334,10.333,25,0L129,65.667c0,0,13-12.333,2-27.667l-14.666-16
	c0,0-15.333-9.667-26,0L69,43z"/>
<path d="M84.419,111.296c0,0-12.001,0.334-17.333-4l-11,11.334c0,0-4.666,4.667-10.333,0l-10.667-11.334c0,0-3.334-5,2-10
	l30.334-30.667c0,0,5.783-4,9.224,0l11.108,11l9.667-10L84.086,54.296c0,0-12.335-10.333-25,0L24.419,88.63c0,0-13,12.332-2,27.666
	l14.666,16c0,0,15.333,9.667,26,0L84.419,111.296z"/>
</svg>
