<?xml version="1.0" encoding="utf-8"?>
<!-- Generator: Adobe Illustrator 16.0.0, SVG Export Plug-In . SVG Version: 6.00 Build 0)  -->
<!DOCTYPE svg PUBLIC "-//W3C//DTD SVG 1.1//EN" "http://www.w3.org/Graphics/SVG/1.1/DTD/svg11.dtd">
<svg version="1.1" id="Layer_1" xmlns="http://www.w3.org/2000/svg" xmlns:xlink="http://www.w3.org/1999/xlink" x="0px" y="0px"
	 width="512px" height="512px" viewBox="0 0 512 512" enable-background="new 0 0 512 512" xml:space="preserve">
<image display="none" overflow="visible" width="471" height="512" xlink:href="CBBE0D68.jpg"  transform="matrix(0.9234 0 0 0.9234 38.0635 19.0542)">
</image>
<path fill="#FFFFFF" stroke="#000000" stroke-miterlimit="10" d="M38,108"/>
<path d="M224,177l18,18L345,93c0,0,41-26,73,9c0,0,29,35,0,65L314,270c0,0-43,27-71-9l-19,18.72c0,0,40.556,50.614,103.444,14.614
	l111.556-112c0,0,36-42.666,0-95.333c0,0-43.999-54.667-107.333-16.667L224,177z"/>
<path d="M291,332.158l-18-18l-103,102c0,0-41,26-73-9c0,0-29-35,0-65l104-103c0,0,43-27,71,9l19-18.72
	c0,0-40.556-50.614-103.444-14.614L76,326.824c0,0-36,42.666,0,95.333c0,0,43.999,54.667,107.333,16.667L291,332.158z"/>
</svg>
