<?xml version="1.0" encoding="utf-8"?>
<!-- Generator: Adobe Illustrator 16.0.0, SVG Export Plug-In . SVG Version: 6.00 Build 0)  -->
<!DOCTYPE svg PUBLIC "-//W3C//DTD SVG 1.1//EN" "http://www.w3.org/Graphics/SVG/1.1/DTD/svg11.dtd">
<svg version="1.1" id="Layer_1" xmlns="http://www.w3.org/2000/svg" xmlns:xlink="http://www.w3.org/1999/xlink" x="0px" y="0px"
	 width="512px" height="512px" viewBox="0 0 512 512" enable-background="new 0 0 512 512" xml:space="preserve">
<image display="none" overflow="visible" width="471" height="512" xlink:href="FA5E4BB3.jpg"  transform="matrix(0.9234 0 0 0.9234 38.0635 19.0542)">
</image>
<path d="M400.852,48H122.46C53.181,53,44,120.997,44,120.997v188.969c10,68.505,77.192,69.699,77.192,69.699l2.623,66.286
	c0,31.972,35.961,16.668,35.961,16.668L264.374,394h133.868C469,378,469,309.966,469,309.966V122.888
	C464,54.941,400.852,48,400.852,48z M445,141.993l1,155.424C445,354,390.104,368,390.104,368L257.5,367l-109.86,72.354
	l-0.212-67.259c-2.833-16.244-13.319-16.017-13.319-16.017l-16.274-1.35C76.534,349.397,67,304.717,67,304.717V129.55
	C65,75,132.146,68,132.146,68l254.441,1C446,72,445.629,136.728,445,141.993z"/>
<path d="M396,179.059c0,8.147-9.983,14.941-21.805,14.941H144.974C133.15,194,123,187.206,123,179.059v-0.494
	c0-8.147,10.15-14.565,21.974-14.565h229.222c11.821,0,21.805,6.418,21.805,14.565V179.059z"/>
<path d="M353,257.003c0,8.834-9.4,15.997-20.997,15.997H179.997C168.401,273,159,265.837,159,257.003v-0.006
	c0-8.834,9.401-15.997,20.997-15.997h152.006C343.6,241,353,248.162,353,256.997V257.003z"/>
</svg>
