<?xml version="1.0" encoding="utf-8"?>
<!-- Generator: Adobe Illustrator 16.0.0, SVG Export Plug-In . SVG Version: 6.00 Build 0)  -->
<!DOCTYPE svg PUBLIC "-//W3C//DTD SVG 1.1//EN" "http://www.w3.org/Graphics/SVG/1.1/DTD/svg11.dtd">
<svg version="1.1" id="Layer_1" xmlns="http://www.w3.org/2000/svg" xmlns:xlink="http://www.w3.org/1999/xlink" x="0px" y="0px"
	 width="150px" height="150px" viewBox="0 0 150 150" enable-background="new 0 0 150 150" xml:space="preserve">
<path d="M76.692,25.188c-27.684,0-50.126,22.442-50.126,50.126c0,27.685,22.442,50.127,50.126,50.127
	c27.685,0,50.127-22.442,50.127-50.127C126.819,47.63,104.377,25.188,76.692,25.188z M75.692,120.111
	c-24.74,0-44.796-20.056-44.796-44.797c0-24.74,20.056-44.796,44.796-44.796c24.741,0,44.797,20.056,44.797,44.796
	C120.489,100.056,100.434,120.111,75.692,120.111z"/>
<path d="M75,40v-3c0,0,28.533-2.168,38.432,28.543l-3.3,2.285C110.132,67.828,102.368,39.991,75,40z"/>
<path d="M47.188,101.076l3.299-3.046c0,0,4.568,9.138,19.797,11.422l-1.523,4.822C68.761,114.274,53.279,112.244,47.188,101.076z"/>
<path d="M99.25,102.75L87,91c0,0-3.375-4-6.25-1.25l-2.875,2.375l-4.25-3.875L77.25,84L53.625,60.25c0,0-4.125-4.375-9.375,0
	c0,0-6.651,5.349-2.138,9.862l24.619,24.62l3.553-4.062l3.807,4.062l-2.538,3.299c0,0-1.803,2.095,0.822,5.345l13,13.125
	c0,0,0.375,1.5,3.125,0c0,0,1.375-1.625,0.625-2.75L77.25,101.5c0,0-1.125-1.25,0-1.875c0,0,0.75-1.375,2.5,0.375l11.125,11.125
	c0,0,1.182,1.5,3.341,0.125c0,0,0.841-1.375,0-3.125l-11.591-12c0,0-1.5-1.375-0.5-1.875c0,0,0.25-1.5,2,0.125l12.125,11.777
	c0,0,1.75,1.527,3,0C99.25,106.152,100.625,104.25,99.25,102.75z M66.875,88.375l-21.5-21.25L49,63l22,20.75L66.875,88.375z"/>
<path d="M113.432,81.266L65.5,34h-0.75c0,0-13.703,9.08-3.75,26.5c0,0,6.25,9.5,18.25,9.5l23.125,23.063c0,0,5.5,4.719,11.75-1.781
	C114.125,91.281,117.863,85.266,113.432,81.266z M109.125,89.625c0,0-2,2-4.875-0.625L84.625,69.375l1.977-2.75l-2.227-2.267
	c0,0-11.875,3.267-18.75-6.858c0,0-7-9.625-0.625-17.625l45.125,45C110.125,84.875,112.375,87.375,109.125,89.625z"/>
</svg>
