<?xml version="1.0" encoding="utf-8"?>
<!-- Generator: Adobe Illustrator 16.0.0, SVG Export Plug-In . SVG Version: 6.00 Build 0)  -->
<!DOCTYPE svg PUBLIC "-//W3C//DTD SVG 1.1//EN" "http://www.w3.org/Graphics/SVG/1.1/DTD/svg11.dtd">
<svg version="1.1" id="Layer_1" xmlns="http://www.w3.org/2000/svg" xmlns:xlink="http://www.w3.org/1999/xlink" x="0px" y="0px"
	 width="150px" height="150px" viewBox="0 0 150 150" enable-background="new 0 0 150 150" xml:space="preserve">
<path fill="#020202" d="M93,39H41.604C31.706,39,30,49,30,49v54h6.021L53,86h38.857C101.502,86,103,75,103,75V49.046
	C102,39.401,93,39,93,39z M99,73.919C99,79.757,93.889,81,93.889,81H51.224L35,94.693V51.076C36.015,43.716,43.123,44,43.123,44
	h49.333C98.641,45,99,51,99,51V73.919z"/>
<path fill="#020202" d="M47.416,94.889l4.201-3.774c0,0,1.154,5.886,11.053,6.886H100l15,14.497V67c0,0,0.172-6.533-7.914-7.041
	l-0.15-4.569c0,0,12.064-1.776,14.064,10.914V119h-6l-16.289-16H59C59,103,49.167,101.392,47.416,94.889z"/>
</svg>
