<?xml version="1.0" encoding="utf-8"?>
<!-- Generator: Adobe Illustrator 16.0.0, SVG Export Plug-In . SVG Version: 6.00 Build 0)  -->
<!DOCTYPE svg PUBLIC "-//W3C//DTD SVG 1.1//EN" "http://www.w3.org/Graphics/SVG/1.1/DTD/svg11.dtd">
<svg version="1.1" id="Layer_1" xmlns="http://www.w3.org/2000/svg" xmlns:xlink="http://www.w3.org/1999/xlink" x="0px" y="0px"
	 width="150px" height="150px" viewBox="0 0 150 150" enable-background="new 0 0 150 150" xml:space="preserve">
<path d="M102.769,96.254l-14.464-12.69l4.314-4.314l-4.314-2.538l9.137-10.152c0,0,24.62,15.736,23.858-21.828
	c0,0-6.6,11.167-16.244,10.914c0,0-7.106-3.299-9.137-8.375c0,0-1.776-5.583,12.437-14.975c0,0-28.84-7.503-23.351,22.843
	l-7.106,7.614L47.949,33.817c0,0-6.594-6.345-13.449,0c0,0-8.886,6.853-0.256,13.959c3.936,3.241,4.282,3.684,3.494,3.208
	c0.196,0.24,0.372,0.504,0.547,0.767c1.066,0.815,1.877,1.878,2.597,3.019l23.311,21.888l-9.391,9.188
	c0,0-22.966-8.356-25.071,20.228c0.363-0.212,0.729-0.423,1.094-0.64c0.208-0.123,0.413-0.166,0.603-0.154
	c0.486-0.378,1.01-0.708,1.572-0.988V104l9.884-6.478c0,0,5.959-2.284,10.274,3.3c0,0,6.045,6.599-0.554,12.69L44,119.604V121
	c0,0,1.93,2.919,14.621,0c0,0,15.604-8.922,7.989-23.94l9.579-9.182l3.139,5.076l4.616-4.061l12.714,12.944
	c0,0,2.298,14.271,21.84,20.46c0,0,5.081,0.605,5.081-4.471C123.578,117.827,118.532,100.536,102.769,96.254z M35.259,44.477
	c-4.822-5.838,2.284-9.391,2.284-9.391c6.591-3.503,9.898,1.523,9.898,1.523L75,64.528L66.223,75h-0.761L35.259,44.477z
	 M63.685,96.762c0,0,10.66,17.767-12.437,22.843c0,0,14.467-8.122,5.838-18.274c0,0-7.107-14.467-22.843-0.508
	c0,0,2.538-19.288,20.812-11.421L88.305,56.66c0,0-7.614-21.319,12.69-22.842l-7.106,8.375c0,0-3.553,3.807,2.284,9.645l7.106,5.838
	c0,0,1.776,1.523,6.853-0.254c0,0,7.107-3.3,8.376-5.33c0,0,0.507,23.097-21.066,11.421L63.685,96.762z M79.833,89l-1.75-2.083
	l8.584-8.75l2.166,1.667L79.833,89z M117.434,119.637c0,0-16.434-6.512-18.434-18.762V100L86.073,86.691L86,86.931V86.5l0.073,0.191
	l0.87-1.188l13.736,13.453c0,0,11.077-1.059,19.577,17.691C120.257,116.648,120.309,119.762,117.434,119.637z"/>
</svg>
