<?xml version="1.0" encoding="utf-8"?>
<!-- Generator: Adobe Illustrator 16.0.0, SVG Export Plug-In . SVG Version: 6.00 Build 0)  -->
<!DOCTYPE svg PUBLIC "-//W3C//DTD SVG 1.1//EN" "http://www.w3.org/Graphics/SVG/1.1/DTD/svg11.dtd">
<svg version="1.1" id="Layer_1" xmlns="http://www.w3.org/2000/svg" xmlns:xlink="http://www.w3.org/1999/xlink" x="0px" y="0px"
	 width="512px" height="512px" viewBox="0 0 512 512" enable-background="new 0 0 512 512" xml:space="preserve">
<image display="none" overflow="visible" width="471" height="512" xlink:href="EE3BAC67.jpg"  transform="matrix(0.9234 0 0 0.9234 38.0635 19.0542)">
</image>
<path d="M379.8,350.563l-67.1-58.872l16.015-19.016L312.7,259.9l42.386-47.098c0,0,114.216,73.002,110.683-101.261
	c0,0-30.616,51.807-75.358,50.629c0,0-32.968-15.306-42.387-38.855c0,0-8.24-25.902,57.694-69.469
	c0,0-133.791-34.809-108.326,105.971l-32.968,35.323L125.486,60.912c0,0-30.589-29.437-62.393,0c0,0-41.222,31.792-1.189,64.76
	c18.258,15.036,15.864,15.091,12.21,12.882c0.908,1.114,5.726,4.337,6.539,5.559c4.945,3.783,8.708,8.714,12.046,14.005
	L200.842,259.66l-43.564,42.627c0,0-106.543-38.767-116.307,93.838c1.686-0.983,3.382-1.962,5.076-2.968
	c0.967-0.571-0.086-0.771,0.795-0.716c2.256-1.753,4.685-3.284,7.292-4.585l2-1.358l45.854-30.051c0,0,27.646-10.597,47.662,15.309
	c0,0,28.851,32.729-2.569,58.872l-39.917,28.261v6.474c0,0,8.955,13.542,67.827,0c0,0,72.386-41.39,37.063-111.063l44.436-42.595
	l16.561,19.549l17.415-15.837l60.981,61.051c0,0,10.66,66.202,101.317,94.916c0,0,23.572,2.809,23.572-20.74
	C476.338,450.644,452.93,370.429,379.8,350.563z M66.614,110.363C44.243,83.281,76.21,66.799,76.21,66.799
	c25.241-18.155,42.92,7.065,42.92,7.065l134.848,129.517l-45.717,45.582l-1.532-1L66.614,110.363z M198.486,352.918
	c0,0,43.014,103.082-73.694,105.971c0,0,69.708-32.389,43.083-84.777c0,0-41.875-69.611-113.971,1.645
	c0,0,15.596-96.256,104.55-56.983L312.7,166.88c0,0-35.323-98.903,58.872-105.968l-32.968,38.855c0,0-13.104,24.733,9.597,45.742
	l29.968,26.083c0,0,12.241,7.065,35.79-1.178c0,0,32.972-15.309,38.857-24.727c0,0,2.351,107.146-97.73,52.985L198.486,352.918z
	 M273.398,316.911l-8.118-9.664l39.822-40.592l10.049,7.733L273.398,316.911z M447.832,460.038c0,0-78.237-31.209-87.516-88.038
	l-1-4.059l-60.969-59.74l0.66-0.891l3-1.998l0.34,0.889l4.037-6.509l63.725,58.41c0,0,54.388,0.089,93.82,87.072
	C463.93,445.175,466,465,447.832,460.038z"/>
</svg>
