<?xml version="1.0" encoding="utf-8"?>
<!-- Generator: Adobe Illustrator 16.0.0, SVG Export Plug-In . SVG Version: 6.00 Build 0)  -->
<!DOCTYPE svg PUBLIC "-//W3C//DTD SVG 1.1//EN" "http://www.w3.org/Graphics/SVG/1.1/DTD/svg11.dtd">
<svg version="1.1" id="Layer_1" xmlns="http://www.w3.org/2000/svg" xmlns:xlink="http://www.w3.org/1999/xlink" x="0px" y="0px"
	 width="512px" height="512px" viewBox="0 0 512 512" enable-background="new 0 0 512 512" xml:space="preserve">
<image display="none" overflow="visible" width="471" height="512" xlink:href="365CEEE7.jpg"  transform="matrix(0.9234 0 0 0.9234 38.0635 19.0542)">
</image>
<path fill="#FFFFFF" stroke="#000000" stroke-miterlimit="10" d="M38,108"/>
<path d="M388.331,350.614c-21.871,0-39.603,17.731-39.603,39.606c0,21.872,17.731,39.603,39.603,39.603
	c21.876,0,39.606-17.73,39.606-39.603C427.938,368.346,410.207,350.614,388.331,350.614z M388.331,407.672
	c-9.644,0-17.45-7.808-17.45-17.451c0-9.647,7.807-17.454,17.45-17.454c9.647,0,17.454,7.807,17.454,17.454
	C405.785,399.864,397.979,407.672,388.331,407.672z"/>
<path d="M464.825,366.909c-23.871-69.439-98.732-55.319-98.732-55.319L217.44,160.806c0.171-0.2,0.332-0.403,0.497-0.605
	c-0.55-0.571-0.818-1.399-0.5-2.407c0.289-0.915,0.617-1.82,0.971-2.721c-0.037-0.18-0.061-0.37-0.065-0.573
	c-0.122-5.828,2.262-10.883,4.026-16.223c0.425-2.563,0.736-5.144,0.974-7.738v-15.667c-2.539-9.609-5.902-16.434-5.902-16.434
	c-0.635-0.818-1.27-1.485-1.9-2.278C154.377,19.622,95.92,60.388,95.92,60.388l46.656,50.47L133.852,139H102.43L62,95.569v-0.306
	c-0.708-0.375-1.386-0.812-2.035-1.301C22.91,154.159,76.531,197.627,76.531,197.627c8.135,8.794,16.312,14.647,24.179,18.391
	c17.33,4.689,35.724,6.705,52.449-1.313c0.644-0.309,1.267-0.341,1.827-0.203c1.847-0.995,2.85-1.683,2.85-1.683l15.155,10.85
	l11.92-16.275l-24.965-15.191c-88.973,26.04-91.146-60.761-91.146-60.761l21.239,24.276l55.635-0.358l17.518-52.129l-33.635-35.805
	c16.494-5.498,32.987,4.824,44.253,14.896c0.609-0.202,1.314-0.129,2.032,0.384c8.194,5.863,15.858,13.029,20.141,22.328
	c4.293,9.322,5.611,19.277,5.675,29.466c0.008,1.331-0.789,2.138-1.767,2.435c-2.188,15.236-8.489,28.144-8.489,28.144
	l171.435,170.348c44.486-19.53,72.696,22.786,72.696,22.786c7.663,13.346,9.98,24.872,9.494,34.463
	c0.077,0.251,0.131,0.52,0.131,0.824c-0.004,4.72-0.168,9.461-2.038,13.672c-0.598,2.517-1.622,4.933-2.799,7.277
	c0.345,0.687,0.413,1.521-0.026,2.392c-2.815,5.573-6.048,11.029-10.415,15.538c-0.633,0.653-1.356,0.856-2.039,0.771
	c-2.507,1.779-4.852,3.598-7.572,4.896c-5.969,4.905-15.102,5.934-22.569,6.519c-0.418,0.366-0.978,0.602-1.698,0.593
	c-2.928-0.038-5.84-0.529-8.706-1.095c-0.353-0.069-0.641-0.197-0.892-0.353c-18.932-1.101-34.417-10.63-34.417-10.63
	c-37.861-30.438-14.107-71.614-14.107-71.614L201.167,223.669l-13.017,16.276l124.776,129.117c-4.337,21.701,0,39.063,0,39.063
	c23.871,68.358,95.481,54.258,95.481,54.258C483.273,451.533,464.825,366.909,464.825,366.909z"/>
</svg>
