<?xml version="1.0" encoding="utf-8"?>
<!-- Generator: Adobe Illustrator 16.0.0, SVG Export Plug-In . SVG Version: 6.00 Build 0)  -->
<!DOCTYPE svg PUBLIC "-//W3C//DTD SVG 1.1//EN" "http://www.w3.org/Graphics/SVG/1.1/DTD/svg11.dtd">
<svg version="1.1" id="Layer_1" xmlns="http://www.w3.org/2000/svg" xmlns:xlink="http://www.w3.org/1999/xlink" x="0px" y="0px"
	 width="150px" height="150px" viewBox="0 0 150 150" enable-background="new 0 0 150 150" xml:space="preserve">
<path d="M35.127,37.852L44.65,48H52l2.041-6.572l-10.914-11.8c0,0,13.674-9.533,27.981,8.371c0.148,0.186,0.296,0.343,0.445,0.534
	c0,0,4.568,9.26,0,14.59l34.772,35.271c0,0,17.512-3.303,23.096,12.94c0,0,4.315,19.795-13.197,22.333
	c0,0-16.751,3.299-22.335-12.691c0,0-1.015-4.062,0-9.138L64.701,71.635l3.045-3.807l31.979,32.233c0,0-5.557,9.632,3.3,16.752
	c0,0,10.66,6.598,17.767-1.523c0,0,7.694-5.684,1.776-15.989c0,0-6.599-9.898-17.005-5.33L65.462,54.122
	c0,0,5.33-10.914-0.761-15.736c0,0-6.853-9.391-13.706-7.106l7.868,8.375l-2.284,12.183l-12.69,2.538l-7.106-8.122
	c0,0,0.507,20.304,21.32,14.213l5.837,3.554l-2.792,3.807l-3.553-2.538c0,0-9.644,6.598-19.035-3.554
	c0,0-12.955-10.534-3.432-25.001"/>
<path d="M111.527,97.522c-5.116,0-9.264,4.147-9.264,9.265c0,5.116,4.147,9.264,9.264,9.264c5.117,0,9.265-4.147,9.265-9.264
	C120.792,101.67,116.645,97.522,111.527,97.522z M111.527,110.869c-2.256,0-4.082-1.826-4.082-4.082
	c0-2.257,1.826-4.083,4.082-4.083c2.257,0,4.083,1.826,4.083,4.083C115.61,109.043,113.784,110.869,111.527,110.869z"/>
</svg>
