<?xml version="1.0" encoding="utf-8"?>
<!-- Generator: Adobe Illustrator 16.0.0, SVG Export Plug-In . SVG Version: 6.00 Build 0)  -->
<!DOCTYPE svg PUBLIC "-//W3C//DTD SVG 1.1//EN" "http://www.w3.org/Graphics/SVG/1.1/DTD/svg11.dtd">
<svg version="1.1" id="Layer_1" xmlns="http://www.w3.org/2000/svg" xmlns:xlink="http://www.w3.org/1999/xlink" x="0px" y="0px"
	 width="150px" height="150px" viewBox="0 0 150 150" enable-background="new 0 0 150 150" xml:space="preserve">
<path opacity="0.9" d="M112,44h7V32H41c0,0-3.167-0.488-3.5,1.846c0,0-1.333,4.154,3.667,4.154H112V44z"/>
<path d="M52,50.083C52,51.694,50.694,53,49.083,53h-9.167C38.306,53,37,51.694,37,50.083v-0.167C37,48.306,38.306,47,39.917,47
	h9.167C50.694,47,52,48.306,52,49.917V50.083z"/>
<path d="M52,65.083C52,66.694,50.694,68,49.083,68h-9.167C38.306,68,37,66.694,37,65.083v-0.167C37,63.306,38.306,62,39.917,62
	h9.167C50.694,62,52,63.306,52,64.917V65.083z"/>
<path d="M52,80.084C52,81.694,50.694,83,49.083,83h-9.167C38.306,83,37,81.694,37,80.084v-0.168C37,78.306,38.306,77,39.917,77
	h9.167C50.694,77,52,78.306,52,79.916V80.084z"/>
<path d="M52,95.084C52,96.694,50.694,98,49.083,98h-9.167C38.306,98,37,96.694,37,95.084v-0.168C37,93.306,38.306,92,39.917,92
	h9.167C50.694,92,52,93.306,52,94.916V95.084z"/>
<path d="M52,110.084c0,1.61-1.306,2.916-2.917,2.916h-9.167c-1.611,0-2.917-1.306-2.917-2.916v-0.168
	c0-1.61,1.306-2.916,2.917-2.916h9.167c1.611,0,2.917,1.306,2.917,2.916V110.084z"/>
<path d="M112,99h8v29l-79.667,0.829c0,0-3.333-0.166-3.333-3.833c0,0,0.333-3.334,4.833-3.167l70.333-0.333L112,99z"/>
<path d="M114.833,51.164L69,97v19h20.167l45-45.669L114.833,51.164z M86.5,110H76V99l26.5-26.169L112.667,83L86.5,110z M107.5,68
	l7.667-7.836l10.333,10l-7.833,7.667L107.5,68z"/>
</svg>
