<?xml version="1.0" encoding="utf-8"?>
<!-- Generator: Adobe Illustrator 16.0.0, SVG Export Plug-In . SVG Version: 6.00 Build 0)  -->
<!DOCTYPE svg PUBLIC "-//W3C//DTD SVG 1.1//EN" "http://www.w3.org/Graphics/SVG/1.1/DTD/svg11.dtd">
<svg version="1.1" id="Layer_1" xmlns="http://www.w3.org/2000/svg" xmlns:xlink="http://www.w3.org/1999/xlink" x="0px" y="0px"
	 width="150px" height="150px" viewBox="0 0 150 150" enable-background="new 0 0 150 150" xml:space="preserve">
<path d="M66,86.084C66,87.694,64.977,89,63.098,89H52.402C50.523,89,49,87.694,49,86.084v-0.168C49,84.306,50.523,83,52.402,83
	h10.695C64.977,83,66,84.306,66,85.916V86.084z"/>
<path d="M64,98.084c0,1.61-1.306,2.916-2.917,2.916h-9.167C50.306,101,49,99.694,49,98.084v-0.168C49,96.306,50.306,95,51.917,95
	h9.167C62.694,95,64,96.306,64,97.916V98.084z"/>
<path d="M114.833,51.164L69,97v19h20.167l45-45.669L114.833,51.164z M86.5,110H76V99l26.5-26.169L112.667,83L86.5,110z M107.5,68
	l7.667-7.836l10.333,10l-7.833,7.667L107.5,68z"/>
<path d="M112,45h6V33H41c0,0-4-1-4,3l0.339,88.18c0,0-0.588,4.82,4.912,4.82H118v-29h-6v20H44l-1-79.75l68.75-0.125L112,45z"/>
<path d="M104,50c0,1.657-1.343,3-3,3H52c-1.657,0-3-1.343-3-3l0,0c0-1.657,1.343-3,3-3h49C102.657,47,104,48.343,104,50L104,50z"/>
<path d="M93.25,62c0,1.657-1.08,3-2.414,3H51.414C50.081,65,49,63.657,49,62l0,0c0-1.657,1.081-3,2.414-3h39.422
	C92.17,59,93.25,60.343,93.25,62L93.25,62z"/>
<path d="M81.5,75c0,1.656-0.793,3-1.773,3H50.772C49.793,78,49,76.656,49,75l0,0c0-1.657,0.793-3,1.772-3h28.954
	C80.707,72,81.5,73.343,81.5,75L81.5,75z"/>
</svg>
