<?xml version="1.0" encoding="utf-8"?>
<!-- Generator: Adobe Illustrator 16.0.0, SVG Export Plug-In . SVG Version: 6.00 Build 0)  -->
<!DOCTYPE svg PUBLIC "-//W3C//DTD SVG 1.1//EN" "http://www.w3.org/Graphics/SVG/1.1/DTD/svg11.dtd">
<svg version="1.1" id="Layer_1" xmlns="http://www.w3.org/2000/svg" xmlns:xlink="http://www.w3.org/1999/xlink" x="0px" y="0px"
	 width="150px" height="150px" viewBox="0 0 150 150" enable-background="new 0 0 150 150" xml:space="preserve">
<path d="M121.304,66.559L110,52V38.132c0-5.33-5.77-5.614-5.77-5.614l-56.531,0.031C40.846,32.041,41,38,41,38v14L29.429,65.543
	C23.845,80.01,38,82,38,82v37.097c0,5.584,5,5.903,5,5.903h64.848c4.822,0,5.268-5.236,5.268-5.236l0.191-37.977
	C125.743,82.041,121.304,66.559,121.304,66.559z M47,39h58v11H47V39z M86.635,56h7L104,75H92.873L86.635,56z M90,75H78V56h6L90,75z
	 M69,56h6v19H63L69,56z M59.117,75.355L47.695,75l11.421-19h5.837L59.117,75.355z M36.274,68.081L45,56h10L43.888,75
	C43.888,75,31.705,77.726,36.274,68.081z M87,119H66V91h21V119z M107,119H91l-0.157-26.104c0,0,0.761-5.896-6.346-5.896H67
	c0,0-5.092,0.625-4.584,4.939L62.67,119H44V83h63V119z M108.359,75L97.248,56h10l8.727,12.081C120.543,77.726,108.359,75,108.359,75
	z"/>
</svg>
