<?xml version="1.0" encoding="utf-8"?>
<!-- Generator: Adobe Illustrator 16.0.0, SVG Export Plug-In . SVG Version: 6.00 Build 0)  -->
<!DOCTYPE svg PUBLIC "-//W3C//DTD SVG 1.1//EN" "http://www.w3.org/Graphics/SVG/1.1/DTD/svg11.dtd">
<svg version="1.1" id="Layer_1" xmlns="http://www.w3.org/2000/svg" xmlns:xlink="http://www.w3.org/1999/xlink" x="0px" y="0px"
	 width="512px" height="512px" viewBox="0 0 512 512" enable-background="new 0 0 512 512" xml:space="preserve">
<image display="none" overflow="visible" width="471" height="512" xlink:href="973E645B.jpg"  transform="matrix(0.9234 0 0 0.9234 38.0635 19.0542)">
</image>
<path fill="#FFFFFF" stroke="#000000" stroke-miterlimit="10" d="M38,108"/>
<g>
	<path d="M473.426,197.014c-13.033-23.397-35.14-39.266-47.376-62.455c-1.075-2.036-1.339-4.028-1.382-5.932L423,126.236V58.984
		c0-25.848-28.166-27.226-28.166-27.226L120.59,31.908C87.356,29.448,88,58.345,88,58.345v67.891l-0.351,0.422
		c-0.014,1.127-0.232,2.294-0.677,3.48c0.012,2.176-0.668,4.497-2.377,6.846c-9.329,12.817-19.711,24.817-29.095,37.583
		c-7.992,10.869-18.592,21.261-20.522,35.111c-0.268,1.916-0.864,3.483-1.669,4.783c-0.353,8.226,0.46,16.378,3.472,23.929
		c5.138,12.884,16.764,17.312,29.205,20.901c11.122-0.909,8.105,16.982,8.105,16.982s0.962,10.111,0.053,12.811
		S74,290.945,73,291.783v159.831C73,478.692,97.717,480,97.717,480h314.472c23.385,0,25.544-25.271,25.544-25.271l0.904-179.591
		c0,0-3.888-16.786,8.448-15.271C475.178,255.577,486.34,220.193,473.426,197.014z M107,49h296v72H107V49z M309.318,146h0.472
		c0.012-0.11,0.03-0.219,0.055-0.327l-0.692-0.007L306.333,140H340l3.265,6l50.265,92H339.57L309.318,146z M325.638,238H267v-98h27
		l1.938,6h0.604L325.638,238z M120.486,238.047l1.646-2.736L174.333,138H207l-31.127,101.679l-55.387-1.299l0.176-0.328
		L120.486,238.047z M195.596,235.181L220.333,139H254l-1,99h-58.295L195.596,235.181z M53.667,206.333L99,143.667l0.376,0.013
		c0.001-0.002,0.001-0.004,0.002-0.006l-0.211-0.007l4.5-6.667H160l-4.09,8.634l-53.885,92.139
		C102.024,237.772,38.657,255.122,53.667,206.333z M311,461H209V315h102V461z M418,461h-88v-9.854l-0.52-126.573
		c0,0,3.934-28.572-30.528-28.572h-84.85c0,0-24.692,3.014-22.229,23.936l1.231,131.297l0.085,9.768H93V262h325V461z
		 M440.453,238.955c-11.809,2.147-25.784-1-25.784-1L360.786,146l-5.259-6h48.14l1.895,2.132L404,140h8l43,60.333
		C455,200.333,477.906,238.244,440.453,238.955z"/>
	<path d="M440.454,238.955c0.002,0,0.172-0.027,0.47-0.091C440.768,238.895,440.611,238.926,440.454,238.955z"/>
</g>
</svg>
