<?xml version="1.0" encoding="utf-8"?>
<!-- Generator: Adobe Illustrator 16.0.0, SVG Export Plug-In . SVG Version: 6.00 Build 0)  -->
<!DOCTYPE svg PUBLIC "-//W3C//DTD SVG 1.1//EN" "http://www.w3.org/Graphics/SVG/1.1/DTD/svg11.dtd">
<svg version="1.1" id="Layer_1" xmlns="http://www.w3.org/2000/svg" xmlns:xlink="http://www.w3.org/1999/xlink" x="0px" y="0px"
	 width="150px" height="150px" viewBox="0 0 150 150" enable-background="new 0 0 150 150" xml:space="preserve">
<path d="M114,30v12H34c-8.873,1-8.407,7.928-8.407,7.928l0.021,58.25C25.106,116.301,34,118,34,118h81.462
	C126.883,117,127,105,127,105V41.5C125,27.863,114,30,114,30z M113.686,112.751l-77.658,0.05c0,0-4.028,0.713-5.028-3.603V54
	c0,0,0.157-7,5-7h78v51c0,0,8.822-0.478,8.568,7.391C122.568,105.391,122.569,113.512,113.686,112.751z M123,95.238
	c-3-3.3-5-3.238-5-3.238V35c4,2.198,5,9,5,9V95.238z"/>
<path d="M56,53v14h33V53H56z M84,63H61v-6h23V63z"/>
<path d="M56,73v14h33V73H56z M84,83H61v-6h23V83z"/>
<path d="M56,93v14h33V93H56z M84,103H61v-6h23V103z"/>
<path d="M90,60v3h13c0,0,4,1.142,4,4v7c0,0,0.75,4-2.75,5H95l4-4l-2-2l-7,7l6.625,7l1.909-1.688L95.125,82H104
	c0,0,5.875-0.125,6-6.375V67c0,0,0.625-5.25-5.5-7H90z"/>
<path d="M55,80v3H42.018c0,0-4.018,1.143-4.018,4v7c0,0-0.732,4,2.768,5h9.25l-4-4l2-2l7,7l-6.625,7l-1.909-1.688L49.893,102h-8.875
	c0,0-6.018-0.125-6.018-6.375V87c0,0-0.607-5.25,5.518-7H55z"/>
</svg>
