<?xml version="1.0" encoding="utf-8"?>
<!-- Generator: Adobe Illustrator 16.0.0, SVG Export Plug-In . SVG Version: 6.00 Build 0)  -->
<!DOCTYPE svg PUBLIC "-//W3C//DTD SVG 1.1//EN" "http://www.w3.org/Graphics/SVG/1.1/DTD/svg11.dtd">
<svg version="1.1" id="Layer_1" xmlns="http://www.w3.org/2000/svg" xmlns:xlink="http://www.w3.org/1999/xlink" x="0px" y="0px"
	 width="150px" height="150px" viewBox="0 0 150 150" enable-background="new 0 0 150 150" xml:space="preserve">
<path d="M116,42H30c-4.418,0-8,3.582-8,8v57c0,4.418,3.582,8,8,8h86c4.418,0,8-3.582,8-8V50C124,45.582,120.418,42,116,42z M119,101
	c0,0-0.238,7-5.568,7H36c0,0-8.883,1.706-9-6.416V66h92V101z M119,59H27v-5.5c0.878-6.967,8-5.5,8-5.5h77.67c6.345,0,6.33,4,6.33,4
	V59z"/>
<rect x="33" y="83" width="10" height="6"/>
<rect x="47" y="83" width="10" height="6"/>
<rect x="61" y="83" width="10" height="6"/>
<rect x="75" y="83" width="10" height="6"/>
</svg>
