<?xml version="1.0" encoding="utf-8"?>
<!-- Generator: Adobe Illustrator 16.0.0, SVG Export Plug-In . SVG Version: 6.00 Build 0)  -->
<!DOCTYPE svg PUBLIC "-//W3C//DTD SVG 1.1//EN" "http://www.w3.org/Graphics/SVG/1.1/DTD/svg11.dtd">
<svg version="1.1" id="Layer_1" xmlns="http://www.w3.org/2000/svg" xmlns:xlink="http://www.w3.org/1999/xlink" x="0px" y="0px"
	 width="512px" height="512px" viewBox="0 0 512 512" enable-background="new 0 0 512 512" xml:space="preserve">
<image display="none" overflow="visible" width="471" height="512" xlink:href="89679E39.jpg"  transform="matrix(0.9234 0 0 0.9234 38.0635 19.0542)">
</image>
<path d="M459.309,420.242l-113.88-109.71c0,0,62.489-86.46,2.688-181.446c0,0-61.117-107.421-197.552-59.841
	c0,0-100.899,39.755-96.364,160.163c0,0,2.799,91.59,89.328,132.063c0,0,76.05,36.698,162.823-11.381l109.051,115.056
	c0,0,22.265,12.183,40.045-6.037C455.447,459.109,473.376,436.661,459.309,420.242z M214.457,361.913
	c-80.193,0-145.205-65.012-145.205-145.206c0-80.193,65.011-145.205,145.205-145.205c80.191,0,145.204,65.011,145.204,145.205
	C359.661,296.901,294.648,361.913,214.457,361.913z M444.259,450.843c0,0-18.592,12.82-25.555,0L316.065,341.335l19.748-20.171
	l112.445,105.755C448.259,426.919,456.333,440.996,444.259,450.843z"/>
<path d="M244.255,213.656c25.988-17.903,19.903-51.559,19.903-51.559c-3.465-37.539-48.977-43.992-48.977-43.992
	c-40.182,3.559-53.319,36.475-53.319,36.475c-8.196,42.418,22.091,60.584,22.091,60.584C139.484,241.731,137.794,289,137.794,289
	h155.353C291.992,230,244.255,213.656,244.255,213.656z M175.798,172.234c0-19.137,17.514-37.651,36.651-37.651
	s38.651,14.181,38.651,38.651c0,19.139-18.514,36.651-37.651,36.651C194.312,209.886,175.798,191.374,175.798,172.234z M157.205,275
	c8.596-45.845,57.821-47.581,57.821-47.581C267.868,228.831,275.848,275,275.848,275H157.205z"/>
</svg>
