<?xml version="1.0" encoding="utf-8"?>
<!-- Generator: Adobe Illustrator 16.0.0, SVG Export Plug-In . SVG Version: 6.00 Build 0)  -->
<!DOCTYPE svg PUBLIC "-//W3C//DTD SVG 1.1//EN" "http://www.w3.org/Graphics/SVG/1.1/DTD/svg11.dtd">
<svg version="1.1" id="Layer_1" xmlns="http://www.w3.org/2000/svg" xmlns:xlink="http://www.w3.org/1999/xlink" x="0px" y="0px"
	 width="150px" height="150px" viewBox="0 0 150 150" enable-background="new 0 0 150 150" xml:space="preserve">
<path d="M89.75,46.124l4.375,4.355l6.021-5.074l6.761,5.548l-8.203,10.024L103.5,72H115v10h-12l-5,9.252l8.667,10.208l-5.167,6.771
	l-10.333-8.197l-10,4.483L79.5,118H69v-13l-9.417-5.998l-10.042,9.166l-6.271-6.333l7.698-9.203L48,82H34V72l12.25-1.832l4.625-8.5
	l-8.271-10.833l5.725-6.309l0.489-0.524l10.674,8.5L69.663,49L70,36h9v7l7.417,0.001l-0.709-10.333c0,0,0.063-4.167-4.271-3.667
	L68.386,28.96c0,0-4.386-0.458-4.386,3.875V44l-3.917,1.501l-8.375-7.5c0,0-3.271-2.667-5.938,0.333l-9.302,9
	c0,0-2.318,2.833,0.182,5.667l8.008,8.667l-1.329,2.833l-12.165,0.833c0,0-4.165,0-4.165,3.833V83c0,0,0.5,5,4.167,5H43l1.833,2.585
	L37,99.127c0,0-2.667,1.938-0.333,5.438l10,10.302c0,0,3.333,1.984,5.333-0.016l7.667-7.841l4,1.496l0.667,12.329
	c0,0,0,3.167,4.333,2.833l13.167,0.023c0,0,4.834-0.192,4.167-5.358l-0.167-9.5l4.5-1.666l9.167,8c0,0,1.833,1.166,4.833-1.167
	l8.334-9c0,0,3-2.833,0-5.333l-7.334-8.167l1.5-4.333L118.5,86.5c0,0,3.5,0.499,3.5-2.167V69c0,0,0.083-2.833-3.25-3.167
	L107.875,65.5l-2.271-4l7.197-8.667c0,0,3.183-2.667,0.183-5.667L103.992,38c0,0-2.83-2.667-5.663-0.5L89.75,46.124z"/>
<path d="M84.189,68.299c1.951,2.177,3.143,5.046,3.143,8.201c0,6.812-5.521,12.333-12.333,12.333
	c-6.812,0-12.333-5.521-12.333-12.333c0-6.766,5.45-12.253,12.2-12.326c-0.242-2.038-0.247-4.11-0.074-6.164
	C64.671,58.124,56.5,66.353,56.5,76.5C56.5,86.717,64.782,95,75,95c10.216,0,18.5-8.283,18.5-18.5c0-4.296-1.477-8.234-3.936-11.367
	C87.772,66.188,85.997,67.27,84.189,68.299z"/>
</svg>
