<?xml version="1.0" encoding="utf-8"?>
<!-- Generator: Adobe Illustrator 16.0.0, SVG Export Plug-In . SVG Version: 6.00 Build 0)  -->
<!DOCTYPE svg PUBLIC "-//W3C//DTD SVG 1.1//EN" "http://www.w3.org/Graphics/SVG/1.1/DTD/svg11.dtd">
<svg version="1.1" id="Layer_1" xmlns="http://www.w3.org/2000/svg" xmlns:xlink="http://www.w3.org/1999/xlink" x="0px" y="0px"
	 width="512px" height="512px" viewBox="0 0 512 512" enable-background="new 0 0 512 512" xml:space="preserve">
<image display="none" overflow="visible" width="471" height="512" xlink:href="27AE64FF.jpg"  transform="matrix(0.9234 0 0 0.9234 38.0635 19.0542)">
</image>
<path fill="#FFFFFF" stroke="#000000" stroke-miterlimit="10" d="M38,108"/>
<path d="M323.347,205.935c-1.768,1.042-3.528,2.095-5.292,3.144c-1.593,2.404-3.764,4.402-6.307,5.779
	c9.03,11.537,14.471,25.962,14.471,41.476c0,37.006-30.88,67.886-67.886,67.886s-67.885-30.88-67.885-67.886
	c0-36.324,29.756-66.723,65.85-67.833c-0.073-4.882,0.107-9.775,0.518-14.644c-45.586,0.508-82.391,37.572-82.391,83.277
	c0,46.017,37.304,83.325,83.326,83.325c46.015,0,83.322-37.309,83.322-83.325C341.072,237.784,334.422,220.045,323.347,205.935z"/>
<g>
	<path d="M307.568,450.102c0.007-0.612-0.008-1.245-0.041-1.896L307.568,450.102z"/>
	<path d="M454.583,209.09l-48.87-1.502l-10.172-18.016l32.445-39.035c0,0,14.349-12.01,0.836-25.522l-40.494-41.287
		c0,0-12.744-12.01-25.504-2.252l-38.638,38.841l11.099,10.036l38.465-36.145l44.792,44.097l-38.821,46.942L398,222l57,2l1,63l-61,5
		l-14.702,38.413L419,373.459l-43,44.938l-44.928-38.511l-40.769,17.435L294,454l-68-1l-6-0.24l2,0.979
		c-0.172-0.135-1.302-6.286-1.333-6.476c-0.323-1.943-1.43-51.488-1.493-54.315c-0.873-0.395-1.744-0.792-2.601-1.222
		c-2.451-1.229-4.857-2.586-7.298-3.854c-3.163-1.178-6.218-2.644-9.35-3.883c-0.832-0.225-1.676-0.416-2.536-0.563
		c-0.815-0.14-1.414-0.482-1.832-0.939c-1.038-0.294-2.09-0.546-3.168-0.727c-0.669-0.112-1.181-0.37-1.58-0.705
		c-1.524-0.438-3.055-0.856-4.596-1.246l-0.788,0.783c-3.139,4.31-7.111,7.741-11.183,11.112L143.25,422.5l-2.5-2.5L92,370.5
		l2.5-2.5l41.605-49.01l0.32,0.615c0.004-0.053,0.011-0.104,0.015-0.157l-16.683-22.781l0.592-0.016
		c-5.109,0.055-10.226-0.025-15.362-0.044c-11.328-0.041-22.656,0.444-33.988,0.445c-0.575,0-1.078-0.112-1.509-0.309
		c-0.207-0.008-0.413-0.02-0.613-0.058c-0.708,0.057-1.417,0.103-2.128,0.116c-0.375,0.007-0.707-0.048-1.02-0.129
		c-1.153,0.113-2.311,0.172-3.48,0.129c-0.102-0.004-0.187-0.03-0.283-0.042c-0.573,0.013-1.144,0.037-1.717,0.042
		c-0.196,0.002-0.373-0.026-0.553-0.05c-0.148,0.018-0.287,0.05-0.447,0.05c-0.35,0-0.664-0.054-0.96-0.13L55,297l1-2.559
		c-0.238-0.768-0.238-1.615,0-2.383l-2-71.809l9-1.25l60.112-5.945l12.948-25.586c-0.009-0.144-0.01-0.289-0.013-0.433
		l-43.38-49.704l3-3l41.667-38.667L141,92.332l44.622,39.187l-0.751-0.66l36.047-12.113L223,61v-5h67l5,48.125l-0.428-0.02
		c0.077,0.13,0.159,0.256,0.245,0.381l14.38,1.767l-3.205-46.543c0,0,0.276-18.766-19.239-16.514l-58.893-0.187
		c0,0-19.86-2.063-19.86,17.453v50.289l-17.537,6.763l-37.67-33.781c0,0-14.705-12.01-26.717,1.502l-41.885,40.537
		c0,0-10.434,12.76,0.827,25.522l36.071,39.035l-5.985,12.762l-54.567,3.754c0,0-18.537-0.002-18.537,17.264v62.301
		c0,0,1.806,22.59,18.322,22.59h53.299l8.258,11.607l-35.283,38.457c0,0-12.012,8.718-1.502,24.482l45.041,46.395
		c0,0,15.015,8.937,24.023-0.072l34.53-35.316l18.016,6.738l3.004,55.53c0,0-0.002,14.265,19.516,12.761l59.303,0.105
		c0,0,18.726-0.76,19.036-19.445l-4.563-45.907l3.544-1.571l20.268-7.504l41.289,36.033c0,0,8.256,5.251,21.769-5.257l37.536-40.536
		c0,0,13.513-12.761,0-24.021l-33.032-36.785l6.756-19.516l52.327-3.005c0,0,15.543,2.248,15.543-9.76v-69.062
		C469,223.353,469.596,210.593,454.583,209.09z"/>
</g>
</svg>
