<?xml version="1.0" encoding="utf-8"?>
<!-- Generator: Adobe Illustrator 16.0.0, SVG Export Plug-In . SVG Version: 6.00 Build 0)  -->
<!DOCTYPE svg PUBLIC "-//W3C//DTD SVG 1.1//EN" "http://www.w3.org/Graphics/SVG/1.1/DTD/svg11.dtd">
<svg version="1.1" id="Layer_1" xmlns="http://www.w3.org/2000/svg" xmlns:xlink="http://www.w3.org/1999/xlink" x="0px" y="0px"
	 width="150px" height="150px" viewBox="0 0 150 150" enable-background="new 0 0 150 150" xml:space="preserve">
<rect x="26" y="109" width="96" height="5"/>
<rect x="31" y="77" width="4" height="30"/>
<rect x="40" y="72" width="4" height="35"/>
<rect x="49" y="67" width="4" height="40"/>
<rect x="58" y="62" width="4" height="45"/>
<rect x="67" y="67" width="4" height="40"/>
<rect x="76" y="72" width="4" height="35"/>
<rect x="85" y="67" width="4" height="40"/>
<rect x="94" y="62" width="4" height="45"/>
<rect x="103" y="57" width="4" height="50"/>
<rect x="112" y="53" width="4" height="54"/>
<polygon points="26,66.919 60,46.721 78,56.86 114,37.106 110.894,35.082 114,32.292 122,35.846 119.522,43.969 116,44.223 116,40 
	78,62 60,51.076 28.66,70.619 "/>
</svg>
