<?xml version="1.0" encoding="utf-8"?>
<!-- Generator: Adobe Illustrator 16.0.0, SVG Export Plug-In . SVG Version: 6.00 Build 0)  -->
<!DOCTYPE svg PUBLIC "-//W3C//DTD SVG 1.1//EN" "http://www.w3.org/Graphics/SVG/1.1/DTD/svg11.dtd">
<svg version="1.1" id="Layer_1" xmlns="http://www.w3.org/2000/svg" xmlns:xlink="http://www.w3.org/1999/xlink" x="0px" y="0px"
	 width="512px" height="512px" viewBox="0 0 512 512" enable-background="new 0 0 512 512" xml:space="preserve">
<image display="none" overflow="visible" width="471" height="512" xlink:href="8CFCB283.jpg"  transform="matrix(0.9234 0 0 0.9234 38.0635 19.0542)">
</image>
<path fill="#FFFFFF" stroke="#000000" stroke-miterlimit="10" d="M38,108"/>
<path d="M77,453.31V330.733c0-5.351-5.158-9.689-11.518-9.689c-6.363,0-11.516,4.339-11.516,9.689V453.31
	c0,5.352,5.153,9.69,11.516,9.69C71.842,463,77,458.661,77,453.31z"/>
<path d="M268.018,451.122V300.876c0-6.558-5.158-11.876-11.519-11.876c-6.363,0-11.516,5.318-11.516,11.876v150.246
	c0,6.56,5.153,11.878,11.516,11.878C262.859,463,268.018,457.682,268.018,451.122z"/>
<path d="M171.017,449.211V274.787c0-7.613-5.158-13.787-11.518-13.787c-6.363,0-11.516,6.174-11.516,13.787v174.424
	c0,7.615,5.153,13.789,11.516,13.789C165.859,463,171.017,456.826,171.017,449.211z"/>
<path d="M364.018,447.231V247.767c0-8.707-5.158-15.767-11.519-15.767c-6.362,0-11.517,7.06-11.517,15.767v199.465
	c0,8.708,5.154,15.769,11.517,15.769C358.859,463,364.018,455.939,364.018,447.231z"/>
<path d="M462.018,445.389V222.609c0-9.724-5.158-17.609-11.519-17.609c-6.362,0-11.517,7.885-11.517,17.609v222.779
	c0,9.726,5.154,17.611,11.517,17.611C456.859,463,462.018,455.114,462.018,445.389z"/>
<path d="M67.682,286.224l79.186-93.566c3.457-4.084,2.322-10.729-2.533-14.837c-4.857-4.11-11.593-4.127-15.05-0.043l-79.186,93.565
	c-3.458,4.085-2.327,10.726,2.53,14.837C57.484,290.289,64.224,290.309,67.682,286.224z"/>
<path d="M131.81,196.647l113.322,46.725c4.946,2.04,10.924-1.075,13.349-6.956c2.425-5.882,0.379-12.3-4.569-14.339L140.59,175.352
	c-4.948-2.04-10.923,1.07-13.349,6.953C124.816,188.185,126.862,194.606,131.81,196.647z"/>
<path d="M261.24,237.079L430.401,95.86c7.386-6.165,10.067-15.123,5.99-20.005c-4.076-4.884-13.366-3.842-20.751,2.323
	L246.479,219.396c-7.387,6.166-10.071,15.12-5.994,20.006C244.56,244.284,253.854,243.245,261.24,237.079z"/>
<path d="M424.406,71.123l14.079,62.795c0.614,2.741,6.146,3.835,12.353,2.443c6.208-1.392,10.739-4.742,10.124-7.483l-14.079-62.795
	c-0.615-2.742-6.143-3.837-12.352-2.445C428.325,65.03,423.791,68.381,424.406,71.123z"/>
<path d="M375.041,76.801l63.684,9.263c2.779,0.405,5.777-4.371,6.692-10.667c0.915-6.296-0.597-11.725-3.376-12.128l-63.685-9.263
	c-2.78-0.404-5.776,4.368-6.692,10.665C370.748,70.965,372.261,76.396,375.041,76.801z"/>
</svg>
