<?xml version="1.0" encoding="utf-8"?>
<!-- Generator: Adobe Illustrator 16.0.0, SVG Export Plug-In . SVG Version: 6.00 Build 0)  -->
<!DOCTYPE svg PUBLIC "-//W3C//DTD SVG 1.1//EN" "http://www.w3.org/Graphics/SVG/1.1/DTD/svg11.dtd">
<svg version="1.1" id="Layer_1" xmlns="http://www.w3.org/2000/svg" xmlns:xlink="http://www.w3.org/1999/xlink" x="0px" y="0px"
	 width="150px" height="150px" viewBox="0 0 150 150" enable-background="new 0 0 150 150" xml:space="preserve">
<path d="M135,89.504l-12-9.833c1-2.666,0.333-11,0.333-11l12.941-8.5c2.941-2,1.059-6.333,1.059-6.333l-12.666-22
	C122.334,28.671,118,30.17,118,30.17l-14.167,5.833c-2.834-2.667-9.5-5.333-9.5-5.333l-2.166-13.333C91.334,12.004,87,13,87,13
	H62.167C57.5,13,57.5,17.252,57.5,17.252l-2,13.249c-1.532,0.047-9.167,5.5-9.167,5.5L33,30.002c-6-1.833-8,2.502-8,2.502
	L13.5,52.677c-2.667,4.667,0.749,7.677,0.749,7.677L27,69.707c-0.833,3.333,0,11.041,0,11.041l-12.751,9.249
	c-3.418,2.167-1.082,7.833-1.082,7.833l12,19.5c2.167,4,6.833,2.5,6.833,2.5l14.167-5.834c3.667,2.666,9,5.5,9,5.5l2.333,16.5
	c0.333,3.833,4.833,4.838,4.833,4.838l25-0.004c3.833,0.167,5.334-5.5,5.334-5.5l1.5-14.998c3.667-1.334,9.666-6.497,9.666-6.497
	L117,119.668c5,2.167,7.667-1.666,7.667-1.666L137,96.669C138.5,92.502,135,89.504,135,89.504z M133.375,97l-10.625,18.375
	c0,0-2,3.125-4.75,1.5l-15-6.75c0,0-6.375,6.563-11.875,7.219l-1.5,17.281c0,0,0,3.375-3.5,3.375H64c0,0-3.125,0-3.75-4.5
	l-1.875-16.125c0,0-9-5.25-11.375-7.125l-16,6.25c0,0-1.125,1.5-4.125-3.125L16.75,96.125c0,0-2.125-2.75,0.75-4.625l13.25-9.875
	c0,0-2-10.125-0.563-13.5l-12.469-9.5c0,0-2.234-1.375-1.609-3.5l11.883-21.25c0,0,1.254-2.75,5.879,0L46.998,39.5
	c0,0,8.376-6.444,11.376-6.847L60.5,18.375c0,0-0.125-2.625,4-2.375s23.125-0.017,23.125-0.017s1.75-0.733,2.125,3.392l2,13.5
	c0,0,7.25,2.75,12,6.75l14.625-6.375c0,0,3.25-1.125,5,2.5l11,19.25c0,0,1.375,2.375-1.125,3.375L120,67.25c0,0,1.25,8.875-0.25,14
	l13.125,10.625C132.875,91.875,135.5,93.875,133.375,97z"/>
<path d="M74.25,52c-12.979,0-23.5,10.521-23.5,23.5S61.271,99,74.25,99s23.5-10.521,23.5-23.5S87.229,52,74.25,52z M74.25,96.25
	c-11.46,0-20.75-9.29-20.75-20.75s9.29-20.75,20.75-20.75S95,64.04,95,75.5S85.71,96.25,74.25,96.25z"/>
</svg>
