<?xml version="1.0" encoding="utf-8"?>
<!-- Generator: Adobe Illustrator 16.0.0, SVG Export Plug-In . SVG Version: 6.00 Build 0)  -->
<!DOCTYPE svg PUBLIC "-//W3C//DTD SVG 1.1//EN" "http://www.w3.org/Graphics/SVG/1.1/DTD/svg11.dtd">
<svg version="1.1" id="Layer_1" xmlns="http://www.w3.org/2000/svg" xmlns:xlink="http://www.w3.org/1999/xlink" x="0px" y="0px"
	 width="150px" height="150px" viewBox="0 0 150 150" enable-background="new 0 0 150 150" xml:space="preserve">
<path d="M124.255,53.36c4.822-5.837-1.436-8.629-1.436-8.629L98.96,34.072c-5.837-3.299-7.874,2.221-7.874,2.221l-9.655,14.531
	l-22.357,2.539l-2.326-5.327L32.804,36.368c-7.614-0.762-6.008,5.596-6.008,5.596L34,59v41.822c0,5.33,3.231,6.346,3.231,6.346
	l25.821,16.751l46.321-5.584C114.196,117.065,113,113,113,113V69.097L124.255,53.36z M52.264,53.36l5.837,14.975l-16.244-10.66
	l-4.315-10.914L52.264,53.36z M59,114l-18-11.655V63.629L59,75V114z M88,57l15.533,10.828L88,70V57z M60.919,57.746L83,54.883V70
	l-16.523,1.634L60.919,57.746z M107,112l-40,4.305V76.589l40-4.701V112z M108.355,65.036L89.827,52.853l6.346-11.675l21.319,9.137
	L108.355,65.036z"/>
</svg>
