<?xml version="1.0" encoding="utf-8"?>
<!-- Generator: Adobe Illustrator 16.0.0, SVG Export Plug-In . SVG Version: 6.00 Build 0)  -->
<!DOCTYPE svg PUBLIC "-//W3C//DTD SVG 1.1//EN" "http://www.w3.org/Graphics/SVG/1.1/DTD/svg11.dtd">
<svg version="1.1" id="Layer_1" xmlns="http://www.w3.org/2000/svg" xmlns:xlink="http://www.w3.org/1999/xlink" x="0px" y="0px"
	 width="512px" height="512px" viewBox="0 0 512 512" enable-background="new 0 0 512 512" xml:space="preserve">
<image display="none" overflow="visible" width="508" height="508" xlink:href="EBBE74B0.jpg"  transform="matrix(0.9628 0 0 0.9628 11.3989 11.3989)">
</image>
<polygon fill="#3F3F3F" points="11.616,256.021 94,289.218 94,231 "/>
<polygon fill="#3F3F3F" points="85.957,81.391 119.87,161.391 161.609,121.391 "/>
<polygon fill="#3F3F3F" points="259.826,11.703 225.957,93 283,93 "/>
<polygon fill="#3F3F3F" points="427.695,84.87 352.913,121.391 393.782,161.391 "/>
<polygon fill="#3F3F3F" points="500.521,255.891 419,231 419,289 "/>
<polygon fill="#3F3F3F" points="427.695,424.869 390.305,350.956 352.913,390.956 "/>
<polygon fill="#3F3F3F" points="286,418 256,500.608 225.957,418 "/>
<polygon fill="#3F3F3F" points="161.609,394.565 123.783,350.956 85.957,427.479 "/>
<circle fill="#3F3F3F" cx="255.696" cy="260.305" r="125.826"/>
</svg>
