<?xml version="1.0" encoding="utf-8"?>
<!-- Generator: Adobe Illustrator 16.0.0, SVG Export Plug-In . SVG Version: 6.00 Build 0)  -->
<!DOCTYPE svg PUBLIC "-//W3C//DTD SVG 1.1//EN" "http://www.w3.org/Graphics/SVG/1.1/DTD/svg11.dtd">
<svg version="1.1" id="Layer_1" xmlns="http://www.w3.org/2000/svg" xmlns:xlink="http://www.w3.org/1999/xlink" x="0px" y="0px"
	 width="150px" height="150px" viewBox="0 0 150 150" enable-background="new 0 0 150 150" xml:space="preserve">
<path d="M100,69.776C100,71.142,98.733,72,97.172,72H55.828C54.266,72,53,71.142,53,69.776v-0.302C53,68.108,54.266,67,55.828,67
	h41.344c1.562,0,2.828,1.108,2.828,2.474V69.776z"/>
<path d="M81,93.775C81,95.143,80.631,96,79.688,96H54.708C53.765,96,53,95.143,53,93.775v-0.301C53,92.107,53.765,91,54.708,91
	h24.979C80.631,91,81,92.107,81,93.475V93.775z"/>
<path d="M120,55V39.909c0-6.853-7-6.909-7-6.909H41c-7.457,0-8,8-8,8v69.467c0,7.36,8,8.533,8,8.533h72.178c5.838,0,6.822-7,6.822-7
	V75l4.969-6.411C132.074,58.69,120,55,120,55z M38,39.909C38.203,37.371,43,37,43,37h67.386c3.807,0,4.614,4,4.614,4v7H38V39.909z
	 M115,110c0,0-0.807,4-3.599,4H42c0,0-3.797,0.021-4-4.548V53h77v4L93.381,79H56c0,0-2.975-0.303-3.482,2.744
	c0,0-0.254,3.256,3.807,3.256H90l-2.203,6.686c0,0-0.761,3.552,3.3,3.299l10.152-1.776L115,78.995V110z M99.375,89.25l-6.25,0.875
	l1.25-5.625L111.5,67l5.25,5L99.375,89.25z M123.25,65.25l-3.875,3.25l-4.875-4.375l2.875-3.375c2.625-2.625,5,0.625,5,0.625
	C124.375,63.5,123.25,65.25,123.25,65.25z"/>
<circle cx="43.75" cy="42.625" r="2.25"/>
<circle cx="51.75" cy="42.625" r="2.25"/>
<circle cx="59.75" cy="42.625" r="2.25"/>
</svg>
