<?xml version="1.0" encoding="utf-8"?>
<!-- Generator: Adobe Illustrator 16.0.0, SVG Export Plug-In . SVG Version: 6.00 Build 0)  -->
<!DOCTYPE svg PUBLIC "-//W3C//DTD SVG 1.1//EN" "http://www.w3.org/Graphics/SVG/1.1/DTD/svg11.dtd">
<svg version="1.1" id="Layer_1" xmlns="http://www.w3.org/2000/svg" xmlns:xlink="http://www.w3.org/1999/xlink" x="0px" y="0px"
	 width="512px" height="512px" viewBox="0 0 512 512" enable-background="new 0 0 512 512" xml:space="preserve">
<image display="none" overflow="visible" width="471" height="512" xlink:href="574BA833.jpg"  transform="matrix(0.9234 0 0 0.9234 38.0635 19.0542)">
</image>
<path d="M356,230.422c0,5.328-5.966,8.578-13.337,8.578H147.481c-7.374,0-13.481-3.25-13.481-8.578v-1.176
	c0-5.329,6.107-9.246,13.481-9.246h195.182c7.371,0,13.337,3.917,13.337,9.246V230.422z"/>
<path d="M266,343.463c0,4.39-1.426,7.537-5.88,7.537H142.196c-4.456,0-8.196-3.147-8.196-7.537v-0.965
	c0-4.39,3.74-8.498,8.196-8.498H260.12c4.454,0,5.88,4.108,5.88,8.498V343.463z"/>
<path d="M449,160.86V89.615C449,57.265,417.386,57,417.386,57H77.479C42.275,57,42,94.767,42,94.767v327.949
	C42,457.463,77.479,462,77.479,462h340.746C445.785,462,450,428.953,450,428.953l-1-173.674l24.457-30.267
	C507.001,178.283,449,160.86,449,160.86z M59,89.615C60.333,71.667,83.92,71,83.92,71h324.124C433,69.667,433,94.767,433,94.767V127
	H59V89.615z M434,420.512c0,0-2.333,21.822-24.161,23.488H82.2c0,0-22.2-4.504-24.2-26.075V147h375v21.303L322.766,279l-174.473-1
	c0,0-14.293-0.5-13.44,8.293c0,0-0.853,10.041,14.974,8.707l161.979,1l-13.401,37.807c0,0-3.591,16.889,15.579,15.695l48.014-8.325
	L434,274.14V420.512z M356.063,327.552l-40.505,6.132l13.901-39.556l81.846-82.616l29.785,29.604L356.063,327.552z M467.775,209.25
	l-17.294,22.343l-30.015-27.654l15.573-17.933c16.96-17.006,27.604,0.95,27.604,0.95C476.333,195.333,467.775,209.25,467.775,209.25
	z"/>
<circle cx="90.461" cy="102.439" r="10.622"/>
<circle cx="128.229" cy="102.439" r="10.622"/>
<circle cx="165.996" cy="102.439" r="10.622"/>
</svg>
