<?xml version="1.0" encoding="utf-8"?>
<!-- Generator: Adobe Illustrator 16.0.0, SVG Export Plug-In . SVG Version: 6.00 Build 0)  -->
<!DOCTYPE svg PUBLIC "-//W3C//DTD SVG 1.1//EN" "http://www.w3.org/Graphics/SVG/1.1/DTD/svg11.dtd">
<svg version="1.1" id="Layer_1" xmlns="http://www.w3.org/2000/svg" xmlns:xlink="http://www.w3.org/1999/xlink" x="0px" y="0px"
	 width="512px" height="512px" viewBox="0 0 512 512" enable-background="new 0 0 512 512" xml:space="preserve">
<image display="none" overflow="visible" width="471" height="512" xlink:href="7ADEFF4C.jpg"  transform="matrix(0.9234 0 0 0.9234 38.0635 19.0542)">
</image>
<path d="M423.975,55.092L91.977,54.765c0,0-24.977,1.557-29.977,31.066V404.71c0,0,7.841,27.29,33.663,27.29h122.737
	c0,0,12.601,0.248,12.378-10c0,0-0.444-10.999-12.378-9H106.975c0,0-31.308-0.666-26.459-37.362
	c0.093-0.703,0.181-1.368,0.266-2.015v-2.835c-0.161,1.093-0.266,1.813-0.266,1.813L80.968,154H444v76.306
	c0,0,7.333,16.843,20,0.615V80.126C464,80.126,455.945,51.404,423.975,55.092z M446,133H80V94.66c0,0,1-23.66,23.041-22.66h318.828
	c0,0,22.131,2.334,24.131,19.209V133z"/>
<rect x="316" y="95" width="24" height="24"/>
<rect x="354" y="95" width="24" height="24"/>
<rect x="392" y="95" width="25" height="24"/>
<path d="M453.358,261.797c0,0-20.337-25.837-55.058-8.881L252,395.021V458h58.445l146.714-148.387
	C457.159,309.613,473.667,284.333,453.358,261.797z M436.333,308.333L306.333,438H271v-34l130.667-131c0,0,20.666-18,36.666,0
	C438.333,273,455,292.333,436.333,308.333z"/>
</svg>
