<?xml version="1.0" encoding="utf-8"?>
<!-- Generator: Adobe Illustrator 16.0.0, SVG Export Plug-In . SVG Version: 6.00 Build 0)  -->
<!DOCTYPE svg PUBLIC "-//W3C//DTD SVG 1.1//EN" "http://www.w3.org/Graphics/SVG/1.1/DTD/svg11.dtd">
<svg version="1.1" id="Layer_1" xmlns="http://www.w3.org/2000/svg" xmlns:xlink="http://www.w3.org/1999/xlink" x="0px" y="0px"
	 width="512px" height="512px" viewBox="0 0 512 512" enable-background="new 0 0 512 512" xml:space="preserve">
<image display="none" overflow="visible" width="512" height="511" xlink:href="A28B623E.jpg"  transform="matrix(0.9597 0 0 0.9597 10.7588 10.1187)">
</image>
<path fill="#696969" d="M50,10h206c0,0,20,2.696,21,16.609V56c0,0-1.381,18-20.56,19H77l0.261,359H435V256c0,0,1.391-22,18.782-22
	H483c0,0,19-3.012,19,21.32V461c0,0,0.479,28-33.435,40H50c0,0-34-3.087-39-32.652V42C11,42,27.087,9.043,50,10z"/>
<path fill="#696969" d="M221.826,242.217L386.826,78H333c0,0-18.348-4.435-21.826-18.348l-0.869-29.565
	c0,0,2.608-20.247,20.869-20.107l132.174,0.139c0,0,28.652,2.577,38.652,33.881v139c0,0-6.479,14.043-16.913,18.391l-33.739-1.739
	c0,0-15.348-2.609-16.348-17.392V126L267.695,291.826c0,0-29.565,13.044-40.869,0C226.826,291.826,196.241,267.68,221.826,242.217z"
	/>
</svg>
