<svg id="Layer_1" data-name="Layer 1" xmlns="http://www.w3.org/2000/svg" viewBox="0 0 160 40.13"><defs><style>.cls-1{fill:none;}.cls-2,.cls-4{fill:#e0dede;}.cls-3{fill:#231f20;}.cls-4{font-size:20.42px;font-family:MyriadPro-Semibold, Myriad Pro;font-weight:600;}.cls-5{letter-spacing:0.01em;}.cls-6{letter-spacing:-0.01em;}.cls-7{letter-spacing:-0.01em;}.cls-8{letter-spacing:0em;}</style></defs><title>1</title><rect class="cls-1" width="160" height="40.13"/><line class="cls-2" x1="1.45" y1="32.95" x2="158.55" y2="32.95"/><rect class="cls-1" x="1.45" y="29.2" width="6.83" height="7.5"/><rect class="cls-3" x="6.51" y="32.68" width="1.27" height="0.75"/><rect class="cls-3" x="4.24" y="32.68" width="1.27" height="0.75"/><rect class="cls-3" x="1.97" y="32.68" width="1.27" height="0.75"/><rect class="cls-1" x="8.28" y="29.2" width="6.83" height="7.5"/><rect class="cls-3" x="13.34" y="32.68" width="1.27" height="0.75"/><rect class="cls-3" x="11.07" y="32.68" width="1.27" height="0.75"/><rect class="cls-3" x="8.8" y="32.68" width="1.27" height="0.75"/><rect class="cls-1" x="15.11" y="29.2" width="6.83" height="7.5"/><rect class="cls-3" x="20.17" y="32.68" width="1.27" height="0.75"/><rect class="cls-3" x="17.9" y="32.68" width="1.27" height="0.75"/><rect class="cls-3" x="15.63" y="32.68" width="1.27" height="0.75"/><rect class="cls-1" x="21.94" y="29.2" width="6.83" height="7.5"/><rect class="cls-3" x="27" y="32.68" width="1.27" height="0.75"/><rect class="cls-3" x="24.73" y="32.68" width="1.27" height="0.75"/><rect class="cls-3" x="22.46" y="32.68" width="1.27" height="0.75"/><rect class="cls-1" x="28.77" y="29.2" width="6.83" height="7.5"/><rect class="cls-3" x="33.83" y="32.68" width="1.27" height="0.75"/><rect class="cls-3" x="31.56" y="32.68" width="1.27" height="0.75"/><rect class="cls-3" x="29.29" y="32.68" width="1.27" height="0.75"/><rect class="cls-1" x="35.6" y="29.2" width="6.83" height="7.5"/><rect class="cls-3" x="40.66" y="32.68" width="1.27" height="0.75"/><rect class="cls-3" x="38.39" y="32.68" width="1.27" height="0.75"/><rect class="cls-3" x="36.12" y="32.68" width="1.27" height="0.75"/><rect class="cls-1" x="42.43" y="29.2" width="6.83" height="7.5"/><rect class="cls-3" x="47.49" y="32.68" width="1.27" height="0.75"/><rect class="cls-3" x="45.22" y="32.68" width="1.27" height="0.75"/><rect class="cls-3" x="42.95" y="32.68" width="1.27" height="0.75"/><rect class="cls-1" x="49.26" y="29.2" width="6.83" height="7.5"/><rect class="cls-3" x="54.32" y="32.68" width="1.27" height="0.75"/><rect class="cls-3" x="52.05" y="32.68" width="1.27" height="0.75"/><rect class="cls-3" x="49.78" y="32.68" width="1.27" height="0.75"/><rect class="cls-1" x="56.09" y="29.2" width="6.83" height="7.5"/><rect class="cls-3" x="61.15" y="32.68" width="1.27" height="0.75"/><rect class="cls-3" x="58.88" y="32.68" width="1.27" height="0.75"/><rect class="cls-3" x="56.61" y="32.68" width="1.27" height="0.75"/><rect class="cls-1" x="62.92" y="29.2" width="6.83" height="7.5"/><rect class="cls-3" x="67.98" y="32.68" width="1.27" height="0.75"/><rect class="cls-3" x="65.71" y="32.68" width="1.27" height="0.75"/><rect class="cls-3" x="63.44" y="32.68" width="1.27" height="0.75"/><rect class="cls-1" x="69.75" y="29.2" width="6.83" height="7.5"/><rect class="cls-3" x="74.81" y="32.68" width="1.27" height="0.75"/><rect class="cls-3" x="72.54" y="32.68" width="1.27" height="0.75"/><rect class="cls-3" x="70.27" y="32.68" width="1.27" height="0.75"/><rect class="cls-1" x="76.58" y="29.2" width="6.83" height="7.5"/><rect class="cls-3" x="81.64" y="32.68" width="1.27" height="0.75"/><rect class="cls-3" x="79.37" y="32.68" width="1.27" height="0.75"/><rect class="cls-3" x="77.1" y="32.68" width="1.27" height="0.75"/><rect class="cls-1" x="83.42" y="29.2" width="6.83" height="7.5"/><rect class="cls-3" x="88.47" y="32.68" width="1.27" height="0.75"/><rect class="cls-3" x="86.2" y="32.68" width="1.27" height="0.75"/><rect class="cls-3" x="83.93" y="32.68" width="1.27" height="0.75"/><rect class="cls-1" x="90.25" y="29.2" width="6.83" height="7.5"/><rect class="cls-3" x="95.3" y="32.68" width="1.27" height="0.75"/><rect class="cls-3" x="93.03" y="32.68" width="1.27" height="0.75"/><rect class="cls-3" x="90.76" y="32.68" width="1.27" height="0.75"/><rect class="cls-1" x="97.08" y="29.2" width="6.83" height="7.5"/><rect class="cls-3" x="102.13" y="32.68" width="1.27" height="0.75"/><rect class="cls-3" x="99.86" y="32.68" width="1.27" height="0.75"/><rect class="cls-3" x="97.59" y="32.68" width="1.27" height="0.75"/><rect class="cls-1" x="103.91" y="29.2" width="6.83" height="7.5"/><rect class="cls-3" x="108.96" y="32.68" width="1.27" height="0.75"/><rect class="cls-3" x="106.69" y="32.68" width="1.27" height="0.75"/><rect class="cls-3" x="104.42" y="32.68" width="1.27" height="0.75"/><rect class="cls-1" x="110.74" y="29.2" width="6.83" height="7.5"/><rect class="cls-3" x="115.79" y="32.68" width="1.27" height="0.75"/><rect class="cls-3" x="113.52" y="32.68" width="1.27" height="0.75"/><rect class="cls-3" x="111.25" y="32.68" width="1.27" height="0.75"/><rect class="cls-1" x="117.57" y="29.2" width="6.83" height="7.5"/><rect class="cls-3" x="122.62" y="32.68" width="1.27" height="0.75"/><rect class="cls-3" x="120.35" y="32.68" width="1.27" height="0.75"/><rect class="cls-3" x="118.08" y="32.68" width="1.27" height="0.75"/><rect class="cls-1" x="124.4" y="29.2" width="6.83" height="7.5"/><rect class="cls-3" x="129.45" y="32.68" width="1.27" height="0.75"/><rect class="cls-3" x="127.18" y="32.68" width="1.27" height="0.75"/><rect class="cls-3" x="124.91" y="32.68" width="1.27" height="0.75"/><rect class="cls-1" x="131.23" y="29.2" width="6.83" height="7.5"/><rect class="cls-3" x="136.28" y="32.68" width="1.27" height="0.75"/><rect class="cls-3" x="134.01" y="32.68" width="1.27" height="0.75"/><rect class="cls-3" x="131.74" y="32.68" width="1.27" height="0.75"/><rect class="cls-1" x="138.06" y="29.2" width="6.83" height="7.5"/><rect class="cls-3" x="143.11" y="32.68" width="1.27" height="0.75"/><rect class="cls-3" x="140.84" y="32.68" width="1.27" height="0.75"/><rect class="cls-3" x="138.57" y="32.68" width="1.27" height="0.75"/><rect class="cls-1" x="144.89" y="29.2" width="6.83" height="7.5"/><rect class="cls-3" x="149.94" y="32.68" width="1.27" height="0.75"/><rect class="cls-3" x="147.67" y="32.68" width="1.27" height="0.75"/><rect class="cls-3" x="145.4" y="32.68" width="1.27" height="0.75"/><rect class="cls-1" x="151.72" y="29.2" width="6.83" height="7.5"/><rect class="cls-3" x="156.77" y="32.68" width="1.27" height="0.75"/><rect class="cls-3" x="154.5" y="32.68" width="1.27" height="0.75"/><rect class="cls-3" x="152.23" y="32.68" width="1.27" height="0.75"/><text class="cls-4" transform="translate(2.92 23.31)"><tspan class="cls-5">S</tspan><tspan x="10.72" y="0">epa</tspan><tspan class="cls-6" x="43.58" y="0">r</tspan><tspan class="cls-7" x="50.67" y="0">at</tspan><tspan class="cls-8" x="67.97" y="0">or</tspan></text></svg>