<svg id="Layer_1" data-name="Layer 1" xmlns="http://www.w3.org/2000/svg" viewBox="0 0 160 40.13"><defs><style>.cls-1{fill:none;}.cls-2{font-size:20.42px;font-family:MyriadPro-Semibold, Myriad Pro;font-weight:600;}.cls-2,.cls-7{fill:#e0dede;}.cls-3{letter-spacing:0.01em;}.cls-4{letter-spacing:-0.01em;}.cls-5{letter-spacing:-0.01em;}.cls-6{letter-spacing:0em;}</style></defs><title>5</title><rect class="cls-1" width="160" height="40.13"/><text class="cls-2" transform="translate(4.75 22.96)"><tspan class="cls-3">S</tspan><tspan x="10.72" y="0">epa</tspan><tspan class="cls-4" x="43.58" y="0">r</tspan><tspan class="cls-5" x="50.67" y="0">at</tspan><tspan class="cls-6" x="67.97" y="0">or</tspan></text><path class="cls-7" d="M8.2,32.29a2,2,0,0,1-1.29-.83c-.45-.51-.73-1.18-1.5-1.4-.27-.07-.14-.48-.08-.71s.29-.09.44-.05a2.36,2.36,0,0,1,1.3.93c.21.27.4.56.62.81a1.12,1.12,0,0,0,1.85,0c.27-.3.49-.63.74-.94a2,2,0,0,1,3.29-.05,4.83,4.83,0,0,1,.86,1.24.57.57,0,0,0,.5.21,1.42,1.42,0,0,0,1.45-.68c.18-.24.35-.49.55-.72a2,2,0,0,1,3.34,0c.25.31.47.64.74.93a1.12,1.12,0,0,0,1.85,0c.27-.31.5-.67.77-1a2,2,0,0,1,3.22,0c.28.31.5.67.78,1a1.13,1.13,0,0,0,1.88,0c.27-.31.51-.65.77-1a2,2,0,0,1,3.18,0c.16.18.31.38.46.57.65.83.87,1.25,2.15.69.45.19.34.51.2.84a.77.77,0,0,1-.7.32,1,1,0,0,0-.63,0,1.66,1.66,0,0,1-1.43-.75c-.27-.28-.49-.62-.75-.91a1,1,0,0,0-1.69-.07c-.28.28-.48.63-.74.93a1.82,1.82,0,0,1-1.58.81,1.09,1.09,0,0,0-.62,0,1.79,1.79,0,0,1-1.34-.84,5.59,5.59,0,0,0-1.49-1.42c0-.13,0-.11-.14-.12s0,.1-.05.12a4.79,4.79,0,0,0-1.26,1.24c-.41.5-.82,1-1.58,1a1.19,1.19,0,0,0-.7,0,2.11,2.11,0,0,1-1.79-1.46,1.58,1.58,0,0,0-1.18-.88.6.6,0,0,1,.08-.08h-.2s.05.05.06.08a1.78,1.78,0,0,0-1.18.89c-1.16,1.88-3,1.9-4.2,0-.75-1.17-1.57-1.2-2.43,0a4.81,4.81,0,0,1-.79.95,1.61,1.61,0,0,1-1.17.46A.67.67,0,0,0,8.2,32.29Zm48.2-.86c-.1-.21.1-.38.06-.57a.22.22,0,0,0-.08-.13l-.19.2a1.18,1.18,0,0,1-2.07,0c-.19-.23-.37-.48-.56-.71a2,2,0,0,0-3.44,0c-.21.26-.4.54-.62.8a1.17,1.17,0,0,1-2,0c-.29-.35-.54-.74-.85-1.06a1.94,1.94,0,0,0-2.91,0,11.13,11.13,0,0,0-.75.92c-.73.94-1.46,1-2.27,0-.28-.15-.22.2-.36.24s-.11.3-.09.46a1.65,1.65,0,0,0,1.26.76,1,1,0,0,1,.68,0,2.13,2.13,0,0,0,1.55-1.08c.36-.48.68-1,1.32-1.16,0,0-.07,0-.07-.08s.19-.05.25,0,0,0,0,0c.71.11,1,.69,1.41,1.19a2.19,2.19,0,0,0,1.46,1,.65.65,0,0,1,.56,0,1.69,1.69,0,0,0,1.4-.71c.33-.37.6-.77.93-1.13a1.09,1.09,0,0,1,1.65,0c.3.31.53.68.81,1a1.89,1.89,0,0,0,1.45.85.68.68,0,0,1,.56,0c.43.06.68-.23.93-.51A.36.36,0,0,0,56.4,31.43ZM73,31a5.1,5.1,0,0,0,.8.93,1.93,1.93,0,0,0,2.68-.11.56.56,0,0,0-.21-.33,2.35,2.35,0,0,0-.43-.19,1.19,1.19,0,0,1-1.8-.37c-.26-.32-.5-.67-.78-1a2,2,0,0,0-3,0c-.27.28-.49.62-.74.92-.73.9-1.46.9-2.18,0a3.25,3.25,0,0,0-1.12-1.15,3.71,3.71,0,0,0-.81.21.18.18,0,0,0,0,.24c.6.2.85.77,1.22,1.2a2.15,2.15,0,0,0,1.39,1,.64.64,0,0,1,.57,0,1.13,1.13,0,0,0,.65-.12c.56-.24.86-.76,1.26-1.17C71.37,29.78,72.14,29.76,73,31Zm-16.75.45.13.39c.4-.1.56-.45.78-.75a2.24,2.24,0,0,1,1.17-1c.1-.12.21-.12.26,0a2.21,2.21,0,0,1,1.21,1,2.39,2.39,0,0,0,1.66,1.22,1,1,0,0,1,.68,0,2.15,2.15,0,0,0,1.55-1.09A2.52,2.52,0,0,1,65,30.06c0-.16.13-.06.19-.11a1.67,1.67,0,0,1,.55-.08c.32,0,.34-.15.25-.39a1.85,1.85,0,0,0-2.31.38c-.34.35-.61.77-.92,1.14a1.16,1.16,0,0,1-1.93,0c-.27-.31-.49-.66-.76-1a2,2,0,0,0-2.68-.47,3.44,3.44,0,0,0-1,1.17v.1C56.59,31.07,56.17,31.18,56.27,31.4ZM38.43,30c.09-.06.17-.1.26,0l0,.12a2.19,2.19,0,0,1,1.15.9c.08.05.14,0,.19-.06s0-.25.22-.13a.31.31,0,0,0,.18-.39c-.82-1.22-2.09-1.52-3.1-.69a5.18,5.18,0,0,0-1.23,1.56.79.79,0,0,1,.13.82A3.22,3.22,0,0,0,37.28,31a1.94,1.94,0,0,1,1.21-.92A.39.39,0,0,0,38.43,30ZM77,31.23A2.6,2.6,0,0,1,78.36,30c-.09-.23.06-.46,0-.68s-.32-.08-.49,0a3.07,3.07,0,0,0-1.65,1.52.28.28,0,0,1,0,.13c0,.15-.13.26-.13.42a.18.18,0,0,0,.06.13l.28.25A5.08,5.08,0,0,0,77,31.23ZM40.32,31l.08,0c.2.07.12-.27.32-.22a.94.94,0,0,0-.32-.46l-.23.34C40.1,30.89,40.21,31,40.32,31Zm25.13-1.11c.28,0,.62.13.8-.24,0-.12-.09-.21-.23-.21,0,.24-.14.39-.44.34a.47.47,0,0,0-.47.11A.25.25,0,0,0,65.45,29.93Zm12.94-.57c-.23.12-.08.38-.21.57s.12.06.18.11A.77.77,0,0,0,78.39,29.36Zm-2.53,1.89a.37.37,0,0,0,.36.27V31.4c-.13-.21.33-.32.1-.55h-.07Zm-61.43,0c.11.2.16.55.5.21C14.78,31.4,14.64,31.26,14.43,31.29Zm4.14-1.22h0l.14-.07a.25.25,0,0,0-.34,0l.14.07Zm-9.8,2.25a.4.4,0,0,0-.57,0A1,1,0,0,0,8.77,32.32ZM25.41,30A.38.38,0,0,0,25,30l.14.06h.17S25.46,30,25.41,30ZM21.58,32.3a1,1,0,0,0,.67,0A.53.53,0,0,0,21.58,32.3Zm12.59-.81c-.08,0-.11,0-.08.08a1,1,0,0,0,.15.14l.13-.1A2.12,2.12,0,0,0,34.17,31.49Zm.78.82a.75.75,0,0,0,.57,0A.4.4,0,0,0,35,32.31Zm-6.8,0a.93.93,0,0,0,.57,0A.4.4,0,0,0,28.15,32.29Zm11.67-1.22.45.47c.33-.08.12-.31.13-.48h0c-.21.05-.22-.32-.46-.22l-.13.12A.37.37,0,0,1,39.82,31.07ZM65,30l.07.08c.14,0,.26.14.42.08v-.21h-.34Zm-6.35.09s.12,0,.14-.07-.07-.08-.09-.06-.31-.15-.31.13Zm3.55,2.23a.53.53,0,0,0-.68,0A1.21,1.21,0,0,0,62.16,32.3ZM45.24,30.06s.17-.07.13-.09-.3-.1-.43,0l.14.06Zm-3,2.24a.54.54,0,0,0-.68,0A1.06,1.06,0,0,0,42.21,32.3Zm13.26,0a.39.39,0,0,0-.56,0A.73.73,0,0,0,55.47,32.3Zm-6.8,0a.38.38,0,0,0-.56,0A.89.89,0,0,0,48.67,32.32Zm20,0a.39.39,0,0,0-.57,0A1,1,0,0,0,68.63,32.32ZM56.27,31.4c.06-.18.38-.32.11-.57C56.47,31.05,56,31.16,56.27,31.4ZM38.66,30.06l.15-.13a.58.58,0,0,0-.57,0l.25.13Zm26.07-.43c-.18,0-.11.1-.12.17s.07.11.14.08l.2-.12A1.51,1.51,0,0,0,64.73,29.63ZM57.42,30c0-.05.07-.17-.06-.13s-.08.18,0,.35A2.27,2.27,0,0,0,57.42,30ZM39,29.79c-.24,0-.54-.24-.71.14h.57Zm1.22.93c-.13,0-.24-.08-.23.12.19,0,.19.39.46.22Zm-2.76-.55s0-.09.05-.14.1-.2-.08-.13,0,.16-.05.24Zm38.91.68c.11.21-.35.32-.1.55C76.27,31.22,76.62,31.09,76.32,30.85Zm4.94,1.52A2,2,0,0,1,80,31.53c-.46-.51-.74-1.18-1.5-1.39-.27-.08-.14-.48-.09-.71s.29-.09.44-.06a2.39,2.39,0,0,1,1.31.94,10,10,0,0,0,.62.8,1.12,1.12,0,0,0,1.85,0c.26-.29.49-.62.73-.93a2,2,0,0,1,3.29-.05,4.65,4.65,0,0,1,.87,1.23.57.57,0,0,0,.5.21,1.43,1.43,0,0,0,1.45-.67c.17-.25.35-.5.54-.73a2,2,0,0,1,3.34,0c.25.3.48.63.74.93a1.12,1.12,0,0,0,1.85,0c.28-.31.5-.66.77-1a2,2,0,0,1,3.23,0c.27.31.5.66.77,1a1.14,1.14,0,0,0,1.89,0c.27-.32.51-.66.77-1a2,2,0,0,1,3.17-.05c.17.19.31.39.46.58.65.83.87,1.25,2.15.69.45.19.35.51.2.84a.74.74,0,0,1-.69.31,1,1,0,0,0-.64,0,1.68,1.68,0,0,1-1.43-.75c-.27-.29-.48-.62-.74-.92a1,1,0,0,0-1.7-.06c-.28.28-.48.62-.74.92a1.81,1.81,0,0,1-1.58.81,1,1,0,0,0-.62,0,1.76,1.76,0,0,1-1.33-.85,5.6,5.6,0,0,0-1.5-1.41c.05-.14,0-.12-.13-.13s0,.1,0,.12a4.68,4.68,0,0,0-1.26,1.25c-.41.5-.83,1-1.58,1a1.23,1.23,0,0,0-.71,0A2.13,2.13,0,0,1,92.83,31a1.6,1.6,0,0,0-1.17-.89.27.27,0,0,1,.08-.07h-.2s0,0,0,.07a1.79,1.79,0,0,0-1.17.89c-1.17,1.88-3,1.9-4.2,0-.76-1.17-1.57-1.2-2.43,0a5.17,5.17,0,0,1-.8.94,1.6,1.6,0,0,1-1.17.47A.62.62,0,0,0,81.26,32.37Zm48.2-.87c-.11-.2.09-.37,0-.57a.24.24,0,0,0-.07-.13l-.2.21a1.18,1.18,0,0,1-2.07,0c-.19-.24-.36-.49-.55-.72a2.05,2.05,0,0,0-3.45,0c-.21.27-.4.55-.62.8a1.16,1.16,0,0,1-2,0A12.18,12.18,0,0,0,119.7,30a1.92,1.92,0,0,0-2.9,0,8.36,8.36,0,0,0-.75.92c-.74.94-1.46.95-2.28,0-.27-.14-.21.2-.35.25s-.11.29-.09.45a1.66,1.66,0,0,0,1.26.77,1,1,0,0,1,.67,0,2.17,2.17,0,0,0,1.55-1.09c.37-.47.69-1,1.32-1.15,0-.05-.06,0-.07-.08s.2,0,.26,0,0,0,0,.05c.71.11,1,.69,1.42,1.18a2.2,2.2,0,0,0,1.45,1,.64.64,0,0,1,.57,0,1.75,1.75,0,0,0,1.4-.71c.32-.37.6-.78.93-1.13a1.07,1.07,0,0,1,1.64,0c.3.3.53.68.81,1a1.88,1.88,0,0,0,1.45.85.67.67,0,0,1,.57,0c.43,0,.67-.24.92-.51A.35.35,0,0,0,129.46,31.5ZM146.08,31a4.75,4.75,0,0,0,.8.94,2,2,0,0,0,2.68-.12.49.49,0,0,0-.22-.32,1.59,1.59,0,0,0-.42-.19,1.21,1.21,0,0,1-1.81-.38c-.26-.32-.49-.66-.78-1a2,2,0,0,0-3,0c-.27.29-.49.62-.74.93-.72.9-1.46.89-2.17,0-.34-.42-.6-.91-1.13-1.14-.26.09-.56.05-.81.21a.2.2,0,0,0,0,.24c.61.2.85.76,1.23,1.19a2.09,2.09,0,0,0,1.39,1,.62.62,0,0,1,.56,0,1.11,1.11,0,0,0,.65-.13,4,4,0,0,0,1.26-1.17C144.43,29.86,145.19,29.84,146.08,31Zm-16.76.46.13.39c.4-.1.57-.46.79-.75a2.27,2.27,0,0,1,1.16-1c.1-.11.22-.11.26,0a2.31,2.31,0,0,1,1.22,1,2.34,2.34,0,0,0,1.66,1.22.94.94,0,0,1,.68,0,2.15,2.15,0,0,0,1.54-1.09c.37-.48.69-1,1.32-1.15,0-.17.14-.07.19-.11a2,2,0,0,1,.55-.09c.32,0,.34-.15.25-.39a1.85,1.85,0,0,0-2.3.39c-.34.35-.61.76-.93,1.13a1.15,1.15,0,0,1-1.92,0c-.27-.31-.5-.67-.77-1a2,2,0,0,0-2.68-.46,3.19,3.19,0,0,0-1,1.16v.11C129.64,31.15,129.22,31.26,129.32,31.48ZM111.49,30a.18.18,0,0,1,.26,0,.42.42,0,0,0,0,.12,2.17,2.17,0,0,1,1.15.89c.09.06.14,0,.19-.06s.06-.25.23-.12a.31.31,0,0,0,.17-.39,2,2,0,0,0-3.1-.7,5.23,5.23,0,0,0-1.23,1.57c.25.24.19.53.14.82a3.31,3.31,0,0,0,1.07-1.1,2,2,0,0,1,1.22-.92Zm38.57,1.29a2.62,2.62,0,0,1,1.36-1.2c-.09-.23.05-.45,0-.68s-.33-.08-.49,0a3,3,0,0,0-1.66,1.51.43.43,0,0,1,0,.13c0,.15-.13.27-.14.42a.21.21,0,0,0,.07.13l.28.25C149.73,31.66,149.91,31.5,150.06,31.31Zm-36.69-.19.08,0c.21.07.13-.28.32-.23a.9.9,0,0,0-.32-.45l-.23.34C113.15,31,113.26,31,113.37,31.12ZM138.5,30c.28-.05.62.13.8-.24,0-.13-.08-.22-.23-.22,0,.24-.14.4-.43.35s-.35-.06-.47.1A.24.24,0,0,0,138.5,30Zm12.95-.58c-.24.12-.09.39-.22.57s.13.07.19.11A.81.81,0,0,0,151.45,29.43Zm-2.53,1.9a.36.36,0,0,0,.36.26v-.11c-.14-.22.33-.33.1-.56h-.08Zm-61.43,0c.11.21.16.55.5.21C87.83,31.47,87.7,31.34,87.49,31.36Zm4.14-1.21,0,0,.14-.07a.29.29,0,0,0-.35,0l.14.07ZM81.82,32.4a.38.38,0,0,0-.56,0A1,1,0,0,0,81.82,32.4ZM98.47,30a.38.38,0,0,0-.43,0l.14.07h.16S98.52,30.06,98.47,30Zm-3.84,2.34a1.21,1.21,0,0,0,.68,0A.54.54,0,0,0,94.63,32.38Zm12.6-.81c-.08,0-.12,0-.09.07a.44.44,0,0,0,.16.14l.12-.1Zm.78.81a.77.77,0,0,0,.56,0A.39.39,0,0,0,108,32.38Zm-6.8,0a1.1,1.1,0,0,0,.57,0A.39.39,0,0,0,101.21,32.37Zm11.67-1.23.45.47c.33-.08.11-.3.12-.47h0c-.21,0-.22-.32-.45-.23l-.14.12A.22.22,0,0,1,112.88,31.14ZM138,30.06l.06.08c.14,0,.27.13.42.08V30h-.33Zm-6.36.08c.05,0,.13,0,.14-.06s-.06-.08-.09-.07-.31-.15-.31.13Zm3.56,2.24a.54.54,0,0,0-.68,0A1.21,1.21,0,0,0,135.22,32.38Zm-16.93-2.24s.18-.08.13-.1a.38.38,0,0,0-.43,0l.14.07Zm-3,2.24a.53.53,0,0,0-.67,0A1.1,1.1,0,0,0,115.26,32.38Zm13.27,0a.4.4,0,0,0-.57,0A.8.8,0,0,0,128.53,32.38Zm-6.8,0a.39.39,0,0,0-.57,0A.93.93,0,0,0,121.73,32.4Zm20,0a.38.38,0,0,0-.56,0A1,1,0,0,0,141.68,32.4Zm-12.36-.92c.06-.19.39-.32.12-.57C129.52,31.12,129.08,31.23,129.32,31.48Zm-17.61-1.34.15-.13a.54.54,0,0,0-.56,0l.25.12Zm26.07-.44c-.18,0-.1.11-.11.18s.06.11.14.07a.94.94,0,0,0,.2-.12A1.14,1.14,0,0,0,137.78,29.7Zm-7.31.39c0-.06.07-.17-.05-.13s-.09.17,0,.34C130.44,30.18,130.46,30.14,130.47,30.09ZM112,29.86c-.24,0-.54-.23-.71.15h.56Zm1.21.94c-.12-.06-.23-.09-.22.11.18,0,.18.39.45.23Zm-2.76-.55a.39.39,0,0,0,.05-.14c0-.06.11-.2-.07-.13s0,.15,0,.24Zm38.92.67c.1.21-.35.32-.1.56C149.32,31.3,149.67,31.17,149.38,30.92Z"/></svg>