<svg id="Layer_1" data-name="Layer 1" xmlns="http://www.w3.org/2000/svg" viewBox="0 0 100 100"><defs><style>.cls-1{fill:#121c42;}.cls-2{fill:#fff;}.cls-3{fill:#e1e3ee;}</style></defs><title>theme template</title><rect class="cls-1" width="28.5" height="100"/><rect class="cls-2" x="3.94" y="11.6" width="17.62" height="1.79"/><rect class="cls-2" x="3.94" y="18.23" width="17.62" height="1.79"/><rect class="cls-2" x="3.94" y="24.87" width="17.62" height="1.79"/><rect class="cls-2" x="3.94" y="31.51" width="17.62" height="1.79"/><rect class="cls-2" x="3.94" y="38.15" width="17.62" height="1.79"/><rect class="cls-2" x="3.94" y="44.79" width="17.62" height="1.79"/><rect class="cls-2" x="3.94" y="51.43" width="17.62" height="1.79"/><rect class="cls-2" x="3.94" y="58.06" width="17.62" height="1.79"/><rect class="cls-2" x="3.94" y="64.7" width="17.62" height="1.79"/><rect class="cls-2" x="3.94" y="71.34" width="17.62" height="1.79"/><rect class="cls-2" x="3.94" y="77.98" width="17.62" height="1.79"/><rect class="cls-2" x="3.94" y="84.62" width="17.62" height="1.79"/><rect class="cls-3" x="28.5" width="71.5" height="100"/><rect class="cls-2" x="35.29" y="20.02" width="57.92" height="72.77" rx="4.63"/><rect class="cls-2" x="35.29" y="5.82" width="57.92" height="9.26" rx="4.34"/></svg>