<svg id="Layer_1" data-name="Layer 1" xmlns="http://www.w3.org/2000/svg" viewBox="0 0 160 40.13"><defs><style>.cls-1{fill:none;}.cls-2{fill:#dfdede;}.cls-3{fill:#848383;}</style></defs><title>1</title><rect class="cls-1" width="160" height="40.13"/><rect class="cls-2" x="11.19" y="16.75" width="53.31" height="5.44"/><rect class="cls-2" x="95.28" y="16.75" width="53.31" height="5.44"/><path class="cls-3" d="M91.89,19.86v.28c-.18.25-.42.44-.62.67A1.75,1.75,0,0,0,91,21a1.81,1.81,0,0,0-.24.24,2.5,2.5,0,0,0-.23.23l-.23.23a1.81,1.81,0,0,0-.24.24l-.23.23-.23.23a2.72,2.72,0,0,0-.24.24l-.23.23a2.5,2.5,0,0,0-.23.23c-.08.08-.16.15-.24.24a1.67,1.67,0,0,0-.23.23,2.5,2.5,0,0,0-.23.23c-.08.08-.16.15-.23.23a1.81,1.81,0,0,0-.24.24,2.5,2.5,0,0,0-.23.23l-.23.23a1.81,1.81,0,0,0-.24.24l-.23.23-.23.23-.24.24a1.67,1.67,0,0,0-.23.23,2.5,2.5,0,0,0-.23.23c-.08.08-.16.15-.24.24a1.67,1.67,0,0,0-.23.23,2.5,2.5,0,0,0-.23.23L85,27.1a1.81,1.81,0,0,0-.24.24,2.5,2.5,0,0,0-.23.23c-.08.08-.16.15-.24.24a2.72,2.72,0,0,0-.24.24,3.44,3.44,0,0,0-.27.27.85.85,0,0,1-.83.33c-.53,0-1.06,0-1.59,0H78.51c-.11,0-.26,0-.31-.09s.09-.2.16-.27l8.06-8.06c.21-.21.21-.22,0-.44L83.63,17c-.25-.25-.49-.5-.74-.74a1.48,1.48,0,0,0-.25-.25c-.15-.16-.3-.32-.46-.46a1.36,1.36,0,0,0-.24-.24c-.15-.16-.3-.32-.46-.46a1.36,1.36,0,0,0-.24-.24c-.15-.16-.3-.32-.46-.46s-.17-.16-.24-.25-.39-.4-.6-.59-.3-.32-.46-.47-.22-.23-.34-.33-.4-.41-.61-.61-.22-.19-.28-.33.06-.15.15-.17h.14c1.54,0,3.07,0,4.61,0a.64.64,0,0,1,.49.2l4.78,4.79c.1.11.21.2.31.3s.16.16.24.24l.23.24.23.23c.08.08.17.15.24.23s.16.15.23.23a2.72,2.72,0,0,0,.24.24,1.62,1.62,0,0,0,.19.18,2.4,2.4,0,0,0,.27.28c.07.09.16.15.24.24A1.09,1.09,0,0,0,91,19a2.4,2.4,0,0,0,.27.28l.28.29A2.42,2.42,0,0,1,91.89,19.86ZM74.65,17.3a.66.66,0,0,1,.27.3c.14,0,.21.16.29.26a.41.41,0,0,1,.18.19.41.41,0,0,1,.19.18.81.81,0,0,1,.28.3,1,1,0,0,1,.33.31.16.16,0,0,1,.09.09.72.72,0,0,1,.23.23.8.8,0,0,1,.28.3.9.9,0,0,1,.33.31c.08.09.28.14.14.33a1.24,1.24,0,0,1-.28.28.84.84,0,0,1-.23.23.66.66,0,0,1-.24.23.76.76,0,0,1-.23.24.84.84,0,0,1-.23.23.76.76,0,0,1-.24.23.63.63,0,0,1-.23.23.76.76,0,0,1-.23.24,1.44,1.44,0,0,1-.33.32.18.18,0,0,1-.09.1c-.08.1-.14.2-.28.23s-.14.2-.24.28a.72.72,0,0,1-.23.23.88.88,0,0,1-.23.24.76.76,0,0,1-.24.23,10172790865842.79,10172790865842.79,0,0,1-.46.46.76.76,0,0,1-.23.24.88.88,0,0,1-.24.23.72.72,0,0,1-.23.23.76.76,0,0,1-.23.24.88.88,0,0,1-.24.23,1,1,0,0,1-.29.28c0,.11-.14.16-.23.23a.37.37,0,0,1-.18.19,1.07,1.07,0,0,1-.28.28.45.45,0,0,1-.18.18,1.1,1.1,0,0,1-.29.28.76.76,0,0,1-.23.24.52.52,0,0,1-.18.18.78.78,0,0,1-.24.24,45777558896274.38,45777558896274.38,0,0,1-.46.46,2.38,2.38,0,0,1-.42.42l0,.08c-.06.07-.19.12-.16.21s.18.05.28.05H73.8a1,1,0,0,0,.34,0,6.51,6.51,0,0,1,.54-.51,1.76,1.76,0,0,1,.43-.43l1.2-1.22c.64-.63,1.26-1.29,1.92-1.9a.52.52,0,0,1,.18-.18.62.62,0,0,1,.24-.24l1.17-1.19L81.73,21a.76.76,0,0,1,.23-.24l.09-.09a1.52,1.52,0,0,1,.38-.38c.23-.28.23-.28,0-.54l-2.56-2.56-2.07-2.1a.69.69,0,0,1-.24-.24.24.24,0,0,1-.13-.13.88.88,0,0,1-.24-.23,1.72,1.72,0,0,1-.33-.33.91.91,0,0,1-.24-.24,3.33,3.33,0,0,1-.46-.46l-1.95-1.92a.37.37,0,0,0-.23,0c-.36,0-.72,0-1.09,0-.89,0-1.78,0-2.67,0a.53.53,0,0,1-.25,0l-.92,0c-.06,0-.19-.06-.14.11l.18.19a.75.75,0,0,1,.27.29.66.66,0,0,1,.28.27.41.41,0,0,1,.19.18.58.58,0,0,1,.19.19.66.66,0,0,1,.27.3.82.82,0,0,1,.33.31.13.13,0,0,1,.1.09.84.84,0,0,1,.23.23.81.81,0,0,1,.28.3c.13,0,.2.16.28.26a.58.58,0,0,1,.19.19.45.45,0,0,1,.18.18.89.89,0,0,1,.28.3,1.08,1.08,0,0,1,.33.31.2.2,0,0,1,.09.09.72.72,0,0,1,.23.23,1,1,0,0,1,.28.29.88.88,0,0,1,.24.23.84.84,0,0,1,.23.23.58.58,0,0,1,.19.19.69.69,0,0,1,.27.29.9.9,0,0,1,.33.31.17.17,0,0,1,.1.1A.72.72,0,0,1,74.65,17.3Z"/></svg>