<svg id="Layer_1" data-name="Layer 1" xmlns="http://www.w3.org/2000/svg" viewBox="0 0 160 40.13"><defs><style>.cls-1{fill:none;}.cls-2{fill:#dfdede;}.cls-3{fill:#848383;}</style></defs><title>6</title><rect class="cls-1" width="160" height="40.13"/><rect class="cls-2" x="11.19" y="16.75" width="53.31" height="5.44"/><rect class="cls-2" x="95.28" y="16.75" width="53.31" height="5.44"/><path class="cls-3" d="M86.75,19.85v.28c-.19.24-.43.43-.63.66a1.36,1.36,0,0,0-.24.24,2.5,2.5,0,0,0-.23.23,1.81,1.81,0,0,0-.24.24,1.67,1.67,0,0,0-.23.23A2.5,2.5,0,0,0,85,22a2.66,2.66,0,0,0-.24.23,2.61,2.61,0,0,0-.23.24,2.5,2.5,0,0,0-.23.23,7.81,7.81,0,0,0-.47.47l-.23.23-.24.23a2.61,2.61,0,0,0-.23.24,1.67,1.67,0,0,0-.23.23,2.5,2.5,0,0,0-.23.23,2.66,2.66,0,0,0-.24.23,2.61,2.61,0,0,0-.23.24,2.5,2.5,0,0,0-.23.23,1.75,1.75,0,0,0-.24.23,2.61,2.61,0,0,0-.23.24l-.23.23-.24.23a2.61,2.61,0,0,0-.23.24,1.67,1.67,0,0,0-.23.23l-.24.23a2.61,2.61,0,0,0-.23.24,1.67,1.67,0,0,0-.23.23,2.5,2.5,0,0,0-.23.23,2.66,2.66,0,0,0-.24.23,2.61,2.61,0,0,0-.23.24l-.25.24-.27.27a.86.86,0,0,1-.82.34c-.53,0-1.07,0-1.6,0H73.36c-.11,0-.26,0-.31-.08s.09-.2.17-.28l8-8c.22-.22.22-.22,0-.44-.92-.94-1.85-1.86-2.79-2.79-.24-.25-.48-.5-.73-.74-.07-.09-.17-.16-.25-.25s-.31-.31-.47-.46a1.36,1.36,0,0,0-.24-.24c-.14-.16-.3-.31-.46-.46a1.36,1.36,0,0,0-.24-.24c-.14-.16-.3-.31-.46-.46s-.17-.15-.24-.24-.39-.41-.6-.6l-.46-.47c-.11-.11-.21-.23-.33-.33s-.4-.41-.61-.6-.23-.2-.29-.34.06-.15.15-.16h.14c1.54,0,3.08,0,4.61,0a.64.64,0,0,1,.49.21l4.79,4.78c.09.11.21.2.3.31a2.72,2.72,0,0,1,.24.24c.08.08.16.15.23.23l.24.24c.07.08.16.15.23.23s.16.15.24.23.16.15.23.23.13.12.19.19.19.18.28.28.16.15.23.23.13.12.19.19.19.18.28.28.19.18.27.28A1.72,1.72,0,0,1,86.75,19.85Z"/></svg>