<svg id="Layer_1" data-name="Layer 1" xmlns="http://www.w3.org/2000/svg" viewBox="0 0 240 90"><defs><style>.cls-1,.cls-2{fill:none;}.cls-2{stroke:#cfcfce;stroke-miterlimit:10;stroke-width:3.46px;}.cls-3{fill:#d0d0ce;}</style></defs><title>1</title><rect class="cls-1" width="240" height="90"/><rect class="cls-2" x="143.35" y="12.43" width="65.14" height="65.14" rx="10.81"/><path class="cls-3" d="M38.37,45.9c-.07-.69-.77-1.07-.87-1.74a17.21,17.21,0,0,1-.36-2.86,6.4,6.4,0,0,1,1.19-3.39,5.73,5.73,0,0,1,5.93-2.21,2.59,2.59,0,0,0,1,0,2.23,2.23,0,0,1,1.74.84,6.07,6.07,0,0,0,1.52,1.79,13.69,13.69,0,0,0,1.72,1.77c.57.59,1.22,1.11,1.78,1.71s1.17,1.18,1.76,1.77.94,1.35,1.69,1.77c.59.57,1.22,1.11,1.79,1.7s1.17,1.18,1.76,1.76.94,1.36,1.69,1.78a8.52,8.52,0,0,0,1.86,1.53,1.5,1.5,0,0,0,.42,0c.56-.15.85-.65,1.23-1q2.26-2.23,4.5-4.5c.61-.58,1.2-1.18,1.78-1.78,1.17-1.14,2.32-2.31,3.47-3.47.6-.57,1.19-1.17,1.77-1.77,1.17-1.14,2.31-2.3,3.46-3.46.61-.58,1.19-1.17,1.77-1.77,1.17-1.14,2.32-2.31,3.47-3.47.61-.57,1.19-1.17,1.78-1.78,1.19-1.18,2.38-2.35,3.54-3.56a14.14,14.14,0,0,1,2.84-2.45,6.49,6.49,0,0,1,4.68-.69,5,5,0,0,0,1.5.52c.44,0,.65.38,1,.49l.75.84c.24.78.63,1.5.93,2.26.82,2.09,0,3.75-1.09,5.4-.14.2-.41.32-.34.63l-.42.61-.89.9c-.36,1-1.29,1.53-2,2.26s-1.45,1.49-2.18,2.23c-.33.3-.65.62-1,1-1.46,1.39-2.88,2.83-4.28,4.28-.33.31-.65.62-.95.95-1.47,1.39-2.88,2.83-4.29,4.28l-1,1c-1.46,1.4-2.88,2.83-4.28,4.29-.33.3-.64.62-.95.95-1.46,1.39-2.88,2.83-4.28,4.28-.33.31-.65.62-1,1-1.48,1.41-2.91,2.85-4.32,4.32a6.55,6.55,0,0,0-1,1,6.48,6.48,0,0,1-6.26,1.73,8.1,8.1,0,0,1-3.66-2.43c-1.81-1.56-3.44-3.3-5.14-5-2.78-2.74-5.44-5.6-8.31-8.25a26.46,26.46,0,0,1-2.86-3.12,3.21,3.21,0,0,0-.74-.63A6,6,0,0,1,38.37,45.9Z"/></svg>