<svg id="Layer_1" data-name="Layer 1" xmlns="http://www.w3.org/2000/svg" viewBox="0 0 240 90"><defs><style>.cls-1,.cls-2{fill:none;}.cls-2,.cls-3{stroke:#cfcfce;stroke-miterlimit:10;stroke-width:3.46px;}.cls-3{fill:#d0d0ce;}.cls-4{fill:#fff;}</style></defs><title>2</title><rect class="cls-1" width="240" height="90"/><rect class="cls-2" x="143.35" y="12.43" width="65.14" height="65.14" rx="32.57"/><rect class="cls-3" x="36.88" y="12.43" width="65.14" height="65.14" rx="32.57"/><path class="cls-4" d="M47.17,46.73c-.05-.45-.51-.7-.58-1.15a12.19,12.19,0,0,1-.24-1.9,4.32,4.32,0,0,1,.8-2.26A3.78,3.78,0,0,1,51.09,40a2.28,2.28,0,0,0,.64,0,1.47,1.47,0,0,1,1.15.55,3.86,3.86,0,0,0,1,1.19A8.55,8.55,0,0,0,55,42.9c.38.4.8.74,1.18,1.14s.78.78,1.17,1.17.62.9,1.12,1.18.81.74,1.19,1.13.78.78,1.17,1.17.63.91,1.13,1.18a5.48,5.48,0,0,0,1.23,1,1.33,1.33,0,0,0,.28,0c.38-.1.56-.43.82-.68,1-1,2-2,3-3,.41-.39.8-.78,1.19-1.19l2.3-2.3c.4-.38.79-.78,1.18-1.18.77-.76,1.53-1.53,2.3-2.3.4-.38.79-.78,1.18-1.18l2.3-2.3c.4-.38.79-.78,1.18-1.18.79-.79,1.59-1.57,2.36-2.37a9,9,0,0,1,1.89-1.63,4.25,4.25,0,0,1,3.1-.46,3.29,3.29,0,0,0,1,.34c.29,0,.44.26.68.34l.49.55c.16.52.42,1,.62,1.5a3.63,3.63,0,0,1-.73,3.59c-.08.14-.26.22-.22.42l-.28.41-.59.6c-.24.66-.86,1-1.3,1.5s-1,1-1.45,1.48q-.33.3-.63.63c-1,.93-1.92,1.88-2.85,2.85q-.33.3-.63.63c-1,.92-1.92,1.88-2.85,2.85q-.33.3-.63.63c-1,.92-1.92,1.88-2.85,2.84-.22.21-.43.42-.63.64-1,.92-1.92,1.88-2.85,2.84l-.63.63c-1,.94-1.93,1.9-2.87,2.88a4.5,4.5,0,0,0-.66.65,4.3,4.3,0,0,1-4.16,1.15,5.41,5.41,0,0,1-2.43-1.62c-1.2-1-2.29-2.19-3.42-3.3-1.84-1.82-3.61-3.72-5.52-5.49A16.2,16.2,0,0,1,49,48.63a2.53,2.53,0,0,0-.5-.42A3.9,3.9,0,0,1,47.17,46.73Z"/></svg>