<svg id="Layer_1" data-name="Layer 1" xmlns="http://www.w3.org/2000/svg" viewBox="0 0 240 90"><defs><style>.cls-1,.cls-2{fill:none;}.cls-2,.cls-3{stroke:#cfcfce;stroke-miterlimit:10;stroke-width:3.46px;}.cls-3{fill:#d0d0ce;}.cls-4{fill:#fff;}</style></defs><title>3</title><rect class="cls-1" width="240" height="90"/><rect class="cls-2" x="143.35" y="12.43" width="65.14" height="65.14"/><rect class="cls-3" x="36.88" y="12.43" width="65.14" height="65.14"/><path class="cls-4" d="M47.22,45.64c0-.49-.55-.76-.62-1.24a11.74,11.74,0,0,1-.26-2,4.63,4.63,0,0,1,.85-2.43,4.07,4.07,0,0,1,4.24-1.58,2,2,0,0,0,.69,0,1.57,1.57,0,0,1,1.24.6,4.47,4.47,0,0,0,1.09,1.28,9.91,9.91,0,0,0,1.24,1.27c.4.42.86.79,1.27,1.22s.83.85,1.26,1.26.67,1,1.2,1.27.87.79,1.28,1.22.84.84,1.26,1.26.68,1,1.21,1.27a6.39,6.39,0,0,0,1.33,1.1,1.51,1.51,0,0,0,.3,0c.4-.11.61-.46.88-.73,1.08-1.06,2.15-2.14,3.22-3.22.44-.41.86-.84,1.28-1.27.83-.82,1.65-1.65,2.47-2.48.44-.41.86-.84,1.27-1.26.84-.82,1.66-1.65,2.48-2.48.43-.41.85-.84,1.26-1.27.84-.82,1.66-1.65,2.48-2.48.44-.41.86-.84,1.27-1.27.86-.84,1.71-1.68,2.54-2.55a9.73,9.73,0,0,1,2-1.75,4.59,4.59,0,0,1,3.34-.49,3.71,3.71,0,0,0,1.08.36c.31,0,.47.28.73.36l.53.6c.17.56.45,1.07.67,1.61.58,1.5,0,2.69-.79,3.87-.09.14-.29.23-.24.45l-.3.43-.64.65c-.25.72-.92,1.09-1.4,1.61s-1,1.07-1.56,1.6c-.23.22-.46.44-.68.68-1,1-2.06,2-3.06,3.06-.23.22-.46.45-.68.68-1,1-2.06,2-3.06,3.06-.24.22-.46.45-.68.68-1,1-2.06,2-3.07,3.07-.23.22-.46.44-.68.68-1,1-2.06,2-3.06,3.06-.23.22-.46.44-.68.68-1,1-2.08,2-3.09,3.09a4.63,4.63,0,0,0-.7.7,4.65,4.65,0,0,1-4.48,1.24,5.88,5.88,0,0,1-2.62-1.74c-1.29-1.11-2.46-2.36-3.67-3.56-2-2-3.89-4-5.95-5.9a18,18,0,0,1-2-2.23,2.35,2.35,0,0,0-.54-.45A4.32,4.32,0,0,1,47.22,45.64Z"/></svg>