<svg id="Layer_1" data-name="Layer 1" xmlns="http://www.w3.org/2000/svg" viewBox="0 0 240 90"><defs><style>.cls-1,.cls-2{fill:none;}.cls-2,.cls-3{stroke:#cfcfce;stroke-miterlimit:10;stroke-width:3.46px;}.cls-3{fill:#d0d0ce;}.cls-4{fill:#fff;}</style></defs><title>4</title><rect class="cls-1" width="240" height="90"/><rect class="cls-2" x="143.35" y="12.43" width="65.14" height="65.14" rx="10.81"/><rect class="cls-3" x="36.88" y="12.43" width="65.14" height="65.14" rx="10.81"/><path class="cls-4" d="M45.16,45.7c0-.54-.6-.83-.68-1.36a14,14,0,0,1-.28-2.23,5.08,5.08,0,0,1,.93-2.65,4.47,4.47,0,0,1,4.64-1.73,2.11,2.11,0,0,0,.75,0,1.7,1.7,0,0,1,1.35.65,4.72,4.72,0,0,0,1.19,1.4,10.36,10.36,0,0,0,1.35,1.38c.45.47,1,.87,1.39,1.34s.92.92,1.38,1.38S57.91,45,58.5,45.3s.94.86,1.39,1.32.92.93,1.38,1.38.74,1.07,1.32,1.39A6.67,6.67,0,0,0,64,50.59l.33,0c.44-.12.66-.51,1-.8,1.18-1.16,2.35-2.34,3.52-3.52.48-.45.94-.92,1.39-1.39.92-.89,1.81-1.8,2.71-2.7.47-.45.93-.92,1.39-1.39.91-.89,1.8-1.8,2.7-2.7.47-.45.93-.92,1.38-1.39.92-.89,1.81-1.8,2.71-2.71.48-.45.94-.92,1.39-1.39.93-.92,1.86-1.84,2.77-2.78a11.31,11.31,0,0,1,2.22-1.92,5.06,5.06,0,0,1,3.65-.53,4.44,4.44,0,0,0,1.18.4c.34,0,.51.3.79.39l.58.65c.19.61.5,1.17.73,1.77.64,1.63,0,2.93-.85,4.21-.11.16-.32.26-.27.5l-.32.47-.7.71c-.28.78-1,1.19-1.53,1.76S89.63,39.43,89.06,40c-.25.23-.5.48-.74.74C87.18,41.84,86.07,43,85,44.09q-.39.36-.75.75c-1.14,1.08-2.25,2.21-3.34,3.34q-.39.36-.75.75C79,50,77.89,51.14,76.8,52.27c-.26.24-.51.49-.75.74-1.14,1.09-2.25,2.22-3.34,3.35-.26.24-.5.49-.74.74-1.16,1.1-2.28,2.23-3.38,3.38a5,5,0,0,0-.77.76,5.07,5.07,0,0,1-4.89,1.36,6.31,6.31,0,0,1-2.86-1.9c-1.42-1.22-2.69-2.58-4-3.89-2.17-2.14-4.25-4.37-6.49-6.44a20.7,20.7,0,0,1-2.24-2.44,2.48,2.48,0,0,0-.58-.49A4.65,4.65,0,0,1,45.16,45.7Z"/></svg>